<svg width="591" height="420" viewBox="0 0 591 420" fill="none" xmlns="http://www.w3.org/2000/svg">
<g clip-path="url(#clip0_328_1482)">
<mask id="mask0_328_1482" style="mask-type:luminance" maskUnits="userSpaceOnUse" x="0" y="0" width="591" height="420">
<path d="M591 0H0V420H591V0Z" fill="white"/>
</mask>
<g mask="url(#mask0_328_1482)">
<path d="M294.052 15.0302C237.91 16.018 195.145 43.9646 160.086 82.4173C147.095 96.6581 130.207 109.997 120.423 126.922C105.689 152.405 100.979 183.143 101.53 214.448C102.081 245.753 103.529 275.772 114.001 301.342C122.308 321.599 137.381 338.686 154.356 354.18C172.917 371.116 198.652 381.945 225.509 391.204C250.313 399.749 275.922 407.41 300.948 406.97C322.325 406.593 343.433 402.921 362.133 395.331C382.729 386.988 400.625 374.111 417.708 360.488C442.958 340.361 459.063 313.193 472.405 284.204C483.368 260.418 493.972 236.097 493.469 207.552C492.904 175.417 490.204 143.019 478.301 116.275C469.586 96.7048 454.618 81.0757 438.626 66.2748C420.315 49.3443 395.023 39.2076 369.244 30.4198C344.643 22.0213 319.748 14.5781 294.052 15.0302Z" fill="#F1F4FE"/>
<g opacity="0.4">
<path d="M258.666 186.34C268.606 186.34 276.666 194.32 276.666 204.17C276.666 214.02 268.606 222 258.666 222C253.246 222 235.116 222 228.896 222C215.516 222 204.666 211.25 204.666 198C204.666 184.75 215.516 174 228.896 174C238.696 174 247.136 179.76 250.956 188.06C253.296 186.96 255.906 186.34 258.666 186.34Z" fill="#BFCEFF"/>
</g>
<g opacity="0.4">
<path d="M209.602 101C204.222 101 199.862 96.65 199.862 91.29C199.862 85.92 204.222 81.57 209.602 81.57C210.662 81.57 211.682 81.74 212.642 82.05C213.612 73.58 220.822 67 229.582 67C239.002 67 246.632 74.61 246.632 84C246.632 84.06 246.632 84.11 246.632 84.17C247.182 84.06 247.752 84 248.332 84C253.042 84 256.862 87.81 256.862 92.5C256.862 97.19 253.042 101 248.332 101C245.162 101 213.112 101 209.602 101Z" fill="#BFCEFF"/>
</g>
<g opacity="0.01344">
<path d="M122.557 303C118.127 303 114.537 299.34 114.537 294.83C114.537 290.32 118.127 286.66 122.557 286.66C124.167 286.66 125.677 287.14 126.927 287.98C127.017 279.85 133.517 273.29 141.507 273.29C144.187 273.29 146.697 274.02 148.857 275.3C149.707 261.74 160.787 251 174.317 251C183.907 251 192.257 256.39 196.617 264.36C199.687 262.48 203.287 261.4 207.127 261.4C218.397 261.4 227.537 270.71 227.537 282.2C227.537 293.69 218.397 303 207.127 303C201.017 303 126.087 303 122.557 303Z" fill="#BFCEFF"/>
</g>
<path d="M109.5 226.24V157.76L57.34 226.24H109.5ZM13.5 268.48V217.28L99.9 104H160.06V226.24H193.34V268.48H160.06V311.68H109.5V268.48H13.5Z" fill="#265BFF"/>
<path d="M499.64 226.24V157.76L447.48 226.24H499.64ZM403.64 268.48V217.28L490.04 104H550.2V226.24H583.48V268.48H550.2V311.68H499.64V268.48H403.64Z" fill="#265BFF"/>
<path d="M307.394 312.11L305.666 312.033C305.596 312.03 305.534 312.067 305.481 312.125L301.727 316.843C301.685 316.901 301.623 316.938 301.553 316.935C301.493 316.932 301.425 316.889 301.388 316.827L299.212 313.547C299.175 313.485 299.116 313.453 299.046 313.45L297.717 313.39C297.657 313.388 297.596 313.415 297.543 313.473L296.407 314.934C296.376 314.972 296.363 315.022 296.381 315.072C296.399 315.113 296.438 315.145 296.478 315.147L297.427 315.189L298.356 315.231L301.207 319.752C301.245 319.814 301.303 319.847 301.373 319.85L301.473 319.854C301.533 319.857 301.604 319.83 301.647 319.772L307.474 312.344C307.505 312.306 307.518 312.246 307.5 312.195C307.482 312.144 307.444 312.113 307.394 312.11ZM297.895 315.691L297.346 315.666L297.09 321.39C297.083 321.54 297.188 321.665 297.328 321.671L298.826 321.738C298.966 321.744 299.081 321.629 299.088 321.479L299.257 317.693L297.895 315.691ZM304.233 318.336L304.082 321.732C304.076 321.862 304.181 321.977 304.321 321.983L305.819 322.05C305.959 322.056 306.074 321.951 306.08 321.821L306.337 316.067L304.233 318.336Z" fill="#6979A8"/>
<path d="M282.572 297.644C282.083 297.622 281.626 297.321 281.427 296.842L230.715 171.018C230.444 170.355 230.768 169.599 231.42 169.338C232.083 169.067 232.839 169.391 233.1 170.053L283.822 295.878C284.083 296.53 283.769 297.287 283.107 297.558C282.934 297.62 282.742 297.651 282.572 297.644Z" fill="#6A79A8"/>
<path d="M305.319 220.815C295.779 220.39 286.452 218.322 277.788 214.632C264.742 209.075 253.358 200.389 244.875 189.51C243.322 187.509 241.835 185.411 240.448 183.277C240.065 182.679 240.23 181.886 240.828 181.492C241.426 181.108 242.229 181.274 242.613 181.872C243.952 183.944 245.403 185.98 246.908 187.919C255.126 198.456 266.152 206.866 278.804 212.255C295.749 219.477 315.333 220.271 333.948 214.505C351.914 208.94 367.838 197.759 378.785 183.042C379.211 182.471 380.017 182.347 380.589 182.772C381.16 183.198 381.284 184.005 380.859 184.576C369.582 199.739 353.203 211.24 334.709 216.971C325.016 219.972 315.059 221.25 305.319 220.815Z" fill="#6A79A8"/>
<path d="M311.257 330.346L290.818 329.435C286.542 329.244 283.099 325.877 282.819 321.6L281.267 298.048C281.219 297.345 281.757 296.729 282.469 296.68C283.172 296.632 283.789 297.17 283.837 297.882L285.389 321.425C285.587 324.397 287.966 326.725 290.933 326.857L311.372 327.769C314.099 327.891 316.438 325.953 316.829 323.258L320.462 297.915C320.478 297.775 320.524 297.647 320.589 297.52L378.671 183.226C378.989 182.59 379.771 182.334 380.407 182.663C381.034 182.981 381.29 183.753 380.971 184.39L322.978 298.498L319.385 323.622C318.805 327.64 315.313 330.527 311.257 330.346Z" fill="#6A79A8"/>
<path d="M301.668 308.831C289.979 308.31 281.014 303.515 281.264 297.911C281.514 292.306 290.871 288.33 302.559 288.851C303.268 288.883 303.822 289.488 303.79 290.197C303.759 290.907 303.153 291.46 302.444 291.428C293.803 291.043 284.036 293.66 283.842 298.026C283.647 302.391 293.141 305.868 301.783 306.254C310.424 306.639 320.18 304.021 320.375 299.656C320.47 297.518 317.862 295.179 313.56 293.556C312.891 293.306 312.554 292.56 312.804 291.891C313.054 291.221 313.799 290.894 314.469 291.144C320.011 293.233 323.104 296.384 322.952 299.771C322.702 305.375 313.356 309.352 301.668 308.831Z" fill="#6A79A8"/>
<path d="M296.993 291.182C296.383 291.155 295.863 290.691 295.771 290.067L286.902 221.864C286.813 221.16 287.313 220.511 288.017 220.423C288.712 220.333 289.371 220.823 289.459 221.538L298.329 289.73C298.427 290.435 297.928 291.084 297.223 291.173C297.142 291.189 297.073 291.186 296.993 291.182Z" fill="#6A79A8"/>
<path d="M305.07 308.85C305.02 308.847 304.971 308.835 304.921 308.833C304.215 308.721 303.744 308.06 303.855 307.354L317.395 222.854C317.506 222.149 318.168 221.678 318.874 221.789C319.58 221.901 320.051 222.562 319.939 223.268L306.4 307.758C306.291 308.414 305.719 308.879 305.07 308.85Z" fill="#6A79A8"/>
<path d="M392.764 145.347C391.562 201.909 327.394 241.278 275.784 219.286C263.122 213.897 251.848 205.416 243.374 194.547C225.414 171.494 219.507 139.67 230.589 112.277C251.862 59.7131 325.173 37.7488 367.119 79.6195C384.474 96.9301 393.283 121.377 392.764 145.347Z" fill="#265BFF"/>
<g opacity="0.3">
<path d="M300.562 211.331C291.671 210.934 284.78 203.4 285.177 194.508C285.574 185.607 293.108 178.716 301.999 179.113C323.897 180.09 342.515 163.053 343.492 141.145C343.65 137.619 343.346 134.102 342.587 130.704C340.662 122.01 346.142 113.396 354.827 111.461C363.521 109.527 372.126 115.005 374.06 123.7C375.426 129.867 375.984 136.218 375.7 142.582C373.93 182.262 340.222 213.1 300.562 211.331Z" fill="#1F41B3"/>
</g>
<path d="M284.965 79.3367C283.936 79.2908 282.994 78.6382 282.64 77.6013C282.18 76.2595 282.886 74.7895 284.238 74.3193C288.173 72.9534 292.273 71.9251 296.416 71.2591C297.828 71.0418 299.147 71.9915 299.374 73.403C299.601 74.8145 298.641 76.1331 297.23 76.3604C293.379 76.9793 289.572 77.9306 285.922 79.1992C285.607 79.3053 285.285 79.3509 284.965 79.3367Z" fill="#7296FE"/>
<path d="M244.784 172.675C243.845 172.633 242.959 172.073 242.539 171.153C239.982 165.434 238.17 159.377 237.177 153.136C232.748 125.432 245.012 97.5609 268.433 82.1196C269.619 81.3317 271.216 81.6632 272.004 82.8594C272.781 84.0453 272.46 85.6425 271.264 86.43C249.534 100.756 238.16 126.614 242.269 152.313C243.191 158.109 244.872 163.74 247.248 169.041C247.831 170.338 247.252 171.864 245.955 172.447C245.567 172.62 245.173 172.692 244.784 172.675Z" fill="#7296FE"/>
</g>
</g>
<defs>
<clipPath id="clip0_328_1482">
<rect width="591" height="420" fill="white"/>
</clipPath>
</defs>
</svg>
