
<svg width="323" height="323" viewBox="0 0 323 323" fill="none" xmlns="http://www.w3.org/2000/svg">
<path d="M265.765 156.267C265.958 155.621 266.023 154.717 265.377 154.588C265.183 154.588 264.925 154.588 264.731 154.717C261.372 156.138 259.757 159.82 258.465 163.18C257.496 165.699 256.527 168.348 256.591 171.061C256.656 172.805 257.948 175.26 259.821 173.322C261.436 171.642 262.082 167.314 262.793 165.182C263.827 162.146 264.86 159.174 265.765 156.267Z" fill="white"/>
<path d="M258.529 174.42C258.335 174.42 258.142 174.355 257.948 174.291C256.85 173.903 256.204 172.288 256.139 170.996C256.01 168.089 257.108 165.247 258.012 162.921C259.434 159.304 261.049 155.621 264.472 154.2C264.731 154.071 265.054 154.006 265.377 154.071C265.7 154.136 265.958 154.329 266.087 154.588C266.346 155.169 266.346 155.815 266.152 156.397C265.248 159.368 264.214 162.34 263.245 165.247C263.051 165.828 262.857 166.668 262.599 167.508C262.018 169.769 261.372 172.353 260.144 173.58C259.757 174.097 259.175 174.355 258.529 174.42ZM265.183 154.975C265.054 154.975 264.989 155.04 264.86 155.04C261.759 156.332 260.209 159.82 258.852 163.244C258.012 165.505 256.914 168.218 257.043 170.932C257.108 171.901 257.56 173.193 258.271 173.386C258.658 173.516 259.046 173.322 259.498 172.87C260.532 171.771 261.178 169.252 261.759 167.185C261.953 166.345 262.211 165.505 262.405 164.859C263.374 161.952 264.408 158.981 265.312 156.009C265.441 155.686 265.441 155.298 265.312 154.975C265.312 155.04 265.248 154.975 265.183 154.975Z" fill="#231F20"/>
<path d="M78.5536 183.335C78.5536 183.335 53.3596 209.95 52.5844 213.955C51.8092 217.96 102.972 252.328 102.972 252.328C102.972 252.328 101.357 254.912 101.939 260.144C102.52 265.377 102.972 268.542 102.972 268.542C102.972 268.542 94.7682 266.927 95.9956 269.511C97.223 272.095 106.784 274.098 108.786 273.129C110.466 272.16 112.081 270.997 113.567 269.705V245.286C113.567 243.284 86.7578 216.345 86.7578 216.345L101.551 201.552" fill="white"/>
<path d="M106.978 273.775C104.523 273.71 102.068 273.193 99.7425 272.418C98.1274 271.837 96.1249 270.932 95.5434 269.705C95.285 269.253 95.3497 268.736 95.6081 268.348C96.5771 267.121 100.647 267.638 102.391 267.961C102.262 266.798 101.939 264.02 101.487 260.209C100.97 256.01 101.939 253.426 102.326 252.521C93.0241 246.255 51.2924 217.96 52.1322 213.891C52.972 209.821 77.1971 184.175 78.2307 183.076C78.4245 182.883 78.6829 182.883 78.8767 183.076C79.0705 183.27 79.0705 183.529 78.8767 183.722C71.8999 191.087 53.618 210.919 53.0366 214.084C52.649 216.539 78.5537 235.467 103.231 252.005C103.425 252.134 103.489 252.392 103.36 252.651C103.36 252.651 101.874 255.235 102.456 260.144C103.037 265.312 103.489 268.542 103.489 268.542C103.489 268.671 103.425 268.801 103.36 268.93C103.231 269.059 103.102 269.059 102.972 269.059C100.259 268.542 96.9647 268.348 96.4479 268.994C96.3833 269.059 96.3187 269.124 96.4479 269.382C96.7709 270.093 98.1275 270.932 100.13 271.643C103.618 272.87 107.624 273.258 108.593 272.741C110.208 271.837 111.758 270.739 113.179 269.511V245.351C112.856 243.671 96.6417 226.875 86.4995 216.733C86.3056 216.539 86.3056 216.281 86.4995 216.087L101.293 201.294C101.487 201.1 101.745 201.1 101.939 201.294C102.133 201.487 102.133 201.746 101.939 201.94L87.4684 216.41C94.1222 223.128 114.084 243.413 114.084 245.351V269.77C114.084 269.899 114.019 270.028 113.954 270.093C112.469 271.385 110.789 272.547 109.045 273.581C108.27 273.71 107.624 273.839 106.978 273.775Z" fill="#231F20"/>
<path d="M207.043 199.743C207.043 199.743 215.699 249.227 230.816 242.896C245.932 236.565 254.589 183.335 254.589 183.335L239.537 185.079L230.557 205.105L219.834 170.996L207.043 199.743Z" fill="white"/>
<path d="M228.167 243.93C226.94 243.93 225.712 243.607 224.614 242.961C219.769 240.312 215.247 232.237 211.242 218.929C209.369 212.663 207.818 206.268 206.591 199.808C206.591 199.743 206.591 199.614 206.591 199.549L219.382 170.802C219.446 170.609 219.64 170.544 219.834 170.544C220.028 170.544 220.157 170.673 220.221 170.867L230.557 203.878L239.085 184.95C239.149 184.821 239.278 184.691 239.408 184.691L254.524 182.883C254.653 182.883 254.782 182.947 254.912 183.012C255.041 183.141 255.041 183.27 255.041 183.399C253.426 192.637 251.359 201.81 248.839 210.854C243.413 229.718 237.405 240.635 231.01 243.284C230.105 243.671 229.136 243.865 228.167 243.93ZM207.495 199.808C207.947 202.263 214.278 236.307 225.066 242.185C226.746 243.219 228.878 243.284 230.622 242.508C244.511 236.759 253.038 189.73 254.007 183.852L239.795 185.531L230.88 205.299C230.816 205.493 230.622 205.557 230.428 205.557C230.234 205.557 230.105 205.428 230.041 205.234L219.705 172.224L207.495 199.808Z" fill="#231F20"/>
<path d="M194.704 132.495C194.704 132.495 199.485 134.433 208.206 140.44C216.927 146.448 236.307 193.154 236.307 193.154L202.198 210.531L201.229 188.632L194.704 132.495Z" fill="#5A05FF"/>
<path d="M206.009 229.524C206.785 194.511 207.302 144.639 194.769 132.495C194.769 132.495 135.789 125.001 125.905 135.143C118.283 151.616 118.541 196.061 116.732 229.718L206.009 229.524Z" fill="#5A05FF"/>
<path d="M187.275 99.9362C186.952 99.2256 190.312 91.2798 189.213 78.812C188.115 66.3442 165.118 61.8868 156.849 62.985C148.58 64.0832 140.311 72.5458 138.567 80.8146C136.823 89.0834 140.505 103.941 140.505 103.941L187.275 99.9362Z" fill="white"/>
<path d="M140.505 104.329C140.311 104.329 140.117 104.2 140.053 104.006C139.924 103.425 136.435 88.9542 138.115 80.6854C139.924 71.8998 148.451 63.5664 156.72 62.5328C162.404 61.8222 176.487 63.6956 184.368 70.0264C187.534 72.5458 189.278 75.5174 189.601 78.812C190.182 85.272 189.666 91.7966 187.986 98.1274C187.792 98.7088 187.728 99.2902 187.663 99.8716C187.728 100.001 187.728 100.13 187.663 100.259C187.598 100.388 187.469 100.453 187.275 100.453L140.505 104.329ZM159.497 63.2434C158.593 63.2434 157.753 63.308 156.849 63.3726C149.032 64.4062 140.699 72.5458 139.019 80.8146C137.533 88.179 140.311 100.97 140.828 103.36L186.823 99.484C186.888 99.161 186.952 98.6442 187.211 97.8044C188.826 91.6028 189.343 85.1428 188.761 78.812C188.503 75.7758 186.823 73.0626 183.852 70.6724C177.262 65.3106 166.022 63.2434 159.497 63.2434Z" fill="#231F20"/>
<path d="M147.417 135.402C147.417 135.402 153.36 143.929 163.761 143.929C174.162 143.929 177.262 138.955 177.262 138.955L176.81 133.399L175.777 120.479L174.808 108.399H150.97L150.195 118.283L148.58 118.476L147.417 135.402Z" fill="white"/>
<path d="M163.761 144.381C153.231 144.381 147.094 135.725 147.03 135.66C146.965 135.595 146.965 135.466 146.965 135.402L148.128 118.412C148.128 118.218 148.322 118.024 148.515 118.024L149.743 117.895L150.518 108.399C150.518 108.14 150.712 107.947 150.97 108.011H174.808C175.066 108.011 175.26 108.205 175.26 108.399L177.715 138.955C177.715 139.019 177.715 139.148 177.65 139.213C177.521 139.407 174.355 144.381 163.761 144.381ZM147.869 135.272C148.645 136.306 154.394 143.477 163.761 143.477C172.87 143.477 176.229 139.536 176.746 138.825L174.355 108.786H151.358L150.583 118.283C150.583 118.476 150.389 118.67 150.195 118.67L148.968 118.799L147.869 135.272Z" fill="#231F20"/>
<path d="M148.386 117.314C148.645 118.799 149.161 120.156 150.001 121.448C151.81 124.355 154.782 126.616 157.818 128.296C162.921 131.138 170.609 134.303 176.81 133.399L175.777 120.479C171.19 121.06 166.603 121.06 162.081 120.544C158.076 120.221 153.942 119.833 150.26 118.283C149.614 117.96 148.968 117.637 148.386 117.314Z" fill="#231F20"/>
<path d="M174.42 133.98C168.154 133.98 161.306 130.75 157.559 128.683C153.877 126.616 151.164 124.29 149.549 121.642C148.709 120.35 148.128 118.864 147.869 117.378C147.869 117.184 147.934 117.055 148.063 116.926C148.192 116.861 148.386 116.861 148.515 116.926C149.032 117.249 149.678 117.507 150.324 117.83C154.006 119.381 158.27 119.768 162.017 120.091C166.539 120.608 171.125 120.544 175.647 120.027C175.777 120.027 175.906 120.027 175.97 120.091C176.035 120.156 176.1 120.285 176.164 120.414L177.198 133.334C177.198 133.593 177.069 133.787 176.81 133.787C176.035 133.916 175.26 133.98 174.42 133.98ZM148.968 118.153C149.226 119.252 149.678 120.221 150.324 121.19C151.875 123.644 154.459 125.905 158.012 127.908C162.081 130.169 169.833 133.787 176.293 133.011L175.324 120.996C170.867 121.513 166.41 121.513 161.952 120.996C158.141 120.673 153.813 120.285 150.001 118.67C149.678 118.476 149.355 118.347 148.968 118.153Z" fill="#231F20"/>
<path d="M140.828 83.334C140.828 83.334 133.205 83.5278 131.073 86.6932C128.942 89.8586 131.203 106.332 131.978 107.365C132.753 108.399 144.962 111.112 144.962 111.112L140.828 83.334Z" fill="white"/>
<path d="M144.962 111.564H144.898C141.991 110.918 132.43 108.722 131.655 107.624C130.88 106.525 128.554 89.7294 130.75 86.4348C132.947 83.1402 140.505 82.8818 140.828 82.8818C141.086 82.8818 141.28 83.011 141.28 83.2694L145.415 111.047C145.415 111.177 145.415 111.37 145.285 111.435C145.156 111.5 145.092 111.564 144.962 111.564ZM140.44 83.7862C138.89 83.8508 133.141 84.3676 131.461 86.887C129.523 89.794 131.655 105.944 132.365 107.042C132.882 107.624 138.825 109.239 144.446 110.466L140.44 83.7862Z" fill="#231F20"/>
<path d="M185.144 83.334C185.144 83.334 192.766 83.5278 194.898 86.6932C197.03 89.8586 194.769 106.332 193.994 107.365C193.219 108.399 181.009 111.112 181.009 111.112L185.144 83.334Z" fill="white"/>
<path d="M181.009 111.564C180.88 111.564 180.815 111.5 180.686 111.435C180.557 111.306 180.557 111.177 180.557 111.047L184.691 83.2694C184.691 83.011 184.95 82.8818 185.144 82.8818C185.467 82.8818 193.025 83.1402 195.221 86.4348C197.418 89.7294 195.092 106.525 194.317 107.624C193.542 108.722 183.981 110.918 181.074 111.564H181.009ZM185.531 83.7862L181.526 110.531C187.146 109.239 193.089 107.688 193.606 107.107C194.317 105.944 196.449 89.8586 194.511 86.9516C192.831 84.3676 187.082 83.9154 185.531 83.7862Z" fill="#231F20"/>
<path d="M162.211 124.743H164.342C174.42 124.743 182.56 116.28 182.56 105.879V99.807C182.56 97.6752 182.56 95.608 182.56 93.4762C182.56 92.1842 182.172 87.6622 180.299 87.9852C179.782 88.1144 179.33 88.3728 178.942 88.7604C177.908 89.6002 176.81 90.3108 175.647 90.8922C175.26 91.1506 174.808 91.2798 174.355 91.1506C173.709 90.8922 173.645 89.9232 173.774 89.2126L173.903 88.0498C173.903 87.7914 173.903 87.4684 173.645 87.4038C169.963 89.5356 166.216 91.6028 161.888 91.9258C161.242 91.9904 160.466 91.9258 160.079 91.3444C159.885 91.0214 159.82 90.6984 159.82 90.3754C159.756 88.9542 159.95 87.4684 160.531 86.1118C159.045 87.5976 157.236 88.7604 155.234 89.4064C152.585 90.3108 150.066 91.2798 147.353 92.1842L142.314 93.8638C143.283 99.9362 143.024 106.848 145.221 112.662C147.934 119.898 154.652 124.613 162.211 124.743Z" fill="white"/>
<path d="M164.342 125.195H162.211C154.459 125.066 147.546 120.221 144.833 112.985C143.347 109.045 142.96 104.652 142.572 100.453C142.378 98.3212 142.185 96.1894 141.862 94.1222C141.797 93.9284 141.926 93.67 142.185 93.6054L147.223 91.9258C148.515 91.4736 149.743 91.0214 151.035 90.5692C152.327 90.117 153.748 89.6002 155.105 89.148C157.043 88.502 158.787 87.4038 160.273 85.9826C160.402 85.8534 160.66 85.7888 160.854 85.918C161.048 86.0472 161.112 86.241 161.048 86.4994C160.531 87.7914 160.273 89.148 160.337 90.5046C160.337 90.763 160.402 91.0214 160.531 91.2798C160.725 91.6028 161.177 91.6674 161.952 91.6674C166.087 91.3444 169.64 89.471 173.516 87.21C173.58 87.1454 173.709 87.1454 173.774 87.1454C174.226 87.21 174.485 87.6622 174.42 88.2436L174.291 89.4064C174.226 89.794 174.226 90.6984 174.614 90.8922C174.872 91.0214 175.195 90.8276 175.518 90.6338C176.681 89.9878 177.715 89.2772 178.748 88.502C179.2 88.1144 179.717 87.7914 180.299 87.6622C180.751 87.5976 181.203 87.7268 181.526 87.9852C183.012 89.2772 183.076 93.5408 183.076 93.6054V105.944C183.076 116.538 174.678 125.195 164.342 125.195ZM142.831 94.316C143.154 96.254 143.283 98.3212 143.477 100.324C143.864 104.523 144.187 108.851 145.673 112.662C148.257 119.575 154.846 124.161 162.211 124.29H164.342C174.162 124.29 182.172 116.022 182.172 105.879V93.4762C182.172 92.1196 181.784 89.2772 180.945 88.5666C180.815 88.4374 180.622 88.3728 180.492 88.4374C180.105 88.5666 179.717 88.7604 179.394 89.0834C178.296 89.9232 177.198 90.6984 175.97 91.3444C175.454 91.6674 174.872 91.7966 174.291 91.6028C173.774 91.409 173.257 90.8276 173.386 89.2126L173.516 88.1144C169.833 90.2462 166.151 92.1196 162.017 92.4426C161.306 92.5072 160.337 92.5072 159.756 91.6674C159.562 91.2798 159.433 90.8922 159.433 90.44C159.368 89.471 159.433 88.502 159.691 87.5976C158.399 88.6312 156.978 89.4064 155.428 89.9232C154.071 90.3754 152.714 90.8922 151.358 91.3444C150.001 91.7966 148.838 92.2488 147.546 92.701L142.831 94.316Z" fill="#231F20"/>
<path d="M163.503 112.21C162.598 112.21 161.629 112.146 160.725 112.081C160.466 112.016 160.273 111.823 160.337 111.564C160.337 111.306 160.596 111.112 160.854 111.177C162.598 111.37 164.278 111.37 166.022 111.177C166.087 111.177 166.151 111.177 166.216 111.047C167.056 109.626 164.859 102.391 163.18 98.1274C163.05 97.9336 163.18 97.6106 163.373 97.546C163.567 97.4814 163.89 97.546 163.955 97.7398C163.955 97.7398 163.955 97.8044 164.019 97.8044C164.472 98.9672 168.348 109.174 166.991 111.5C166.797 111.823 166.474 112.016 166.151 112.081C165.247 112.146 164.342 112.146 163.503 112.21Z" fill="#231F20"/>
<path d="M164.601 117.766C162.404 117.766 159.885 117.055 157.107 115.569C156.913 115.44 156.784 115.182 156.913 114.988C157.043 114.794 157.301 114.665 157.495 114.794C161.242 116.732 164.472 117.314 167.056 116.474C168.606 116.022 169.898 114.988 170.738 113.567C170.867 113.373 171.125 113.244 171.319 113.373C171.513 113.502 171.642 113.761 171.513 113.954C170.609 115.569 169.058 116.797 167.314 117.314C166.474 117.637 165.505 117.766 164.601 117.766Z" fill="#231F20"/>
<path d="M154.459 100.065C155.208 100.065 155.815 98.7928 155.815 97.223C155.815 95.6532 155.208 94.3806 154.459 94.3806C153.709 94.3806 153.102 95.6532 153.102 97.223C153.102 98.7928 153.709 100.065 154.459 100.065Z" fill="#231F20"/>
<path d="M173.903 100.065C174.652 100.065 175.26 98.7928 175.26 97.223C175.26 95.6532 174.652 94.3806 173.903 94.3806C173.154 94.3806 172.547 95.6532 172.547 97.223C172.547 98.7928 173.154 100.065 173.903 100.065Z" fill="#231F20"/>
<path d="M147.546 127.52C147.546 127.52 139.084 128.231 139.73 131.461C140.376 134.691 155.169 153.36 155.169 153.36L162.534 143.864C162.534 143.929 152.262 138.05 147.546 127.52Z" fill="white"/>
<path d="M155.105 153.877C154.975 153.877 154.846 153.813 154.717 153.683C154.136 152.908 139.859 134.82 139.213 131.59C139.084 131.009 139.213 130.363 139.601 129.846C141.216 127.65 147.159 127.133 147.417 127.068C147.611 127.068 147.805 127.133 147.869 127.327C152.456 137.598 162.534 143.412 162.663 143.477C162.792 143.541 162.857 143.67 162.857 143.8C162.857 143.929 162.857 144.058 162.792 144.187L155.428 153.683C155.428 153.813 155.298 153.877 155.105 153.877ZM147.288 128.037C145.479 128.231 141.539 128.942 140.44 130.427C140.182 130.686 140.117 131.073 140.182 131.396C140.699 133.851 150.841 147.159 155.169 152.714L161.888 144.058C159.82 142.766 151.487 137.146 147.288 128.037Z" fill="#231F20"/>
<path d="M176.939 127.52C176.939 127.52 185.402 128.231 184.756 131.461C184.11 134.691 169.317 153.36 169.317 153.36L161.952 143.864C161.952 143.929 172.224 138.05 176.939 127.52Z" fill="white"/>
<path d="M169.381 153.877C169.252 153.877 169.123 153.813 169.058 153.683L161.694 144.187C161.629 144.058 161.565 143.929 161.629 143.8C161.629 143.67 161.758 143.541 161.823 143.477C161.888 143.412 172.03 137.598 176.616 127.327C176.681 127.133 176.875 127.004 177.069 127.068C177.327 127.068 183.27 127.65 184.885 129.846C185.273 130.298 185.402 130.944 185.273 131.59C184.627 134.885 170.415 152.973 169.769 153.683C169.64 153.813 169.511 153.877 169.381 153.877ZM162.663 144.058L169.381 152.714C173.71 147.223 183.852 133.916 184.368 131.396C184.433 131.073 184.368 130.686 184.11 130.427C183.012 128.942 179.071 128.231 177.262 128.037C172.999 137.146 164.666 142.766 162.663 144.058Z" fill="#231F20"/>
<path d="M196.965 200.195V175.97H126.228V200.195L113.502 211.5V272.095H209.692V211.5L196.965 200.195Z" fill="#231F20"/>
<path d="M209.692 272.547H113.502C113.244 272.547 113.05 272.354 113.05 272.095V211.565C113.05 211.436 113.115 211.307 113.179 211.242L125.776 200.066V176.035C125.776 175.777 125.97 175.583 126.228 175.583H197.03C197.288 175.583 197.482 175.777 197.482 176.035V200.066L210.079 211.242C210.144 211.307 210.208 211.436 210.208 211.565V272.095C210.144 272.354 209.95 272.547 209.692 272.547ZM113.954 271.643H209.239V211.759L196.642 200.583C196.513 200.518 196.513 200.389 196.513 200.26V176.423H126.681V200.26C126.681 200.389 126.616 200.518 126.551 200.583L114.019 211.759L113.954 271.643Z" fill="#231F20"/>
<path d="M133.27 184.756H142.314L139.665 130.104L130.234 132.495L133.27 184.756Z" fill="white"/>
<path d="M142.314 185.208H133.27C133.011 185.208 132.818 185.014 132.818 184.756L129.717 132.495C129.717 132.301 129.846 132.107 130.04 132.042L139.471 129.652C139.73 129.588 139.988 129.717 139.988 129.975V130.04L142.637 184.627C142.637 184.756 142.572 184.885 142.508 184.95C142.572 185.144 142.443 185.208 142.314 185.208ZM133.722 184.304H141.862L139.213 130.75L130.686 132.882L133.722 184.304Z" fill="#231F20"/>
<path d="M191.668 184.756H182.624L185.273 130.104L194.704 132.495L191.668 184.756Z" fill="white"/>
<path d="M191.668 185.208H182.624C182.366 185.208 182.172 185.014 182.172 184.756L184.821 130.169C184.821 130.04 184.885 129.911 185.014 129.846C185.144 129.781 185.273 129.717 185.402 129.781L194.834 132.172C195.027 132.236 195.157 132.43 195.157 132.624L192.056 184.821C192.12 185.014 191.927 185.208 191.668 185.208ZM183.076 184.304H191.216L194.252 132.882L185.725 130.75L183.076 184.304Z" fill="#231F20"/>
<path d="M144.252 178.942H131.267V187.663H144.252V178.942Z" fill="#D1D3D4"/>
<path d="M144.252 188.115H131.267C131.009 188.115 130.815 187.921 130.815 187.663V178.942C130.815 178.684 131.009 178.49 131.267 178.49H144.252C144.51 178.49 144.704 178.684 144.704 178.942V187.663C144.704 187.921 144.51 188.115 144.252 188.115ZM131.719 187.211H143.8V179.394H131.719V187.211Z" fill="#231F20"/>
<path d="M180.833 178.695L180.457 187.408L193.43 187.967L193.806 179.254L180.833 178.695Z" fill="#D1D3D4"/>
<path d="M193.477 188.374L180.492 187.792C180.363 187.792 180.234 187.728 180.169 187.663C180.105 187.598 180.04 187.469 180.04 187.34L180.428 178.619C180.428 178.49 180.492 178.361 180.557 178.296C180.622 178.231 180.751 178.167 180.88 178.167L193.865 178.748C194.123 178.748 194.317 178.942 194.317 179.2L193.929 187.921C193.929 188.244 193.671 188.438 193.477 188.374ZM180.945 186.952L193.025 187.469L193.348 179.653L181.268 179.136L180.945 186.952Z" fill="#231F20"/>
<path d="M163.438 259.757H159.691C146.384 259.757 135.595 248.968 135.531 235.596V215.699C135.531 215.441 135.725 215.247 135.983 215.247H187.082C187.34 215.247 187.534 215.441 187.534 215.699V235.596C187.534 248.968 176.746 259.757 163.438 259.757ZM136.5 216.152V235.596C136.5 248.452 146.9 258.852 159.691 258.852H163.438C176.293 258.852 186.694 248.452 186.694 235.596V216.152H136.5Z" fill="#D1D3D4"/>
<path d="M127.197 134.11C121.771 137.792 116.538 141.732 111.5 145.996C97.7399 157.559 78.6183 176.81 68.1531 187.728L98.3213 212.082L117.443 193.477C117.378 193.477 133.593 142.895 127.197 134.11Z" fill="#5A05FF"/>
<path d="M268.607 145.415L250.519 132.172L213.115 183.206L215.053 188.051L233.077 201.294L270.48 150.324L268.607 145.415Z" fill="#231F20"/>
<path d="M233.077 201.746C233.012 201.746 232.883 201.746 232.818 201.681L214.73 188.438C214.666 188.374 214.601 188.309 214.601 188.244L212.728 183.399C212.663 183.27 212.728 183.076 212.792 182.947L250.196 131.978C250.26 131.913 250.39 131.849 250.519 131.784C250.648 131.784 250.777 131.784 250.842 131.849L268.93 145.092C268.994 145.156 269.059 145.221 269.059 145.285L270.932 150.13C270.997 150.26 270.932 150.453 270.868 150.583L233.464 201.552C233.4 201.617 233.271 201.681 233.141 201.746H233.077ZM215.441 187.792L233.012 200.712L269.963 150.26L268.219 145.738L250.648 132.818L213.697 183.27L215.441 187.792Z" fill="#231F20"/>
<path d="M250.522 132.211L213.132 183.217L231.159 196.431L268.548 145.425L250.522 132.211Z" fill="white"/>
<path d="M231.203 196.901C231.139 196.901 231.01 196.901 230.945 196.836L212.857 183.593C212.663 183.464 212.599 183.141 212.728 182.947L250.131 131.978C250.196 131.913 250.325 131.849 250.454 131.784C250.583 131.784 250.713 131.784 250.777 131.849L268.865 145.092C269.059 145.221 269.124 145.544 268.994 145.738L231.591 196.707C231.462 196.772 231.333 196.836 231.203 196.901ZM213.761 183.076L231.074 195.803L267.896 145.544L250.648 132.818L213.761 183.076Z" fill="#231F20"/>
<path d="M251.746 156.655C255.707 156.655 258.917 153.445 258.917 149.484C258.917 145.524 255.707 142.314 251.746 142.314C247.786 142.314 244.576 145.524 244.576 149.484C244.576 153.445 247.786 156.655 251.746 156.655Z" fill="#5A05FF"/>
<path d="M251.746 157.107C247.547 157.107 244.123 153.683 244.123 149.42C244.123 145.221 247.547 141.797 251.811 141.797C256.01 141.797 259.434 145.221 259.434 149.484C259.434 153.231 256.656 156.461 252.974 157.043C252.521 157.043 252.134 157.107 251.746 157.107ZM251.746 142.701C247.999 142.701 245.028 145.738 245.028 149.42C245.028 153.102 248.064 156.138 251.746 156.138C255.493 156.138 258.465 153.102 258.465 149.42C258.465 147.288 257.431 145.285 255.687 143.993C254.589 143.154 253.167 142.701 251.746 142.701Z" fill="#231F20"/>
<path d="M240.441 172.094C244.401 172.094 247.612 168.884 247.612 164.924C247.612 160.964 244.401 157.753 240.441 157.753C236.481 157.753 233.271 160.964 233.271 164.924C233.271 168.884 236.481 172.094 240.441 172.094Z" fill="#D1D3D4"/>
<path d="M240.377 172.547C236.178 172.547 232.754 169.123 232.754 164.859C232.754 160.596 236.178 157.236 240.441 157.236C244.64 157.236 248.064 160.66 248.064 164.924C248.064 166.539 247.547 168.154 246.578 169.446C245.157 171.448 242.831 172.611 240.377 172.547ZM240.377 158.205C236.63 158.205 233.658 161.242 233.658 164.924C233.658 168.606 236.694 171.642 240.377 171.642C244.123 171.642 247.095 168.606 247.095 164.924C247.095 162.792 246.061 160.789 244.317 159.497C243.219 158.658 241.862 158.205 240.377 158.205Z" fill="#231F20"/>
<path d="M225.565 173.951L221.822 179.057L232.555 186.925L236.297 181.819L225.565 173.951Z" fill="white"/>
<path d="M232.56 187.405C232.495 187.405 232.366 187.405 232.302 187.34L221.513 179.459C221.32 179.33 221.255 179.071 221.384 178.813L225.131 173.709C225.196 173.58 225.325 173.58 225.454 173.516C225.583 173.516 225.712 173.516 225.777 173.58L236.501 181.461C236.694 181.591 236.759 181.914 236.63 182.107L232.883 187.211C232.818 187.275 232.754 187.34 232.56 187.405ZM222.418 178.942L232.431 186.306L235.661 181.914L225.648 174.549L222.418 178.942Z" fill="#231F20"/>
<path d="M225.568 173.9L221.939 178.849L226.107 181.904L229.736 176.955L225.568 173.9Z" fill="#231F20"/>
<path d="M226.1 182.366C226.036 182.366 225.906 182.366 225.842 182.301L221.643 179.265C221.449 179.136 221.384 178.813 221.514 178.619L225.131 173.709C225.196 173.58 225.325 173.58 225.454 173.516C225.583 173.516 225.713 173.516 225.777 173.58L229.976 176.616C230.041 176.681 230.105 176.81 230.17 176.939C230.17 177.069 230.17 177.198 230.105 177.262L226.488 182.172C226.359 182.237 226.294 182.301 226.1 182.366ZM222.547 178.748L225.971 181.268L229.072 177.069L225.648 174.549L222.547 178.748Z" fill="#231F20"/>
<path d="M241.798 190.118L245.157 185.66C245.157 185.66 243.8 171.965 245.028 168.671C245.286 168.025 245.932 167.249 246.578 167.572C246.837 167.766 247.03 167.96 247.16 168.283C247.935 169.963 248.387 171.836 248.452 173.709C248.258 170.415 248.452 167.12 248.904 163.89C248.968 163.309 249.162 162.727 249.679 162.469C250.519 162.081 251.294 163.18 251.552 164.084C251.875 165.311 252.134 166.603 252.263 167.895C251.875 165.57 252.005 163.18 252.586 160.919C253.297 158.141 255.041 158.335 255.428 161.177L255.945 165.893C255.945 163.503 256.333 161.177 256.268 158.787C256.204 156.784 256.656 155.363 258.335 153.942C258.594 153.683 258.981 153.49 259.304 153.49C259.886 153.49 260.338 154.071 260.596 154.588C260.984 155.686 261.113 156.784 261.049 157.947C261.113 165.053 261.888 172.288 259.434 178.942C257.108 185.402 252.909 188.18 249.227 189.407" fill="white"/>
<path d="M241.798 190.57C241.669 190.57 241.604 190.57 241.539 190.505C241.346 190.376 241.281 190.053 241.41 189.859L244.64 185.531C244.511 183.852 243.348 171.707 244.576 168.541C244.769 167.96 245.222 167.443 245.803 167.185C246.126 167.056 246.449 167.056 246.772 167.185C247.16 167.379 247.418 167.702 247.547 168.089C247.676 168.348 247.806 168.671 247.935 168.994C247.999 167.249 248.193 165.57 248.452 163.826C248.516 163.438 248.645 162.404 249.485 162.081C249.808 161.888 250.26 161.888 250.583 162.081C251.036 162.34 251.423 162.792 251.682 163.244C251.746 162.404 251.94 161.629 252.134 160.789C252.521 159.304 253.297 158.399 254.136 158.464C254.976 158.528 255.558 159.368 255.816 160.789C255.881 160.143 255.881 159.497 255.881 158.787C255.816 156.849 256.204 155.169 258.077 153.619C258.4 153.296 258.917 153.102 259.369 153.037C260.144 153.102 260.855 153.619 261.049 154.394C261.436 155.557 261.63 156.72 261.565 157.947C261.565 159.174 261.63 160.402 261.63 161.694C261.759 167.508 261.953 173.516 259.95 179.071C258.012 184.498 254.395 188.18 249.421 189.795C249.162 189.859 248.904 189.73 248.839 189.472C248.775 189.213 248.904 188.955 249.162 188.89C253.878 187.34 257.237 183.916 259.111 178.684C261.049 173.257 260.919 167.379 260.726 161.629C260.661 160.402 260.661 159.11 260.661 157.882C260.726 156.784 260.596 155.686 260.209 154.652C260.08 154.265 259.757 153.813 259.369 153.813C259.111 153.877 258.852 154.006 258.658 154.2C257.237 155.428 256.72 156.59 256.785 158.658C256.785 159.95 256.72 161.306 256.591 162.598C256.527 163.632 256.462 164.73 256.397 165.764C256.397 166.022 256.204 166.216 255.945 166.216C255.687 166.216 255.493 166.022 255.493 165.828L254.976 161.112C254.847 159.756 254.395 159.239 254.136 159.239C253.878 159.239 253.426 159.627 253.103 160.854C252.651 162.727 252.457 164.601 252.651 166.474C252.715 166.862 252.78 167.249 252.78 167.702C252.78 167.96 252.651 168.154 252.392 168.218C252.134 168.218 251.94 168.089 251.875 167.831C251.811 167.443 251.746 167.056 251.746 166.603C251.617 165.764 251.423 164.859 251.229 164.019C251.1 163.503 250.777 162.986 250.325 162.663C250.196 162.598 250.067 162.598 250.002 162.663C249.679 162.792 249.614 163.309 249.55 163.696C249.098 166.668 248.968 169.704 249.033 172.74C249.033 172.999 249.033 173.193 249.033 173.386C249.033 173.645 248.839 173.839 248.581 173.839C248.322 173.839 248.129 173.645 248.129 173.386C248.129 173.128 248.129 172.934 248.129 172.74C247.999 171.19 247.612 169.64 246.901 168.283C246.837 168.089 246.707 167.895 246.578 167.766C246.514 167.702 246.449 167.702 246.32 167.766C245.997 167.96 245.738 168.283 245.609 168.606C244.382 171.771 245.738 185.273 245.738 185.402C245.738 185.531 245.738 185.596 245.674 185.725L242.315 190.182C242.121 190.505 241.927 190.57 241.798 190.57Z" fill="#231F20"/>
<path d="M117.314 204.136C117.055 204.136 116.861 203.942 116.861 203.684L118.735 157.43C118.735 157.172 118.929 156.978 119.187 156.978C119.445 156.978 119.639 157.172 119.639 157.43L117.766 203.684C117.766 203.942 117.572 204.136 117.314 204.136Z" fill="#231F20"/>
<path d="M207.043 214.149C206.785 214.149 206.591 213.955 206.591 213.697C206.591 213.115 205.04 162.663 204.976 160.531C204.976 160.273 205.17 160.079 205.428 160.079C205.686 160.079 205.88 160.273 205.88 160.531C205.88 161.048 207.431 213.051 207.495 213.697C207.495 213.955 207.301 214.149 207.043 214.149Z" fill="#231F20"/>
<path d="M223.516 219.059C223.258 219.059 223.064 218.865 223.064 218.606C223.064 218.542 223.064 218.477 223.128 218.413L230.622 203.49C230.751 203.296 231.01 203.167 231.203 203.296C231.397 203.425 231.526 203.684 231.397 203.878L223.904 218.8C223.839 218.994 223.645 219.059 223.516 219.059Z" fill="#231F20"/>
<path d="M206.332 173.516C206.074 173.516 205.88 173.322 205.88 173.063C205.88 172.87 206.009 172.74 206.139 172.676C206.849 172.03 210.015 165.311 212.728 159.174C212.792 158.916 213.115 158.851 213.309 158.916C213.568 159.045 213.632 159.304 213.568 159.497C209.562 168.606 207.172 173.257 206.462 173.516H206.332Z" fill="#231F20"/>
<path d="M117.314 183.787C117.055 183.787 116.861 183.593 116.861 183.399L114.471 161.823C114.471 161.565 114.6 161.371 114.859 161.306C115.117 161.306 115.311 161.435 115.376 161.694L117.766 183.27C117.766 183.529 117.572 183.722 117.314 183.787Z" fill="#231F20"/>
<path d="M222.095 191.41L216.927 197.805L220.092 200.906L225.131 194.317L222.095 191.41Z" fill="#231F20"/>
<path d="M220.092 201.358C219.963 201.358 219.898 201.294 219.769 201.229L216.539 198.128C216.345 197.934 216.345 197.676 216.539 197.547L221.707 191.151C221.772 191.022 221.901 191.022 222.03 190.958C222.159 190.958 222.289 191.022 222.353 191.087L225.389 193.994C225.583 194.123 225.583 194.381 225.454 194.575L220.415 201.164C220.351 201.294 220.221 201.358 220.092 201.358ZM217.508 197.741L220.028 200.195L224.55 194.317L222.159 191.991L217.508 197.741Z" fill="#231F20"/>
<path d="M230.816 272.16C230.041 272.16 229.459 271.578 229.459 270.803C229.459 270.351 229.718 269.899 230.105 269.64C230.557 269.382 240.506 262.664 239.085 247.999C238.374 240.506 231.849 235.402 225.583 230.493C219.188 225.454 213.115 220.738 213.18 213.697C213.245 201.81 219.898 195.415 220.157 195.157C220.674 194.64 221.578 194.64 222.095 195.221C222.612 195.803 222.612 196.642 222.03 197.159C221.966 197.224 215.958 203.038 215.893 213.697C215.893 219.446 221.384 223.774 227.263 228.361C233.723 233.4 240.958 239.085 241.798 247.741C243.413 264.085 232.043 271.643 231.591 271.901C231.333 272.095 231.074 272.16 230.816 272.16Z" fill="#231F20"/>
<path d="M135.337 107.43C135.079 107.43 134.885 107.236 134.885 107.042L132.753 87.0809C132.753 86.8225 132.947 86.6287 133.205 86.6287C133.464 86.6287 133.657 86.7579 133.657 87.0163L135.789 106.978C135.854 107.171 135.66 107.365 135.337 107.43Z" fill="#D1D3D4"/>
<path d="M190.376 106.719C190.053 106.719 189.924 106.461 189.924 106.202L192.056 86.1118C192.12 85.8534 192.314 85.7242 192.573 85.7242C192.831 85.7888 192.96 85.9826 192.96 86.1764L190.828 106.267C190.828 106.59 190.635 106.719 190.376 106.719Z" fill="#D1D3D4"/>
<path d="M154.717 106.009H147.094C143.347 106.009 140.182 103.102 139.859 99.3548L139.148 90.5692C139.148 90.3108 139.342 90.117 139.536 90.0524C139.536 90.0524 139.536 90.0524 139.601 90.0524H186.565C186.823 90.0524 187.017 90.2462 187.017 90.5046V90.5692L185.273 99.5486C184.627 102.972 181.655 105.427 178.167 105.427H171.836C169.51 105.427 167.379 104.329 165.957 102.456L163.503 99.161L160.466 103.102C159.11 104.975 156.978 106.009 154.717 106.009ZM140.053 91.0214L140.763 99.2902C141.086 102.585 143.8 105.104 147.094 105.104H154.782C156.784 105.104 158.593 104.2 159.82 102.649L163.18 98.2566C163.244 98.1274 163.373 98.0628 163.567 98.0628C163.696 98.0628 163.826 98.1274 163.955 98.2566L166.733 102.003C167.96 103.618 169.833 104.587 171.836 104.587H178.167C181.203 104.587 183.852 102.391 184.433 99.4194L186.048 90.9568L140.053 91.0214Z" fill="#231F20"/>
<path d="M190.376 80.75C190.376 83.5278 178.231 87.7914 163.244 87.7914C148.257 87.7914 136.112 83.5924 136.112 80.75C154.006 77.4554 172.417 77.4554 190.312 80.75H190.376Z" fill="white"/>
<path d="M163.309 88.179C148.451 88.179 135.725 84.0446 135.725 80.6854C135.725 80.4916 135.854 80.2978 136.112 80.2332C154.071 76.9386 172.547 76.9386 190.505 80.2332C190.699 80.2978 190.893 80.4916 190.893 80.6854C190.828 84.1092 178.102 88.179 163.309 88.179ZM136.758 81.073C137.792 83.3986 148.709 87.2746 163.309 87.2746C177.908 87.2746 188.826 83.3986 189.859 81.073C172.288 77.9076 154.265 77.9076 136.758 81.073Z" fill="#231F20"/>
<path d="M155.557 51.8738H171.061C181.784 51.8738 190.441 60.5302 190.441 71.2538V80.75H136.241V71.2538C136.241 60.5948 144.898 51.9384 155.557 51.8738Z" fill="white"/>
<path d="M190.376 81.2022H136.177C135.918 81.2022 135.725 81.0084 135.725 80.75V79.0058C135.725 63.7602 148.063 51.4216 163.309 51.4216C178.554 51.4216 190.828 63.7602 190.828 79.0058V80.8146C190.828 81.0084 190.635 81.2022 190.376 81.2022ZM136.629 80.2978H189.924V79.0058C189.924 64.277 177.973 52.3906 163.309 52.3906C148.645 52.3906 136.694 64.3416 136.694 79.0058L136.629 80.2978Z" fill="#231F20"/>
<path d="M159.885 49.6774H166.668C168.283 49.6774 169.64 51.034 169.64 52.649V80.75H156.913V52.649C156.913 50.9694 158.27 49.6774 159.885 49.6774Z" fill="white"/>
<path d="M169.64 81.2022H156.913C156.655 81.2022 156.461 81.0084 156.461 80.75V53.8118C156.461 51.2924 158.528 49.2252 161.048 49.1606H165.441C167.96 49.1606 170.027 51.2278 170.027 53.8118V80.75C170.092 81.0084 169.898 81.2022 169.64 81.2022ZM157.366 80.2978H169.187V53.8118C169.187 51.7446 167.508 50.1296 165.441 50.065H161.048C158.981 50.065 157.366 51.7446 157.366 53.8118V80.2978Z" fill="#231F20"/>
</svg>
