<svg width="286" height="286" viewBox="0 0 286 286" fill="none" xmlns="http://www.w3.org/2000/svg">
<path d="M96.4449 227.118C94.9138 227.177 93.4219 226.626 92.2969 225.586C91.1718 224.545 90.5057 223.101 90.4447 221.57L85.1651 85.8858C85.1345 85.1273 85.2538 84.3701 85.5162 83.6578C85.7786 82.9454 86.179 82.2919 86.6944 81.7345C87.2098 81.1771 87.8301 80.7269 88.5197 80.4096C89.2094 80.0923 89.9549 79.9142 90.7135 79.8855L219.648 74.8634C220.407 74.8335 221.164 74.9535 221.876 75.2166C222.589 75.4796 223.242 75.8806 223.8 76.3964C224.357 76.9123 224.807 77.5329 225.124 78.2229C225.442 78.9129 225.62 79.6586 225.648 80.4175L230.888 215.015C230.959 216.834 230.305 218.606 229.069 219.943C227.833 221.28 226.117 222.07 224.298 222.142L96.4449 227.118Z" fill="#5A05FF"/>
<path d="M96.2161 228.188C94.4441 228.19 92.7402 227.506 91.4609 226.28C90.1816 225.054 89.4259 223.38 89.3521 221.61L84.084 85.9259C84.0174 84.1118 84.6722 82.3452 85.9049 81.0127C87.1377 79.6802 88.8482 78.8903 90.662 78.8159L219.585 73.7881C221.397 73.723 223.162 74.3777 224.493 75.6091C225.824 76.8405 226.613 78.5486 226.689 80.3603L231.929 214.963C232.009 217.064 231.253 219.111 229.825 220.654C228.398 222.197 226.416 223.111 224.316 223.194L96.4907 228.171L96.2161 228.188ZM219.854 75.9273H219.648L90.7363 80.9495C89.488 80.9986 88.3102 81.5413 87.4618 82.4583C86.6135 83.3754 86.1638 84.5917 86.2118 85.8401L91.52 221.524C91.5691 222.774 92.1124 223.953 93.0305 224.803C93.9486 225.652 95.1664 226.102 96.4163 226.054L224.224 221.078C225.759 221.018 227.208 220.353 228.253 219.227C229.299 218.101 229.855 216.607 229.801 215.072L224.561 80.4747C224.514 79.2577 223.998 78.1062 223.12 77.2616C222.242 76.4171 221.072 75.9451 219.854 75.9445V75.9273Z" fill="#5A05FF"/>
<path d="M192.192 215.358H82.5739C81.0412 215.358 79.5712 214.75 78.4868 213.666C77.4025 212.583 76.7925 211.114 76.791 209.581V73.788C76.791 73.0286 76.9406 72.2766 77.2312 71.575C77.5218 70.8733 77.9478 70.2358 78.4848 69.6988C79.0218 69.1619 79.6593 68.7359 80.3609 68.4453C81.0625 68.1546 81.8145 68.0051 82.5739 68.0051H211.583C213.116 68.0066 214.585 68.6165 215.668 69.7009C216.752 70.7852 217.36 72.2553 217.36 73.788V188.96L192.192 215.358Z" fill="white"/>
<path d="M192.192 216.422H82.5738C80.7534 216.422 79.0075 215.699 77.7203 214.412C76.433 213.124 75.7098 211.378 75.7098 209.558V73.788C75.7098 71.9676 76.433 70.2217 77.7203 68.9344C79.0075 67.6472 80.7534 66.924 82.5738 66.924H211.583C213.403 66.924 215.149 67.6472 216.436 68.9344C217.724 70.2217 218.447 71.9676 218.447 73.788V188.96C218.448 189.234 218.343 189.499 218.155 189.698L192.987 216.096C192.884 216.202 192.76 216.285 192.623 216.341C192.486 216.397 192.34 216.425 192.192 216.422ZM82.5738 69.0747C81.3227 69.0762 80.1233 69.5739 79.2387 70.4586C78.354 71.3432 77.8564 72.5426 77.8548 73.7937V209.581C77.8579 210.831 78.3562 212.029 79.2407 212.912C80.1252 213.796 81.3237 214.293 82.5738 214.294H191.751L216.296 188.554V73.788C216.294 72.5379 215.798 71.3394 214.914 70.4549C214.031 69.5704 212.833 69.072 211.583 69.069L82.5738 69.0747Z" fill="#093F68"/>
<path d="M192.192 215.358V194.983C192.192 194.259 192.335 193.543 192.612 192.874C192.889 192.205 193.295 191.598 193.807 191.086C194.32 190.575 194.927 190.169 195.596 189.893C196.265 189.616 196.982 189.474 197.706 189.475H217.36L192.192 215.358Z" fill="#FFBC0E"/>
<path d="M192.192 216.422C192.052 216.423 191.913 216.397 191.783 216.344C191.653 216.291 191.535 216.213 191.436 216.114C191.337 216.015 191.259 215.897 191.206 215.767C191.153 215.637 191.127 215.498 191.128 215.358V194.983C191.13 193.239 191.823 191.567 193.056 190.334C194.29 189.1 195.962 188.407 197.706 188.405H217.36C217.57 188.406 217.775 188.468 217.95 188.584C218.124 188.7 218.261 188.865 218.343 189.059C218.425 189.252 218.448 189.465 218.409 189.671C218.371 189.877 218.272 190.068 218.127 190.219L192.959 216.102C192.859 216.205 192.74 216.286 192.608 216.341C192.477 216.396 192.335 216.424 192.192 216.422ZM197.706 190.539C196.527 190.54 195.397 191.009 194.563 191.842C193.729 192.675 193.259 193.805 193.256 194.983V212.715L214.82 190.522L197.706 190.539Z" fill="#093F68"/>
<path d="M192.192 102.451H130.416C130.146 102.431 129.894 102.31 129.711 102.112C129.527 101.914 129.424 101.654 129.424 101.384C129.424 101.114 129.527 100.854 129.711 100.656C129.894 100.458 130.146 100.337 130.416 100.317H192.192C192.461 100.337 192.713 100.458 192.897 100.656C193.081 100.854 193.183 101.114 193.183 101.384C193.183 101.654 193.081 101.914 192.897 102.112C192.713 102.31 192.461 102.431 192.192 102.451Z" fill="#093F68"/>
<path d="M192.192 119.348H102.84C102.693 119.359 102.546 119.339 102.407 119.29C102.268 119.241 102.141 119.165 102.033 119.065C101.926 118.964 101.84 118.843 101.781 118.708C101.722 118.574 101.692 118.428 101.692 118.281C101.692 118.134 101.722 117.989 101.781 117.854C101.84 117.719 101.926 117.598 102.033 117.498C102.141 117.397 102.268 117.321 102.407 117.272C102.546 117.223 102.693 117.204 102.84 117.214H192.192C192.461 117.234 192.713 117.355 192.897 117.553C193.081 117.751 193.183 118.011 193.183 118.281C193.183 118.551 193.081 118.811 192.897 119.009C192.713 119.207 192.461 119.328 192.192 119.348Z" fill="#093F68"/>
<path d="M192.192 136.25H102.84C102.693 136.261 102.546 136.242 102.407 136.193C102.268 136.144 102.141 136.067 102.033 135.967C101.926 135.867 101.84 135.746 101.781 135.611C101.722 135.476 101.692 135.331 101.692 135.184C101.692 135.037 101.722 134.891 101.781 134.756C101.84 134.621 101.926 134.5 102.033 134.4C102.141 134.3 102.268 134.223 102.407 134.174C102.546 134.126 102.693 134.106 102.84 134.117H192.192C192.461 134.137 192.713 134.258 192.897 134.455C193.081 134.653 193.183 134.913 193.183 135.184C193.183 135.454 193.081 135.714 192.897 135.912C192.713 136.11 192.461 136.231 192.192 136.25Z" fill="#093F68"/>
<path d="M192.192 153.147H102.84C102.558 153.147 102.287 153.035 102.087 152.836C101.888 152.636 101.776 152.366 101.776 152.083C101.776 151.801 101.888 151.531 102.087 151.331C102.287 151.132 102.558 151.019 102.84 151.019H192.192C192.474 151.019 192.745 151.132 192.944 151.331C193.144 151.531 193.256 151.801 193.256 152.083C193.256 152.366 193.144 152.636 192.944 152.836C192.745 153.035 192.474 153.147 192.192 153.147Z" fill="#093F68"/>
<path d="M192.192 170.05H102.84C102.693 170.061 102.546 170.041 102.407 169.992C102.268 169.944 102.141 169.867 102.033 169.767C101.926 169.666 101.84 169.545 101.781 169.41C101.722 169.276 101.692 169.13 101.692 168.983C101.692 168.836 101.722 168.691 101.781 168.556C101.84 168.421 101.926 168.3 102.033 168.2C102.141 168.099 102.268 168.023 102.407 167.974C102.546 167.925 102.693 167.906 102.84 167.916H192.192C192.461 167.936 192.713 168.057 192.897 168.255C193.081 168.453 193.183 168.713 193.183 168.983C193.183 169.253 193.081 169.513 192.897 169.711C192.713 169.909 192.461 170.03 192.192 170.05Z" fill="#093F68"/>
<path d="M157.992 186.952H102.84C102.693 186.963 102.546 186.944 102.407 186.895C102.268 186.846 102.141 186.769 102.033 186.669C101.926 186.569 101.84 186.448 101.781 186.313C101.722 186.178 101.692 186.033 101.692 185.886C101.692 185.739 101.722 185.593 101.781 185.458C101.84 185.324 101.926 185.202 102.033 185.102C102.141 185.002 102.268 184.925 102.407 184.877C102.546 184.828 102.693 184.808 102.84 184.819H157.992C158.261 184.839 158.513 184.96 158.697 185.157C158.881 185.355 158.984 185.616 158.984 185.886C158.984 186.156 158.881 186.416 158.697 186.614C158.513 186.812 158.261 186.933 157.992 186.952Z" fill="#093F68"/>
<path d="M113.102 87.5618C110.453 87.5618 107.828 86.0631 107.256 82.8199L103.892 63.8009C103.723 62.9873 103.742 62.1457 103.949 61.3406C104.155 60.5355 104.543 59.7883 105.082 59.1563C106.103 58.0382 107.465 57.2889 108.955 57.0251C110.446 56.7613 111.982 56.9978 113.325 57.6977C114.048 58.1079 114.669 58.6776 115.14 59.3634C115.61 60.0492 115.919 60.8332 116.042 61.6559L116.974 66.924C117.023 67.2024 116.96 67.489 116.798 67.7207C116.636 67.9524 116.389 68.1102 116.11 68.1595C115.832 68.2088 115.545 68.1455 115.314 67.9836C115.082 67.8216 114.924 67.5742 114.875 67.2958L113.942 62.0048C113.875 61.4924 113.689 61.0026 113.4 60.5738C113.112 60.1451 112.727 59.7891 112.278 59.5338C111.367 59.0742 110.331 58.9216 109.326 59.0989C108.321 59.2763 107.4 59.7739 106.701 60.5176C106.369 60.9134 106.132 61.3802 106.009 61.8821C105.886 62.384 105.88 62.9074 105.992 63.4119L109.355 82.4309C109.795 84.9191 111.992 85.6799 113.965 85.331C115.939 84.9821 117.746 83.512 117.306 81.0238L116.619 77.1342C116.589 76.9943 116.587 76.8498 116.614 76.7091C116.641 76.5685 116.695 76.4348 116.775 76.3158C116.855 76.1969 116.958 76.0953 117.078 76.0171C117.198 75.9389 117.332 75.8857 117.473 75.8607C117.614 75.8356 117.758 75.8393 117.898 75.8715C118.037 75.9036 118.169 75.9636 118.285 76.0478C118.4 76.132 118.498 76.2386 118.572 76.3614C118.645 76.4842 118.693 76.6206 118.713 76.7624L119.405 80.652C120.068 84.3986 117.357 86.8983 114.337 87.4302C113.93 87.5113 113.516 87.5554 113.102 87.5618Z" fill="#093F68"/>
<path d="M92.1469 181.53L80.3134 186.292L53.9953 120.89C53.4381 119.505 53.4537 117.955 54.0389 116.582C54.6241 115.209 55.7309 114.124 57.1157 113.567L58.5272 112.999C59.9121 112.442 61.4616 112.457 62.8349 113.042C64.2082 113.628 65.2927 114.734 65.85 116.119L92.1681 181.522L92.1469 181.53Z" fill="#F56132"/>
<path d="M80.2859 187.376C80.0731 187.375 79.8653 187.311 79.689 187.192C79.5127 187.073 79.376 186.904 79.2964 186.707L52.624 120.492C52.0481 119.06 52.0645 117.458 52.6694 116.037C53.2744 114.617 54.4184 113.496 55.8501 112.919L58.8817 111.7C60.3138 111.124 61.916 111.141 63.3361 111.746C64.7562 112.351 65.878 113.495 66.455 114.926L93.1045 181.141C93.2108 181.401 93.2104 181.692 93.1033 181.951C92.9962 182.21 92.791 182.416 92.5325 182.525L80.6749 187.296C80.5516 187.347 80.4195 187.374 80.2859 187.376ZM61.0782 113.41C60.6055 113.409 60.1373 113.501 59.6997 113.679L56.6681 114.898C55.7611 115.264 55.0366 115.975 54.6537 116.875C54.2708 117.774 54.2608 118.79 54.626 119.697L80.8751 184.905L90.7535 180.901L64.4987 115.693C64.3193 115.243 64.0525 114.832 63.7138 114.486C63.3751 114.139 62.9712 113.863 62.5253 113.674C62.0652 113.491 61.5732 113.401 61.0782 113.41Z" fill="#093F68"/>
<path d="M80.2917 186.312L92.1436 181.541L93.4192 197.1L93.9054 203.037L90.1416 198.415L80.2917 186.312Z" fill="white"/>
<path d="M93.9052 204.107C93.7466 204.105 93.5901 204.07 93.4468 204.001C93.3035 203.933 93.1769 203.834 93.0758 203.712L79.4622 186.981C79.358 186.851 79.2851 186.699 79.2494 186.536C79.2137 186.373 79.216 186.205 79.2563 186.043C79.2986 185.882 79.3781 185.732 79.4883 185.607C79.5986 185.482 79.7365 185.385 79.8912 185.322L91.7488 180.552C91.9032 180.489 92.07 180.464 92.2359 180.478C92.4019 180.492 92.5622 180.545 92.704 180.632C92.846 180.721 92.9654 180.841 93.0528 180.984C93.1401 181.127 93.193 181.289 93.2074 181.456L94.952 202.951C94.9695 203.178 94.914 203.405 94.7937 203.599C94.6733 203.792 94.4943 203.942 94.2828 204.027C94.1629 204.076 94.0349 204.103 93.9052 204.107ZM82.0305 186.758L92.561 199.702L91.1997 183.069L82.0305 186.758Z" fill="#093F68"/>
<path d="M90.1414 198.415L93.4189 197.1L93.9051 203.037L90.1414 198.415Z" fill="#093F68"/>
<path d="M93.9052 204.107C93.7465 204.105 93.59 204.07 93.4467 204.001C93.3034 203.933 93.1768 203.834 93.0758 203.712L89.312 199.09C89.2068 198.96 89.1335 198.808 89.098 198.644C89.0624 198.481 89.0656 198.312 89.1073 198.15C89.149 197.988 89.2281 197.838 89.3381 197.713C89.4482 197.587 89.5862 197.489 89.741 197.426L93.0186 196.11C93.1736 196.046 93.3416 196.02 93.5087 196.034C93.6758 196.048 93.8372 196.102 93.9795 196.19C94.1214 196.278 94.2408 196.398 94.3282 196.54C94.4156 196.682 94.4686 196.842 94.4829 197.008L94.9691 202.951C94.9866 203.178 94.9311 203.405 94.8108 203.599C94.6904 203.792 94.5114 203.942 94.2999 204.027C94.1746 204.078 94.0406 204.106 93.9052 204.107ZM91.8803 198.867L92.561 199.702L92.4752 198.627L91.8803 198.867Z" fill="#093F68"/>
</svg>
