<svg viewBox="0 0 537 472" fill="none" xmlns="http://www.w3.org/2000/svg">
<path d="M66.346 382.828C77.1523 395.73 75.4558 414.955 62.5497 425.764C49.6447 436.573 30.4193 434.871 19.613 421.968C8.80383 409.062 10.5014 389.836 23.4064 379.028C36.3125 368.219 55.5368 369.922 66.346 382.828Z" fill="#EEE6FF" stroke="#100F0D" stroke-width="2.29167" stroke-miterlimit="10"/>
<path d="M451.755 20.2724C416.238 50.0191 438.159 76.1931 402.642 105.94C367.121 135.689 345.2 109.515 309.683 139.262L309.715 139.301C309.493 139.457 309.272 139.642 309.047 139.831C308.783 140.051 308.506 140.248 308.242 140.469C308.017 140.657 307.775 140.86 307.55 141.048C272.033 170.795 293.954 196.969 258.42 226.73C222.92 256.462 200.999 230.288 165.478 260.038C129.961 289.785 151.883 315.959 116.366 345.705C80.845 375.455 58.9234 349.281 23.4063 379.028" stroke="#100F0D" stroke-width="2.29167" stroke-miterlimit="10"/>
<path d="M490.898 67.0091C455.381 96.7558 477.3 122.926 441.783 152.673C406.262 182.423 384.343 156.252 348.826 185.999L348.856 186.034C348.634 186.19 348.412 186.375 348.187 186.564C347.924 186.784 347.649 186.985 347.386 187.205C347.161 187.394 346.918 187.597 346.693 187.785C311.176 217.532 333.095 243.702 297.56 273.464C262.061 303.196 240.142 277.025 204.622 306.775C169.105 336.521 191.023 362.692 155.506 392.439C119.985 422.188 98.0669 396.018 62.5498 425.764" stroke="#100F0D" stroke-width="2.29167" stroke-miterlimit="10"/>
<path d="M447.962 63.2128C458.768 76.1153 477.992 77.8183 490.898 67.0091C503.804 56.1999 505.501 36.975 494.695 24.0724C483.885 11.1664 464.661 9.46338 451.755 20.2726C438.849 31.0818 437.152 50.3068 447.962 63.2128Z" fill="#EEE6FF" stroke="#100F0D" stroke-width="2.29167" stroke-miterlimit="10"/>
</svg>
