<svg width="48" height="48" viewBox="0 0 48 48" fill="none" xmlns="http://www.w3.org/2000/svg">
<rect width="48" height="48" rx="24" fill="#6A6A6A"/>
<path fill-rule="evenodd" clip-rule="evenodd" d="M12.037 22.2933C18.2385 19.5914 22.3738 17.8102 24.4429 16.9496C30.3506 14.4924 31.5782 14.0655 32.3783 14.0514C32.5543 14.0483 32.9478 14.0919 33.2026 14.2987C33.4178 14.4734 33.4771 14.7093 33.5054 14.8748C33.5337 15.0404 33.569 15.4176 33.541 15.7123C33.2208 19.076 31.8356 27.2389 31.1308 31.0064C30.8326 32.6005 30.2455 33.1351 29.677 33.1874C28.4417 33.301 27.5036 32.371 26.3071 31.5866C24.4348 30.3593 23.3771 29.5953 21.5597 28.3977C19.4594 27.0136 20.8209 26.2529 22.0179 25.0097C22.3311 24.6844 27.7742 19.7335 27.8795 19.2844C27.8927 19.2282 27.9049 19.0189 27.7805 18.9083C27.6561 18.7978 27.4726 18.8356 27.3401 18.8656C27.1523 18.9082 24.1613 20.8852 18.367 24.7965C17.518 25.3794 16.7491 25.6635 16.0601 25.6486C15.3005 25.6322 13.8394 25.2191 12.7533 24.8661C11.4211 24.433 10.3622 24.2041 10.4544 23.4686C10.5025 23.0855 11.03 22.6938 12.037 22.2933Z" fill="white"/>
</svg>
