<svg width="48" height="48" viewBox="0 0 48 48" fill="none" xmlns="http://www.w3.org/2000/svg">
<rect width="48" height="48" rx="24" fill="#6A6A6A"/>
<g clip-path="url(#clip0_193_2110)">
<path d="M12 35L13.6963 28.8403C12.6476 27.0323 12.0974 24.9848 12.1032 22.8916C12.1032 16.3327 17.467 11 24.0516 11C27.2493 11 30.2521 12.2376 32.5043 14.4848C34.7622 16.7319 36.0057 19.7205 36 22.8973C36 29.4563 30.6361 34.789 24.0458 34.789H24.0401C22.0401 34.789 20.0745 34.2871 18.3266 33.3403L12 35ZM18.6304 31.1901L18.9914 31.4068C20.5158 32.308 22.2636 32.7814 24.0458 32.7871H24.0516C29.5243 32.7871 33.9828 28.3555 33.9828 22.903C33.9828 20.2624 32.9513 17.7814 31.0773 15.9106C29.2034 14.0399 26.7049 13.0133 24.0516 13.0133C18.5788 13.0076 14.1203 17.4392 14.1203 22.8916C14.1203 24.7567 14.6418 26.576 15.639 28.1502L15.8739 28.5266L14.8711 32.1711L18.6304 31.1901Z" fill="white"/>
<path d="M12.4183 34.5836L14.0573 28.6349C13.043 26.8954 12.51 24.9163 12.51 22.8973C12.5158 16.5665 17.6905 11.4163 24.0516 11.4163C27.1404 11.4163 30.0344 12.614 32.212 14.7813C34.3897 16.9486 35.5874 19.8345 35.5874 22.903C35.5874 29.2338 30.4069 34.3839 24.0516 34.3839H24.0458C22.1146 34.3839 20.2178 33.8992 18.5329 32.9866L12.4183 34.5836Z" fill="#6A6A6A"/>
<path d="M12 35L13.6963 28.8403C12.6476 27.0323 12.0974 24.9848 12.1032 22.8916C12.1032 16.3327 17.467 11 24.0516 11C27.2493 11 30.2521 12.2376 32.5043 14.4848C34.7622 16.7319 36.0057 19.7205 36 22.8973C36 29.4563 30.6361 34.789 24.0458 34.789H24.0401C22.0401 34.789 20.0745 34.2871 18.3266 33.3403L12 35ZM18.6304 31.1901L18.9914 31.4068C20.5158 32.308 22.2636 32.7814 24.0458 32.7871H24.0516C29.5243 32.7871 33.9828 28.3555 33.9828 22.903C33.9828 20.2624 32.9513 17.7814 31.0773 15.9106C29.2034 14.0399 26.7049 13.0133 24.0516 13.0133C18.5788 13.0076 14.1203 17.4392 14.1203 22.8916C14.1203 24.7567 14.6418 26.576 15.639 28.1502L15.8739 28.5266L14.8711 32.1711L18.6304 31.1901Z" fill="white"/>
<path fill-rule="evenodd" clip-rule="evenodd" d="M21.0658 17.9182C20.8423 17.422 20.6073 17.4106 20.3953 17.4049C20.2234 17.3992 20.0228 17.3992 19.8222 17.3992C19.6216 17.3992 19.3007 17.4733 19.0256 17.7699C18.7506 18.0665 17.9827 18.7851 17.9827 20.2509C17.9827 21.711 19.0543 23.1254 19.2033 23.325C19.3523 23.5246 21.2721 26.6216 24.3036 27.8136C26.8251 28.806 27.3408 28.6064 27.8852 28.5551C28.4297 28.5037 29.6503 27.8364 29.9024 27.1406C30.1488 26.4448 30.1488 25.8516 30.0743 25.7262C29.9998 25.6007 29.7993 25.5265 29.5013 25.3783C29.2033 25.23 27.7362 24.5113 27.4612 24.4087C27.1861 24.3117 26.9855 24.2604 26.7907 24.557C26.5901 24.8535 26.017 25.5208 25.8451 25.7205C25.6732 25.9201 25.4956 25.9429 25.1976 25.7946C24.8996 25.6463 23.9368 25.3326 22.7964 24.3174C21.9082 23.5304 21.3064 22.5551 21.1345 22.2585C20.9626 21.9619 21.1173 21.8022 21.2663 21.6539C21.3981 21.5227 21.5643 21.306 21.7133 21.1349C21.8623 20.9638 21.9139 20.8383 22.0113 20.6387C22.1087 20.4391 22.0629 20.268 21.9884 20.1197C21.9139 19.9771 21.3294 18.5056 21.0658 17.9182Z" fill="white"/>
</g>
<defs>
<clipPath id="clip0_193_2110">
<rect width="24" height="24" fill="white" transform="translate(12 11)"/>
</clipPath>
</defs>
</svg>
