<svg  viewBox="0 0 554 557" fill="none" xmlns="http://www.w3.org/2000/svg">
<path d="M60.3842 28.5859H51.3629C51.1982 27.4188 50.8617 26.3821 50.3537 25.4759C49.8456 24.5559 49.1934 23.7732 48.397 23.1278C47.6006 22.4825 46.6806 21.9882 45.6371 21.6449C44.6072 21.3016 43.4882 21.13 42.2798 21.13C40.0966 21.13 38.1948 21.6723 36.5746 22.7571C34.9543 23.8281 33.6979 25.3935 32.8054 27.4531C31.9129 29.4991 31.4666 31.9844 31.4666 34.9091C31.4666 37.9162 31.9129 40.4427 32.8054 42.4886C33.7116 44.5346 34.9749 46.0793 36.5952 47.1229C38.2154 48.1664 40.0897 48.6882 42.218 48.6882C43.4126 48.6882 44.518 48.5303 45.5341 48.2145C46.5639 47.8987 47.477 47.4387 48.2734 46.8345C49.0698 46.2166 49.7289 45.4683 50.2507 44.5895C50.7862 43.7107 51.157 42.7083 51.3629 41.5824L60.3842 41.6236C60.1508 43.5597 59.5672 45.4271 58.6335 47.2259C57.7135 49.0109 56.4709 50.6106 54.9055 52.0249C53.3539 53.4254 51.5002 54.5376 49.3445 55.3615C47.2024 56.1716 44.7789 56.5767 42.0739 56.5767C38.3116 56.5767 34.9474 55.7254 31.9815 54.0227C29.0294 52.3201 26.6951 49.8554 24.9787 46.6286C23.276 43.4018 22.4247 39.4953 22.4247 34.9091C22.4247 30.3092 23.2898 26.3958 25.0199 23.169C26.75 19.9422 29.098 17.4844 32.0639 15.7955C35.0298 14.0928 38.3665 13.2415 42.0739 13.2415C44.518 13.2415 46.7836 13.5848 48.8707 14.2713C50.9716 14.9579 52.8322 15.9602 54.4524 17.2784C56.0727 18.5829 57.3909 20.1825 58.407 22.0774C59.4368 23.9723 60.0959 26.1418 60.3842 28.5859ZM66.4987 56V24.3636H79.9895C83.8891 24.3636 86.9717 25.1051 89.2373 26.5881C91.503 28.071 92.6358 30.1787 92.6358 32.9112C92.6358 34.6276 91.9973 36.0556 90.7203 37.1953C89.4433 38.335 87.672 39.1039 85.4064 39.5021C87.3013 39.6394 88.9147 40.072 90.2466 40.7997C91.5922 41.5137 92.6152 42.4406 93.3155 43.5803C94.0295 44.7199 94.3865 45.9832 94.3865 47.37C94.3865 49.1688 93.9059 50.7135 92.9447 52.0043C91.9973 53.295 90.6036 54.2836 88.7636 54.9702C86.9374 55.6567 84.7061 56 82.0697 56H66.4987ZM74.6755 49.4297H82.0697C83.2918 49.4297 84.2461 49.1413 84.9326 48.5646C85.6329 47.9742 85.9831 47.1709 85.9831 46.1548C85.9831 45.0289 85.6329 44.1432 84.9326 43.4979C84.2461 42.8525 83.2918 42.5298 82.0697 42.5298H74.6755V49.4297ZM74.6755 37.3807H80.1748C81.0536 37.3807 81.802 37.2571 82.4199 37.0099C83.0515 36.7491 83.5321 36.3783 83.8616 35.8977C84.2049 35.4171 84.3765 34.8473 84.3765 34.1882C84.3765 33.2133 83.9852 32.4512 83.2025 31.902C82.4199 31.3527 81.3488 31.0781 79.9895 31.0781H74.6755V37.3807ZM118.338 56V31.2429H112.406C110.799 31.2429 109.577 31.6136 108.74 32.3551C107.902 33.0966 107.49 33.9754 107.504 34.9915C107.49 36.0213 107.888 36.8932 108.698 37.6072C109.522 38.3075 110.731 38.6577 112.323 38.6577H121.262V44.5895H112.323C109.618 44.5895 107.277 44.1776 105.3 43.3537C103.323 42.5298 101.799 41.3833 100.728 39.9141C99.6565 38.4311 99.1278 36.7079 99.1416 34.7443C99.1278 32.6847 99.6565 30.879 100.728 29.3274C101.799 27.7621 103.33 26.5469 105.321 25.6818C107.325 24.803 109.687 24.3636 112.406 24.3636H126.514V56H118.338ZM98.2353 56L107.03 39.5227H115.413L106.639 56H98.2353ZM131.589 47.0405H140.095C140.136 48.084 140.603 48.9079 141.496 49.5121C142.388 50.1162 143.542 50.4183 144.956 50.4183C146.384 50.4183 147.585 50.0888 148.56 49.4297C149.535 48.7569 150.023 47.7957 150.023 46.5462C150.023 45.7772 149.831 45.1113 149.446 44.5483C149.062 43.9716 148.526 43.5185 147.84 43.1889C147.153 42.8594 146.357 42.6946 145.45 42.6946H140.898V36.9482H145.45C146.81 36.9482 147.853 36.6323 148.581 36.0007C149.322 35.3691 149.693 34.5795 149.693 33.6321C149.693 32.5611 149.309 31.7029 148.54 31.0575C147.785 30.3984 146.762 30.0689 145.471 30.0689C144.166 30.0689 143.082 30.3641 142.217 30.9545C141.365 31.5312 140.926 32.2865 140.898 33.2202H132.433C132.461 31.3253 133.031 29.6844 134.143 28.2976C135.269 26.9107 136.779 25.8397 138.674 25.0845C140.583 24.3293 142.718 23.9517 145.08 23.9517C147.661 23.9517 149.885 24.3156 151.753 25.0433C153.634 25.7573 155.076 26.7803 156.078 28.1122C157.094 29.4441 157.602 31.0301 157.602 32.87C157.602 34.5452 157.053 35.9458 155.955 37.0717C154.856 38.1977 153.318 39.0009 151.341 39.4815V39.8111C152.645 39.8935 153.826 40.2436 154.884 40.8615C155.941 41.4794 156.785 42.3307 157.417 43.4155C158.049 44.4865 158.364 45.7566 158.364 47.2259C158.364 49.1894 157.788 50.8714 156.634 52.272C155.495 53.6726 153.915 54.7505 151.897 55.5057C149.892 56.2472 147.592 56.6179 144.997 56.6179C142.471 56.6179 140.205 56.254 138.2 55.5263C136.209 54.7848 134.623 53.7 133.442 52.272C132.275 50.844 131.657 49.1001 131.589 47.0405ZM172.651 56.5973C170.632 56.5973 168.833 56.2472 167.254 55.5469C165.675 54.8329 164.426 53.7824 163.506 52.3956C162.599 50.995 162.146 49.2512 162.146 47.1641C162.146 45.4065 162.469 43.9304 163.114 42.7358C163.76 41.5412 164.638 40.58 165.751 39.8523C166.863 39.1245 168.126 38.5753 169.54 38.2045C170.968 37.8338 172.465 37.5729 174.03 37.4219C175.87 37.2296 177.353 37.0511 178.479 36.8864C179.605 36.7079 180.422 36.447 180.93 36.1037C181.438 35.7604 181.692 35.2524 181.692 34.5795V34.456C181.692 33.1515 181.28 32.1423 180.457 31.4283C179.646 30.7143 178.493 30.3572 176.996 30.3572C175.417 30.3572 174.161 30.7074 173.227 31.4077C172.294 32.0942 171.676 32.9593 171.374 34.0028L163.258 33.3438C163.67 31.4214 164.481 29.7599 165.689 28.3594C166.897 26.9451 168.456 25.8603 170.364 25.1051C172.287 24.3362 174.511 23.9517 177.038 23.9517C178.795 23.9517 180.477 24.1577 182.084 24.5696C183.704 24.9815 185.139 25.62 186.388 26.4851C187.652 27.3501 188.647 28.4624 189.375 29.8217C190.103 31.1674 190.467 32.7808 190.467 34.6619V56H182.146V51.6129H181.898C181.39 52.6016 180.711 53.4735 179.859 54.2287C179.008 54.9702 177.985 55.5537 176.79 55.9794C175.596 56.3913 174.216 56.5973 172.651 56.5973ZM175.163 50.5419C176.454 50.5419 177.594 50.2879 178.582 49.7798C179.571 49.258 180.347 48.5578 180.91 47.679C181.473 46.8002 181.754 45.8047 181.754 44.6925V41.3352C181.48 41.5137 181.102 41.6785 180.621 41.8295C180.155 41.9669 179.626 42.0973 179.035 42.2209C178.445 42.3307 177.855 42.4337 177.264 42.5298C176.674 42.6122 176.138 42.6877 175.658 42.7564C174.628 42.9074 173.728 43.1477 172.959 43.4773C172.191 43.8068 171.593 44.2531 171.168 44.8161C170.742 45.3653 170.529 46.0518 170.529 46.8757C170.529 48.0703 170.962 48.9834 171.827 49.6151C172.705 50.233 173.818 50.5419 175.163 50.5419ZM193.981 31.2635V24.3636H222.651V31.2635H212.456V56H204.094V31.2635H193.981ZM233.354 34.0852H242.807C246.995 34.0852 250.263 35.0876 252.611 37.0923C254.959 39.0833 256.133 41.7472 256.133 45.0838C256.133 47.2533 255.605 49.1619 254.547 50.8097C253.49 52.4437 251.966 53.7206 249.975 54.6406C247.984 55.5469 245.595 56 242.807 56H227.854V24.3636H236.237V49.1001H242.807C244.277 49.1001 245.485 48.7294 246.432 47.9879C247.38 47.2464 247.86 46.299 247.874 45.1456C247.86 43.9235 247.38 42.928 246.432 42.1591C245.485 41.3764 244.277 40.9851 242.807 40.9851H233.354V34.0852ZM276.13 56.6179C272.889 56.6179 270.102 55.9313 267.768 54.5582C265.447 53.1714 263.662 51.2491 262.413 48.7912C261.177 46.3333 260.559 43.5047 260.559 40.3054C260.559 37.0649 261.184 34.2225 262.433 31.7784C263.696 29.3205 265.488 27.4051 267.809 26.032C270.129 24.6451 272.889 23.9517 276.089 23.9517C278.849 23.9517 281.265 24.4529 283.339 25.4553C285.412 26.4576 287.053 27.8651 288.261 29.6776C289.47 31.4901 290.136 33.6184 290.259 36.0625H281.979C281.746 34.4834 281.128 33.2133 280.126 32.2521C279.137 31.2772 277.839 30.7898 276.233 30.7898C274.874 30.7898 273.686 31.1605 272.67 31.902C271.667 32.6297 270.885 33.6939 270.322 35.0945C269.759 36.495 269.477 38.1908 269.477 40.1818C269.477 42.2003 269.752 43.9167 270.301 45.331C270.864 46.7453 271.654 47.8232 272.67 48.5646C273.686 49.3061 274.874 49.6768 276.233 49.6768C277.235 49.6768 278.135 49.4709 278.931 49.0589C279.741 48.647 280.407 48.0497 280.929 47.267C281.464 46.4706 281.815 45.5163 281.979 44.4041H290.259C290.122 46.8208 289.463 48.9491 288.282 50.7891C287.115 52.6153 285.501 54.0433 283.442 55.0732C281.382 56.103 278.945 56.6179 276.13 56.6179ZM314.298 56V31.2429H308.366C306.759 31.2429 305.537 31.6136 304.7 32.3551C303.862 33.0966 303.45 33.9754 303.464 34.9915C303.45 36.0213 303.849 36.8932 304.659 37.6072C305.483 38.3075 306.691 38.6577 308.284 38.6577H317.223V44.5895H308.284C305.579 44.5895 303.237 44.1776 301.26 43.3537C299.283 42.5298 297.759 41.3833 296.688 39.9141C295.617 38.4311 295.088 36.7079 295.102 34.7443C295.088 32.6847 295.617 30.879 296.688 29.3274C297.759 27.7621 299.29 26.5469 301.281 25.6818C303.286 24.803 305.647 24.3636 308.366 24.3636H322.475V56H314.298ZM294.196 56L302.99 39.5227H311.373L302.599 56H294.196ZM356.778 56.6179C353.537 56.6179 350.75 55.9313 348.416 54.5582C346.095 53.1714 344.31 51.2491 343.061 48.7912C341.825 46.3333 341.207 43.5047 341.207 40.3054C341.207 37.0649 341.832 34.2225 343.081 31.7784C344.345 29.3205 346.136 27.4051 348.457 26.032C350.778 24.6451 353.537 23.9517 356.737 23.9517C359.497 23.9517 361.913 24.4529 363.987 25.4553C366.06 26.4576 367.701 27.8651 368.909 29.6776C370.118 31.4901 370.784 33.6184 370.907 36.0625H362.627C362.394 34.4834 361.776 33.2133 360.774 32.2521C359.785 31.2772 358.488 30.7898 356.881 30.7898C355.522 30.7898 354.334 31.1605 353.318 31.902C352.315 32.6297 351.533 33.6939 350.97 35.0945C350.407 36.495 350.125 38.1908 350.125 40.1818C350.125 42.2003 350.4 43.9167 350.949 45.331C351.512 46.7453 352.302 47.8232 353.318 48.5646C354.334 49.3061 355.522 49.6768 356.881 49.6768C357.883 49.6768 358.783 49.4709 359.579 49.0589C360.389 48.647 361.055 48.0497 361.577 47.267C362.113 46.4706 362.463 45.5163 362.627 44.4041H370.907C370.77 46.8208 370.111 48.9491 368.93 50.7891C367.763 52.6153 366.149 54.0433 364.09 55.0732C362.03 56.103 359.593 56.6179 356.778 56.6179ZM411.735 36.6804V43.5803H395.216V36.6804H411.735ZM398.1 24.3636V56H389.717V24.3636H398.1ZM417.234 24.3636V56H408.913V24.3636H417.234ZM432.946 56.5973C430.928 56.5973 429.129 56.2472 427.55 55.5469C425.971 54.8329 424.721 53.7824 423.801 52.3956C422.895 50.995 422.442 49.2512 422.442 47.1641C422.442 45.4065 422.765 43.9304 423.41 42.7358C424.056 41.5412 424.934 40.58 426.047 39.8523C427.159 39.1245 428.422 38.5753 429.836 38.2045C431.264 37.8338 432.761 37.5729 434.326 37.4219C436.166 37.2296 437.649 37.0511 438.775 36.8864C439.901 36.7079 440.718 36.447 441.226 36.1037C441.734 35.7604 441.988 35.2524 441.988 34.5795V34.456C441.988 33.1515 441.576 32.1423 440.752 31.4283C439.942 30.7143 438.789 30.3572 437.292 30.3572C435.713 30.3572 434.457 30.7074 433.523 31.4077C432.589 32.0942 431.971 32.9593 431.669 34.0028L423.554 33.3438C423.966 31.4214 424.776 29.7599 425.985 28.3594C427.193 26.9451 428.752 25.8603 430.66 25.1051C432.582 24.3362 434.807 23.9517 437.333 23.9517C439.091 23.9517 440.773 24.1577 442.38 24.5696C444 24.9815 445.435 25.62 446.684 26.4851C447.948 27.3501 448.943 28.4624 449.671 29.8217C450.399 31.1674 450.762 32.7808 450.762 34.6619V56H442.441V51.6129H442.194C441.686 52.6016 441.007 53.4735 440.155 54.2287C439.304 54.9702 438.281 55.5537 437.086 55.9794C435.892 56.3913 434.512 56.5973 432.946 56.5973ZM435.459 50.5419C436.75 50.5419 437.89 50.2879 438.878 49.7798C439.867 49.258 440.643 48.5578 441.206 47.679C441.769 46.8002 442.05 45.8047 442.05 44.6925V41.3352C441.775 41.5137 441.398 41.6785 440.917 41.8295C440.45 41.9669 439.922 42.0973 439.331 42.2209C438.741 42.3307 438.15 42.4337 437.56 42.5298C436.97 42.6122 436.434 42.6877 435.953 42.7564C434.924 42.9074 434.024 43.1477 433.255 43.4773C432.486 43.8068 431.889 44.2531 431.463 44.8161C431.038 45.3653 430.825 46.0518 430.825 46.8757C430.825 48.0703 431.257 48.9834 432.123 49.6151C433.001 50.233 434.114 50.5419 435.459 50.5419ZM476.155 46.299L484.723 24.3636H491.397L479.059 56H473.231L461.182 24.3636H467.834L476.155 46.299ZM465.836 24.3636V56H457.454V24.3636H465.836ZM486.907 56V24.3636H495.187V56H486.907ZM510.24 44.4247L521.63 24.3636H530.28V56H521.918V35.8771L510.569 56H501.857V24.3636H510.24V44.4247Z" fill="#03000A"/>
<path d="M82.7614 104V89.4545H87.8466C88.8598 89.4545 89.6955 89.6297 90.3537 89.9801C91.0118 90.3258 91.5019 90.7921 91.8239 91.3793C92.1458 91.9616 92.3068 92.608 92.3068 93.3182C92.3068 93.9432 92.1955 94.4593 91.973 94.8665C91.7552 95.2737 91.4664 95.5956 91.1065 95.8324C90.7514 96.0691 90.3655 96.2443 89.9489 96.358V96.5C90.3939 96.5284 90.8414 96.6847 91.2912 96.9688C91.741 97.2528 92.1174 97.66 92.4205 98.1903C92.7235 98.7206 92.875 99.3693 92.875 100.136C92.875 100.866 92.7093 101.521 92.3778 102.104C92.0464 102.686 91.5232 103.148 90.8082 103.489C90.0933 103.83 89.1629 104 88.017 104H82.7614ZM84.5227 102.438H88.017C89.1676 102.438 89.9844 102.215 90.4673 101.77C90.955 101.32 91.1989 100.776 91.1989 100.136C91.1989 99.6439 91.0734 99.1894 90.8224 98.7727C90.5715 98.3513 90.214 98.0152 89.75 97.7642C89.286 97.5085 88.7367 97.3807 88.1023 97.3807H84.5227V102.438ZM84.5227 95.8466H87.7898C88.3201 95.8466 88.7983 95.7424 89.2244 95.5341C89.6553 95.3258 89.9962 95.0322 90.2472 94.6534C90.5028 94.2746 90.6307 93.8295 90.6307 93.3182C90.6307 92.679 90.4081 92.1368 89.9631 91.6918C89.518 91.242 88.8125 91.017 87.8466 91.017H84.5227V95.8466ZM100.542 94.6534V93.0909H109.406V94.6534H105.826V104H104.15V94.6534H100.542ZM115.858 104.227C114.807 104.227 113.9 103.995 113.138 103.531C112.38 103.062 111.795 102.409 111.384 101.571C110.976 100.728 110.773 99.7481 110.773 98.6307C110.773 97.5133 110.976 96.5284 111.384 95.6761C111.795 94.8191 112.368 94.1515 113.102 93.6733C113.841 93.1903 114.703 92.9489 115.688 92.9489C116.256 92.9489 116.817 93.0436 117.371 93.233C117.925 93.4223 118.429 93.7301 118.884 94.1562C119.338 94.5777 119.7 95.1364 119.97 95.8324C120.24 96.5284 120.375 97.3854 120.375 98.4034V99.1136H111.966V97.6648H118.67C118.67 97.0492 118.547 96.5 118.301 96.017C118.06 95.5341 117.714 95.1529 117.264 94.8736C116.819 94.5942 116.294 94.4545 115.688 94.4545C115.02 94.4545 114.442 94.6203 113.955 94.9517C113.472 95.2784 113.1 95.7045 112.839 96.2301C112.579 96.7557 112.449 97.3191 112.449 97.9205V98.8864C112.449 99.7102 112.591 100.409 112.875 100.982C113.164 101.55 113.564 101.983 114.075 102.281C114.587 102.575 115.181 102.722 115.858 102.722C116.298 102.722 116.696 102.66 117.051 102.537C117.411 102.409 117.721 102.22 117.982 101.969C118.242 101.713 118.443 101.396 118.585 101.017L120.205 101.472C120.034 102.021 119.748 102.504 119.345 102.92C118.943 103.332 118.446 103.654 117.854 103.886C117.262 104.114 116.597 104.227 115.858 104.227ZM131.334 93.0909V104H129.658V93.0909H131.334ZM130.68 98.2898V99.8523C130.302 99.9943 129.925 100.12 129.551 100.229C129.177 100.333 128.784 100.416 128.372 100.477C127.96 100.534 127.508 100.562 127.016 100.562C125.78 100.562 124.788 100.229 124.04 99.5611C123.296 98.8935 122.925 97.892 122.925 96.5568V93.0625H124.601V96.5568C124.601 97.1155 124.707 97.5748 124.92 97.9347C125.134 98.2945 125.422 98.562 125.787 98.7372C126.152 98.9124 126.561 99 127.016 99C127.726 99 128.367 98.9361 128.94 98.8082C129.518 98.6757 130.098 98.5028 130.68 98.2898ZM138.983 104.227C137.932 104.227 137.025 103.995 136.263 103.531C135.505 103.062 134.92 102.409 134.509 101.571C134.101 100.728 133.898 99.7481 133.898 98.6307C133.898 97.5133 134.101 96.5284 134.509 95.6761C134.92 94.8191 135.493 94.1515 136.227 93.6733C136.966 93.1903 137.828 92.9489 138.812 92.9489C139.381 92.9489 139.942 93.0436 140.496 93.233C141.05 93.4223 141.554 93.7301 142.009 94.1562C142.463 94.5777 142.825 95.1364 143.095 95.8324C143.365 96.5284 143.5 97.3854 143.5 98.4034V99.1136H135.091V97.6648H141.795C141.795 97.0492 141.672 96.5 141.426 96.017C141.185 95.5341 140.839 95.1529 140.389 94.8736C139.944 94.5942 139.419 94.4545 138.812 94.4545C138.145 94.4545 137.567 94.6203 137.08 94.9517C136.597 95.2784 136.225 95.7045 135.964 96.2301C135.704 96.7557 135.574 97.3191 135.574 97.9205V98.8864C135.574 99.7102 135.716 100.409 136 100.982C136.289 101.55 136.689 101.983 137.2 102.281C137.712 102.575 138.306 102.722 138.983 102.722C139.423 102.722 139.821 102.66 140.176 102.537C140.536 102.409 140.846 102.22 141.107 101.969C141.367 101.713 141.568 101.396 141.71 101.017L143.33 101.472C143.159 102.021 142.873 102.504 142.47 102.92C142.068 103.332 141.571 103.654 140.979 103.886C140.387 104.114 139.722 104.227 138.983 104.227ZM153.351 97.7784V99.3409H147.328V97.7784H153.351ZM147.726 93.0909V104H146.05V93.0909H147.726ZM154.629 93.0909V104H152.953V93.0909H154.629ZM159.366 101.528L164.622 93.0909H166.554V104H164.878V95.5625L159.651 104H157.69V93.0909H159.366V101.528ZM171.3 101.528L176.556 93.0909H178.488V104H176.811V95.5625L171.584 104H169.624V93.0909H171.3V101.528ZM187.154 104V102.722L191.955 97.4659C192.519 96.8504 192.983 96.3153 193.347 95.8608C193.712 95.4015 193.982 94.9706 194.157 94.5682C194.337 94.161 194.427 93.7348 194.427 93.2898C194.427 92.7784 194.304 92.3357 194.058 91.9616C193.816 91.5876 193.485 91.2988 193.063 91.0952C192.642 90.8916 192.168 90.7898 191.643 90.7898C191.084 90.7898 190.596 90.9058 190.18 91.1378C189.768 91.3651 189.448 91.6847 189.221 92.0966C188.998 92.5085 188.887 92.9915 188.887 93.5455H187.211C187.211 92.6932 187.407 91.9451 187.8 91.3011C188.193 90.6572 188.728 90.1553 189.406 89.7955C190.087 89.4356 190.852 89.2557 191.7 89.2557C192.552 89.2557 193.307 89.4356 193.965 89.7955C194.623 90.1553 195.139 90.6406 195.513 91.2514C195.888 91.8622 196.075 92.5417 196.075 93.2898C196.075 93.8248 195.978 94.348 195.783 94.8594C195.594 95.366 195.263 95.9318 194.789 96.5568C194.32 97.1771 193.669 97.9347 192.836 98.8295L189.569 102.324V102.438H196.33V104H187.154ZM213.326 93.0909V104H211.65V93.0909H213.326ZM212.673 98.2898V99.8523C212.294 99.9943 211.917 100.12 211.543 100.229C211.169 100.333 210.776 100.416 210.364 100.477C209.952 100.534 209.5 100.562 209.008 100.562C207.772 100.562 206.78 100.229 206.032 99.5611C205.289 98.8935 204.917 97.892 204.917 96.5568V93.0625H206.593V96.5568C206.593 97.1155 206.7 97.5748 206.913 97.9347C207.126 98.2945 207.415 98.562 207.779 98.7372C208.144 98.9124 208.553 99 209.008 99C209.718 99 210.36 98.9361 210.933 98.8082C211.51 98.6757 212.09 98.5028 212.673 98.2898ZM219.612 104.256C218.92 104.256 218.293 104.125 217.729 103.865C217.166 103.6 216.719 103.219 216.387 102.722C216.056 102.22 215.89 101.614 215.89 100.903C215.89 100.278 216.013 99.7718 216.259 99.3835C216.505 98.9905 216.835 98.6828 217.246 98.4602C217.658 98.2377 218.113 98.072 218.61 97.9631C219.112 97.8494 219.616 97.7595 220.123 97.6932C220.786 97.608 221.323 97.544 221.735 97.5014C222.152 97.4541 222.455 97.3759 222.644 97.267C222.838 97.1581 222.935 96.9687 222.935 96.6989V96.642C222.935 95.9413 222.744 95.3968 222.36 95.0085C221.981 94.6203 221.406 94.4261 220.634 94.4261C219.834 94.4261 219.207 94.6013 218.752 94.9517C218.298 95.3021 217.978 95.6761 217.793 96.0739L216.202 95.5057C216.487 94.8428 216.865 94.3267 217.339 93.9574C217.817 93.5833 218.338 93.3229 218.901 93.1761C219.469 93.0246 220.028 92.9489 220.577 92.9489C220.928 92.9489 221.33 92.9915 221.785 93.0767C222.244 93.1572 222.687 93.3253 223.113 93.581C223.544 93.8366 223.901 94.2225 224.185 94.7386C224.469 95.2547 224.612 95.946 224.612 96.8125V104H222.935V102.523H222.85C222.737 102.759 222.547 103.013 222.282 103.283C222.017 103.553 221.664 103.782 221.224 103.972C220.783 104.161 220.246 104.256 219.612 104.256ZM219.867 102.75C220.53 102.75 221.089 102.62 221.543 102.359C222.003 102.099 222.348 101.763 222.58 101.351C222.817 100.939 222.935 100.506 222.935 100.051V98.517C222.864 98.6023 222.708 98.6804 222.467 98.7514C222.23 98.8177 221.955 98.8769 221.643 98.929C221.335 98.9763 221.034 99.0189 220.741 99.0568C220.452 99.09 220.218 99.1184 220.038 99.142C219.602 99.1989 219.195 99.2912 218.816 99.419C218.442 99.5421 218.139 99.7292 217.907 99.9801C217.68 100.226 217.566 100.562 217.566 100.989C217.566 101.571 217.781 102.011 218.212 102.31C218.648 102.603 219.2 102.75 219.867 102.75ZM232.103 104.227C231.08 104.227 230.199 103.986 229.461 103.503C228.722 103.02 228.154 102.355 227.756 101.507C227.358 100.66 227.159 99.6913 227.159 98.6023C227.159 97.4943 227.363 96.5166 227.77 95.669C228.182 94.8168 228.755 94.1515 229.489 93.6733C230.228 93.1903 231.089 92.9489 232.074 92.9489C232.841 92.9489 233.533 93.0909 234.148 93.375C234.764 93.6591 235.268 94.0568 235.661 94.5682C236.054 95.0795 236.298 95.6761 236.392 96.358H234.716C234.588 95.8608 234.304 95.4205 233.864 95.0369C233.428 94.6487 232.841 94.4545 232.103 94.4545C231.449 94.4545 230.876 94.625 230.384 94.9659C229.896 95.3021 229.515 95.7779 229.24 96.3935C228.971 97.0043 228.836 97.7216 228.836 98.5455C228.836 99.3883 228.968 100.122 229.233 100.747C229.503 101.372 229.882 101.857 230.37 102.203C230.862 102.549 231.44 102.722 232.103 102.722C232.538 102.722 232.934 102.646 233.289 102.494C233.644 102.343 233.944 102.125 234.191 101.841C234.437 101.557 234.612 101.216 234.716 100.818H236.392C236.298 101.462 236.063 102.042 235.689 102.558C235.32 103.07 234.83 103.477 234.219 103.78C233.613 104.078 232.908 104.227 232.103 104.227ZM243.275 104.227C242.29 104.227 241.426 103.993 240.682 103.524C239.944 103.055 239.366 102.4 238.949 101.557C238.537 100.714 238.331 99.7292 238.331 98.6023C238.331 97.4659 238.537 96.474 238.949 95.6264C239.366 94.7789 239.944 94.1207 240.682 93.652C241.426 93.1832 242.29 92.9489 243.275 92.9489C244.259 92.9489 245.121 93.1832 245.86 93.652C246.603 94.1207 247.181 94.7789 247.593 95.6264C248.009 96.474 248.218 97.4659 248.218 98.6023C248.218 99.7292 248.009 100.714 247.593 101.557C247.181 102.4 246.603 103.055 245.86 103.524C245.121 103.993 244.259 104.227 243.275 104.227ZM243.275 102.722C244.023 102.722 244.638 102.53 245.121 102.146C245.604 101.763 245.962 101.259 246.194 100.634C246.426 100.009 246.542 99.3314 246.542 98.6023C246.542 97.8731 246.426 97.1937 246.194 96.5639C245.962 95.9342 245.604 95.4252 245.121 95.0369C244.638 94.6487 244.023 94.4545 243.275 94.4545C242.526 94.4545 241.911 94.6487 241.428 95.0369C240.945 95.4252 240.587 95.9342 240.355 96.5639C240.123 97.1937 240.007 97.8731 240.007 98.6023C240.007 99.3314 240.123 100.009 240.355 100.634C240.587 101.259 240.945 101.763 241.428 102.146C241.911 102.53 242.526 102.722 243.275 102.722ZM250.776 104V93.0909H255.237C256.411 93.0909 257.344 93.3561 258.035 93.8864C258.726 94.4167 259.072 95.1174 259.072 95.9886C259.072 96.6515 258.875 97.1652 258.482 97.5298C258.089 97.8897 257.585 98.1335 256.969 98.2614C257.372 98.3182 257.763 98.4602 258.141 98.6875C258.525 98.9148 258.842 99.2273 259.093 99.625C259.344 100.018 259.469 100.501 259.469 101.074C259.469 101.633 259.327 102.132 259.043 102.572C258.759 103.013 258.352 103.361 257.822 103.616C257.291 103.872 256.657 104 255.918 104H250.776ZM252.367 102.466H255.918C256.496 102.466 256.948 102.329 257.275 102.054C257.602 101.779 257.765 101.405 257.765 100.932C257.765 100.368 257.602 99.9257 257.275 99.6037C256.948 99.277 256.496 99.1136 255.918 99.1136H252.367V102.466ZM252.367 97.6648H255.237C255.686 97.6648 256.072 97.6032 256.394 97.4801C256.716 97.3523 256.962 97.1723 257.133 96.9403C257.308 96.7036 257.396 96.4242 257.396 96.1023C257.396 95.643 257.204 95.2831 256.82 95.0227C256.437 94.7576 255.909 94.625 255.237 94.625H252.367V97.6648ZM273.598 101.727L277.404 93.0909H278.995L274.279 104H272.916L268.285 93.0909H269.848L273.598 101.727ZM269.308 93.0909V104H267.632V93.0909H269.308ZM277.887 104V93.0909H279.564V104H277.887ZM284.081 97.0398H287.206C288.484 97.0398 289.462 97.3641 290.139 98.0128C290.816 98.6615 291.154 99.483 291.154 100.477C291.154 101.131 291.003 101.725 290.7 102.26C290.397 102.79 289.952 103.214 289.365 103.531C288.778 103.844 288.058 104 287.206 104H282.632V93.0909H284.308V102.438H287.206C287.868 102.438 288.413 102.262 288.839 101.912C289.265 101.562 289.478 101.112 289.478 100.562C289.478 99.9848 289.265 99.5137 288.839 99.1491C288.413 98.7846 287.868 98.6023 287.206 98.6023H284.081V97.0398ZM292.887 104V93.0909H294.564V104H292.887ZM307.689 104.227C306.666 104.227 305.785 103.986 305.047 103.503C304.308 103.02 303.74 102.355 303.342 101.507C302.944 100.66 302.745 99.6913 302.745 98.6023C302.745 97.4943 302.949 96.5166 303.356 95.669C303.768 94.8168 304.341 94.1515 305.075 93.6733C305.814 93.1903 306.675 92.9489 307.66 92.9489C308.427 92.9489 309.118 93.0909 309.734 93.375C310.35 93.6591 310.854 94.0568 311.247 94.5682C311.64 95.0795 311.884 95.6761 311.978 96.358H310.302C310.174 95.8608 309.89 95.4205 309.45 95.0369C309.014 94.6487 308.427 94.4545 307.689 94.4545C307.035 94.4545 306.462 94.625 305.97 94.9659C305.482 95.3021 305.101 95.7779 304.826 96.3935C304.556 97.0043 304.422 97.7216 304.422 98.5455C304.422 99.3883 304.554 100.122 304.819 100.747C305.089 101.372 305.468 101.857 305.956 102.203C306.448 102.549 307.026 102.722 307.689 102.722C308.124 102.722 308.52 102.646 308.875 102.494C309.23 102.343 309.53 102.125 309.777 101.841C310.023 101.557 310.198 101.216 310.302 100.818H311.978C311.884 101.462 311.649 102.042 311.275 102.558C310.906 103.07 310.416 103.477 309.805 103.78C309.199 104.078 308.493 104.227 307.689 104.227ZM320.054 104V93.0909H324.514C325.688 93.0909 326.621 93.3561 327.312 93.8864C328.003 94.4167 328.349 95.1174 328.349 95.9886C328.349 96.6515 328.153 97.1652 327.76 97.5298C327.367 97.8897 326.862 98.1335 326.247 98.2614C326.649 98.3182 327.04 98.4602 327.419 98.6875C327.802 98.9148 328.119 99.2273 328.37 99.625C328.621 100.018 328.747 100.501 328.747 101.074C328.747 101.633 328.605 102.132 328.321 102.572C328.037 103.013 327.629 103.361 327.099 103.616C326.569 103.872 325.934 104 325.196 104H320.054ZM321.645 102.466H325.196C325.773 102.466 326.225 102.329 326.552 102.054C326.879 101.779 327.042 101.405 327.042 100.932C327.042 100.368 326.879 99.9257 326.552 99.6037C326.225 99.277 325.773 99.1136 325.196 99.1136H321.645V102.466ZM321.645 97.6648H324.514C324.964 97.6648 325.35 97.6032 325.672 97.4801C325.993 97.3523 326.24 97.1723 326.41 96.9403C326.585 96.7036 326.673 96.4242 326.673 96.1023C326.673 95.643 326.481 95.2831 326.098 95.0227C325.714 94.7576 325.186 94.625 324.514 94.625H321.645V97.6648ZM334.494 104.256C333.803 104.256 333.176 104.125 332.612 103.865C332.049 103.6 331.601 103.219 331.27 102.722C330.938 102.22 330.773 101.614 330.773 100.903C330.773 100.278 330.896 99.7718 331.142 99.3835C331.388 98.9905 331.717 98.6828 332.129 98.4602C332.541 98.2377 332.996 98.072 333.493 97.9631C333.995 97.8494 334.499 97.7595 335.006 97.6932C335.669 97.608 336.206 97.544 336.618 97.5014C337.035 97.4541 337.338 97.3759 337.527 97.267C337.721 97.1581 337.818 96.9687 337.818 96.6989V96.642C337.818 95.9413 337.626 95.3968 337.243 95.0085C336.864 94.6203 336.289 94.4261 335.517 94.4261C334.717 94.4261 334.089 94.6013 333.635 94.9517C333.18 95.3021 332.861 95.6761 332.676 96.0739L331.085 95.5057C331.369 94.8428 331.748 94.3267 332.222 93.9574C332.7 93.5833 333.221 93.3229 333.784 93.1761C334.352 93.0246 334.911 92.9489 335.46 92.9489C335.811 92.9489 336.213 92.9915 336.668 93.0767C337.127 93.1572 337.57 93.3253 337.996 93.581C338.427 93.8366 338.784 94.2225 339.068 94.7386C339.352 95.2547 339.494 95.946 339.494 96.8125V104H337.818V102.523H337.733C337.619 102.759 337.43 103.013 337.165 103.283C336.9 103.553 336.547 103.782 336.107 103.972C335.666 104.161 335.129 104.256 334.494 104.256ZM334.75 102.75C335.413 102.75 335.972 102.62 336.426 102.359C336.885 102.099 337.231 101.763 337.463 101.351C337.7 100.939 337.818 100.506 337.818 100.051V98.517C337.747 98.6023 337.591 98.6804 337.349 98.7514C337.113 98.8177 336.838 98.8769 336.526 98.929C336.218 98.9763 335.917 99.0189 335.624 99.0568C335.335 99.09 335.1 99.1184 334.92 99.142C334.485 99.1989 334.078 99.2912 333.699 99.419C333.325 99.5421 333.022 99.7292 332.79 99.9801C332.563 100.226 332.449 100.562 332.449 100.989C332.449 101.571 332.664 102.011 333.095 102.31C333.531 102.603 334.082 102.75 334.75 102.75ZM348.52 101.727L352.326 93.0909H353.917L349.201 104H347.838L343.207 93.0909H344.77L348.52 101.727ZM344.23 93.0909V104H342.554V93.0909H344.23ZM352.809 104V93.0909H354.485V104H352.809ZM359.23 101.528L364.485 93.0909H366.417V104H364.741V95.5625L359.514 104H357.554V93.0909H359.23V101.528ZM379.544 104.227C378.521 104.227 377.641 103.986 376.902 103.503C376.163 103.02 375.595 102.355 375.197 101.507C374.8 100.66 374.601 99.6913 374.601 98.6023C374.601 97.4943 374.804 96.5166 375.212 95.669C375.624 94.8168 376.196 94.1515 376.93 93.6733C377.669 93.1903 378.531 92.9489 379.516 92.9489C380.283 92.9489 380.974 93.0909 381.589 93.375C382.205 93.6591 382.709 94.0568 383.102 94.5682C383.495 95.0795 383.739 95.6761 383.834 96.358H382.158C382.03 95.8608 381.746 95.4205 381.305 95.0369C380.87 94.6487 380.283 94.4545 379.544 94.4545C378.891 94.4545 378.318 94.625 377.825 94.9659C377.338 95.3021 376.956 95.7779 376.682 96.3935C376.412 97.0043 376.277 97.7216 376.277 98.5455C376.277 99.3883 376.41 100.122 376.675 100.747C376.945 101.372 377.323 101.857 377.811 102.203C378.304 102.549 378.881 102.722 379.544 102.722C379.98 102.722 380.375 102.646 380.73 102.494C381.085 102.343 381.386 102.125 381.632 101.841C381.878 101.557 382.054 101.216 382.158 100.818H383.834C383.739 101.462 383.505 102.042 383.131 102.558C382.761 103.07 382.271 103.477 381.661 103.78C381.054 104.078 380.349 104.227 379.544 104.227ZM386.284 104V93.0909H390.744C391.919 93.0909 392.851 93.3561 393.543 93.8864C394.234 94.4167 394.58 95.1174 394.58 95.9886C394.58 96.6515 394.383 97.1652 393.99 97.5298C393.597 97.8897 393.093 98.1335 392.477 98.2614C392.88 98.3182 393.27 98.4602 393.649 98.6875C394.033 98.9148 394.35 99.2273 394.601 99.625C394.852 100.018 394.977 100.501 394.977 101.074C394.977 101.633 394.835 102.132 394.551 102.572C394.267 103.013 393.86 103.361 393.33 103.616C392.799 103.872 392.165 104 391.426 104H386.284ZM387.875 102.466H391.426C392.004 102.466 392.456 102.329 392.783 102.054C393.109 101.779 393.273 101.405 393.273 100.932C393.273 100.368 393.109 99.9257 392.783 99.6037C392.456 99.277 392.004 99.1136 391.426 99.1136H387.875V102.466ZM387.875 97.6648H390.744C391.194 97.6648 391.58 97.6032 391.902 97.4801C392.224 97.3523 392.47 97.1723 392.641 96.9403C392.816 96.7036 392.903 96.4242 392.903 96.1023C392.903 95.643 392.712 95.2831 392.328 95.0227C391.945 94.7576 391.417 94.625 390.744 94.625H387.875V97.6648ZM404.077 104V94.625H401.179C400.526 94.625 400.012 94.7765 399.638 95.0795C399.264 95.3826 399.077 95.7992 399.077 96.3295C399.077 96.8504 399.245 97.2599 399.581 97.5582C399.922 97.8565 400.389 98.0057 400.98 98.0057H404.503V99.5682H400.98C400.242 99.5682 399.605 99.438 399.07 99.1776C398.535 98.9171 398.123 98.5455 397.834 98.0625C397.545 97.5748 397.401 96.9972 397.401 96.3295C397.401 95.6572 397.552 95.0795 397.855 94.5966C398.158 94.1136 398.592 93.742 399.155 93.4815C399.723 93.2211 400.398 93.0909 401.179 93.0909H405.668V104H404.077ZM396.804 104L399.901 98.5739H401.719L398.623 104H396.804ZM408.063 104L412.495 98.4602L408.12 93.0909H410.109L413.745 97.75H414.654V93.0909H416.33V97.75H417.211L420.847 93.0909H422.836L418.489 98.4602L422.893 104H420.876L417.183 99.3125H416.33V104H414.654V99.3125H413.802L410.08 104H408.063ZM429.413 104.227C428.362 104.227 427.455 103.995 426.692 103.531C425.935 103.062 425.35 102.409 424.938 101.571C424.531 100.728 424.327 99.7481 424.327 98.6307C424.327 97.5133 424.531 96.5284 424.938 95.6761C425.35 94.8191 425.923 94.1515 426.657 93.6733C427.396 93.1903 428.257 92.9489 429.242 92.9489C429.81 92.9489 430.371 93.0436 430.925 93.233C431.479 93.4223 431.984 93.7301 432.438 94.1562C432.893 94.5777 433.255 95.1364 433.525 95.8324C433.795 96.5284 433.93 97.3854 433.93 98.4034V99.1136H425.521V97.6648H432.225C432.225 97.0492 432.102 96.5 431.856 96.017C431.614 95.5341 431.269 95.1529 430.819 94.8736C430.374 94.5942 429.848 94.4545 429.242 94.4545C428.575 94.4545 427.997 94.6203 427.509 94.9517C427.026 95.2784 426.655 95.7045 426.394 96.2301C426.134 96.7557 426.004 97.3191 426.004 97.9205V98.8864C426.004 99.7102 426.146 100.409 426.43 100.982C426.719 101.55 427.119 101.983 427.63 102.281C428.141 102.575 428.736 102.722 429.413 102.722C429.853 102.722 430.251 102.66 430.606 102.537C430.966 102.409 431.276 102.22 431.536 101.969C431.797 101.713 431.998 101.396 432.14 101.017L433.759 101.472C433.589 102.021 433.302 102.504 432.9 102.92C432.497 103.332 432 103.654 431.408 103.886C430.817 104.114 430.151 104.227 429.413 104.227ZM442.445 101.727L446.252 93.0909H447.843L443.127 104H441.763L437.133 93.0909H438.695L442.445 101.727ZM438.156 93.0909V104H436.479V93.0909H438.156ZM446.735 104V93.0909H448.411V104H446.735ZM455.911 104.227C454.888 104.227 454.008 103.986 453.269 103.503C452.531 103.02 451.962 102.355 451.565 101.507C451.167 100.66 450.968 99.6913 450.968 98.6023C450.968 97.4943 451.172 96.5166 451.579 95.669C451.991 94.8168 452.564 94.1515 453.298 93.6733C454.036 93.1903 454.898 92.9489 455.883 92.9489C456.65 92.9489 457.341 93.0909 457.957 93.375C458.572 93.6591 459.076 94.0568 459.469 94.5682C459.862 95.0795 460.106 95.6761 460.201 96.358H458.525C458.397 95.8608 458.113 95.4205 457.673 95.0369C457.237 94.6487 456.65 94.4545 455.911 94.4545C455.258 94.4545 454.685 94.625 454.192 94.9659C453.705 95.3021 453.324 95.7779 453.049 96.3935C452.779 97.0043 452.644 97.7216 452.644 98.5455C452.644 99.3883 452.777 100.122 453.042 100.747C453.312 101.372 453.691 101.857 454.178 102.203C454.671 102.549 455.248 102.722 455.911 102.722C456.347 102.722 456.742 102.646 457.097 102.494C457.452 102.343 457.753 102.125 457.999 101.841C458.246 101.557 458.421 101.216 458.525 100.818H460.201C460.106 101.462 459.872 102.042 459.498 102.558C459.129 103.07 458.638 103.477 458.028 103.78C457.422 104.078 456.716 104.227 455.911 104.227ZM469.214 104V94.625H466.316C465.663 94.625 465.149 94.7765 464.775 95.0795C464.401 95.3826 464.214 95.7992 464.214 96.3295C464.214 96.8504 464.382 97.2599 464.718 97.5582C465.059 97.8565 465.525 98.0057 466.117 98.0057H469.64V99.5682H466.117C465.379 99.5682 464.742 99.438 464.207 99.1776C463.672 98.9171 463.26 98.5455 462.971 98.0625C462.682 97.5748 462.538 96.9972 462.538 96.3295C462.538 95.6572 462.689 95.0795 462.992 94.5966C463.295 94.1136 463.728 93.742 464.292 93.4815C464.86 93.2211 465.535 93.0909 466.316 93.0909H470.805V104H469.214ZM461.941 104L465.038 98.5739H466.856L463.759 104H461.941Z" fill="#6A6A6A"/>
<rect x="2.5" y="151.5" width="549" height="59" rx="15.5" fill="white"/>
<rect x="2.5" y="151.5" width="549" height="59" rx="15.5" stroke="#DEDEDE"/>
<path d="M34.6667 188.5V186.833C34.6667 185.949 34.3155 185.101 33.6904 184.476C33.0653 183.851 32.2174 183.5 31.3334 183.5H24.6667C23.7827 183.5 22.9348 183.851 22.3097 184.476C21.6846 185.101 21.3334 185.949 21.3334 186.833V188.5" stroke="#6A6A6A" stroke-width="1.66667" stroke-linecap="round" stroke-linejoin="round"/>
<path d="M28 180.167C29.8409 180.167 31.3333 178.674 31.3333 176.833C31.3333 174.992 29.8409 173.5 28 173.5C26.159 173.5 24.6666 174.992 24.6666 176.833C24.6666 178.674 26.159 180.167 28 180.167Z" stroke="#6A6A6A" stroke-width="1.66667" stroke-linecap="round" stroke-linejoin="round"/>
<path d="M47.4091 175.364H48.7955V184.523H48.9091L55.2727 175.364H56.6364V187H55.2273V177.864H55.1136L48.7727 187H47.4091V175.364ZM64.0469 185.182L67.0923 178.273H68.3651L64.5923 187H63.5014L59.7969 178.273H61.0469L64.0469 185.182ZM60.6151 178.273V187H59.2741V178.273H60.6151ZM67.4787 187V178.273H68.8196V187H67.4787ZM76.5241 187V179.5H74.206C73.6832 179.5 73.2723 179.621 72.973 179.864C72.6738 180.106 72.5241 180.439 72.5241 180.864C72.5241 181.28 72.6586 181.608 72.9276 181.847C73.2003 182.085 73.5734 182.205 74.0469 182.205H76.8651V183.455H74.0469C73.456 183.455 72.9465 183.35 72.5185 183.142C72.0904 182.934 71.7609 182.636 71.5298 182.25C71.2988 181.86 71.1832 181.398 71.1832 180.864C71.1832 180.326 71.3045 179.864 71.5469 179.477C71.7893 179.091 72.1359 178.794 72.5866 178.585C73.0412 178.377 73.581 178.273 74.206 178.273H77.7969V187H76.5241ZM70.706 187L73.1832 182.659H74.6378L72.1605 187H70.706Z" fill="black"/>
<rect x="2.5" y="227.5" width="549" height="59" rx="15.5" fill="white"/>
<rect x="2.5" y="227.5" width="549" height="59" rx="15.5" stroke="#DEDEDE"/>
<path d="M21.3333 250.333H34.6666C35.5833 250.333 36.3333 251.083 36.3333 252V262C36.3333 262.917 35.5833 263.667 34.6666 263.667H21.3333C20.4166 263.667 19.6666 262.917 19.6666 262V252C19.6666 251.083 20.4166 250.333 21.3333 250.333Z" stroke="#6A6A6A" stroke-width="2" stroke-linecap="round" stroke-linejoin="round"/>
<path d="M36.3333 252L28 257.833L19.6666 252" stroke="#6A6A6A" stroke-width="2" stroke-linecap="round" stroke-linejoin="round"/>
<path d="M56.1136 251.364V263H54.7045V252.614H48.8409V263H47.4318V251.364H56.1136ZM62.3196 263.182C61.5317 263.182 60.8404 262.994 60.2457 262.619C59.6548 262.244 59.1927 261.72 58.8594 261.045C58.5298 260.371 58.3651 259.583 58.3651 258.682C58.3651 257.773 58.5298 256.979 58.8594 256.301C59.1927 255.623 59.6548 255.097 60.2457 254.722C60.8404 254.347 61.5317 254.159 62.3196 254.159C63.1075 254.159 63.7969 254.347 64.3878 254.722C64.9825 255.097 65.4446 255.623 65.7741 256.301C66.1075 256.979 66.2741 257.773 66.2741 258.682C66.2741 259.583 66.1075 260.371 65.7741 261.045C65.4446 261.72 64.9825 262.244 64.3878 262.619C63.7969 262.994 63.1075 263.182 62.3196 263.182ZM62.3196 261.977C62.9181 261.977 63.4105 261.824 63.7969 261.517C64.1832 261.21 64.4692 260.807 64.6548 260.307C64.8404 259.807 64.9332 259.265 64.9332 258.682C64.9332 258.098 64.8404 257.555 64.6548 257.051C64.4692 256.547 64.1832 256.14 63.7969 255.83C63.4105 255.519 62.9181 255.364 62.3196 255.364C61.7211 255.364 61.2287 255.519 60.8423 255.83C60.456 256.14 60.17 256.547 59.9844 257.051C59.7988 257.555 59.706 258.098 59.706 258.682C59.706 259.265 59.7988 259.807 59.9844 260.307C60.17 260.807 60.456 261.21 60.8423 261.517C61.2287 261.824 61.7211 261.977 62.3196 261.977ZM75.0483 254.273V263H73.7074V254.273H75.0483ZM74.5256 258.432V259.682C74.2225 259.795 73.9214 259.896 73.6222 259.983C73.3229 260.066 73.0085 260.133 72.679 260.182C72.3494 260.227 71.9877 260.25 71.5938 260.25C70.6051 260.25 69.8116 259.983 69.2131 259.449C68.6184 258.915 68.321 258.114 68.321 257.045V254.25H69.6619V257.045C69.6619 257.492 69.7472 257.86 69.9176 258.148C70.0881 258.436 70.3191 258.65 70.6108 258.79C70.9025 258.93 71.2301 259 71.5938 259C72.1619 259 72.6752 258.949 73.1335 258.847C73.5956 258.741 74.0597 258.602 74.5256 258.432ZM76.321 255.523V254.273H83.4119V255.523H80.5483V263H79.2074V255.523H76.321ZM87.483 263.205C86.9299 263.205 86.428 263.1 85.9773 262.892C85.5265 262.68 85.1686 262.375 84.9034 261.977C84.6383 261.576 84.5057 261.091 84.5057 260.523C84.5057 260.023 84.6042 259.617 84.8011 259.307C84.9981 258.992 85.2614 258.746 85.5909 258.568C85.9205 258.39 86.2841 258.258 86.6818 258.17C87.0833 258.08 87.4867 258.008 87.892 257.955C88.4223 257.886 88.8523 257.835 89.1818 257.801C89.5152 257.763 89.7576 257.701 89.9091 257.614C90.0644 257.527 90.142 257.375 90.142 257.159V257.114C90.142 256.553 89.9886 256.117 89.6818 255.807C89.3788 255.496 88.9186 255.341 88.3011 255.341C87.661 255.341 87.1591 255.481 86.7955 255.761C86.4318 256.042 86.1761 256.341 86.0284 256.659L84.7557 256.205C84.983 255.674 85.286 255.261 85.6648 254.966C86.0473 254.667 86.464 254.458 86.9148 254.341C87.3693 254.22 87.8163 254.159 88.2557 254.159C88.536 254.159 88.858 254.193 89.2216 254.261C89.589 254.326 89.9432 254.46 90.2841 254.665C90.6288 254.869 90.9148 255.178 91.142 255.591C91.3693 256.004 91.483 256.557 91.483 257.25V263H90.142V261.818H90.0739C89.983 262.008 89.8314 262.21 89.6193 262.426C89.4072 262.642 89.125 262.826 88.7727 262.977C88.4205 263.129 87.9905 263.205 87.483 263.205ZM87.6875 262C88.2178 262 88.6648 261.896 89.0284 261.688C89.3958 261.479 89.6723 261.21 89.858 260.881C90.0473 260.551 90.142 260.205 90.142 259.841V258.614C90.0852 258.682 89.9602 258.744 89.767 258.801C89.5777 258.854 89.358 258.902 89.108 258.943C88.8617 258.981 88.6212 259.015 88.3864 259.045C88.1553 259.072 87.9678 259.095 87.8239 259.114C87.4754 259.159 87.1496 259.233 86.8466 259.335C86.5473 259.434 86.3049 259.583 86.1193 259.784C85.9375 259.981 85.8466 260.25 85.8466 260.591C85.8466 261.057 86.0189 261.409 86.3636 261.648C86.7121 261.883 87.1534 262 87.6875 262Z" fill="black"/>
<rect x="114.5" y="307" width="325" height="50" rx="16" fill="#5A05FF"/>
<path d="M234.773 330H233.364C233.28 329.595 233.134 329.239 232.926 328.932C232.722 328.625 232.472 328.367 232.176 328.159C231.884 327.947 231.561 327.788 231.205 327.682C230.848 327.576 230.477 327.523 230.091 327.523C229.386 327.523 228.748 327.701 228.176 328.057C227.608 328.413 227.155 328.938 226.818 329.631C226.485 330.324 226.318 331.174 226.318 332.182C226.318 333.189 226.485 334.04 226.818 334.733C227.155 335.426 227.608 335.951 228.176 336.307C228.748 336.663 229.386 336.841 230.091 336.841C230.477 336.841 230.848 336.788 231.205 336.682C231.561 336.576 231.884 336.419 232.176 336.21C232.472 335.998 232.722 335.739 232.926 335.432C233.134 335.121 233.28 334.765 233.364 334.364H234.773C234.667 334.958 234.473 335.491 234.193 335.96C233.913 336.43 233.564 336.83 233.148 337.159C232.731 337.485 232.263 337.733 231.744 337.903C231.229 338.074 230.678 338.159 230.091 338.159C229.098 338.159 228.216 337.917 227.443 337.432C226.67 336.947 226.063 336.258 225.619 335.364C225.176 334.47 224.955 333.409 224.955 332.182C224.955 330.955 225.176 329.894 225.619 329C226.063 328.106 226.67 327.417 227.443 326.932C228.216 326.447 229.098 326.205 230.091 326.205C230.678 326.205 231.229 326.29 231.744 326.46C232.263 326.631 232.731 326.881 233.148 327.21C233.564 327.536 233.913 327.934 234.193 328.403C234.473 328.869 234.667 329.402 234.773 330ZM236.868 338V329.273H240.436C241.375 329.273 242.122 329.485 242.675 329.909C243.228 330.333 243.504 330.894 243.504 331.591C243.504 332.121 243.347 332.532 243.033 332.824C242.718 333.112 242.315 333.307 241.822 333.409C242.144 333.455 242.457 333.568 242.76 333.75C243.067 333.932 243.321 334.182 243.521 334.5C243.722 334.814 243.822 335.201 243.822 335.659C243.822 336.106 243.709 336.506 243.482 336.858C243.254 337.21 242.929 337.489 242.504 337.693C242.08 337.898 241.572 338 240.982 338H236.868ZM238.141 336.773H240.982C241.444 336.773 241.805 336.663 242.067 336.443C242.328 336.223 242.459 335.924 242.459 335.545C242.459 335.095 242.328 334.741 242.067 334.483C241.805 334.222 241.444 334.091 240.982 334.091H238.141V336.773ZM238.141 332.932H240.436C240.796 332.932 241.105 332.883 241.362 332.784C241.62 332.682 241.817 332.538 241.953 332.352C242.093 332.163 242.163 331.939 242.163 331.682C242.163 331.314 242.01 331.027 241.703 330.818C241.396 330.606 240.974 330.5 240.436 330.5H238.141V332.932ZM251.102 338V330.5H248.784C248.261 330.5 247.85 330.621 247.551 330.864C247.252 331.106 247.102 331.439 247.102 331.864C247.102 332.28 247.237 332.608 247.506 332.847C247.778 333.085 248.152 333.205 248.625 333.205H251.443V334.455H248.625C248.034 334.455 247.525 334.35 247.097 334.142C246.669 333.934 246.339 333.636 246.108 333.25C245.877 332.86 245.761 332.398 245.761 331.864C245.761 331.326 245.883 330.864 246.125 330.477C246.367 330.091 246.714 329.794 247.165 329.585C247.619 329.377 248.159 329.273 248.784 329.273H252.375V338H251.102ZM245.284 338L247.761 333.659H249.216L246.739 338H245.284ZM254.291 335.773H255.723C255.753 336.167 255.931 336.466 256.257 336.67C256.587 336.875 257.015 336.977 257.541 336.977C258.079 336.977 258.539 336.867 258.922 336.648C259.304 336.424 259.496 336.064 259.496 335.568C259.496 335.277 259.424 335.023 259.28 334.807C259.136 334.587 258.933 334.417 258.672 334.295C258.411 334.174 258.102 334.114 257.746 334.114H256.246V332.909H257.746C258.28 332.909 258.674 332.788 258.928 332.545C259.185 332.303 259.314 332 259.314 331.636C259.314 331.246 259.176 330.934 258.899 330.699C258.623 330.46 258.231 330.341 257.723 330.341C257.212 330.341 256.786 330.456 256.445 330.688C256.104 330.915 255.924 331.208 255.905 331.568H254.496C254.511 331.098 254.655 330.684 254.928 330.324C255.2 329.96 255.571 329.676 256.041 329.472C256.511 329.263 257.049 329.159 257.655 329.159C258.268 329.159 258.801 329.267 259.251 329.483C259.706 329.695 260.056 329.985 260.303 330.352C260.553 330.716 260.678 331.129 260.678 331.591C260.678 332.083 260.539 332.481 260.263 332.784C259.986 333.087 259.64 333.303 259.223 333.432V333.523C259.553 333.545 259.839 333.652 260.081 333.841C260.327 334.027 260.518 334.271 260.655 334.574C260.791 334.873 260.859 335.205 260.859 335.568C260.859 336.098 260.717 336.561 260.433 336.955C260.149 337.345 259.759 337.648 259.263 337.864C258.767 338.076 258.2 338.182 257.564 338.182C256.946 338.182 256.393 338.081 255.905 337.881C255.416 337.676 255.028 337.394 254.74 337.034C254.456 336.67 254.306 336.25 254.291 335.773ZM265.311 338.205C264.758 338.205 264.256 338.1 263.805 337.892C263.355 337.68 262.997 337.375 262.732 336.977C262.466 336.576 262.334 336.091 262.334 335.523C262.334 335.023 262.432 334.617 262.629 334.307C262.826 333.992 263.089 333.746 263.419 333.568C263.749 333.39 264.112 333.258 264.51 333.17C264.911 333.08 265.315 333.008 265.72 332.955C266.25 332.886 266.68 332.835 267.01 332.801C267.343 332.763 267.586 332.701 267.737 332.614C267.893 332.527 267.97 332.375 267.97 332.159V332.114C267.97 331.553 267.817 331.117 267.51 330.807C267.207 330.496 266.747 330.341 266.129 330.341C265.489 330.341 264.987 330.481 264.624 330.761C264.26 331.042 264.004 331.341 263.857 331.659L262.584 331.205C262.811 330.674 263.114 330.261 263.493 329.966C263.875 329.667 264.292 329.458 264.743 329.341C265.197 329.22 265.644 329.159 266.084 329.159C266.364 329.159 266.686 329.193 267.05 329.261C267.417 329.326 267.771 329.46 268.112 329.665C268.457 329.869 268.743 330.178 268.97 330.591C269.197 331.004 269.311 331.557 269.311 332.25V338H267.97V336.818H267.902C267.811 337.008 267.66 337.21 267.447 337.426C267.235 337.642 266.953 337.826 266.601 337.977C266.249 338.129 265.819 338.205 265.311 338.205ZM265.516 337C266.046 337 266.493 336.896 266.857 336.688C267.224 336.479 267.5 336.21 267.686 335.881C267.875 335.551 267.97 335.205 267.97 334.841V333.614C267.913 333.682 267.788 333.744 267.595 333.801C267.406 333.854 267.186 333.902 266.936 333.943C266.69 333.981 266.449 334.015 266.214 334.045C265.983 334.072 265.796 334.095 265.652 334.114C265.304 334.159 264.978 334.233 264.675 334.335C264.375 334.434 264.133 334.583 263.947 334.784C263.766 334.981 263.675 335.25 263.675 335.591C263.675 336.057 263.847 336.409 264.192 336.648C264.54 336.883 264.982 337 265.516 337ZM270.571 330.523V329.273H277.662V330.523H274.798V338H273.457V330.523H270.571ZM280.777 332.432H283.277C284.3 332.432 285.082 332.691 285.624 333.21C286.165 333.729 286.436 334.386 286.436 335.182C286.436 335.705 286.315 336.18 286.072 336.608C285.83 337.032 285.474 337.371 285.004 337.625C284.535 337.875 283.959 338 283.277 338H279.618V329.273H280.959V336.75H283.277C283.807 336.75 284.243 336.61 284.584 336.33C284.925 336.049 285.095 335.689 285.095 335.25C285.095 334.788 284.925 334.411 284.584 334.119C284.243 333.828 283.807 333.682 283.277 333.682H280.777V332.432ZM292.023 338.182C291.205 338.182 290.5 337.989 289.909 337.602C289.318 337.216 288.864 336.684 288.545 336.006C288.227 335.328 288.068 334.553 288.068 333.682C288.068 332.795 288.231 332.013 288.557 331.335C288.886 330.653 289.345 330.121 289.932 329.739C290.523 329.352 291.212 329.159 292 329.159C292.614 329.159 293.167 329.273 293.659 329.5C294.152 329.727 294.555 330.045 294.869 330.455C295.184 330.864 295.379 331.341 295.455 331.886H294.114C294.011 331.489 293.784 331.136 293.432 330.83C293.083 330.519 292.614 330.364 292.023 330.364C291.5 330.364 291.042 330.5 290.648 330.773C290.258 331.042 289.953 331.422 289.733 331.915C289.517 332.403 289.409 332.977 289.409 333.636C289.409 334.311 289.515 334.898 289.727 335.398C289.943 335.898 290.246 336.286 290.636 336.562C291.03 336.839 291.492 336.977 292.023 336.977C292.371 336.977 292.688 336.917 292.972 336.795C293.256 336.674 293.496 336.5 293.693 336.273C293.89 336.045 294.03 335.773 294.114 335.455H295.455C295.379 335.97 295.191 336.434 294.892 336.847C294.597 337.256 294.205 337.581 293.716 337.824C293.231 338.062 292.667 338.182 292.023 338.182ZM302.665 338V330.5H300.347C299.824 330.5 299.413 330.621 299.114 330.864C298.814 331.106 298.665 331.439 298.665 331.864C298.665 332.28 298.799 332.608 299.068 332.847C299.341 333.085 299.714 333.205 300.188 333.205H303.006V334.455H300.188C299.597 334.455 299.087 334.35 298.659 334.142C298.231 333.934 297.902 333.636 297.67 333.25C297.439 332.86 297.324 332.398 297.324 331.864C297.324 331.326 297.445 330.864 297.688 330.477C297.93 330.091 298.277 329.794 298.727 329.585C299.182 329.377 299.722 329.273 300.347 329.273H303.938V338H302.665ZM296.847 338L299.324 333.659H300.778L298.301 338H296.847Z" fill="white"/>
<path d="M317.333 332H326.667" stroke="white" stroke-width="2" stroke-linecap="round" stroke-linejoin="round"/>
<path d="M322 327.333L326.667 332L322 336.667" stroke="white" stroke-width="2" stroke-linecap="round" stroke-linejoin="round"/>
<path d="M8.59801 513V498.455H17.7173V500.344H10.7926V504.776H17.2415V506.658H10.7926V511.111H17.8026V513H8.59801ZM26.9059 505.933V507.773H20.457V505.933H26.9059ZM29.7362 513V502.091H31.7745V503.866H31.9094C32.1367 503.265 32.5084 502.796 33.0245 502.46C33.5406 502.119 34.1585 501.949 34.8782 501.949C35.6074 501.949 36.2182 502.119 36.7106 502.46C37.2077 502.801 37.5747 503.27 37.8114 503.866H37.9251C38.1855 503.284 38.5998 502.82 39.168 502.474C39.7362 502.124 40.4132 501.949 41.1992 501.949C42.1888 501.949 42.9961 502.259 43.6211 502.879C44.2508 503.5 44.5657 504.435 44.5657 505.685V513H42.4421V505.884C42.4421 505.145 42.2409 504.61 41.8384 504.278C41.436 503.947 40.9554 503.781 40.3967 503.781C39.7054 503.781 39.168 503.994 38.7844 504.42C38.4009 504.842 38.2092 505.384 38.2092 506.047V513H36.0927V505.749C36.0927 505.157 35.908 504.681 35.5387 504.321C35.1694 503.961 34.6888 503.781 34.0969 503.781C33.6945 503.781 33.3228 503.888 32.9819 504.101C32.6457 504.309 32.3735 504.6 32.1651 504.974C31.9615 505.348 31.8597 505.782 31.8597 506.274V513H29.7362ZM50.5866 513.241C49.8954 513.241 49.2704 513.114 48.7116 512.858C48.1529 512.598 47.7102 512.221 47.3835 511.729C47.0616 511.236 46.9006 510.633 46.9006 509.918C46.9006 509.302 47.0189 508.795 47.2557 508.398C47.4924 508 47.812 507.685 48.2145 507.453C48.617 507.221 49.0668 507.046 49.5639 506.928C50.0611 506.809 50.5677 506.719 51.0838 506.658C51.7372 506.582 52.2675 506.52 52.6747 506.473C53.0819 506.421 53.3778 506.338 53.5625 506.224C53.7472 506.111 53.8395 505.926 53.8395 505.67V505.621C53.8395 505 53.6643 504.52 53.3139 504.179C52.9683 503.838 52.4522 503.668 51.7656 503.668C51.0507 503.668 50.4872 503.826 50.0753 504.143C49.6681 504.456 49.3864 504.804 49.2301 505.188L47.2344 504.733C47.4711 504.07 47.8168 503.535 48.2713 503.128C48.7306 502.716 49.2585 502.418 49.8551 502.233C50.4517 502.044 51.0791 501.949 51.7372 501.949C52.1728 501.949 52.6345 502.001 53.1222 502.105C53.6146 502.205 54.0739 502.389 54.5 502.659C54.9309 502.929 55.2836 503.315 55.5582 503.817C55.8329 504.314 55.9702 504.96 55.9702 505.756V513H53.8963V511.509H53.8111C53.6738 511.783 53.4678 512.053 53.1932 512.318C52.9186 512.583 52.5658 512.804 52.1349 512.979C51.7041 513.154 51.188 513.241 50.5866 513.241ZM51.0483 511.537C51.6354 511.537 52.1373 511.421 52.554 511.189C52.9754 510.957 53.295 510.654 53.5128 510.28C53.7353 509.901 53.8466 509.496 53.8466 509.065V507.659C53.7708 507.735 53.6241 507.806 53.4062 507.872C53.1932 507.934 52.9493 507.988 52.6747 508.036C52.4001 508.078 52.1326 508.118 51.8722 508.156C51.6117 508.189 51.3939 508.218 51.2188 508.241C50.8068 508.294 50.4304 508.381 50.0895 508.504C49.7533 508.627 49.4834 508.805 49.2798 509.037C49.081 509.264 48.9815 509.567 48.9815 509.946C48.9815 510.472 49.1757 510.869 49.5639 511.139C49.9522 511.404 50.447 511.537 51.0483 511.537ZM58.7987 513V502.091H60.9222V513H58.7987ZM59.8711 500.408C59.5018 500.408 59.1845 500.285 58.9194 500.038C58.659 499.787 58.5288 499.489 58.5288 499.143C58.5288 498.793 58.659 498.495 58.9194 498.249C59.1845 497.998 59.5018 497.872 59.8711 497.872C60.2404 497.872 60.5553 497.998 60.8157 498.249C61.0808 498.495 61.2134 498.793 61.2134 499.143C61.2134 499.489 61.0808 499.787 60.8157 500.038C60.5553 500.285 60.2404 500.408 59.8711 500.408ZM65.9027 498.455V513H63.7791V498.455H65.9027Z" fill="#03000A"/>
<path d="M8.40909 549V537.364H9.75V541.659H9.86364C9.96212 541.508 10.0985 541.314 10.2727 541.08C10.4508 540.841 10.7045 540.629 11.0341 540.443C11.3674 540.254 11.8182 540.159 12.3864 540.159C13.1212 540.159 13.7689 540.343 14.3295 540.71C14.8902 541.078 15.3277 541.598 15.642 542.273C15.9564 542.947 16.1136 543.742 16.1136 544.659C16.1136 545.583 15.9564 546.384 15.642 547.062C15.3277 547.737 14.892 548.259 14.3352 548.631C13.7784 548.998 13.1364 549.182 12.4091 549.182C11.8485 549.182 11.3996 549.089 11.0625 548.903C10.7254 548.714 10.4659 548.5 10.2841 548.261C10.1023 548.019 9.96212 547.818 9.86364 547.659H9.70455V549H8.40909ZM9.72727 544.636C9.72727 545.295 9.82386 545.877 10.017 546.381C10.2102 546.881 10.4924 547.273 10.8636 547.557C11.2348 547.837 11.6894 547.977 12.2273 547.977C12.7879 547.977 13.2557 547.83 13.6307 547.534C14.0095 547.235 14.2936 546.833 14.483 546.33C14.6761 545.822 14.7727 545.258 14.7727 544.636C14.7727 544.023 14.678 543.47 14.4886 542.977C14.303 542.481 14.0208 542.089 13.642 541.801C13.267 541.509 12.7955 541.364 12.2273 541.364C11.6818 541.364 11.2235 541.502 10.8523 541.778C10.4811 542.051 10.2008 542.434 10.0114 542.926C9.82197 543.415 9.72727 543.985 9.72727 544.636ZM20.733 549.205C20.1799 549.205 19.678 549.1 19.2273 548.892C18.7765 548.68 18.4186 548.375 18.1534 547.977C17.8883 547.576 17.7557 547.091 17.7557 546.523C17.7557 546.023 17.8542 545.617 18.0511 545.307C18.2481 544.992 18.5114 544.746 18.8409 544.568C19.1705 544.39 19.5341 544.258 19.9318 544.17C20.3333 544.08 20.7367 544.008 21.142 543.955C21.6723 543.886 22.1023 543.835 22.4318 543.801C22.7652 543.763 23.0076 543.701 23.1591 543.614C23.3144 543.527 23.392 543.375 23.392 543.159V543.114C23.392 542.553 23.2386 542.117 22.9318 541.807C22.6288 541.496 22.1686 541.341 21.5511 541.341C20.911 541.341 20.4091 541.481 20.0455 541.761C19.6818 542.042 19.4261 542.341 19.2784 542.659L18.0057 542.205C18.233 541.674 18.536 541.261 18.9148 540.966C19.2973 540.667 19.714 540.458 20.1648 540.341C20.6193 540.22 21.0663 540.159 21.5057 540.159C21.786 540.159 22.108 540.193 22.4716 540.261C22.839 540.326 23.1932 540.46 23.5341 540.665C23.8788 540.869 24.1648 541.178 24.392 541.591C24.6193 542.004 24.733 542.557 24.733 543.25V549H23.392V547.818H23.3239C23.233 548.008 23.0814 548.21 22.8693 548.426C22.6572 548.642 22.375 548.826 22.0227 548.977C21.6705 549.129 21.2405 549.205 20.733 549.205ZM20.9375 548C21.4678 548 21.9148 547.896 22.2784 547.688C22.6458 547.479 22.9223 547.21 23.108 546.881C23.2973 546.551 23.392 546.205 23.392 545.841V544.614C23.3352 544.682 23.2102 544.744 23.017 544.801C22.8277 544.854 22.608 544.902 22.358 544.943C22.1117 544.981 21.8712 545.015 21.6364 545.045C21.4053 545.072 21.2178 545.095 21.0739 545.114C20.7254 545.159 20.3996 545.233 20.0966 545.335C19.7973 545.434 19.5549 545.583 19.3693 545.784C19.1875 545.981 19.0966 546.25 19.0966 546.591C19.0966 547.057 19.2689 547.409 19.6136 547.648C19.9621 547.883 20.4034 548 20.9375 548ZM30.7259 549.182C29.9077 549.182 29.2031 548.989 28.6122 548.602C28.0213 548.216 27.5668 547.684 27.2486 547.006C26.9304 546.328 26.7713 545.553 26.7713 544.682C26.7713 543.795 26.9342 543.013 27.2599 542.335C27.5895 541.653 28.0478 541.121 28.6349 540.739C29.2259 540.352 29.9152 540.159 30.7031 540.159C31.3168 540.159 31.8698 540.273 32.3622 540.5C32.8546 540.727 33.258 541.045 33.5724 541.455C33.8868 541.864 34.0819 542.341 34.1577 542.886H32.8168C32.7145 542.489 32.4872 542.136 32.1349 541.83C31.7865 541.519 31.3168 541.364 30.7259 541.364C30.2031 541.364 29.7448 541.5 29.3509 541.773C28.9607 542.042 28.6558 542.422 28.4361 542.915C28.2202 543.403 28.1122 543.977 28.1122 544.636C28.1122 545.311 28.2183 545.898 28.4304 546.398C28.6463 546.898 28.9493 547.286 29.3395 547.562C29.7334 547.839 30.1955 547.977 30.7259 547.977C31.0743 547.977 31.3906 547.917 31.6747 547.795C31.9588 547.674 32.1993 547.5 32.3963 547.273C32.5933 547.045 32.7334 546.773 32.8168 546.455H34.1577C34.0819 546.97 33.8944 547.434 33.5952 547.847C33.2997 548.256 32.9077 548.581 32.419 548.824C31.9342 549.062 31.3698 549.182 30.7259 549.182ZM37.3679 545.818L37.3452 544.159H37.6179L41.4361 540.273H43.0952L39.027 544.386H38.9134L37.3679 545.818ZM36.1179 549V537.364H37.4588V549H36.1179ZM41.6634 549L38.2543 544.682L39.2088 543.75L43.3679 549H41.6634ZM49.0866 543.386V544.636H43.9957V543.386H49.0866ZM54.9915 549.182C54.2036 549.182 53.5123 548.994 52.9176 548.619C52.3267 548.244 51.8646 547.72 51.5312 547.045C51.2017 546.371 51.0369 545.583 51.0369 544.682C51.0369 543.773 51.2017 542.979 51.5312 542.301C51.8646 541.623 52.3267 541.097 52.9176 540.722C53.5123 540.347 54.2036 540.159 54.9915 540.159C55.7794 540.159 56.4688 540.347 57.0597 540.722C57.6544 541.097 58.1165 541.623 58.446 542.301C58.7794 542.979 58.946 543.773 58.946 544.682C58.946 545.583 58.7794 546.371 58.446 547.045C58.1165 547.72 57.6544 548.244 57.0597 548.619C56.4688 548.994 55.7794 549.182 54.9915 549.182ZM54.9915 547.977C55.59 547.977 56.0824 547.824 56.4688 547.517C56.8551 547.21 57.1411 546.807 57.3267 546.307C57.5123 545.807 57.6051 545.265 57.6051 544.682C57.6051 544.098 57.5123 543.555 57.3267 543.051C57.1411 542.547 56.8551 542.14 56.4688 541.83C56.0824 541.519 55.59 541.364 54.9915 541.364C54.393 541.364 53.9006 541.519 53.5142 541.83C53.1278 542.14 52.8419 542.547 52.6562 543.051C52.4706 543.555 52.3778 544.098 52.3778 544.682C52.3778 545.265 52.4706 545.807 52.6562 546.307C52.8419 546.807 53.1278 547.21 53.5142 547.517C53.9006 547.824 54.393 547.977 54.9915 547.977ZM64.8793 540.273V541.409H60.1747V540.273H64.8793ZM61.5838 549V539.068C61.5838 538.568 61.7012 538.152 61.9361 537.818C62.1709 537.485 62.4759 537.235 62.8509 537.068C63.2259 536.902 63.6217 536.818 64.0384 536.818C64.3679 536.818 64.6368 536.845 64.8452 536.898C65.0535 536.951 65.2088 537 65.3111 537.045L64.9247 538.205C64.8565 538.182 64.7618 538.153 64.6406 538.119C64.5232 538.085 64.3679 538.068 64.1747 538.068C63.7315 538.068 63.4115 538.18 63.2145 538.403C63.0213 538.627 62.9247 538.955 62.9247 539.386V549H61.5838ZM70.6449 540.273V541.409H65.9403V540.273H70.6449ZM67.3494 549V539.068C67.3494 538.568 67.4669 538.152 67.7017 537.818C67.9366 537.485 68.2415 537.235 68.6165 537.068C68.9915 536.902 69.3873 536.818 69.804 536.818C70.1335 536.818 70.4025 536.845 70.6108 536.898C70.8191 536.951 70.9744 537 71.0767 537.045L70.6903 538.205C70.6222 538.182 70.5275 538.153 70.4062 538.119C70.2888 538.085 70.1335 538.068 69.9403 538.068C69.4972 538.068 69.1771 538.18 68.9801 538.403C68.7869 538.627 68.6903 538.955 68.6903 539.386V549H67.3494ZM72.5241 549V540.273H73.8651V549H72.5241ZM73.206 538.818C72.9446 538.818 72.7192 538.729 72.5298 538.551C72.3442 538.373 72.2514 538.159 72.2514 537.909C72.2514 537.659 72.3442 537.445 72.5298 537.267C72.7192 537.089 72.9446 537 73.206 537C73.4673 537 73.6908 537.089 73.8764 537.267C74.0658 537.445 74.1605 537.659 74.1605 537.909C74.1605 538.159 74.0658 538.373 73.8764 538.551C73.6908 538.729 73.4673 538.818 73.206 538.818ZM79.8665 549.182C79.0483 549.182 78.3438 548.989 77.7528 548.602C77.1619 548.216 76.7074 547.684 76.3892 547.006C76.071 546.328 75.9119 545.553 75.9119 544.682C75.9119 543.795 76.0748 543.013 76.4006 542.335C76.7301 541.653 77.1884 541.121 77.7756 540.739C78.3665 540.352 79.0559 540.159 79.8438 540.159C80.4574 540.159 81.0104 540.273 81.5028 540.5C81.9953 540.727 82.3987 541.045 82.7131 541.455C83.0275 541.864 83.2225 542.341 83.2983 542.886H81.9574C81.8551 542.489 81.6278 542.136 81.2756 541.83C80.9271 541.519 80.4574 541.364 79.8665 541.364C79.3438 541.364 78.8854 541.5 78.4915 541.773C78.1013 542.042 77.7964 542.422 77.5767 542.915C77.3608 543.403 77.2528 543.977 77.2528 544.636C77.2528 545.311 77.3589 545.898 77.571 546.398C77.7869 546.898 78.09 547.286 78.4801 547.562C78.8741 547.839 79.3362 547.977 79.8665 547.977C80.215 547.977 80.5312 547.917 80.8153 547.795C81.0994 547.674 81.34 547.5 81.5369 547.273C81.7339 547.045 81.8741 546.773 81.9574 546.455H83.2983C83.2225 546.97 83.035 547.434 82.7358 547.847C82.4403 548.256 82.0483 548.581 81.5597 548.824C81.0748 549.062 80.5104 549.182 79.8665 549.182ZM88.9176 549.182C88.0767 549.182 87.3513 548.996 86.7415 548.625C86.1354 548.25 85.6676 547.727 85.3381 547.057C85.0123 546.383 84.8494 545.598 84.8494 544.705C84.8494 543.811 85.0123 543.023 85.3381 542.341C85.6676 541.655 86.1259 541.121 86.7131 540.739C87.304 540.352 87.9934 540.159 88.7812 540.159C89.2358 540.159 89.6847 540.235 90.1278 540.386C90.571 540.538 90.9744 540.784 91.3381 541.125C91.7017 541.462 91.9915 541.909 92.2074 542.466C92.4233 543.023 92.5312 543.708 92.5312 544.523V545.091H85.804V543.932H91.1676C91.1676 543.439 91.0691 543 90.8722 542.614C90.679 542.227 90.4025 541.922 90.0426 541.699C89.6866 541.475 89.2661 541.364 88.7812 541.364C88.2472 541.364 87.785 541.496 87.3949 541.761C87.0085 542.023 86.7112 542.364 86.5028 542.784C86.2945 543.205 86.1903 543.655 86.1903 544.136V544.909C86.1903 545.568 86.304 546.127 86.5312 546.585C86.7623 547.04 87.0824 547.386 87.4915 547.625C87.9006 547.86 88.3759 547.977 88.9176 547.977C89.2699 547.977 89.5881 547.928 89.8722 547.83C90.16 547.727 90.4081 547.576 90.6165 547.375C90.8248 547.17 90.9858 546.917 91.0994 546.614L92.3949 546.977C92.2585 547.417 92.0294 547.803 91.7074 548.136C91.3854 548.466 90.9877 548.723 90.5142 548.909C90.0407 549.091 89.5085 549.182 88.9176 549.182ZM101.276 552.068C100.116 552.068 99.0919 551.909 98.2017 551.591C97.3116 551.277 96.5634 550.813 95.9574 550.199C95.3513 549.585 94.893 548.833 94.5824 547.943C94.2718 547.053 94.1165 546.034 94.1165 544.886C94.1165 543.777 94.2737 542.784 94.5881 541.909C94.9063 541.034 95.3665 540.292 95.9688 539.682C96.5748 539.068 97.3097 538.6 98.1733 538.278C99.0407 537.956 100.022 537.795 101.116 537.795C102.181 537.795 103.113 537.97 103.912 538.318C104.715 538.663 105.385 539.131 105.923 539.722C106.465 540.309 106.87 540.97 107.139 541.705C107.412 542.439 107.548 543.197 107.548 543.977C107.548 544.527 107.522 545.083 107.469 545.648C107.416 546.212 107.304 546.731 107.134 547.205C106.963 547.674 106.7 548.053 106.344 548.341C105.991 548.629 105.514 548.773 104.912 548.773C104.647 548.773 104.355 548.731 104.037 548.648C103.719 548.564 103.437 548.426 103.19 548.233C102.944 548.04 102.798 547.78 102.753 547.455H102.685C102.594 547.674 102.454 547.883 102.264 548.08C102.079 548.277 101.834 548.434 101.531 548.551C101.232 548.669 100.866 548.72 100.435 548.705C99.9422 548.686 99.5085 548.576 99.1335 548.375C98.7585 548.17 98.4441 547.894 98.1903 547.545C97.9403 547.193 97.7509 546.786 97.6222 546.324C97.4972 545.858 97.4347 545.356 97.4347 544.818C97.4347 544.307 97.5104 543.839 97.6619 543.415C97.8134 542.991 98.0237 542.619 98.2926 542.301C98.5653 541.983 98.8835 541.729 99.2472 541.54C99.6146 541.347 100.01 541.227 100.435 541.182C100.813 541.144 101.158 541.161 101.469 541.233C101.779 541.301 102.035 541.405 102.236 541.545C102.437 541.682 102.563 541.833 102.616 542H102.685V541.364H103.889V546.5C103.889 546.818 103.978 547.098 104.156 547.341C104.334 547.583 104.594 547.705 104.935 547.705C105.321 547.705 105.616 547.572 105.821 547.307C106.029 547.042 106.171 546.633 106.247 546.08C106.327 545.527 106.366 544.818 106.366 543.955C106.366 543.447 106.296 542.947 106.156 542.455C106.02 541.958 105.812 541.494 105.531 541.062C105.255 540.631 104.904 540.25 104.48 539.92C104.056 539.591 103.558 539.333 102.986 539.148C102.418 538.958 101.772 538.864 101.048 538.864C100.158 538.864 99.3608 539.002 98.6562 539.278C97.9555 539.551 97.3589 539.951 96.8665 540.477C96.3778 541 96.0047 541.636 95.7472 542.386C95.4934 543.133 95.3665 543.981 95.3665 544.932C95.3665 545.898 95.4934 546.756 95.7472 547.506C96.0047 548.256 96.3835 548.888 96.8835 549.403C97.3873 549.919 98.0104 550.309 98.7528 550.574C99.4953 550.843 100.351 550.977 101.321 550.977C101.738 550.977 102.149 550.938 102.554 550.858C102.959 550.778 103.317 550.691 103.628 550.597C103.938 550.502 104.162 550.432 104.298 550.386L104.616 551.432C104.382 551.53 104.075 551.629 103.696 551.727C103.321 551.826 102.92 551.907 102.491 551.972C102.067 552.036 101.662 552.068 101.276 552.068ZM100.616 547.545C101.124 547.545 101.535 547.443 101.849 547.239C102.164 547.034 102.393 546.725 102.537 546.312C102.681 545.9 102.753 545.379 102.753 544.75C102.753 544.114 102.673 543.617 102.514 543.261C102.355 542.905 102.12 542.655 101.81 542.511C101.499 542.367 101.116 542.295 100.662 542.295C100.23 542.295 99.8608 542.409 99.554 542.636C99.2509 542.86 99.018 543.159 98.8551 543.534C98.696 543.905 98.6165 544.311 98.6165 544.75C98.6165 545.235 98.6809 545.691 98.8097 546.119C98.9384 546.544 99.1487 546.888 99.4403 547.153C99.732 547.415 100.124 547.545 100.616 547.545ZM109.555 549V540.273H110.896V549H109.555ZM110.237 538.818C109.976 538.818 109.75 538.729 109.561 538.551C109.375 538.373 109.283 538.159 109.283 537.909C109.283 537.659 109.375 537.445 109.561 537.267C109.75 537.089 109.976 537 110.237 537C110.499 537 110.722 537.089 110.908 537.267C111.097 537.445 111.192 537.659 111.192 537.909C111.192 538.159 111.097 538.373 110.908 538.551C110.722 538.729 110.499 538.818 110.237 538.818ZM117.148 540.273V541.409H112.625V540.273H117.148ZM113.943 538.182H115.284V546.5C115.284 546.879 115.339 547.163 115.449 547.352C115.563 547.538 115.706 547.663 115.881 547.727C116.059 547.788 116.246 547.818 116.443 547.818C116.591 547.818 116.712 547.811 116.807 547.795C116.902 547.777 116.977 547.761 117.034 547.75L117.307 548.955C117.216 548.989 117.089 549.023 116.926 549.057C116.763 549.095 116.557 549.114 116.307 549.114C115.928 549.114 115.557 549.032 115.193 548.869C114.833 548.706 114.534 548.458 114.295 548.125C114.061 547.792 113.943 547.371 113.943 546.864V538.182ZM123.852 543.386V544.636H118.761V543.386H123.852ZM126.393 549V537.364H127.734V541.659H127.848C127.946 541.508 128.083 541.314 128.257 541.08C128.435 540.841 128.689 540.629 129.018 540.443C129.352 540.254 129.803 540.159 130.371 540.159C131.106 540.159 131.753 540.343 132.314 540.71C132.875 541.078 133.312 541.598 133.626 542.273C133.941 542.947 134.098 543.742 134.098 544.659C134.098 545.583 133.941 546.384 133.626 547.062C133.312 547.737 132.876 548.259 132.32 548.631C131.763 548.998 131.121 549.182 130.393 549.182C129.833 549.182 129.384 549.089 129.047 548.903C128.71 548.714 128.45 548.5 128.268 548.261C128.087 548.019 127.946 547.818 127.848 547.659H127.689V549H126.393ZM127.712 544.636C127.712 545.295 127.808 545.877 128.001 546.381C128.195 546.881 128.477 547.273 128.848 547.557C129.219 547.837 129.674 547.977 130.212 547.977C130.772 547.977 131.24 547.83 131.615 547.534C131.994 547.235 132.278 546.833 132.467 546.33C132.661 545.822 132.757 545.258 132.757 544.636C132.757 544.023 132.662 543.47 132.473 542.977C132.287 542.481 132.005 542.089 131.626 541.801C131.251 541.509 130.78 541.364 130.212 541.364C129.666 541.364 129.208 541.502 128.837 541.778C128.465 542.051 128.185 542.434 127.996 542.926C127.806 543.415 127.712 543.985 127.712 544.636ZM141.149 543.386V544.636H136.058V543.386H141.149ZM143.509 549V540.273H144.849V549H143.509ZM144.19 538.818C143.929 538.818 143.704 538.729 143.514 538.551C143.329 538.373 143.236 538.159 143.236 537.909C143.236 537.659 143.329 537.445 143.514 537.267C143.704 537.089 143.929 537 144.19 537C144.452 537 144.675 537.089 144.861 537.267C145.05 537.445 145.145 537.659 145.145 537.909C145.145 538.159 145.05 538.373 144.861 538.551C144.675 538.729 144.452 538.818 144.19 538.818ZM148.283 549.091C148.002 549.091 147.762 548.991 147.561 548.79C147.36 548.589 147.26 548.348 147.26 548.068C147.26 547.788 147.36 547.547 147.561 547.347C147.762 547.146 148.002 547.045 148.283 547.045C148.563 547.045 148.804 547.146 149.004 547.347C149.205 547.547 149.305 547.788 149.305 548.068C149.305 548.254 149.258 548.424 149.163 548.58C149.072 548.735 148.949 548.86 148.794 548.955C148.643 549.045 148.472 549.091 148.283 549.091ZM151.712 549V540.273H153.007V541.591H153.098C153.257 541.159 153.545 540.809 153.962 540.54C154.378 540.271 154.848 540.136 155.371 540.136C155.469 540.136 155.592 540.138 155.74 540.142C155.888 540.146 156 540.152 156.075 540.159V541.523C156.03 541.511 155.926 541.494 155.763 541.472C155.604 541.445 155.435 541.432 155.257 541.432C154.833 541.432 154.454 541.521 154.121 541.699C153.791 541.873 153.53 542.116 153.337 542.426C153.147 542.733 153.053 543.083 153.053 543.477V549H151.712ZM163.165 545.432V540.273H164.506V549H163.165V547.523H163.074C162.869 547.966 162.551 548.343 162.119 548.653C161.688 548.96 161.142 549.114 160.483 549.114C159.938 549.114 159.453 548.994 159.028 548.756C158.604 548.513 158.271 548.15 158.028 547.665C157.786 547.176 157.665 546.561 157.665 545.818V540.273H159.006V545.727C159.006 546.364 159.184 546.871 159.54 547.25C159.9 547.629 160.358 547.818 160.915 547.818C161.248 547.818 161.587 547.733 161.932 547.562C162.28 547.392 162.572 547.131 162.807 546.778C163.045 546.426 163.165 545.977 163.165 545.432Z" fill="#6A6A6A"/>
<path d="M7 552.182H165.733V553.273H7V552.182Z" fill="#6A6A6A"/>
<path d="M227.381 500.344V498.455H238.638V500.344H234.099V513H231.912V500.344H227.381ZM244.075 513.22C243 513.22 242.074 512.991 241.298 512.531C240.526 512.067 239.929 511.416 239.508 510.578C239.091 509.735 238.883 508.748 238.883 507.616C238.883 506.499 239.091 505.514 239.508 504.662C239.929 503.81 240.516 503.144 241.269 502.666C242.027 502.188 242.912 501.949 243.925 501.949C244.541 501.949 245.138 502.051 245.715 502.254C246.293 502.458 246.811 502.777 247.271 503.213C247.73 503.649 248.092 504.214 248.357 504.911C248.622 505.602 248.755 506.442 248.755 507.432V508.185H240.083V506.594H246.674C246.674 506.035 246.56 505.54 246.333 505.109C246.106 504.674 245.786 504.33 245.374 504.08C244.967 503.829 244.489 503.703 243.94 503.703C243.343 503.703 242.822 503.85 242.377 504.143C241.937 504.432 241.596 504.811 241.354 505.28C241.118 505.744 240.999 506.248 240.999 506.793V508.036C240.999 508.765 241.127 509.385 241.383 509.896C241.643 510.408 242.005 510.798 242.469 511.068C242.933 511.333 243.476 511.466 244.096 511.466C244.498 511.466 244.865 511.409 245.197 511.295C245.528 511.177 245.815 511.002 246.056 510.77C246.298 510.538 246.482 510.251 246.61 509.911L248.62 510.273C248.459 510.865 248.17 511.383 247.754 511.828C247.342 512.268 246.823 512.612 246.198 512.858C245.578 513.099 244.87 513.22 244.075 513.22ZM250.252 513L250.245 511.161H250.635C250.938 511.161 251.192 511.097 251.395 510.969C251.604 510.836 251.774 510.614 251.907 510.301C252.039 509.989 252.141 509.558 252.212 509.009C252.283 508.455 252.335 507.759 252.368 506.92L252.56 502.091H260.174V513H258.093V503.923H254.527L254.357 507.631C254.314 508.53 254.222 509.316 254.08 509.989C253.943 510.661 253.741 511.222 253.476 511.672C253.211 512.117 252.87 512.451 252.453 512.673C252.037 512.891 251.53 513 250.934 513H250.252ZM267.707 513.22C266.633 513.22 265.707 512.991 264.93 512.531C264.159 512.067 263.562 511.416 263.141 510.578C262.724 509.735 262.516 508.748 262.516 507.616C262.516 506.499 262.724 505.514 263.141 504.662C263.562 503.81 264.149 503.144 264.902 502.666C265.66 502.188 266.545 501.949 267.558 501.949C268.174 501.949 268.77 502.051 269.348 502.254C269.926 502.458 270.444 502.777 270.903 503.213C271.363 503.649 271.725 504.214 271.99 504.911C272.255 505.602 272.388 506.442 272.388 507.432V508.185H263.716V506.594H270.307C270.307 506.035 270.193 505.54 269.966 505.109C269.739 504.674 269.419 504.33 269.007 504.08C268.6 503.829 268.122 503.703 267.572 503.703C266.976 503.703 266.455 503.85 266.01 504.143C265.57 504.432 265.229 504.811 264.987 505.28C264.75 505.744 264.632 506.248 264.632 506.793V508.036C264.632 508.765 264.76 509.385 265.016 509.896C265.276 510.408 265.638 510.798 266.102 511.068C266.566 511.333 267.108 511.466 267.729 511.466C268.131 511.466 268.498 511.409 268.83 511.295C269.161 511.177 269.447 511.002 269.689 510.77C269.93 510.538 270.115 510.251 270.243 509.911L272.253 510.273C272.092 510.865 271.803 511.383 271.386 511.828C270.974 512.268 270.456 512.612 269.831 512.858C269.211 513.099 268.503 513.22 267.707 513.22ZM279.439 516.714V498.455H281.562V516.714H279.439ZM279.439 513.22C278.667 513.22 277.964 513.088 277.329 512.822C276.695 512.553 276.148 512.169 275.689 511.672C275.229 511.175 274.874 510.58 274.623 509.889C274.377 509.198 274.254 508.433 274.254 507.595C274.254 506.748 274.377 505.978 274.623 505.287C274.874 504.596 275.229 504.001 275.689 503.504C276.148 503.007 276.695 502.624 277.329 502.354C277.964 502.084 278.667 501.949 279.439 501.949H279.964V513.22H279.439ZM279.439 511.43H279.737V503.739H279.439C278.927 503.739 278.482 503.843 278.103 504.051C277.725 504.255 277.41 504.536 277.159 504.896C276.908 505.251 276.718 505.661 276.591 506.125C276.467 506.589 276.406 507.079 276.406 507.595C276.406 508.286 276.517 508.923 276.74 509.506C276.962 510.083 277.298 510.55 277.748 510.905C278.198 511.255 278.761 511.43 279.439 511.43ZM281.562 513.22H281.029V501.949H281.562C282.334 501.949 283.037 502.084 283.672 502.354C284.306 502.624 284.85 503.007 285.305 503.504C285.764 504.001 286.117 504.596 286.363 505.287C286.614 505.978 286.74 506.748 286.74 507.595C286.74 508.433 286.614 509.198 286.363 509.889C286.117 510.58 285.764 511.175 285.305 511.672C284.85 512.169 284.306 512.553 283.672 512.822C283.037 513.088 282.334 513.22 281.562 513.22ZM281.562 511.43C282.074 511.43 282.519 511.331 282.897 511.132C283.276 510.929 283.591 510.649 283.842 510.294C284.093 509.934 284.28 509.525 284.403 509.065C284.526 508.601 284.588 508.111 284.588 507.595C284.588 506.909 284.476 506.274 284.254 505.692C284.036 505.105 283.702 504.634 283.252 504.278C282.803 503.919 282.239 503.739 281.562 503.739H281.257V511.43H281.562ZM293.695 513.22C292.672 513.22 291.779 512.986 291.017 512.517C290.255 512.048 289.663 511.393 289.241 510.55C288.82 509.707 288.609 508.722 288.609 507.595C288.609 506.464 288.82 505.474 289.241 504.626C289.663 503.779 290.255 503.121 291.017 502.652C291.779 502.183 292.672 501.949 293.695 501.949C294.717 501.949 295.61 502.183 296.372 502.652C297.134 503.121 297.726 503.779 298.148 504.626C298.569 505.474 298.78 506.464 298.78 507.595C298.78 508.722 298.569 509.707 298.148 510.55C297.726 511.393 297.134 512.048 296.372 512.517C295.61 512.986 294.717 513.22 293.695 513.22ZM293.702 511.438C294.365 511.438 294.914 511.262 295.349 510.912C295.785 510.562 296.107 510.095 296.315 509.513C296.528 508.93 296.635 508.289 296.635 507.588C296.635 506.892 296.528 506.253 296.315 505.67C296.107 505.083 295.785 504.612 295.349 504.257C294.914 503.902 294.365 503.724 293.702 503.724C293.034 503.724 292.48 503.902 292.04 504.257C291.604 504.612 291.28 505.083 291.067 505.67C290.858 506.253 290.754 506.892 290.754 507.588C290.754 508.289 290.858 508.93 291.067 509.513C291.28 510.095 291.604 510.562 292.04 510.912C292.48 511.262 293.034 511.438 293.702 511.438ZM308.544 506.629V508.469H302.635V506.629H308.544ZM303.231 502.091V513H301.15V502.091H303.231ZM310.028 502.091V513H307.954V502.091H310.028Z" fill="#03000A"/>
<path d="M231.136 546.955V539.455H232.409V546.955H231.136ZM228.023 543.841V542.568H235.523V543.841H228.023ZM238.256 549L243.46 538.705V538.614H237.46V537.364H244.915V538.682L239.733 549H238.256ZM252.033 543.182C252.033 541.75 252.218 540.434 252.589 539.233C252.964 538.028 253.499 536.92 254.192 535.909H255.374C255.101 536.284 254.845 536.746 254.607 537.295C254.372 537.841 254.165 538.441 253.987 539.097C253.809 539.748 253.669 540.422 253.567 541.119C253.468 541.816 253.419 542.504 253.419 543.182C253.419 544.083 253.506 544.998 253.68 545.926C253.855 546.854 254.089 547.716 254.385 548.511C254.68 549.307 255.01 549.955 255.374 550.455H254.192C253.499 549.443 252.964 548.337 252.589 547.136C252.218 545.932 252.033 544.614 252.033 543.182ZM261.034 537.205C261.511 537.208 261.989 537.299 262.466 537.477C262.943 537.655 263.379 537.951 263.773 538.364C264.167 538.773 264.483 539.331 264.722 540.04C264.96 540.748 265.08 541.636 265.08 542.705C265.08 543.739 264.981 544.657 264.784 545.46C264.591 546.259 264.311 546.934 263.943 547.483C263.58 548.032 263.136 548.449 262.614 548.733C262.095 549.017 261.508 549.159 260.852 549.159C260.201 549.159 259.619 549.03 259.108 548.773C258.6 548.511 258.184 548.15 257.858 547.688C257.536 547.222 257.33 546.682 257.239 546.068H258.625C258.75 546.602 258.998 547.044 259.369 547.392C259.744 547.737 260.239 547.909 260.852 547.909C261.75 547.909 262.458 547.517 262.977 546.733C263.5 545.949 263.761 544.841 263.761 543.409H263.67C263.458 543.727 263.206 544.002 262.915 544.233C262.623 544.464 262.299 544.642 261.943 544.767C261.587 544.892 261.208 544.955 260.807 544.955C260.14 544.955 259.528 544.79 258.972 544.46C258.419 544.127 257.975 543.67 257.642 543.091C257.312 542.508 257.148 541.841 257.148 541.091C257.148 540.379 257.307 539.727 257.625 539.136C257.947 538.542 258.398 538.068 258.977 537.716C259.561 537.364 260.246 537.193 261.034 537.205ZM261.034 538.455C260.557 538.455 260.127 538.574 259.744 538.812C259.366 539.047 259.064 539.366 258.841 539.767C258.621 540.165 258.511 540.606 258.511 541.091C258.511 541.576 258.617 542.017 258.83 542.415C259.045 542.809 259.339 543.123 259.71 543.358C260.085 543.589 260.511 543.705 260.989 543.705C261.348 543.705 261.684 543.634 261.994 543.494C262.305 543.35 262.576 543.155 262.807 542.909C263.042 542.659 263.225 542.377 263.358 542.062C263.491 541.744 263.557 541.413 263.557 541.068C263.557 540.614 263.447 540.187 263.227 539.79C263.011 539.392 262.712 539.07 262.33 538.824C261.951 538.578 261.519 538.455 261.034 538.455ZM271.178 549.159C270.7 549.152 270.223 549.061 269.746 548.886C269.268 548.712 268.833 548.419 268.439 548.006C268.045 547.589 267.729 547.027 267.49 546.318C267.251 545.606 267.132 544.712 267.132 543.636C267.132 542.606 267.229 541.693 267.422 540.898C267.615 540.098 267.895 539.426 268.263 538.881C268.63 538.331 269.073 537.915 269.592 537.631C270.115 537.347 270.704 537.205 271.359 537.205C272.011 537.205 272.59 537.335 273.098 537.597C273.609 537.854 274.026 538.214 274.348 538.676C274.67 539.138 274.878 539.67 274.973 540.273H273.587C273.458 539.75 273.208 539.316 272.837 538.972C272.465 538.627 271.973 538.455 271.359 538.455C270.458 538.455 269.748 538.847 269.229 539.631C268.714 540.415 268.454 541.515 268.45 542.932H268.541C268.753 542.61 269.005 542.335 269.297 542.108C269.592 541.877 269.918 541.699 270.274 541.574C270.63 541.449 271.007 541.386 271.405 541.386C272.071 541.386 272.681 541.553 273.234 541.886C273.787 542.216 274.231 542.672 274.564 543.256C274.897 543.835 275.064 544.5 275.064 545.25C275.064 545.97 274.903 546.629 274.581 547.227C274.259 547.822 273.806 548.295 273.223 548.648C272.643 548.996 271.962 549.167 271.178 549.159ZM271.178 547.909C271.655 547.909 272.083 547.79 272.462 547.551C272.844 547.312 273.145 546.992 273.365 546.591C273.589 546.189 273.7 545.742 273.7 545.25C273.7 544.769 273.592 544.331 273.376 543.938C273.164 543.54 272.871 543.223 272.496 542.989C272.125 542.754 271.7 542.636 271.223 542.636C270.863 542.636 270.528 542.708 270.217 542.852C269.907 542.992 269.634 543.186 269.399 543.432C269.168 543.678 268.986 543.96 268.854 544.278C268.721 544.593 268.655 544.924 268.655 545.273C268.655 545.735 268.763 546.167 268.979 546.568C269.198 546.97 269.498 547.294 269.876 547.54C270.259 547.786 270.693 547.909 271.178 547.909ZM277.026 546.614V545.455L282.139 537.364H282.98V539.159H282.412L278.548 545.273V545.364H285.435V546.614H277.026ZM282.503 549V546.261V545.722V537.364H283.844V549H282.503ZM290.45 543.182C290.45 544.614 290.263 545.932 289.888 547.136C289.517 548.337 288.984 549.443 288.291 550.455H287.109C287.382 550.08 287.636 549.617 287.871 549.068C288.109 548.523 288.318 547.924 288.496 547.273C288.674 546.617 288.812 545.941 288.911 545.244C289.013 544.544 289.064 543.856 289.064 543.182C289.064 542.28 288.977 541.366 288.803 540.438C288.628 539.509 288.393 538.648 288.098 537.852C287.803 537.057 287.473 536.409 287.109 535.909H288.291C288.984 536.92 289.517 538.028 289.888 539.233C290.263 540.434 290.45 541.75 290.45 543.182ZM301.497 549.159C300.83 549.159 300.23 549.027 299.696 548.761C299.162 548.496 298.734 548.133 298.412 547.67C298.09 547.208 297.914 546.682 297.884 546.091H299.247C299.3 546.617 299.539 547.053 299.963 547.398C300.391 547.739 300.902 547.909 301.497 547.909C301.974 547.909 302.399 547.797 302.77 547.574C303.145 547.35 303.438 547.044 303.651 546.653C303.866 546.259 303.974 545.814 303.974 545.318C303.974 544.811 303.863 544.358 303.639 543.96C303.42 543.559 303.116 543.242 302.73 543.011C302.344 542.78 301.902 542.663 301.406 542.659C301.05 542.655 300.685 542.71 300.31 542.824C299.935 542.934 299.626 543.076 299.384 543.25L298.065 543.091L298.77 537.364H304.815V538.614H299.952L299.543 542.045H299.611C299.849 541.856 300.149 541.699 300.509 541.574C300.868 541.449 301.243 541.386 301.634 541.386C302.346 541.386 302.98 541.557 303.537 541.898C304.098 542.235 304.537 542.697 304.855 543.284C305.177 543.871 305.338 544.542 305.338 545.295C305.338 546.038 305.171 546.701 304.838 547.284C304.509 547.864 304.054 548.322 303.474 548.659C302.895 548.992 302.236 549.159 301.497 549.159ZM307.595 549V547.977L311.436 543.773C311.887 543.28 312.258 542.852 312.55 542.489C312.841 542.121 313.057 541.777 313.197 541.455C313.341 541.129 313.413 540.788 313.413 540.432C313.413 540.023 313.315 539.669 313.118 539.369C312.925 539.07 312.66 538.839 312.322 538.676C311.985 538.513 311.607 538.432 311.186 538.432C310.739 538.432 310.349 538.525 310.016 538.71C309.686 538.892 309.43 539.148 309.249 539.477C309.071 539.807 308.982 540.193 308.982 540.636H307.641C307.641 539.955 307.798 539.356 308.112 538.841C308.427 538.326 308.855 537.924 309.396 537.636C309.942 537.348 310.554 537.205 311.232 537.205C311.913 537.205 312.518 537.348 313.044 537.636C313.571 537.924 313.983 538.312 314.283 538.801C314.582 539.29 314.732 539.833 314.732 540.432C314.732 540.86 314.654 541.278 314.499 541.688C314.347 542.093 314.082 542.545 313.703 543.045C313.328 543.542 312.807 544.148 312.141 544.864L309.527 547.659V547.75H314.936V549H307.595ZM320.987 537.205C321.464 537.208 321.942 537.299 322.419 537.477C322.896 537.655 323.332 537.951 323.726 538.364C324.12 538.773 324.436 539.331 324.675 540.04C324.913 540.748 325.033 541.636 325.033 542.705C325.033 543.739 324.934 544.657 324.737 545.46C324.544 546.259 324.264 546.934 323.896 547.483C323.533 548.032 323.089 548.449 322.567 548.733C322.048 549.017 321.461 549.159 320.805 549.159C320.154 549.159 319.572 549.03 319.061 548.773C318.554 548.511 318.137 548.15 317.811 547.688C317.489 547.222 317.283 546.682 317.192 546.068H318.578C318.703 546.602 318.951 547.044 319.322 547.392C319.697 547.737 320.192 547.909 320.805 547.909C321.703 547.909 322.411 547.517 322.93 546.733C323.453 545.949 323.714 544.841 323.714 543.409H323.624C323.411 543.727 323.16 544.002 322.868 544.233C322.576 544.464 322.252 544.642 321.896 544.767C321.54 544.892 321.161 544.955 320.76 544.955C320.093 544.955 319.482 544.79 318.925 544.46C318.372 544.127 317.929 543.67 317.595 543.091C317.266 542.508 317.101 541.841 317.101 541.091C317.101 540.379 317.26 539.727 317.578 539.136C317.9 538.542 318.351 538.068 318.93 537.716C319.514 537.364 320.199 537.193 320.987 537.205ZM320.987 538.455C320.51 538.455 320.08 538.574 319.697 538.812C319.319 539.047 319.018 539.366 318.794 539.767C318.574 540.165 318.464 540.606 318.464 541.091C318.464 541.576 318.571 542.017 318.783 542.415C318.999 542.809 319.292 543.123 319.663 543.358C320.038 543.589 320.464 543.705 320.942 543.705C321.302 543.705 321.637 543.634 321.947 543.494C322.258 543.35 322.529 543.155 322.76 542.909C322.995 542.659 323.179 542.377 323.311 542.062C323.444 541.744 323.51 541.413 323.51 541.068C323.51 540.614 323.4 540.187 323.18 539.79C322.964 539.392 322.665 539.07 322.283 538.824C321.904 538.578 321.472 538.455 320.987 538.455ZM332.29 542.557V543.807H327.199V542.557H332.29ZM338.371 549.159C337.621 549.159 336.952 549.03 336.365 548.773C335.782 548.515 335.318 548.157 334.973 547.699C334.632 547.237 334.446 546.701 334.416 546.091H335.848C335.878 546.466 336.007 546.79 336.234 547.062C336.462 547.331 336.759 547.54 337.126 547.688C337.494 547.835 337.901 547.909 338.348 547.909C338.848 547.909 339.291 547.822 339.678 547.648C340.064 547.473 340.367 547.231 340.587 546.92C340.806 546.61 340.916 546.25 340.916 545.841C340.916 545.413 340.81 545.036 340.598 544.71C340.386 544.381 340.075 544.123 339.666 543.938C339.257 543.752 338.757 543.659 338.166 543.659H337.234V542.409H338.166C338.628 542.409 339.034 542.326 339.382 542.159C339.734 541.992 340.009 541.758 340.206 541.455C340.407 541.152 340.507 540.795 340.507 540.386C340.507 539.992 340.42 539.65 340.246 539.358C340.071 539.066 339.825 538.839 339.507 538.676C339.193 538.513 338.821 538.432 338.393 538.432C337.992 538.432 337.613 538.506 337.257 538.653C336.905 538.797 336.617 539.008 336.393 539.284C336.17 539.557 336.049 539.886 336.03 540.273H334.666C334.689 539.663 334.873 539.129 335.217 538.67C335.562 538.208 336.013 537.848 336.57 537.591C337.13 537.333 337.746 537.205 338.416 537.205C339.136 537.205 339.753 537.35 340.268 537.642C340.784 537.93 341.179 538.311 341.456 538.784C341.732 539.258 341.871 539.769 341.871 540.318C341.871 540.973 341.698 541.532 341.354 541.994C341.013 542.456 340.549 542.777 339.962 542.955V543.045C340.696 543.167 341.27 543.479 341.683 543.983C342.096 544.483 342.303 545.102 342.303 545.841C342.303 546.473 342.13 547.042 341.786 547.545C341.445 548.045 340.979 548.439 340.388 548.727C339.797 549.015 339.125 549.159 338.371 549.159ZM348.331 537.205C348.808 537.208 349.286 537.299 349.763 537.477C350.24 537.655 350.676 537.951 351.07 538.364C351.464 538.773 351.78 539.331 352.018 540.04C352.257 540.748 352.376 541.636 352.376 542.705C352.376 543.739 352.278 544.657 352.081 545.46C351.888 546.259 351.607 546.934 351.24 547.483C350.876 548.032 350.433 548.449 349.911 548.733C349.392 549.017 348.804 549.159 348.149 549.159C347.498 549.159 346.916 549.03 346.405 548.773C345.897 548.511 345.481 548.15 345.155 547.688C344.833 547.222 344.626 546.682 344.536 546.068H345.922C346.047 546.602 346.295 547.044 346.666 547.392C347.041 547.737 347.536 547.909 348.149 547.909C349.047 547.909 349.755 547.517 350.274 546.733C350.797 545.949 351.058 544.841 351.058 543.409H350.967C350.755 543.727 350.503 544.002 350.212 544.233C349.92 544.464 349.596 544.642 349.24 544.767C348.884 544.892 348.505 544.955 348.104 544.955C347.437 544.955 346.825 544.79 346.268 544.46C345.715 544.127 345.272 543.67 344.939 543.091C344.609 542.508 344.445 541.841 344.445 541.091C344.445 540.379 344.604 539.727 344.922 539.136C345.244 538.542 345.695 538.068 346.274 537.716C346.857 537.364 347.543 537.193 348.331 537.205ZM348.331 538.455C347.854 538.455 347.424 538.574 347.041 538.812C346.662 539.047 346.361 539.366 346.138 539.767C345.918 540.165 345.808 540.606 345.808 541.091C345.808 541.576 345.914 542.017 346.126 542.415C346.342 542.809 346.636 543.123 347.007 543.358C347.382 543.589 347.808 543.705 348.286 543.705C348.645 543.705 348.981 543.634 349.291 543.494C349.602 543.35 349.873 543.155 350.104 542.909C350.339 542.659 350.522 542.377 350.655 542.062C350.787 541.744 350.854 541.413 350.854 541.068C350.854 540.614 350.744 540.187 350.524 539.79C350.308 539.392 350.009 539.07 349.626 538.824C349.248 538.578 348.816 538.455 348.331 538.455ZM359.634 542.557V543.807H354.543V542.557H359.634ZM365.834 549.159C365.357 549.152 364.879 549.061 364.402 548.886C363.925 548.712 363.489 548.419 363.095 548.006C362.701 547.589 362.385 547.027 362.146 546.318C361.908 545.606 361.788 544.712 361.788 543.636C361.788 542.606 361.885 541.693 362.078 540.898C362.271 540.098 362.552 539.426 362.919 538.881C363.286 538.331 363.73 537.915 364.249 537.631C364.771 537.347 365.36 537.205 366.016 537.205C366.667 537.205 367.247 537.335 367.754 537.597C368.266 537.854 368.682 538.214 369.004 538.676C369.326 539.138 369.535 539.67 369.629 540.273H368.243C368.114 539.75 367.864 539.316 367.493 538.972C367.122 538.627 366.629 538.455 366.016 538.455C365.114 538.455 364.404 538.847 363.885 539.631C363.37 540.415 363.11 541.515 363.107 542.932H363.197C363.41 542.61 363.661 542.335 363.953 542.108C364.249 541.877 364.574 541.699 364.93 541.574C365.286 541.449 365.663 541.386 366.061 541.386C366.728 541.386 367.338 541.553 367.891 541.886C368.444 542.216 368.887 542.672 369.22 543.256C369.554 543.835 369.72 544.5 369.72 545.25C369.72 545.97 369.559 546.629 369.237 547.227C368.915 547.822 368.463 548.295 367.879 548.648C367.3 548.996 366.618 549.167 365.834 549.159ZM365.834 547.909C366.311 547.909 366.739 547.79 367.118 547.551C367.5 547.312 367.802 546.992 368.021 546.591C368.245 546.189 368.357 545.742 368.357 545.25C368.357 544.769 368.249 544.331 368.033 543.938C367.821 543.54 367.527 543.223 367.152 542.989C366.781 542.754 366.357 542.636 365.879 542.636C365.519 542.636 365.184 542.708 364.874 542.852C364.563 542.992 364.29 543.186 364.055 543.432C363.824 543.678 363.643 543.96 363.51 544.278C363.377 544.593 363.311 544.924 363.311 545.273C363.311 545.735 363.419 546.167 363.635 546.568C363.855 546.97 364.154 547.294 364.533 547.54C364.915 547.786 365.349 547.909 365.834 547.909ZM375.682 549.159C374.902 549.159 374.212 549.021 373.614 548.744C373.019 548.464 372.555 548.08 372.222 547.591C371.888 547.098 371.723 546.538 371.727 545.909C371.723 545.417 371.82 544.962 372.017 544.545C372.214 544.125 372.483 543.775 372.824 543.494C373.169 543.21 373.553 543.03 373.977 542.955V542.886C373.42 542.742 372.977 542.43 372.648 541.949C372.318 541.464 372.155 540.913 372.159 540.295C372.155 539.705 372.305 539.176 372.608 538.71C372.911 538.244 373.328 537.877 373.858 537.608C374.392 537.339 375 537.205 375.682 537.205C376.356 537.205 376.958 537.339 377.489 537.608C378.019 537.877 378.436 538.244 378.739 538.71C379.045 539.176 379.201 539.705 379.205 540.295C379.201 540.913 379.032 541.464 378.699 541.949C378.369 542.43 377.932 542.742 377.386 542.886V542.955C377.807 543.03 378.186 543.21 378.523 543.494C378.86 543.775 379.129 544.125 379.33 544.545C379.53 544.962 379.633 545.417 379.636 545.909C379.633 546.538 379.462 547.098 379.125 547.591C378.792 548.08 378.328 548.464 377.733 548.744C377.142 549.021 376.458 549.159 375.682 549.159ZM375.682 547.909C376.208 547.909 376.663 547.824 377.045 547.653C377.428 547.483 377.723 547.242 377.932 546.932C378.14 546.621 378.246 546.258 378.25 545.841C378.246 545.402 378.133 545.013 377.909 544.676C377.686 544.339 377.381 544.074 376.994 543.881C376.612 543.687 376.174 543.591 375.682 543.591C375.186 543.591 374.742 543.687 374.352 543.881C373.966 544.074 373.661 544.339 373.438 544.676C373.218 545.013 373.11 545.402 373.114 545.841C373.11 546.258 373.21 546.621 373.415 546.932C373.623 547.242 373.92 547.483 374.307 547.653C374.693 547.824 375.152 547.909 375.682 547.909ZM375.682 542.386C376.098 542.386 376.468 542.303 376.79 542.136C377.116 541.97 377.371 541.737 377.557 541.438C377.742 541.138 377.837 540.788 377.841 540.386C377.837 539.992 377.744 539.65 377.562 539.358C377.381 539.062 377.129 538.835 376.807 538.676C376.485 538.513 376.11 538.432 375.682 538.432C375.246 538.432 374.866 538.513 374.54 538.676C374.214 538.835 373.962 539.062 373.784 539.358C373.606 539.65 373.519 539.992 373.523 540.386C373.519 540.788 373.608 541.138 373.79 541.438C373.975 541.737 374.231 541.97 374.557 542.136C374.883 542.303 375.258 542.386 375.682 542.386Z" fill="#6A6A6A"/>
<path d="M226.5 552.182H380.614V553.273H226.5V552.182Z" fill="#6A6A6A"/>
<rect x="442" y="500" width="48" height="48" rx="24" fill="#6A6A6A"/>
<g clip-path="url(#clip0_2065_379)">
<path d="M454 535L455.696 528.84C454.648 527.032 454.097 524.985 454.103 522.892C454.103 516.333 459.467 511 466.052 511C469.249 511 472.252 512.238 474.504 514.485C476.762 516.732 478.006 519.721 478 522.897C478 529.456 472.636 534.789 466.046 534.789H466.04C464.04 534.789 462.074 534.287 460.327 533.34L454 535ZM460.63 531.19L460.991 531.407C462.516 532.308 464.264 532.781 466.046 532.787H466.052C471.524 532.787 475.983 528.356 475.983 522.903C475.983 520.262 474.951 517.781 473.077 515.911C471.203 514.04 468.705 513.013 466.052 513.013C460.579 513.008 456.12 517.439 456.12 522.892C456.12 524.757 456.642 526.576 457.639 528.15L457.874 528.527L456.871 532.171L460.63 531.19Z" fill="white"/>
<path d="M454.418 534.584L456.057 528.635C455.043 526.895 454.51 524.916 454.51 522.897C454.516 516.566 459.691 511.416 466.052 511.416C469.14 511.416 472.034 512.614 474.212 514.781C476.39 516.949 477.587 519.835 477.587 522.903C477.587 529.234 472.407 534.384 466.052 534.384H466.046C464.115 534.384 462.218 533.899 460.533 532.987L454.418 534.584Z" fill="#6A6A6A"/>
<path d="M454 535L455.696 528.84C454.648 527.032 454.097 524.985 454.103 522.892C454.103 516.333 459.467 511 466.052 511C469.249 511 472.252 512.238 474.504 514.485C476.762 516.732 478.006 519.721 478 522.897C478 529.456 472.636 534.789 466.046 534.789H466.04C464.04 534.789 462.074 534.287 460.327 533.34L454 535ZM460.63 531.19L460.991 531.407C462.516 532.308 464.264 532.781 466.046 532.787H466.052C471.524 532.787 475.983 528.356 475.983 522.903C475.983 520.262 474.951 517.781 473.077 515.911C471.203 514.04 468.705 513.013 466.052 513.013C460.579 513.008 456.12 517.439 456.12 522.892C456.12 524.757 456.642 526.576 457.639 528.15L457.874 528.527L456.871 532.171L460.63 531.19Z" fill="white"/>
<path fill-rule="evenodd" clip-rule="evenodd" d="M463.066 517.918C462.842 517.422 462.607 517.411 462.395 517.405C462.223 517.399 462.023 517.399 461.822 517.399C461.622 517.399 461.301 517.473 461.026 517.77C460.751 518.066 459.983 518.785 459.983 520.251C459.983 521.711 461.054 523.125 461.203 523.325C461.352 523.525 463.272 526.622 466.304 527.814C468.825 528.806 469.341 528.606 469.885 528.555C470.43 528.504 471.65 527.836 471.902 527.141C472.149 526.445 472.149 525.852 472.074 525.726C472 525.601 471.799 525.527 471.501 525.378C471.203 525.23 469.736 524.511 469.461 524.409C469.186 524.312 468.986 524.26 468.791 524.557C468.59 524.854 468.017 525.521 467.845 525.72C467.673 525.92 467.496 525.943 467.198 525.795C466.9 525.646 465.937 525.333 464.796 524.317C463.908 523.53 463.306 522.555 463.135 522.258C462.963 521.962 463.117 521.802 463.266 521.654C463.398 521.523 463.564 521.306 463.713 521.135C463.862 520.964 463.914 520.838 464.011 520.639C464.109 520.439 464.063 520.268 463.988 520.12C463.914 519.977 463.329 518.506 463.066 517.918Z" fill="white"/>
</g>
<rect x="506" y="500" width="48" height="48" rx="24" fill="#6A6A6A"/>
<path fill-rule="evenodd" clip-rule="evenodd" d="M518.037 522.293C524.239 519.591 528.374 517.81 530.443 516.95C536.351 514.492 537.578 514.066 538.378 514.051C538.554 514.048 538.948 514.092 539.203 514.299C539.418 514.473 539.477 514.709 539.505 514.875C539.534 515.04 539.569 515.418 539.541 515.712C539.221 519.076 537.836 527.239 537.131 531.006C536.833 532.601 536.245 533.135 535.677 533.187C534.442 533.301 533.504 532.371 532.307 531.587C530.435 530.359 529.377 529.595 527.56 528.398C525.459 527.014 526.821 526.253 528.018 525.01C528.331 524.684 533.774 519.734 533.879 519.284C533.893 519.228 533.905 519.019 533.781 518.908C533.656 518.798 533.473 518.836 533.34 518.866C533.152 518.908 530.161 520.885 524.367 524.796C523.518 525.379 522.749 525.663 522.06 525.649C521.301 525.632 519.839 525.219 518.753 524.866C517.421 524.433 516.362 524.204 516.454 523.469C516.502 523.086 517.03 522.694 518.037 522.293Z" fill="white"/>
<defs>
<clipPath id="clip0_2065_379">
<rect width="24" height="24" fill="white" transform="translate(454 511)"/>
</clipPath>
</defs>
</svg>
