<svg width="118" height="50" viewBox="0 0 118 50" fill="none" xmlns="http://www.w3.org/2000/svg">
<path d="M102.652 15C97.9565 20.2 89.2609 16.1667 86 14L88.5 25L87 36C90.913 31.5 103.196 32.5 104.5 35C105.543 37 112.217 44.1667 117 47V4C114.174 5.5 107.348 9.8 102.652 15Z" fill="white" stroke="white"/>
<rect x="0.5" y="0.5" width="89" height="49" rx="24.5" fill="#5A05FF"/>
<rect x="0.5" y="0.5" width="89" height="49" rx="24.5" stroke="white"/>
<rect x="0.5" y="0.5" width="89" height="49" rx="24.5" stroke="white"/>
<circle cx="24.5" cy="25" r="6" fill="white"/>
<path d="M36.2131 33.5V20.4091H38.7614V33.5H36.2131ZM37.5 18.3892C37.0568 18.3892 36.6761 18.2415 36.358 17.946C36.0455 17.6449 35.8892 17.2869 35.8892 16.8722C35.8892 16.4517 36.0455 16.0937 36.358 15.7983C36.6761 15.4972 37.0568 15.3466 37.5 15.3466C37.9432 15.3466 38.321 15.4972 38.6335 15.7983C38.9517 16.0937 39.1108 16.4517 39.1108 16.8722C39.1108 17.2869 38.9517 17.6449 38.6335 17.946C38.321 18.2415 37.9432 18.3892 37.5 18.3892ZM48.3004 20.4091V22.4545H41.1499V20.4091H48.3004ZM43.0675 17.2727H45.6158V29.6562C45.6158 30.1506 45.6896 30.5227 45.8374 30.7727C45.9851 31.017 46.1754 31.1847 46.4084 31.2756C46.647 31.3608 46.9055 31.4034 47.1839 31.4034C47.3885 31.4034 47.5675 31.3892 47.7209 31.3608C47.8743 31.3324 47.9936 31.3097 48.0788 31.2926L48.5391 33.3977C48.3913 33.4545 48.1811 33.5114 47.9084 33.5682C47.6357 33.6307 47.2947 33.6648 46.8857 33.6705C46.2152 33.6818 45.5902 33.5625 45.0107 33.3125C44.4311 33.0625 43.9624 32.6761 43.6044 32.1534C43.2464 31.6307 43.0675 30.9744 43.0675 30.1847V17.2727ZM51.6051 33.5V16.0455H54.1534V22.5312H54.3068C54.4545 22.2585 54.6676 21.9432 54.946 21.5852C55.2244 21.2273 55.6108 20.9148 56.1051 20.6477C56.5994 20.375 57.2528 20.2386 58.0653 20.2386C59.1222 20.2386 60.0653 20.5057 60.8949 21.0398C61.7244 21.5739 62.375 22.3437 62.8466 23.3494C63.3239 24.3551 63.5625 25.5653 63.5625 26.9801C63.5625 28.3949 63.3267 29.608 62.8551 30.6193C62.3835 31.625 61.7358 32.4006 60.9119 32.946C60.0881 33.4858 59.1477 33.7557 58.0909 33.7557C57.2955 33.7557 56.6449 33.6222 56.1392 33.3551C55.6392 33.0881 55.2472 32.7756 54.9631 32.4176C54.679 32.0597 54.4602 31.7415 54.3068 31.4631H54.0938V33.5H51.6051ZM54.1023 26.9545C54.1023 27.875 54.2358 28.6818 54.5028 29.375C54.7699 30.0682 55.1563 30.6108 55.6619 31.0028C56.1676 31.3892 56.7869 31.5824 57.5199 31.5824C58.2812 31.5824 58.9176 31.3807 59.429 30.9773C59.9403 30.5682 60.3267 30.0142 60.5881 29.3153C60.8551 28.6165 60.9886 27.8295 60.9886 26.9545C60.9886 26.0909 60.858 25.3153 60.5966 24.6278C60.3409 23.9403 59.9545 23.3977 59.4375 23C58.9261 22.6023 58.2869 22.4034 57.5199 22.4034C56.7812 22.4034 56.1562 22.5937 55.6449 22.9744C55.1392 23.3551 54.7557 23.8864 54.4943 24.5682C54.233 25.25 54.1023 26.0455 54.1023 26.9545ZM66.424 33.5V20.4091H68.9723V33.5H66.424ZM67.7109 18.3892C67.2678 18.3892 66.8871 18.2415 66.5689 17.946C66.2564 17.6449 66.1001 17.2869 66.1001 16.8722C66.1001 16.4517 66.2564 16.0937 66.5689 15.7983C66.8871 15.4972 67.2678 15.3466 67.7109 15.3466C68.1541 15.3466 68.532 15.4972 68.8445 15.7983C69.1626 16.0937 69.3217 16.4517 69.3217 16.8722C69.3217 17.2869 69.1626 17.6449 68.8445 17.946C68.532 18.2415 68.1541 18.3892 67.7109 18.3892Z" fill="white"/>
</svg>
