<svg width="591" height="60" viewBox="0 0 591 60" fill="none" xmlns="http://www.w3.org/2000/svg">
<circle cx="12" cy="12" r="12" fill="white"/>
<circle cx="12" cy="12" r="4" fill="#00234B"/>
<path d="M33.7265 9.00024C26.2681 9.00024 19.4712 3.16667 16 1L18.6613 12L17.0645 23C21.23 18.5 30.371 15 33.7265 15C36.1279 15 43.9088 12.1667 49 15V9.00014C45.9916 10.5001 39.4194 9.00024 33.7265 9.00024Z" fill="white"/>
<path d="M9.42614 46H8.19318C8.12027 45.6454 7.99266 45.3338 7.81037 45.0653C7.63139 44.7969 7.41264 44.5715 7.15412 44.3892C6.89891 44.2036 6.61553 44.0644 6.30398 43.9716C5.99242 43.8788 5.66761 43.8324 5.32955 43.8324C4.71307 43.8324 4.15459 43.9882 3.65412 44.2997C3.15696 44.6113 2.76089 45.0703 2.46591 45.6768C2.17424 46.2834 2.02841 47.0275 2.02841 47.9091C2.02841 48.7907 2.17424 49.5348 2.46591 50.1413C2.76089 50.7479 3.15696 51.2069 3.65412 51.5185C4.15459 51.83 4.71307 51.9858 5.32955 51.9858C5.66761 51.9858 5.99242 51.9394 6.30398 51.8466C6.61553 51.7538 6.89891 51.6162 7.15412 51.4339C7.41264 51.2483 7.63139 51.0213 7.81037 50.7528C7.99266 50.4811 8.12027 50.1695 8.19318 49.8182H9.42614C9.33333 50.3385 9.1643 50.8042 8.91903 51.2152C8.67377 51.6262 8.36885 51.9759 8.00426 52.2642C7.63968 52.5492 7.23035 52.7663 6.77628 52.9155C6.32552 53.0646 5.84328 53.1392 5.32955 53.1392C4.46117 53.1392 3.68892 52.9271 3.01278 52.5028C2.33665 52.0786 1.80469 51.4754 1.4169 50.6932C1.02912 49.911 0.835227 48.983 0.835227 47.9091C0.835227 46.8352 1.02912 45.9072 1.4169 45.125C1.80469 44.3428 2.33665 43.7396 3.01278 43.3153C3.68892 42.8911 4.46117 42.679 5.32955 42.679C5.84328 42.679 6.32552 42.7536 6.77628 42.9027C7.23035 43.0518 7.63968 43.2706 8.00426 43.5589C8.36885 43.844 8.67377 44.192 8.91903 44.603C9.1643 45.0107 9.33333 45.4763 9.42614 46ZM11.2594 53V45.3636H17.2651V53H16.0918V46.4574H12.4327V53H11.2594ZM22.6096 53.1591C21.8738 53.1591 21.2391 52.9967 20.7054 52.6719C20.1751 52.3438 19.7658 51.8864 19.4775 51.2997C19.1924 50.7098 19.0499 50.0237 19.0499 49.2415C19.0499 48.4593 19.1924 47.7699 19.4775 47.1733C19.7658 46.5734 20.1668 46.1061 20.6806 45.7713C21.1976 45.4332 21.8008 45.2642 22.4902 45.2642C22.888 45.2642 23.2807 45.3305 23.6685 45.4631C24.0563 45.5956 24.4093 45.8111 24.7275 46.1094C25.0456 46.4044 25.2992 46.7955 25.4881 47.2827C25.677 47.7699 25.7715 48.3698 25.7715 49.0824V49.5795H19.8851V48.5653H24.5783C24.5783 48.1345 24.4921 47.75 24.3198 47.4119C24.1507 47.0739 23.9088 46.8071 23.5939 46.6115C23.2824 46.416 22.9145 46.3182 22.4902 46.3182C22.0229 46.3182 21.6185 46.4342 21.2772 46.6662C20.9391 46.8949 20.6789 47.1932 20.4966 47.5611C20.3143 47.929 20.2232 48.3234 20.2232 48.7443V49.4205C20.2232 49.9972 20.3226 50.486 20.5215 50.8871C20.7237 51.2848 21.0037 51.5881 21.3617 51.7969C21.7196 52.0024 22.1356 52.1051 22.6096 52.1051C22.9178 52.1051 23.1962 52.062 23.4448 51.9759C23.6967 51.8864 23.9138 51.7538 24.0961 51.5781C24.2784 51.3991 24.4192 51.1771 24.5186 50.9119L25.6522 51.2301C25.5328 51.6146 25.3323 51.9527 25.0506 52.2443C24.7689 52.5327 24.4209 52.758 24.0066 52.9205C23.5923 53.0795 23.1266 53.1591 22.6096 53.1591ZM33.562 45.3636V51.9062H34.6358V55.4659H33.4625V53H27.5563V45.3636H28.7296V51.9062H32.3887V45.3636H33.562ZM38.6902 53.179C38.2063 53.179 37.7671 53.0878 37.3727 52.9055C36.9783 52.7199 36.6651 52.4531 36.4331 52.1051C36.2011 51.7538 36.085 51.3295 36.085 50.8324C36.085 50.3949 36.1712 50.0402 36.3436 49.7685C36.5159 49.4934 36.7463 49.2779 37.0346 49.1222C37.323 48.9664 37.6412 48.8504 37.9892 48.7741C38.3405 48.6946 38.6935 48.6316 39.0481 48.5852C39.5121 48.5256 39.8883 48.4808 40.1767 48.451C40.4683 48.4179 40.6805 48.3632 40.813 48.2869C40.9489 48.2107 41.0169 48.0781 41.0169 47.8892V47.8494C41.0169 47.3589 40.8826 46.9777 40.6142 46.706C40.349 46.4342 39.9463 46.2983 39.4061 46.2983C38.8459 46.2983 38.4068 46.4209 38.0886 46.6662C37.7704 46.9115 37.5467 47.1733 37.4174 47.4517L36.3038 47.054C36.5027 46.59 36.7678 46.2287 37.0993 45.9702C37.434 45.7083 37.7986 45.526 38.193 45.4233C38.5907 45.3172 38.9818 45.2642 39.3663 45.2642C39.6116 45.2642 39.8933 45.294 40.2115 45.3537C40.533 45.41 40.8429 45.5277 41.1412 45.7067C41.4428 45.8857 41.693 46.1558 41.8919 46.517C42.0907 46.8783 42.1902 47.3622 42.1902 47.9688V53H41.0169V51.9659H40.9572C40.8777 52.1316 40.7451 52.3089 40.5595 52.4979C40.3739 52.6868 40.127 52.8475 39.8187 52.9801C39.5105 53.1127 39.1343 53.179 38.6902 53.179ZM38.8691 52.125C39.3332 52.125 39.7243 52.0339 40.0424 51.8516C40.3639 51.6693 40.6059 51.4339 40.7683 51.1456C40.934 50.8572 41.0169 50.554 41.0169 50.2358V49.1619C40.9672 49.2216 40.8578 49.2763 40.6887 49.326C40.523 49.3724 40.3308 49.4138 40.112 49.4503C39.8966 49.4834 39.6861 49.5133 39.4806 49.5398C39.2785 49.563 39.1144 49.5829 38.9885 49.5994C38.6835 49.6392 38.3985 49.7038 38.1333 49.7933C37.8715 49.8795 37.6594 50.0104 37.497 50.1861C37.3379 50.3584 37.2583 50.5937 37.2583 50.892C37.2583 51.2997 37.4092 51.608 37.7108 51.8168C38.0157 52.0223 38.4018 52.125 38.8691 52.125ZM43.6555 53V51.9062H43.9339C44.1626 51.9062 44.3532 51.8615 44.5057 51.772C44.6581 51.6792 44.7808 51.5185 44.8736 51.2898C44.9697 51.0578 45.0426 50.7363 45.0923 50.3253C45.1454 49.911 45.1835 49.384 45.2067 48.7443L45.3459 45.3636H50.4368V53H49.2635V46.4574H46.4595L46.3402 49.1818C46.3137 49.8082 46.2573 50.3601 46.1712 50.8374C46.0883 51.3113 45.9607 51.709 45.7884 52.0305C45.6193 52.352 45.3939 52.594 45.1122 52.7564C44.8305 52.9188 44.4775 53 44.0533 53H43.6555ZM53.7628 51.2699L57.4418 45.3636H58.794V53H57.6207V47.0938L53.9616 53H52.5895V45.3636H53.7628V51.2699ZM60.4657 51.0511H61.7186C61.7451 51.3958 61.9009 51.6577 62.1859 51.8366C62.4743 52.0156 62.8488 52.1051 63.3095 52.1051C63.7801 52.1051 64.1828 52.009 64.5176 51.8168C64.8523 51.6212 65.0197 51.3063 65.0197 50.8722C65.0197 50.617 64.9567 50.3949 64.8308 50.206C64.7048 50.0137 64.5275 49.8646 64.2988 49.7585C64.0701 49.6525 63.8 49.5994 63.4885 49.5994H62.176V48.5455H63.4885C63.9558 48.5455 64.3005 48.4394 64.5225 48.2273C64.7479 48.0152 64.8606 47.75 64.8606 47.4318C64.8606 47.0904 64.7396 46.817 64.4977 46.6115C64.2557 46.4027 63.9127 46.2983 63.4686 46.2983C63.0211 46.2983 62.6483 46.3994 62.35 46.6016C62.0517 46.8004 61.8942 47.0573 61.8777 47.3722H60.6447C60.658 46.9612 60.7839 46.5982 61.0225 46.2834C61.2612 45.9652 61.586 45.7166 61.997 45.5376C62.408 45.3554 62.8786 45.2642 63.4089 45.2642C63.9458 45.2642 64.4115 45.3587 64.8059 45.5476C65.2037 45.7332 65.5102 45.9867 65.7257 46.3082C65.9444 46.6264 66.0538 46.9877 66.0538 47.392C66.0538 47.8229 65.9328 48.1709 65.6909 48.4361C65.4489 48.7012 65.1457 48.8902 64.7811 49.0028V49.0824C65.0694 49.1023 65.3197 49.1951 65.5318 49.3608C65.7472 49.5232 65.9146 49.737 66.0339 50.0021C66.1532 50.264 66.2129 50.554 66.2129 50.8722C66.2129 51.3362 66.0886 51.7405 65.84 52.0852C65.5914 52.4266 65.2501 52.6918 64.8159 52.8807C64.3817 53.0663 63.8862 53.1591 63.3294 53.1591C62.7891 53.1591 62.3052 53.0713 61.8777 52.8956C61.4501 52.7166 61.1104 52.4697 60.8585 52.1548C60.6099 51.8366 60.479 51.4688 60.4657 51.0511ZM70.1081 53.179C69.6242 53.179 69.1851 53.0878 68.7907 52.9055C68.3962 52.7199 68.083 52.4531 67.851 52.1051C67.619 51.7538 67.503 51.3295 67.503 50.8324C67.503 50.3949 67.5892 50.0402 67.7615 49.7685C67.9339 49.4934 68.1642 49.2779 68.4526 49.1222C68.7409 48.9664 69.0591 48.8504 69.4071 48.7741C69.7585 48.6946 70.1114 48.6316 70.4661 48.5852C70.9301 48.5256 71.3063 48.4808 71.5946 48.451C71.8863 48.4179 72.0984 48.3632 72.231 48.2869C72.3669 48.2107 72.4348 48.0781 72.4348 47.8892V47.8494C72.4348 47.3589 72.3006 46.9777 72.0321 46.706C71.767 46.4342 71.3643 46.2983 70.824 46.2983C70.2639 46.2983 69.8248 46.4209 69.5066 46.6662C69.1884 46.9115 68.9647 47.1733 68.8354 47.4517L67.7218 47.054C67.9206 46.59 68.1858 46.2287 68.5172 45.9702C68.852 45.7083 69.2166 45.526 69.611 45.4233C70.0087 45.3172 70.3998 45.2642 70.7843 45.2642C71.0295 45.2642 71.3113 45.294 71.6294 45.3537C71.9509 45.41 72.2608 45.5277 72.5591 45.7067C72.8607 45.8857 73.111 46.1558 73.3098 46.517C73.5087 46.8783 73.6081 47.3622 73.6081 47.9688V53H72.4348V51.9659H72.3752C72.2956 52.1316 72.1631 52.3089 71.9775 52.4979C71.7918 52.6868 71.5449 52.8475 71.2367 52.9801C70.9284 53.1127 70.5523 53.179 70.1081 53.179ZM70.2871 52.125C70.7511 52.125 71.1422 52.0339 71.4604 51.8516C71.7819 51.6693 72.0239 51.4339 72.1863 51.1456C72.352 50.8572 72.4348 50.554 72.4348 50.2358V49.1619C72.3851 49.2216 72.2757 49.2763 72.1067 49.326C71.941 49.3724 71.7488 49.4138 71.53 49.4503C71.3146 49.4834 71.1041 49.5133 70.8986 49.5398C70.6964 49.563 70.5324 49.5829 70.4064 49.5994C70.1015 49.6392 69.8165 49.7038 69.5513 49.7933C69.2895 49.8795 69.0774 50.0104 68.915 50.1861C68.7559 50.3584 68.6763 50.5937 68.6763 50.892C68.6763 51.2997 68.8271 51.608 69.1287 51.8168C69.4337 52.0223 69.8198 52.125 70.2871 52.125ZM81.7553 45.3636V51.9062H82.8292V55.4659H81.6559V53H75.7496V45.3636H76.9229V51.9062H80.582V45.3636H81.7553ZM85.8097 51.2699L89.4886 45.3636H90.8409V53H89.6676V47.0938L86.0085 53H84.6364V45.3636H85.8097V51.2699ZM97.5836 53V46.4375H95.5552C95.0978 46.4375 94.7382 46.5436 94.4764 46.7557C94.2145 46.9678 94.0836 47.2595 94.0836 47.6307C94.0836 47.9953 94.2013 48.282 94.4366 48.4908C94.6752 48.6996 95.0017 48.804 95.416 48.804H97.8819V49.8977H95.416C94.899 49.8977 94.4532 49.8066 94.0787 49.6243C93.7041 49.442 93.4158 49.1818 93.2136 48.8438C93.0114 48.5024 92.9103 48.098 92.9103 47.6307C92.9103 47.16 93.0164 46.7557 93.2285 46.4176C93.4406 46.0795 93.7439 45.8194 94.1383 45.6371C94.536 45.4548 95.0083 45.3636 95.5552 45.3636H98.6973V53H97.5836ZM92.4927 53L94.6603 49.2017H95.9331L93.7654 53H92.4927Z" fill="white"/>
<rect x="28" y="9" width="226" height="6" fill="#9BA4AF"/>
<rect x="28" y="9" width="108" height="6" fill="white"/>
<circle cx="273" cy="12" r="12" fill="#9BA4AF"/>
<path d="M294.727 9.27295C287.268 9.27295 280.471 3.9697 277 2L279.661 12L278.065 22C282.23 17.9091 291.371 14.7273 294.727 14.7273C297.128 14.7273 304.909 12.1515 310 14.7273V9.27286C306.992 10.6365 300.419 9.27295 294.727 9.27295Z" fill="#9BA4AF"/>
<path d="M249.273 8.9093C256.732 8.9093 263.529 3.87121 267 2L264.339 11.5L265.935 21C261.77 17.1136 252.629 14.0909 249.273 14.0909C246.872 14.0909 239.091 11.6439 234 14.0909V8.90922C237.008 10.2047 243.581 8.9093 249.273 8.9093Z" fill="#9BA4AF"/>
<path d="M240.824 47.9091C240.824 48.983 240.63 49.911 240.242 50.6932C239.854 51.4754 239.322 52.0786 238.646 52.5028C237.97 52.9271 237.198 53.1392 236.33 53.1392C235.461 53.1392 234.689 52.9271 234.013 52.5028C233.337 52.0786 232.805 51.4754 232.417 50.6932C232.029 49.911 231.835 48.983 231.835 47.9091C231.835 46.8352 232.029 45.9072 232.417 45.125C232.805 44.3428 233.337 43.7396 234.013 43.3153C234.689 42.8911 235.461 42.679 236.33 42.679C237.198 42.679 237.97 42.8911 238.646 43.3153C239.322 43.7396 239.854 44.3428 240.242 45.125C240.63 45.9072 240.824 46.8352 240.824 47.9091ZM239.631 47.9091C239.631 47.0275 239.483 46.2834 239.188 45.6768C238.897 45.0703 238.5 44.6113 238 44.2997C237.503 43.9882 236.946 43.8324 236.33 43.8324C235.713 43.8324 235.155 43.9882 234.654 44.2997C234.157 44.6113 233.761 45.0703 233.466 45.6768C233.174 46.2834 233.028 47.0275 233.028 47.9091C233.028 48.7907 233.174 49.5348 233.466 50.1413C233.761 50.7479 234.157 51.2069 234.654 51.5185C235.155 51.83 235.713 51.9858 236.33 51.9858C236.946 51.9858 237.503 51.83 238 51.5185C238.5 51.2069 238.897 50.7479 239.188 50.1413C239.483 49.5348 239.631 48.7907 239.631 47.9091ZM246.675 53V45.3636H247.849V48.6847H248.624L251.369 45.3636H252.88L249.798 49.0426L252.92 53H251.408L248.903 49.7784H247.849V53H246.675ZM256.983 53.1591C256.293 53.1591 255.689 52.995 255.168 52.6669C254.651 52.3388 254.247 51.8797 253.955 51.2898C253.667 50.6998 253.523 50.0104 253.523 49.2216C253.523 48.4261 253.667 47.7318 253.955 47.1385C254.247 46.5452 254.651 46.0845 255.168 45.7564C255.689 45.4283 256.293 45.2642 256.983 45.2642C257.672 45.2642 258.275 45.4283 258.792 45.7564C259.313 46.0845 259.717 46.5452 260.006 47.1385C260.297 47.7318 260.443 48.4261 260.443 49.2216C260.443 50.0104 260.297 50.6998 260.006 51.2898C259.717 51.8797 259.313 52.3388 258.792 52.6669C258.275 52.995 257.672 53.1591 256.983 53.1591ZM256.983 52.1051C257.506 52.1051 257.937 51.9709 258.275 51.7024C258.613 51.4339 258.864 51.081 259.026 50.6435C259.189 50.206 259.27 49.732 259.27 49.2216C259.27 48.7112 259.189 48.2356 259.026 47.7947C258.864 47.3539 258.613 46.9976 258.275 46.7259C257.937 46.4541 257.506 46.3182 256.983 46.3182C256.459 46.3182 256.028 46.4541 255.69 46.7259C255.352 46.9976 255.102 47.3539 254.939 47.7947C254.777 48.2356 254.696 48.7112 254.696 49.2216C254.696 49.732 254.777 50.206 254.939 50.6435C255.102 51.081 255.352 51.4339 255.69 51.7024C256.028 51.9709 256.459 52.1051 256.983 52.1051ZM266.41 51.4091L269.075 45.3636H270.189L266.887 53H265.933L262.691 45.3636H263.785L266.41 51.4091ZM263.407 45.3636V53H262.234V45.3636H263.407ZM269.413 53V45.3636H270.586V53H269.413ZM272.734 53V45.3636H278.74V53H277.566V46.4574H273.907V53H272.734ZM283.13 53.179C282.646 53.179 282.207 53.0878 281.812 52.9055C281.418 52.7199 281.105 52.4531 280.873 52.1051C280.641 51.7538 280.525 51.3295 280.525 50.8324C280.525 50.3949 280.611 50.0402 280.783 49.7685C280.955 49.4934 281.186 49.2779 281.474 49.1222C281.762 48.9664 282.081 48.8504 282.429 48.7741C282.78 48.6946 283.133 48.6316 283.488 48.5852C283.952 48.5256 284.328 48.4808 284.616 48.451C284.908 48.4179 285.12 48.3632 285.252 48.2869C285.388 48.2107 285.456 48.0781 285.456 47.8892V47.8494C285.456 47.3589 285.322 46.9777 285.054 46.706C284.788 46.4342 284.386 46.2983 283.846 46.2983C283.285 46.2983 282.846 46.4209 282.528 46.6662C282.21 46.9115 281.986 47.1733 281.857 47.4517L280.743 47.054C280.942 46.59 281.207 46.2287 281.539 45.9702C281.873 45.7083 282.238 45.526 282.632 45.4233C283.03 45.3172 283.421 45.2642 283.806 45.2642C284.051 45.2642 284.333 45.294 284.651 45.3537C284.972 45.41 285.282 45.5277 285.581 45.7067C285.882 45.8857 286.132 46.1558 286.331 46.517C286.53 46.8783 286.63 47.3622 286.63 47.9688V53H285.456V51.9659H285.397C285.317 52.1316 285.185 52.3089 284.999 52.4979C284.813 52.6868 284.566 52.8475 284.258 52.9801C283.95 53.1127 283.574 53.179 283.13 53.179ZM283.309 52.125C283.773 52.125 284.164 52.0339 284.482 51.8516C284.803 51.6693 285.045 51.4339 285.208 51.1456C285.373 50.8572 285.456 50.554 285.456 50.2358V49.1619C285.407 49.2216 285.297 49.2763 285.128 49.326C284.962 49.3724 284.77 49.4138 284.551 49.4503C284.336 49.4834 284.126 49.5133 283.92 49.5398C283.718 49.563 283.554 49.5829 283.428 49.5994C283.123 49.6392 282.838 49.7038 282.573 49.7933C282.311 49.8795 282.099 50.0104 281.936 50.1861C281.777 50.3584 281.698 50.5937 281.698 50.892C281.698 51.2997 281.849 51.608 282.15 51.8168C282.455 52.0223 282.841 52.125 283.309 52.125ZM293.882 48.6449V49.7386H289.666V48.6449H293.882ZM289.944 45.3636V53H288.771V45.3636H289.944ZM294.777 45.3636V53H293.604V45.3636H294.777ZM298.093 51.2699L301.772 45.3636H303.124V53H301.951V47.0938L298.292 53H296.92V45.3636H298.093V51.2699ZM306.446 51.2699L310.125 45.3636H311.478V53H310.304V47.0938L306.645 53H305.273V45.3636H306.446V51.2699Z" fill="#9BA4AF"/>
<rect x="287" y="9" width="226" height="6" fill="#9BA4AF"/>
<circle cx="531.5" cy="12" r="12" fill="#9BA4AF"/>
<path d="M507.773 9.54565C515.232 9.54565 522.029 4.77273 525.5 3L522.839 12L524.435 21C520.27 17.3182 511.129 14.4545 507.773 14.4545C505.372 14.4545 497.591 12.1364 492.5 14.4545V9.54557C495.508 10.7728 502.081 9.54565 507.773 9.54565Z" fill="#9BA4AF"/>
<path d="M489.733 42.8182H490.946V50.8324H491.045L496.614 42.8182H497.807V53H496.574V45.0057H496.474L490.926 53H489.733V42.8182ZM503.217 53.1591C502.501 53.1591 501.885 52.9901 501.368 52.652C500.851 52.3139 500.453 51.8482 500.175 51.255C499.896 50.6617 499.757 49.9839 499.757 49.2216C499.757 48.446 499.899 47.7616 500.184 47.1683C500.473 46.5717 500.874 46.1061 501.388 45.7713C501.905 45.4332 502.508 45.2642 503.197 45.2642C503.734 45.2642 504.218 45.3636 504.649 45.5625C505.08 45.7614 505.433 46.0398 505.708 46.3977C505.983 46.7557 506.154 47.1733 506.22 47.6506H505.047C504.957 47.3026 504.758 46.9943 504.45 46.7259C504.145 46.4541 503.734 46.3182 503.217 46.3182C502.76 46.3182 502.359 46.4375 502.014 46.6761C501.673 46.9115 501.406 47.2446 501.214 47.6754C501.025 48.103 500.93 48.6051 500.93 49.1818C500.93 49.7718 501.023 50.2855 501.209 50.723C501.398 51.1605 501.663 51.5002 502.004 51.7422C502.349 51.9841 502.753 52.1051 503.217 52.1051C503.522 52.1051 503.799 52.0521 504.047 51.946C504.296 51.84 504.506 51.6875 504.679 51.4886C504.851 51.2898 504.974 51.0511 505.047 50.7727H506.22C506.154 51.2235 505.99 51.6295 505.728 51.9908C505.469 52.3487 505.126 52.6338 504.699 52.8459C504.274 53.0547 503.781 53.1591 503.217 53.1591ZM507.334 46.4574V45.3636H513.538V46.4574H511.032V53H509.859V46.4574H507.334ZM517.955 53.1591C517.266 53.1591 516.661 52.995 516.141 52.6669C515.624 52.3388 515.219 51.8797 514.928 51.2898C514.639 50.6998 514.495 50.0104 514.495 49.2216C514.495 48.4261 514.639 47.7318 514.928 47.1385C515.219 46.5452 515.624 46.0845 516.141 45.7564C516.661 45.4283 517.266 45.2642 517.955 45.2642C518.645 45.2642 519.248 45.4283 519.765 45.7564C520.285 46.0845 520.69 46.5452 520.978 47.1385C521.27 47.7318 521.416 48.4261 521.416 49.2216C521.416 50.0104 521.27 50.6998 520.978 51.2898C520.69 51.8797 520.285 52.3388 519.765 52.6669C519.248 52.995 518.645 53.1591 517.955 53.1591ZM517.955 52.1051C518.479 52.1051 518.91 51.9709 519.248 51.7024C519.586 51.4339 519.836 51.081 519.999 50.6435C520.161 50.206 520.242 49.732 520.242 49.2216C520.242 48.7112 520.161 48.2356 519.999 47.7947C519.836 47.3539 519.586 46.9976 519.248 46.7259C518.91 46.4541 518.479 46.3182 517.955 46.3182C517.432 46.3182 517.001 46.4541 516.663 46.7259C516.325 46.9976 516.075 47.3539 515.912 47.7947C515.75 48.2356 515.669 48.7112 515.669 49.2216C515.669 49.732 515.75 50.206 515.912 50.6435C516.075 51.081 516.325 51.4339 516.663 51.7024C517.001 51.9709 517.432 52.1051 517.955 52.1051ZM523.207 55.8636V45.3636H524.34V46.5767H524.479C524.566 46.4441 524.685 46.2751 524.837 46.0696C524.993 45.8608 525.215 45.6752 525.504 45.5128C525.795 45.3471 526.19 45.2642 526.687 45.2642C527.33 45.2642 527.897 45.425 528.387 45.7464C528.878 46.0679 529.26 46.5237 529.536 47.1136C529.811 47.7036 529.948 48.3996 529.948 49.2017C529.948 50.0104 529.811 50.7114 529.536 51.3047C529.26 51.8946 528.879 52.352 528.392 52.6768C527.905 52.9983 527.343 53.1591 526.707 53.1591C526.216 53.1591 525.823 53.0779 525.528 52.9155C525.233 52.7498 525.006 52.5625 524.847 52.3537C524.688 52.1416 524.566 51.9659 524.479 51.8267H524.38V55.8636H523.207ZM524.36 49.1818C524.36 49.7585 524.445 50.2673 524.614 50.7081C524.783 51.1456 525.03 51.4886 525.354 51.7372C525.679 51.9825 526.077 52.1051 526.548 52.1051C527.038 52.1051 527.447 51.9759 527.776 51.7173C528.107 51.4555 528.356 51.1042 528.521 50.6634C528.69 50.2192 528.775 49.7254 528.775 49.1818C528.775 48.6449 528.692 48.161 528.526 47.7301C528.364 47.2959 528.117 46.9529 527.786 46.701C527.457 46.4458 527.045 46.3182 526.548 46.3182C526.07 46.3182 525.669 46.4392 525.344 46.6811C525.02 46.9197 524.774 47.2545 524.609 47.6854C524.443 48.1129 524.36 48.6117 524.36 49.1818ZM532.911 51.2699L536.59 45.3636H537.942V53H536.769V47.0938L533.11 53H531.738V45.3636H532.911V51.2699ZM544.685 53V46.4375H542.657C542.199 46.4375 541.84 46.5436 541.578 46.7557C541.316 46.9678 541.185 47.2595 541.185 47.6307C541.185 47.9953 541.303 48.282 541.538 48.4908C541.777 48.6996 542.103 48.804 542.518 48.804H544.983V49.8977H542.518C542.001 49.8977 541.555 49.8066 541.18 49.6243C540.806 49.442 540.517 49.1818 540.315 48.8438C540.113 48.5024 540.012 48.098 540.012 47.6307C540.012 47.16 540.118 46.7557 540.33 46.4176C540.542 46.0795 540.845 45.8194 541.24 45.6371C541.638 45.4548 542.11 45.3636 542.657 45.3636H545.799V53H544.685ZM539.594 53L541.762 49.2017H543.035L540.867 53H539.594Z" fill="#9BA4AF"/>
</svg>
