<svg width="274" height="274" viewBox="0 0 274 274" fill="none" xmlns="http://www.w3.org/2000/svg">
<path d="M144.891 229.337V44.8254C144.946 43.2362 143.74 41.921 142.151 41.7566C140.562 41.647 139.192 42.9074 139.082 44.4966C139.082 44.5514 139.082 44.6062 139.082 44.661V229.337C139.082 230.926 140.397 232.241 141.986 232.241C143.63 232.241 144.891 230.926 144.891 229.337Z" fill="#093F68"/>
<path d="M141.985 233.341C139.793 233.341 137.984 231.532 137.984 229.34V44.6645C137.984 42.4725 139.793 40.6641 141.985 40.6641C142.04 40.6641 142.149 40.6641 142.204 40.6641C144.396 40.8285 146.04 42.6369 145.985 44.8289V229.34C146.04 231.532 144.232 233.341 141.985 233.341ZM141.985 42.9109C140.998 42.9109 140.231 43.6781 140.231 44.6645V229.34C140.286 230.327 141.108 231.094 142.094 231.039C143.026 230.984 143.738 230.272 143.793 229.34V44.8289C143.848 43.8425 143.081 43.0205 142.094 42.9109H141.985Z" fill="#093F68"/>
<path d="M88.4473 230.221C98.5305 198.601 107.518 171.037 116.505 144.459C117.053 143.034 116.395 141.445 115.025 140.732C113.546 140.075 111.847 140.732 111.189 142.157C111.134 142.267 111.134 142.322 111.08 142.431C102.092 169.064 93.0505 196.738 82.9125 228.412C82.4193 229.947 83.2413 231.591 84.7757 232.029C85.0497 232.139 85.3237 232.139 85.6525 232.194C86.9677 232.248 88.0637 231.426 88.4473 230.221Z" fill="#093F68"/>
<path d="M85.7035 233.341C83.5115 233.341 81.7031 231.533 81.7031 229.341C81.7031 228.903 81.7579 228.519 81.8675 228.135C92.0055 196.297 100.938 168.951 110.035 142.099C110.418 141.003 111.186 140.181 112.227 139.688C113.268 139.25 114.474 139.25 115.46 139.688C117.323 140.62 118.255 142.812 117.542 144.785C108.5 171.527 99.5679 198.763 89.4847 230.492C88.9915 232.191 87.4571 233.341 85.7035 233.341ZM113.871 141.606C113.652 141.606 113.378 141.661 113.158 141.771C112.72 141.99 112.336 142.373 112.172 142.812C103.13 169.609 94.1427 196.954 84.0047 228.793C83.8403 229.341 83.9499 229.944 84.2787 230.382C84.6075 230.821 85.1555 231.095 85.7035 231.095C86.4707 231.095 87.1831 230.601 87.4023 229.834C97.4855 198.105 106.418 170.815 115.46 144.072C115.789 143.195 115.405 142.154 114.583 141.716C114.364 141.661 114.09 141.606 113.871 141.606Z" fill="#093F68"/>
<path d="M198.318 232.247C199.907 232.247 201.223 230.932 201.223 229.343C201.223 229.069 201.168 228.74 201.058 228.466C190.975 196.792 181.933 169.172 172.946 142.54C172.507 141.224 171.192 140.348 169.822 140.512C168.233 140.731 167.137 142.156 167.301 143.745C167.301 143.91 167.356 144.129 167.411 144.293C176.398 170.871 185.44 198.49 195.523 230.22C195.907 231.425 197.058 232.247 198.318 232.247Z" fill="#093F68"/>
<path d="M198.32 233.344C196.566 233.344 195.032 232.194 194.484 230.55C184.346 198.766 175.413 171.42 166.371 144.678C165.659 142.596 166.81 140.294 168.892 139.582C169.166 139.472 169.385 139.417 169.659 139.417C171.577 139.198 173.441 140.349 173.989 142.212C183.031 169.009 191.963 196.3 202.101 228.138C202.759 230.276 201.608 232.522 199.471 233.18C199.142 233.29 198.703 233.344 198.32 233.344ZM170.153 141.609H169.933C169.385 141.664 168.947 141.993 168.618 142.431C168.344 142.87 168.289 143.418 168.454 143.966C177.496 170.763 186.428 198.053 196.566 229.892C196.785 230.604 197.498 231.152 198.265 231.152C198.813 231.152 199.361 230.878 199.69 230.44C200.019 230.002 200.128 229.399 199.964 228.851C189.826 197.012 180.893 169.722 171.851 142.979C171.632 142.157 170.975 141.609 170.153 141.609Z" fill="#093F68"/>
<path d="M141.987 207.965C184.63 207.965 219.2 173.396 219.2 130.752C219.2 88.1086 184.63 53.5391 141.987 53.5391C99.343 53.5391 64.7734 88.1086 64.7734 130.752C64.7734 173.396 99.343 207.965 141.987 207.965Z" fill="#5A05FF"/>
<path d="M141.985 209.119C98.8026 209.119 63.6758 173.992 63.6758 130.809C63.6758 87.6269 98.8026 52.4453 142.04 52.4453C185.277 52.4453 220.404 87.5721 220.404 130.809C220.404 174.047 185.222 209.119 141.985 209.119ZM141.985 54.6921C100.008 54.6921 65.8678 88.8325 65.8678 130.809C65.8678 172.786 100.008 206.927 141.985 206.927C183.962 206.927 218.102 172.731 218.102 130.755C218.102 88.7777 183.962 54.6921 141.985 54.6921Z" fill="#093F68"/>
<path d="M141.987 194.763C177.337 194.763 205.993 166.106 205.993 130.756C205.993 95.4066 177.337 66.75 141.987 66.75C106.637 66.75 77.9805 95.4066 77.9805 130.756C77.9805 166.106 106.637 194.763 141.987 194.763Z" fill="white"/>
<path d="M141.985 195.861C106.036 195.861 76.8828 166.707 76.8828 130.759C76.8828 94.8099 106.036 65.6562 141.985 65.6562C177.934 65.6562 207.088 94.8099 207.088 130.759C207.088 166.707 177.934 195.861 141.985 195.861ZM141.985 67.903C107.242 67.903 79.1296 96.0703 79.1296 130.759C79.1296 165.447 107.297 193.614 141.985 193.614C176.728 193.614 204.841 165.447 204.841 130.759C204.841 96.0703 176.728 67.9578 141.985 67.903Z" fill="#093F68"/>
<path d="M141.984 178.265C168.224 178.265 189.496 156.994 189.496 130.754C189.496 104.514 168.224 83.2422 141.984 83.2422C115.744 83.2422 94.4727 104.514 94.4727 130.754C94.4727 156.994 115.744 178.265 141.984 178.265Z" fill="#5A05FF"/>
<path d="M141.987 179.418C115.135 179.418 93.3789 157.663 93.3789 130.811C93.3789 103.959 115.135 82.2031 141.987 82.2031C168.839 82.2031 190.594 103.959 190.594 130.811C190.594 157.608 168.839 179.364 141.987 179.418ZM141.987 84.3951C116.34 84.3951 95.5709 105.164 95.5709 130.811C95.5709 156.457 116.34 177.226 141.987 177.226C167.633 177.226 188.402 156.457 188.402 130.811C188.347 105.164 167.633 84.3951 141.987 84.3951Z" fill="#093F68"/>
<path d="M141.985 163.251C159.932 163.251 174.481 148.701 174.481 130.754C174.481 112.807 159.932 98.2578 141.985 98.2578C124.037 98.2578 109.488 112.807 109.488 130.754C109.488 148.701 124.037 163.251 141.985 163.251Z" fill="white"/>
<path d="M141.987 164.404C123.41 164.404 108.395 149.334 108.395 130.811C108.395 112.289 123.465 97.2188 141.987 97.2188C160.509 97.2188 175.579 112.289 175.579 130.811C175.579 149.334 160.564 164.404 141.987 164.404ZM141.987 99.4108C124.67 99.4108 110.641 113.44 110.641 130.756C110.641 148.073 124.67 162.102 141.987 162.102C159.304 162.102 173.333 148.073 173.333 130.756C173.387 113.494 159.359 99.4108 141.987 99.4108Z" fill="#093F68"/>
<path d="M141.986 148.73C151.913 148.73 159.961 140.683 159.961 130.756C159.961 120.829 151.913 112.781 141.986 112.781C132.059 112.781 124.012 120.829 124.012 130.756C124.012 140.683 132.059 148.73 141.986 148.73Z" fill="#5A05FF"/>
<path d="M141.985 149.883C131.408 149.883 122.859 141.334 122.859 130.758C122.859 120.182 131.408 111.633 141.985 111.633C152.561 111.633 161.11 120.182 161.11 130.758C161.11 141.334 152.561 149.883 141.985 149.883ZM141.985 113.88C132.669 113.88 125.106 121.442 125.106 130.813C125.106 140.129 132.669 147.691 142.039 147.691C151.355 147.691 158.918 140.129 158.918 130.813C158.918 121.442 151.355 113.88 141.985 113.88Z" fill="#093F68"/>
<path d="M72.3369 75.7344L54.7461 83.6256L80.3377 103.354L98.7505 96.12L72.3369 75.7344Z" fill="#F56132"/>
<path d="M80.336 104.446C80.1168 104.446 79.8428 104.336 79.6784 104.227L54.1416 84.4985C53.6484 84.1697 53.5388 83.4573 53.8676 82.9641C53.9772 82.7997 54.1416 82.6901 54.3608 82.5805L71.9516 74.6893C72.3352 74.5249 72.7736 74.5797 73.1024 74.7989L99.4612 95.2393C99.79 95.4585 99.9544 95.8969 99.8996 96.2805C99.8448 96.6641 99.5708 96.9929 99.1872 97.1573L80.7744 104.336C80.61 104.446 80.4456 104.446 80.336 104.446ZM56.9364 83.8957L80.5004 102.089L96.502 95.8421L72.2256 77.0457L56.9364 83.8957Z" fill="#093F68"/>
<path d="M71.9531 74.6346L78.1455 58.5234L100.778 80.1694L98.7503 96.1162L71.9531 74.6346Z" fill="#F56132"/>
<path d="M98.6935 97.2675C98.4195 97.2675 98.2003 97.1579 97.9811 97.0483L71.2387 75.5119C70.8551 75.1831 70.7455 74.6899 70.9099 74.2515L77.0475 58.1403C77.2667 57.5923 77.8695 57.2635 78.4723 57.4827C78.6367 57.5375 78.7463 57.6471 78.9107 57.7567L101.598 79.4027C101.872 79.6219 101.982 80.0055 101.927 80.3343L99.8443 96.2811C99.7895 96.6647 99.5155 97.0483 99.1319 97.1579C99.0223 97.2127 98.8579 97.2675 98.6935 97.2675ZM73.3211 74.2515L97.8715 94.0343L99.6251 80.6083L78.5819 60.4967L73.3211 74.2515Z" fill="#093F68"/>
<path d="M142.315 133.657C141.712 133.657 141.164 133.492 140.726 133.109L61.211 69.9245C60.115 69.0477 59.8958 67.4037 60.8274 66.2529C61.7042 65.1569 63.3482 64.9377 64.4442 65.8145L143.959 128.999C145.055 129.876 145.274 131.52 144.397 132.67C143.849 133.328 143.082 133.657 142.315 133.657Z" fill="#FFBC0E"/>
<path d="M142.313 134.803C141.491 134.803 140.669 134.529 140.012 133.981L60.4968 70.7418C58.9076 69.4814 58.6336 67.125 59.894 65.5358C61.1544 63.9466 63.5108 63.6726 65.1 64.933L144.615 128.117C146.259 129.378 146.533 131.734 145.272 133.323C144.56 134.31 143.464 134.803 142.313 134.803ZM62.7984 66.3578C61.9764 66.3578 61.3188 67.0154 61.3188 67.8374C61.3188 68.2758 61.538 68.7142 61.8668 68.9882L141.382 132.227C142.039 132.721 142.916 132.611 143.464 132.008C143.957 131.351 143.848 130.419 143.245 129.926L63.73 66.6866C63.456 66.4674 63.1272 66.3578 62.7984 66.3578Z" fill="#093F68"/>
</svg>
