<svg width="376" height="351" viewBox="0 0 376 351" fill="none" xmlns="http://www.w3.org/2000/svg">
<g clip-path="url(#clip0_2007_820)">
<path d="M331.716 180.386C331.998 179.446 332.092 178.13 331.152 177.942C330.87 177.942 330.494 177.942 330.212 178.13C325.324 180.198 322.974 185.556 321.094 190.444C319.684 194.11 318.274 197.964 318.368 201.912C318.462 204.45 320.342 208.022 323.068 205.202C325.418 202.758 326.358 196.46 327.392 193.358C328.896 188.94 330.4 184.616 331.716 180.386Z" fill="white"/>
<path d="M321.188 206.8C320.906 206.8 320.624 206.706 320.342 206.612C318.744 206.048 317.804 203.698 317.71 201.818C317.522 197.588 319.12 193.452 320.436 190.068C322.504 184.804 324.854 179.446 329.836 177.378C330.212 177.19 330.682 177.096 331.152 177.19C331.622 177.284 331.998 177.566 332.186 177.942C332.562 178.788 332.562 179.728 332.28 180.574C330.964 184.898 329.46 189.222 328.05 193.452C327.768 194.298 327.486 195.52 327.11 196.742C326.264 200.032 325.324 203.792 323.538 205.578C322.974 206.33 322.128 206.706 321.188 206.8ZM330.87 178.506C330.682 178.506 330.588 178.6 330.4 178.6C325.888 180.48 323.632 185.556 321.658 190.538C320.436 193.828 318.838 197.776 319.026 201.724C319.12 203.134 319.778 205.014 320.812 205.296C321.376 205.484 321.94 205.202 322.598 204.544C324.102 202.946 325.042 199.28 325.888 196.272C326.17 195.05 326.546 193.828 326.828 192.888C328.238 188.658 329.742 184.334 331.058 180.01C331.246 179.54 331.246 178.976 331.058 178.506C331.058 178.6 330.964 178.506 330.87 178.506Z" fill="#231F20"/>
<path d="M59.3036 219.772C59.3036 219.772 22.6436 258.5 21.5156 264.328C20.3876 270.156 94.8356 320.164 94.8356 320.164C94.8356 320.164 92.4856 323.924 93.3316 331.538C94.1776 339.152 94.8356 343.758 94.8356 343.758C94.8356 343.758 82.8976 341.408 84.6836 345.168C86.4696 348.928 100.382 351.842 103.296 350.432C105.74 349.022 108.09 347.33 110.252 345.45V309.918C110.252 307.004 71.2416 267.806 71.2416 267.806L92.7676 246.28" fill="white"/>
<path d="M100.664 351.372C97.092 351.278 93.52 350.526 90.136 349.398C87.786 348.552 84.872 347.236 84.026 345.45C83.65 344.792 83.744 344.04 84.12 343.476C85.53 341.69 91.452 342.442 93.99 342.912C93.802 341.22 93.332 337.178 92.674 331.632C91.922 325.522 93.332 321.762 93.896 320.446C80.36 311.328 19.636 270.156 20.858 264.234C22.08 258.312 57.33 220.994 58.834 219.396C59.116 219.114 59.492 219.114 59.774 219.396C60.056 219.678 60.056 220.054 59.774 220.336C49.622 231.052 23.02 259.91 22.174 264.516C21.61 268.088 59.304 295.63 95.212 319.694C95.494 319.882 95.588 320.258 95.4 320.634C95.4 320.634 93.238 324.394 94.084 331.538C94.93 339.058 95.588 343.758 95.588 343.758C95.588 343.946 95.494 344.134 95.4 344.322C95.212 344.51 95.024 344.51 94.836 344.51C90.888 343.758 86.094 343.476 85.342 344.416C85.248 344.51 85.154 344.604 85.342 344.98C85.812 346.014 87.786 347.236 90.7 348.27C95.776 350.056 101.604 350.62 103.014 349.868C105.364 348.552 107.62 346.954 109.688 345.168V310.012C109.218 307.568 85.624 283.128 70.866 268.37C70.584 268.088 70.584 267.712 70.866 267.43L92.392 245.904C92.674 245.622 93.05 245.622 93.332 245.904C93.614 246.186 93.614 246.562 93.332 246.844L72.276 267.9C81.958 277.676 111.004 307.192 111.004 310.012V345.544C111.004 345.732 110.91 345.92 110.816 346.014C108.654 347.894 106.21 349.586 103.672 351.09C102.544 351.278 101.604 351.466 100.664 351.372Z" fill="#231F20"/>
<path d="M246.27 243.648C246.27 243.648 258.866 315.652 280.862 306.44C302.858 297.228 315.454 219.772 315.454 219.772L293.552 222.31L280.486 251.45L264.882 201.818L246.27 243.648Z" fill="white"/>
<path d="M277.008 307.944C275.222 307.944 273.436 307.474 271.838 306.534C264.788 302.68 258.208 290.93 252.38 271.566C249.654 262.448 247.398 253.142 245.612 243.742C245.612 243.648 245.612 243.46 245.612 243.366L264.224 201.536C264.318 201.254 264.6 201.16 264.882 201.16C265.164 201.16 265.352 201.348 265.446 201.63L280.486 249.664L292.894 222.122C292.988 221.934 293.176 221.746 293.364 221.746L315.36 219.114C315.548 219.114 315.736 219.208 315.924 219.302C316.112 219.49 316.112 219.678 316.112 219.866C313.762 233.308 310.754 246.656 307.088 259.816C299.192 287.264 290.45 303.15 281.144 307.004C279.828 307.568 278.418 307.85 277.008 307.944ZM246.928 243.742C247.586 247.314 256.798 296.852 272.496 305.406C274.94 306.91 278.042 307.004 280.58 305.876C300.79 297.51 313.198 229.078 314.608 220.524L293.928 222.968L280.956 251.732C280.862 252.014 280.58 252.108 280.298 252.108C280.016 252.108 279.828 251.92 279.734 251.638L264.694 203.604L246.928 243.742Z" fill="#231F20"/>
<path d="M228.316 145.794C228.316 145.794 235.272 148.614 247.962 157.356C260.652 166.098 288.852 234.06 288.852 234.06L239.22 259.346L237.81 227.48L228.316 145.794Z" fill="white"/>
<path d="M244.766 286.982C245.894 236.034 246.646 163.466 228.41 145.794C228.41 145.794 142.588 134.89 128.206 149.648C117.114 173.618 117.49 238.29 114.858 287.264L244.766 286.982Z" fill="white"/>
<path d="M217.506 98.418C217.036 97.384 221.924 85.822 220.326 67.68C218.728 49.538 185.264 43.052 173.232 44.65C161.2 46.248 149.168 58.562 146.63 70.594C144.092 82.626 149.45 104.246 149.45 104.246L217.506 98.418Z" fill="white"/>
<path d="M149.45 104.81C149.168 104.81 148.886 104.622 148.792 104.34C148.604 103.494 143.528 82.438 145.972 70.406C148.604 57.622 161.012 45.496 173.044 43.992C181.316 42.958 201.808 45.684 213.276 54.896C217.882 58.562 220.42 62.886 220.89 67.68C221.736 77.08 220.984 86.574 218.54 95.786C218.258 96.632 218.164 97.478 218.07 98.324C218.164 98.512 218.164 98.7 218.07 98.888C217.976 99.076 217.788 99.17 217.506 99.17L149.45 104.81ZM177.086 45.026C175.77 45.026 174.548 45.12 173.232 45.214C161.858 46.718 149.732 58.562 147.288 70.594C145.126 81.31 149.168 99.922 149.92 103.4L216.848 97.76C216.942 97.29 217.036 96.538 217.412 95.316C219.762 86.292 220.514 76.892 219.668 67.68C219.292 63.262 216.848 59.314 212.524 55.836C202.936 48.034 186.58 45.026 177.086 45.026Z" fill="#231F20"/>
<path d="M159.508 150.024C159.508 150.024 168.156 162.432 183.29 162.432C198.424 162.432 202.936 155.194 202.936 155.194L202.278 147.11L200.774 128.31L199.364 110.732H164.678L163.55 125.114L161.2 125.396L159.508 150.024Z" fill="white"/>
<path d="M183.29 163.09C167.968 163.09 159.038 150.494 158.944 150.4C158.85 150.306 158.85 150.118 158.85 150.024L160.542 125.302C160.542 125.02 160.824 124.738 161.106 124.738L162.892 124.55L164.02 110.732C164.02 110.356 164.302 110.074 164.678 110.168H199.364C199.74 110.168 200.022 110.45 200.022 110.732L203.594 155.194C203.594 155.288 203.594 155.476 203.5 155.57C203.312 155.852 198.706 163.09 183.29 163.09ZM160.166 149.836C161.294 151.34 169.66 161.774 183.29 161.774C196.544 161.774 201.432 156.04 202.184 155.006L198.706 111.296H165.242L164.114 125.114C164.114 125.396 163.832 125.678 163.55 125.678L161.764 125.866L160.166 149.836Z" fill="#231F20"/>
<path d="M160.918 123.704C161.294 125.866 162.046 127.84 163.268 129.72C165.9 133.95 170.224 137.24 174.642 139.684C182.068 143.82 193.254 148.426 202.278 147.11L200.774 128.31C194.1 129.156 187.426 129.156 180.846 128.404C175.018 127.934 169.002 127.37 163.644 125.114C162.704 124.644 161.764 124.174 160.918 123.704Z" fill="#231F20"/>
<path d="M198.8 147.956C189.682 147.956 179.718 143.256 174.266 140.248C168.908 137.24 164.96 133.856 162.61 130.002C161.388 128.122 160.542 125.96 160.166 123.798C160.166 123.516 160.26 123.328 160.448 123.14C160.636 123.046 160.918 123.046 161.106 123.14C161.858 123.61 162.798 123.986 163.738 124.456C169.096 126.712 175.3 127.276 180.752 127.746C187.332 128.498 194.006 128.404 200.586 127.652C200.774 127.652 200.962 127.652 201.056 127.746C201.15 127.84 201.244 128.028 201.338 128.216L202.842 147.016C202.842 147.392 202.654 147.674 202.278 147.674C201.15 147.862 200.022 147.956 198.8 147.956ZM161.764 124.926C162.14 126.524 162.798 127.934 163.738 129.344C165.994 132.916 169.754 136.206 174.924 139.12C180.846 142.41 192.126 147.674 201.526 146.546L200.116 129.062C193.63 129.814 187.144 129.814 180.658 129.062C175.112 128.592 168.814 128.028 163.268 125.678C162.798 125.396 162.328 125.208 161.764 124.926Z" fill="#231F20"/>
<path d="M149.92 74.26C149.92 74.26 138.828 74.542 135.726 79.148C132.624 83.754 135.914 107.724 137.042 109.228C138.17 110.732 155.936 114.68 155.936 114.68L149.92 74.26Z" fill="white"/>
<path d="M155.936 115.338H155.842C151.612 114.398 137.7 111.202 136.572 109.604C135.444 108.006 132.06 83.566 135.256 78.772C138.452 73.978 149.45 73.602 149.92 73.602C150.296 73.602 150.578 73.79 150.578 74.166L156.594 114.586C156.594 114.774 156.594 115.056 156.406 115.15C156.218 115.244 156.124 115.338 155.936 115.338ZM149.356 74.918C147.1 75.012 138.734 75.764 136.29 79.43C133.47 83.66 136.572 107.16 137.606 108.758C138.358 109.604 147.006 111.954 155.184 113.74L149.356 74.918Z" fill="#231F20"/>
<path d="M214.404 74.26C214.404 74.26 225.496 74.542 228.598 79.148C231.7 83.754 228.41 107.724 227.282 109.228C226.154 110.732 208.388 114.68 208.388 114.68L214.404 74.26Z" fill="white"/>
<path d="M208.388 115.338C208.2 115.338 208.106 115.244 207.918 115.15C207.73 114.962 207.73 114.774 207.73 114.586L213.746 74.166C213.746 73.79 214.122 73.602 214.404 73.602C214.874 73.602 225.872 73.978 229.068 78.772C232.264 83.566 228.88 108.006 227.752 109.604C226.624 111.202 212.712 114.398 208.482 115.338H208.388ZM214.968 74.918L209.14 113.834C217.318 111.954 225.966 109.698 226.718 108.852C227.752 107.16 230.854 83.754 228.034 79.524C225.59 75.764 217.224 75.106 214.968 74.918Z" fill="#231F20"/>
<path d="M181.034 134.514H184.136C198.8 134.514 210.644 122.2 210.644 107.066V98.23C210.644 95.128 210.644 92.12 210.644 89.018C210.644 87.138 210.08 80.558 207.354 81.028C206.602 81.216 205.944 81.592 205.38 82.156C203.876 83.378 202.278 84.412 200.586 85.258C200.022 85.634 199.364 85.822 198.706 85.634C197.766 85.258 197.672 83.848 197.86 82.814L198.048 81.122C198.048 80.746 198.048 80.276 197.672 80.182C192.314 83.284 186.862 86.292 180.564 86.762C179.624 86.856 178.496 86.762 177.932 85.916C177.65 85.446 177.556 84.976 177.556 84.506C177.462 82.438 177.744 80.276 178.59 78.302C176.428 80.464 173.796 82.156 170.882 83.096C167.028 84.412 163.362 85.822 159.414 87.138L152.082 89.582C153.492 98.418 153.116 108.476 156.312 116.936C160.26 127.464 170.036 134.326 181.034 134.514Z" fill="white"/>
<path d="M184.136 135.172H181.034C169.754 134.984 159.696 127.934 155.748 117.406C153.586 111.672 153.022 105.28 152.458 99.17C152.176 96.068 151.894 92.966 151.424 89.958C151.33 89.676 151.518 89.3 151.894 89.206L159.226 86.762C161.106 86.104 162.892 85.446 164.772 84.788C166.652 84.13 168.72 83.378 170.694 82.72C173.514 81.78 176.052 80.182 178.214 78.114C178.402 77.926 178.778 77.832 179.06 78.02C179.342 78.208 179.436 78.49 179.342 78.866C178.59 80.746 178.214 82.72 178.308 84.694C178.308 85.07 178.402 85.446 178.59 85.822C178.872 86.292 179.53 86.386 180.658 86.386C186.674 85.916 191.844 83.19 197.484 79.9C197.578 79.806 197.766 79.806 197.86 79.806C198.518 79.9 198.894 80.558 198.8 81.404L198.612 83.096C198.518 83.66 198.518 84.976 199.082 85.258C199.458 85.446 199.928 85.164 200.398 84.882C202.09 83.942 203.594 82.908 205.098 81.78C205.756 81.216 206.508 80.746 207.354 80.558C208.012 80.464 208.67 80.652 209.14 81.028C211.302 82.908 211.396 89.112 211.396 89.206V107.16C211.396 122.576 199.176 135.172 184.136 135.172ZM152.834 90.24C153.304 93.06 153.492 96.068 153.774 98.982C154.338 105.092 154.808 111.39 156.97 116.936C160.73 126.994 170.318 133.668 181.034 133.856H184.136C198.424 133.856 210.08 121.824 210.08 107.066V89.018C210.08 87.044 209.516 82.908 208.294 81.874C208.106 81.686 207.824 81.592 207.636 81.686C207.072 81.874 206.508 82.156 206.038 82.626C204.44 83.848 202.842 84.976 201.056 85.916C200.304 86.386 199.458 86.574 198.612 86.292C197.86 86.01 197.108 85.164 197.296 82.814L197.484 81.216C192.126 84.318 186.768 87.044 180.752 87.514C179.718 87.608 178.308 87.608 177.462 86.386C177.18 85.822 176.992 85.258 176.992 84.6C176.898 83.19 176.992 81.78 177.368 80.464C175.488 81.968 173.42 83.096 171.164 83.848C169.19 84.506 167.216 85.258 165.242 85.916C163.268 86.574 161.576 87.232 159.696 87.89L152.834 90.24Z" fill="#231F20"/>
<path d="M182.914 116.278C181.598 116.278 180.188 116.184 178.872 116.09C178.496 115.996 178.214 115.714 178.308 115.338C178.308 114.962 178.684 114.68 179.06 114.774C181.598 115.056 184.042 115.056 186.58 114.774C186.674 114.774 186.768 114.774 186.862 114.586C188.084 112.518 184.888 101.99 182.444 95.786C182.256 95.504 182.444 95.034 182.726 94.94C183.008 94.846 183.478 94.94 183.572 95.222C183.572 95.222 183.572 95.316 183.666 95.316C184.324 97.008 189.964 111.86 187.99 115.244C187.708 115.714 187.238 115.996 186.768 116.09C185.452 116.184 184.136 116.184 182.914 116.278Z" fill="#231F20"/>
<path d="M184.512 124.362C181.316 124.362 177.65 123.328 173.608 121.166C173.326 120.978 173.138 120.602 173.326 120.32C173.514 120.038 173.89 119.85 174.172 120.038C179.624 122.858 184.324 123.704 188.084 122.482C190.34 121.824 192.22 120.32 193.442 118.252C193.63 117.97 194.006 117.782 194.288 117.97C194.57 118.158 194.758 118.534 194.57 118.816C193.254 121.166 190.998 122.952 188.46 123.704C187.238 124.174 185.828 124.362 184.512 124.362Z" fill="#231F20"/>
<path d="M169.754 98.606C170.844 98.606 171.728 96.7542 171.728 94.47C171.728 92.1857 170.844 90.334 169.754 90.334C168.664 90.334 167.78 92.1857 167.78 94.47C167.78 96.7542 168.664 98.606 169.754 98.606Z" fill="#231F20"/>
<path d="M198.048 98.606C199.138 98.606 200.022 96.7542 200.022 94.47C200.022 92.1857 199.138 90.334 198.048 90.334C196.958 90.334 196.074 92.1857 196.074 94.47C196.074 96.7542 196.958 98.606 198.048 98.606Z" fill="#231F20"/>
<path d="M159.696 138.556C159.696 138.556 147.382 139.59 148.322 144.29C149.262 148.99 170.788 176.156 170.788 176.156L181.504 162.338C181.504 162.432 166.558 153.878 159.696 138.556Z" fill="white"/>
<path d="M170.695 176.908C170.507 176.908 170.318 176.814 170.13 176.626C169.284 175.498 148.51 149.178 147.57 144.478C147.382 143.632 147.571 142.692 148.135 141.94C150.485 138.744 159.132 137.992 159.508 137.898C159.79 137.898 160.072 137.992 160.166 138.274C166.84 153.22 181.505 161.68 181.693 161.774C181.881 161.868 181.975 162.056 181.975 162.244C181.975 162.432 181.975 162.62 181.881 162.808L171.165 176.626C171.165 176.814 170.977 176.908 170.695 176.908ZM159.32 139.308C156.688 139.59 150.954 140.624 149.356 142.786C148.98 143.162 148.886 143.726 148.98 144.196C149.732 147.768 164.49 167.132 170.788 175.216L180.565 162.62C177.557 160.74 165.43 152.562 159.32 139.308Z" fill="#231F20"/>
<path d="M202.466 138.556C202.466 138.556 214.78 139.59 213.84 144.29C212.9 148.99 191.374 176.156 191.374 176.156L180.658 162.338C180.658 162.432 195.604 153.878 202.466 138.556Z" fill="white"/>
<path d="M191.468 176.908C191.28 176.908 191.092 176.814 190.998 176.626L180.282 162.808C180.188 162.62 180.094 162.432 180.188 162.244C180.188 162.056 180.376 161.868 180.47 161.774C180.564 161.68 195.322 153.22 201.996 138.274C202.09 137.992 202.372 137.804 202.654 137.898C203.03 137.898 211.678 138.744 214.028 141.94C214.592 142.598 214.78 143.538 214.592 144.478C213.652 149.272 192.972 175.592 192.032 176.626C191.844 176.814 191.656 176.908 191.468 176.908ZM181.692 162.62L191.468 175.216C197.766 167.226 212.524 147.862 213.276 144.196C213.37 143.726 213.276 143.162 212.9 142.786C211.302 140.624 205.568 139.59 202.936 139.308C196.732 152.562 184.606 160.74 181.692 162.62Z" fill="#231F20"/>
<path d="M231.606 244.306V209.056H128.676V244.306L110.158 260.756V348.928H250.124V260.756L231.606 244.306Z" fill="#231F20"/>
<path d="M250.124 349.586H110.158C109.782 349.586 109.5 349.304 109.5 348.928V260.85C109.5 260.662 109.594 260.474 109.688 260.38L128.018 244.118V209.15C128.018 208.774 128.3 208.492 128.676 208.492H231.7C232.076 208.492 232.358 208.774 232.358 209.15V244.118L250.688 260.38C250.782 260.474 250.876 260.662 250.876 260.85V348.928C250.782 349.304 250.5 349.586 250.124 349.586ZM110.816 348.27H249.466V261.132L231.136 244.87C230.948 244.776 230.948 244.588 230.948 244.4V209.714H129.334V244.4C129.334 244.588 129.24 244.776 129.146 244.87L110.91 261.132L110.816 348.27Z" fill="#231F20"/>
<path d="M138.922 221.84H152.082L148.228 142.316L134.504 145.794L138.922 221.84Z" fill="white"/>
<path d="M152.082 222.498H138.922C138.546 222.498 138.264 222.216 138.264 221.84L133.752 145.794C133.752 145.512 133.94 145.23 134.222 145.136L147.946 141.658C148.322 141.564 148.698 141.752 148.698 142.128V142.222L152.552 221.652C152.552 221.84 152.458 222.028 152.364 222.122C152.458 222.404 152.27 222.498 152.082 222.498ZM139.58 221.182H151.424L147.57 143.256L135.162 146.358L139.58 221.182Z" fill="#231F20"/>
<path d="M223.898 221.84H210.738L214.592 142.316L228.316 145.794L223.898 221.84Z" fill="white"/>
<path d="M223.898 222.498H210.738C210.362 222.498 210.08 222.216 210.08 221.84L213.934 142.41C213.934 142.222 214.028 142.034 214.216 141.94C214.404 141.846 214.592 141.752 214.78 141.846L228.504 145.324C228.786 145.418 228.974 145.7 228.974 145.982L224.462 221.934C224.556 222.216 224.274 222.498 223.898 222.498ZM211.396 221.182H223.24L227.658 146.358L215.25 143.256L211.396 221.182Z" fill="#231F20"/>
<path d="M154.902 213.38H136.008V226.07H154.902V213.38Z" fill="#D1D3D4"/>
<path d="M154.902 226.728H136.008C135.632 226.728 135.35 226.446 135.35 226.07V213.38C135.35 213.004 135.632 212.722 136.008 212.722H154.902C155.278 212.722 155.56 213.004 155.56 213.38V226.07C155.56 226.446 155.278 226.728 154.902 226.728ZM136.666 225.412H154.244V214.038H136.666V225.412Z" fill="#231F20"/>
<path d="M208.132 213.02L207.585 225.699L226.462 226.513L227.009 213.834L208.132 213.02Z" fill="#D1D3D4"/>
<path d="M226.531 227.104L207.636 226.258C207.448 226.258 207.26 226.164 207.166 226.07C207.072 225.976 206.979 225.788 206.979 225.6L207.542 212.91C207.542 212.722 207.637 212.534 207.731 212.44C207.825 212.346 208.013 212.252 208.201 212.252L227.095 213.098C227.471 213.098 227.752 213.38 227.752 213.756L227.189 226.446C227.189 226.916 226.813 227.198 226.531 227.104ZM208.295 225.036L225.872 225.788L226.342 214.414L208.765 213.662L208.295 225.036Z" fill="#231F20"/>
<path d="M182.82 330.974H177.368C158.004 330.974 142.306 315.276 142.212 295.818V266.866C142.212 266.49 142.494 266.208 142.87 266.208H217.224C217.6 266.208 217.882 266.49 217.882 266.866V295.818C217.882 315.276 202.184 330.974 182.82 330.974ZM143.622 267.524V295.818C143.622 314.524 158.756 329.658 177.368 329.658H182.82C201.526 329.658 216.66 314.524 216.66 295.818V267.524H143.622Z" fill="#D1D3D4"/>
<path d="M130.086 148.144C122.19 153.502 114.576 159.236 107.244 165.44C87.2219 182.266 59.3979 210.278 44.1699 226.164L88.0679 261.602L115.892 234.53C115.798 234.53 139.392 160.928 130.086 148.144Z" fill="white"/>
<path d="M335.852 164.594L309.532 145.324L255.106 219.584L257.926 226.634L284.152 245.904L338.578 171.738L335.852 164.594Z" fill="#231F20"/>
<path d="M284.152 246.562C284.058 246.562 283.87 246.562 283.776 246.468L257.456 227.198C257.362 227.104 257.268 227.01 257.268 226.916L254.542 219.866C254.448 219.678 254.542 219.396 254.636 219.208L309.062 145.042C309.156 144.948 309.344 144.854 309.532 144.76C309.72 144.76 309.908 144.76 310.002 144.854L336.322 164.124C336.416 164.218 336.51 164.312 336.51 164.406L339.236 171.456C339.33 171.644 339.236 171.926 339.142 172.114L284.716 246.28C284.622 246.374 284.434 246.468 284.246 246.562H284.152ZM258.49 226.258L284.058 245.058L337.826 171.644L335.288 165.064L309.72 146.264L255.952 219.678L258.49 226.258Z" fill="#231F20"/>
<path d="M309.537 145.381L255.131 219.6L281.361 238.828L335.767 164.609L309.537 145.381Z" fill="white"/>
<path d="M281.426 239.512C281.332 239.512 281.144 239.512 281.05 239.418L254.73 220.148C254.448 219.96 254.354 219.49 254.542 219.208L308.968 145.042C309.062 144.948 309.25 144.854 309.438 144.76C309.626 144.76 309.814 144.76 309.908 144.854L336.228 164.124C336.51 164.312 336.604 164.782 336.416 165.064L281.99 239.23C281.802 239.324 281.614 239.418 281.426 239.512ZM256.046 219.396L281.238 237.914L334.818 164.782L309.72 146.264L256.046 219.396Z" fill="#231F20"/>
<path d="M311.318 180.95C317.08 180.95 321.752 176.279 321.752 170.516C321.752 164.753 317.08 160.082 311.318 160.082C305.555 160.082 300.884 164.753 300.884 170.516C300.884 176.279 305.555 180.95 311.318 180.95Z" fill="white"/>
<path d="M311.318 181.608C305.208 181.608 300.226 176.626 300.226 170.422C300.226 164.312 305.208 159.33 311.412 159.33C317.522 159.33 322.504 164.312 322.504 170.516C322.504 175.968 318.462 180.668 313.104 181.514C312.446 181.514 311.882 181.608 311.318 181.608ZM311.318 160.646C305.866 160.646 301.542 165.064 301.542 170.422C301.542 175.78 305.96 180.198 311.318 180.198C316.77 180.198 321.094 175.78 321.094 170.422C321.094 167.32 319.59 164.406 317.052 162.526C315.454 161.304 313.386 160.646 311.318 160.646Z" fill="#231F20"/>
<path d="M294.868 203.416C300.63 203.416 305.302 198.745 305.302 192.982C305.302 187.219 300.63 182.548 294.868 182.548C289.105 182.548 284.434 187.219 284.434 192.982C284.434 198.745 289.105 203.416 294.868 203.416Z" fill="#D1D3D4"/>
<path d="M294.774 204.074C288.664 204.074 283.682 199.092 283.682 192.888C283.682 186.684 288.664 181.796 294.868 181.796C300.978 181.796 305.96 186.778 305.96 192.982C305.96 195.332 305.208 197.682 303.798 199.562C301.73 202.476 298.346 204.168 294.774 204.074ZM294.774 183.206C289.322 183.206 284.998 187.624 284.998 192.982C284.998 198.34 289.416 202.758 294.774 202.758C300.226 202.758 304.55 198.34 304.55 192.982C304.55 189.88 303.046 186.966 300.508 185.086C298.91 183.864 296.936 183.206 294.774 183.206Z" fill="#231F20"/>
<path d="M273.222 206.118L267.775 213.547L283.392 224.995L288.839 217.566L273.222 206.118Z" fill="white"/>
<path d="M283.4 225.694C283.306 225.694 283.118 225.694 283.024 225.6L267.326 214.132C267.044 213.944 266.95 213.568 267.138 213.192L272.59 205.766C272.684 205.578 272.872 205.578 273.06 205.484C273.248 205.484 273.436 205.484 273.53 205.578L289.134 217.046C289.416 217.234 289.51 217.704 289.322 217.986L283.87 225.412C283.776 225.506 283.682 225.6 283.4 225.694ZM268.642 213.38L283.212 224.096L287.912 217.704L273.342 206.988L268.642 213.38Z" fill="#231F20"/>
<path d="M273.226 206.043L267.946 213.245L274.011 217.691L279.291 210.489L273.226 206.043Z" fill="#231F20"/>
<path d="M274 218.362C273.906 218.362 273.718 218.362 273.624 218.268L267.514 213.85C267.232 213.662 267.138 213.192 267.326 212.91L272.59 205.766C272.684 205.578 272.872 205.578 273.06 205.484C273.248 205.484 273.436 205.484 273.53 205.578L279.64 209.996C279.734 210.09 279.828 210.278 279.922 210.466C279.922 210.654 279.922 210.842 279.828 210.936L274.564 218.08C274.376 218.174 274.282 218.268 274 218.362ZM268.83 213.098L273.812 216.764L278.324 210.654L273.342 206.988L268.83 213.098Z" fill="#231F20"/>
<path d="M296.842 229.642L301.73 223.156C301.73 223.156 299.756 203.228 301.542 198.434C301.918 197.494 302.858 196.366 303.798 196.836C304.174 197.118 304.456 197.4 304.644 197.87C305.772 200.314 306.43 203.04 306.524 205.766C306.242 200.972 306.524 196.178 307.182 191.478C307.276 190.632 307.558 189.786 308.31 189.41C309.532 188.846 310.66 190.444 311.036 191.76C311.506 193.546 311.882 195.426 312.07 197.306C311.506 193.922 311.694 190.444 312.54 187.154C313.574 183.112 316.112 183.394 316.676 187.53L317.428 194.392C317.428 190.914 317.992 187.53 317.898 184.052C317.804 181.138 318.462 179.07 320.906 177.002C321.282 176.626 321.846 176.344 322.316 176.344C323.162 176.344 323.82 177.19 324.196 177.942C324.76 179.54 324.948 181.138 324.854 182.83C324.948 193.17 326.076 203.698 322.504 213.38C319.12 222.78 313.01 226.822 307.652 228.608" fill="white"/>
<path d="M296.842 230.3C296.654 230.3 296.56 230.3 296.466 230.206C296.184 230.018 296.09 229.548 296.278 229.266L300.978 222.968C300.79 220.524 299.098 202.852 300.884 198.246C301.166 197.4 301.824 196.648 302.67 196.272C303.14 196.084 303.61 196.084 304.08 196.272C304.644 196.554 305.02 197.024 305.208 197.588C305.396 197.964 305.584 198.434 305.772 198.904C305.866 196.366 306.148 193.922 306.524 191.384C306.618 190.82 306.806 189.316 308.028 188.846C308.498 188.564 309.156 188.564 309.626 188.846C310.284 189.222 310.848 189.88 311.224 190.538C311.318 189.316 311.6 188.188 311.882 186.966C312.446 184.804 313.574 183.488 314.796 183.582C316.018 183.676 316.864 184.898 317.24 186.966C317.334 186.026 317.334 185.086 317.334 184.052C317.24 181.232 317.804 178.788 320.53 176.532C321 176.062 321.752 175.78 322.41 175.686C323.538 175.78 324.572 176.532 324.854 177.66C325.418 179.352 325.7 181.044 325.606 182.83C325.606 184.616 325.7 186.402 325.7 188.282C325.888 196.742 326.17 205.484 323.256 213.568C320.436 221.464 315.172 226.822 307.934 229.172C307.558 229.266 307.182 229.078 307.088 228.702C306.994 228.326 307.182 227.95 307.558 227.856C314.42 225.6 319.308 220.618 322.034 213.004C324.854 205.108 324.666 196.554 324.384 188.188C324.29 186.402 324.29 184.522 324.29 182.736C324.384 181.138 324.196 179.54 323.632 178.036C323.444 177.472 322.974 176.814 322.41 176.814C322.034 176.908 321.658 177.096 321.376 177.378C319.308 179.164 318.556 180.856 318.65 183.864C318.65 185.744 318.556 187.718 318.368 189.598C318.274 191.102 318.18 192.7 318.086 194.204C318.086 194.58 317.804 194.862 317.428 194.862C317.052 194.862 316.77 194.58 316.77 194.298L316.018 187.436C315.83 185.462 315.172 184.71 314.796 184.71C314.42 184.71 313.762 185.274 313.292 187.06C312.634 189.786 312.352 192.512 312.634 195.238C312.728 195.802 312.822 196.366 312.822 197.024C312.822 197.4 312.634 197.682 312.258 197.776C311.882 197.776 311.6 197.588 311.506 197.212C311.412 196.648 311.318 196.084 311.318 195.426C311.13 194.204 310.848 192.888 310.566 191.666C310.378 190.914 309.908 190.162 309.25 189.692C309.062 189.598 308.874 189.598 308.78 189.692C308.31 189.88 308.216 190.632 308.122 191.196C307.464 195.52 307.276 199.938 307.37 204.356C307.37 204.732 307.37 205.014 307.37 205.296C307.37 205.672 307.088 205.954 306.712 205.954C306.336 205.954 306.054 205.672 306.054 205.296C306.054 204.92 306.054 204.638 306.054 204.356C305.866 202.1 305.302 199.844 304.268 197.87C304.174 197.588 303.986 197.306 303.798 197.118C303.704 197.024 303.61 197.024 303.422 197.118C302.952 197.4 302.576 197.87 302.388 198.34C300.602 202.946 302.576 222.592 302.576 222.78C302.576 222.968 302.576 223.062 302.482 223.25L297.594 229.736C297.312 230.206 297.03 230.3 296.842 230.3Z" fill="#231F20"/>
<path d="M115.704 250.04C115.328 250.04 115.046 249.758 115.046 249.382L117.772 182.078C117.772 181.702 118.054 181.42 118.43 181.42C118.806 181.42 119.088 181.702 119.088 182.078L116.362 249.382C116.362 249.758 116.08 250.04 115.704 250.04Z" fill="#231F20"/>
<path d="M246.27 264.61C245.894 264.61 245.612 264.328 245.612 263.952C245.612 263.106 243.356 189.692 243.262 186.59C243.262 186.214 243.544 185.932 243.92 185.932C244.296 185.932 244.578 186.214 244.578 186.59C244.578 187.342 246.834 263.012 246.928 263.952C246.928 264.328 246.646 264.61 246.27 264.61Z" fill="#231F20"/>
<path d="M270.24 271.754C269.864 271.754 269.582 271.472 269.582 271.096C269.582 271.002 269.582 270.908 269.676 270.814L280.58 249.1C280.768 248.818 281.144 248.63 281.426 248.818C281.708 249.006 281.896 249.382 281.708 249.664L270.804 271.378C270.71 271.66 270.428 271.754 270.24 271.754Z" fill="#231F20"/>
<path d="M245.236 205.484C244.86 205.484 244.578 205.202 244.578 204.826C244.578 204.544 244.766 204.356 244.954 204.262C245.988 203.322 250.594 193.546 254.542 184.616C254.636 184.24 255.106 184.146 255.388 184.24C255.764 184.428 255.858 184.804 255.764 185.086C249.936 198.34 246.458 205.108 245.424 205.484H245.236Z" fill="#231F20"/>
<path d="M115.704 220.43C115.328 220.43 115.046 220.148 115.046 219.866L111.568 188.47C111.568 188.094 111.756 187.812 112.132 187.718C112.508 187.718 112.79 187.906 112.884 188.282L116.362 219.678C116.362 220.054 116.08 220.336 115.704 220.43Z" fill="#231F20"/>
<path d="M268.172 231.522L260.652 240.828L265.258 245.34L272.59 235.752L268.172 231.522Z" fill="#231F20"/>
<path d="M265.258 245.998C265.07 245.998 264.976 245.904 264.788 245.81L260.088 241.298C259.806 241.016 259.806 240.64 260.088 240.452L267.608 231.146C267.702 230.958 267.89 230.958 268.078 230.864C268.266 230.864 268.454 230.958 268.548 231.052L272.966 235.282C273.248 235.47 273.248 235.846 273.06 236.128L265.728 245.716C265.634 245.904 265.446 245.998 265.258 245.998ZM261.498 240.734L265.164 244.306L271.744 235.752L268.266 232.368L261.498 240.734Z" fill="#231F20"/>
<path d="M280.862 349.022C279.734 349.022 278.888 348.176 278.888 347.048C278.888 346.39 279.264 345.732 279.828 345.356C280.486 344.98 294.962 335.204 292.894 313.866C291.86 302.962 282.366 295.536 273.248 288.392C263.942 281.06 255.106 274.198 255.2 263.952C255.294 246.656 264.976 237.35 265.352 236.974C266.104 236.222 267.42 236.222 268.172 237.068C268.924 237.914 268.924 239.136 268.078 239.888C267.984 239.982 259.242 248.442 259.148 263.952C259.148 272.318 267.138 278.616 275.692 285.29C285.092 292.622 295.62 300.894 296.842 313.49C299.192 337.272 282.648 348.27 281.99 348.646C281.614 348.928 281.238 349.022 280.862 349.022Z" fill="#231F20"/>
<path d="M141.93 109.322C141.554 109.322 141.272 109.04 141.272 108.758L138.17 79.712C138.17 79.336 138.452 79.054 138.828 79.054C139.204 79.054 139.486 79.242 139.486 79.618L142.588 108.664C142.682 108.946 142.4 109.228 141.93 109.322Z" fill="#D1D3D4"/>
<path d="M222.018 108.288C221.548 108.288 221.36 107.912 221.36 107.536L224.462 78.302C224.556 77.926 224.838 77.738 225.214 77.738C225.59 77.832 225.778 78.114 225.778 78.396L222.676 107.63C222.676 108.1 222.394 108.288 222.018 108.288Z" fill="#D1D3D4"/>
<path d="M170.13 107.254H159.038C153.586 107.254 148.98 103.024 148.51 97.572L147.476 84.788C147.476 84.412 147.758 84.13 148.04 84.036C148.04 84.036 148.04 84.036 148.134 84.036H216.472C216.848 84.036 217.13 84.318 217.13 84.694V84.788L214.592 97.854C213.652 102.836 209.328 106.408 204.252 106.408H195.04C191.656 106.408 188.554 104.81 186.486 102.084L182.914 97.29L178.496 103.024C176.522 105.75 173.42 107.254 170.13 107.254ZM148.792 85.446L149.826 97.478C150.296 102.272 154.244 105.938 159.038 105.938H170.224C173.138 105.938 175.77 104.622 177.556 102.366L182.444 95.974C182.538 95.786 182.726 95.692 183.008 95.692C183.196 95.692 183.384 95.786 183.572 95.974L187.614 101.426C189.4 103.776 192.126 105.186 195.04 105.186H204.252C208.67 105.186 212.524 101.99 213.37 97.666L215.72 85.352L148.792 85.446Z" fill="#231F20"/>
<path d="M222.019 70.5C222.019 74.542 204.347 80.746 182.539 80.746C160.731 80.746 143.059 74.636 143.059 70.5C169.097 65.706 195.887 65.706 221.925 70.5H222.019Z" fill="white"/>
<path d="M182.632 81.31C161.012 81.31 142.494 75.294 142.494 70.406C142.494 70.124 142.682 69.842 143.058 69.748C169.19 64.954 196.074 64.954 222.206 69.748C222.488 69.842 222.77 70.124 222.77 70.406C222.676 75.388 204.158 81.31 182.632 81.31ZM143.998 70.97C145.502 74.354 161.388 79.994 182.632 79.994C203.876 79.994 219.762 74.354 221.266 70.97C195.698 66.364 169.472 66.364 143.998 70.97Z" fill="#231F20"/>
<path d="M171.352 28.482H193.912C209.516 28.482 222.112 41.078 222.112 56.682V70.5H143.246V56.682C143.246 41.172 155.842 28.576 171.352 28.482Z" fill="white"/>
<path d="M222.018 71.158H143.152C142.776 71.158 142.494 70.876 142.494 70.5V67.962C142.494 45.778 160.448 27.824 182.632 27.824C204.816 27.824 222.676 45.778 222.676 67.962V70.594C222.676 70.876 222.394 71.158 222.018 71.158ZM143.81 69.842H221.36V67.962C221.36 46.53 203.97 29.234 182.632 29.234C161.294 29.234 143.904 46.624 143.904 67.962L143.81 69.842Z" fill="#231F20"/>
<path d="M177.65 25.286H187.52C189.87 25.286 191.844 27.26 191.844 29.61V70.5H173.326V29.61C173.326 27.166 175.3 25.286 177.65 25.286Z" fill="white"/>
<path d="M191.844 71.158H173.326C172.95 71.158 172.668 70.876 172.668 70.5V31.302C172.668 27.636 175.676 24.628 179.342 24.534H185.734C189.4 24.534 192.408 27.542 192.408 31.302V70.5C192.502 70.876 192.22 71.158 191.844 71.158ZM173.984 69.842H191.186V31.302C191.186 28.294 188.742 25.944 185.734 25.85H179.342C176.334 25.85 173.984 28.294 173.984 31.302V69.842Z" fill="#231F20"/>
</g>
<defs>
<clipPath id="clip0_2007_820">
<rect width="376" height="351" fill="white"/>
</clipPath>
</defs>
</svg>
