<svg width="284" height="284" viewBox="0 0 284 284" fill="none" xmlns="http://www.w3.org/2000/svg">
<path d="M59.8672 196.358C51.3472 196.358 44.4176 189.428 44.4176 180.908V47.712H166.594V180.908C75.3168 189.428 68.3872 196.358 59.8672 196.358Z" fill="white"/>
<path d="M59.8672 197.494C50.7224 197.494 43.2816 190.053 43.2816 180.908V47.712C43.2816 47.0872 43.7928 46.576 44.4176 46.576H166.651C167.276 46.576 167.787 47.0872 167.787 47.712V180.908C167.787 181.476 167.333 181.987 166.765 182.044C101.218 188.178 79.4064 193.404 68.8984 195.96C64.6952 196.926 62.3664 197.494 59.8672 197.494ZM45.5536 48.9048V180.908C45.5536 188.803 51.972 195.222 59.8672 195.222C62.1392 195.222 64.2976 194.71 68.3304 193.745C78.8384 191.246 100.593 185.963 165.458 179.886V48.9048H45.5536Z" fill="#093F68"/>
<path d="M90.7664 78.8952H200.674C213.17 78.8952 223.281 89.0056 223.281 101.502V236.288H118.712C107.295 236.288 106.216 227.143 106.216 223.678V108.999C99.116 95.2536 90.7664 78.8952 90.7664 78.8952Z" fill="white"/>
<path d="M223.281 237.424H118.712C106.045 237.424 105.08 226.859 105.08 223.622V109.283C97.9798 95.5944 89.7438 79.4632 89.7438 79.4632C89.403 78.8952 89.6302 78.2136 90.1414 77.9296C90.3118 77.816 90.539 77.7592 90.7662 77.7592H200.674C213.795 77.7592 224.417 88.3808 224.417 101.502V236.288C224.417 236.913 223.905 237.424 223.281 237.424ZM92.6406 80.088C94.9694 84.5752 101.501 97.412 107.238 108.488C107.352 108.658 107.352 108.829 107.352 108.999V223.622C107.352 227.086 108.488 235.095 118.712 235.095H222.088V101.502C222.088 89.6872 212.489 80.088 200.674 80.088H92.6406Z" fill="#093F68"/>
<path d="M223.281 236.288H227.257C234.186 236.288 239.753 230.722 239.753 223.792V210.955H127.402V223.622C127.402 229.926 123.426 236.004 116.099 236.004L223.281 236.288Z" fill="#5A05FF"/>
<path d="M227.257 237.424H223.281L116.042 237.14C115.417 237.14 114.906 236.629 114.906 236.004C114.906 235.379 115.417 234.868 116.042 234.868C123.029 234.868 126.209 229.074 126.209 223.622V210.955C126.209 210.33 126.721 209.819 127.345 209.819H239.753C240.377 209.819 240.889 210.33 240.889 210.955V223.792C240.889 231.29 234.754 237.424 227.257 237.424ZM223.281 235.095H227.257C233.505 235.095 238.617 229.983 238.617 223.735V212.091H128.538V223.565C128.538 227.882 126.777 232.255 123.313 234.811L223.281 235.095Z" fill="#093F68"/>
<path d="M59.8672 196.358H106.216V94.3448C106.046 85.8248 99.0024 79.0088 90.4824 79.1792C82.1896 79.3496 75.4872 86.052 75.3168 94.3448V180.851C75.3168 189.428 68.3872 196.358 59.8672 196.358Z" fill="#5A05FF"/>
<path d="M106.216 197.494H59.8672C59.2424 197.494 58.7312 196.982 58.7312 196.358C58.7312 195.733 59.2424 195.222 59.8672 195.222C67.7624 195.222 74.1808 188.803 74.1808 180.908V94.3448C74.0104 85.1432 81.3376 77.5888 90.4824 77.4184C99.6272 77.248 107.238 84.5752 107.409 93.72C107.409 93.9472 107.409 94.1176 107.409 94.3448V196.301C107.409 196.982 106.898 197.494 106.216 197.494ZM68.3304 195.165H105.08V94.3448C105.25 86.4496 98.9456 79.9176 91.0504 79.7472C83.1552 79.5768 76.6232 85.8816 76.4528 93.7768C76.4528 93.9472 76.4528 94.1744 76.4528 94.3448V180.851C76.5096 186.758 73.3856 192.211 68.3304 195.165Z" fill="#093F68"/>
<path d="M205.502 158.756H128.993C128.368 158.756 127.857 158.245 127.857 157.62C127.857 156.995 128.368 156.484 128.993 156.484H205.502C206.127 156.484 206.638 156.995 206.638 157.62C206.638 158.245 206.127 158.756 205.502 158.756Z" fill="#5A05FF"/>
<path d="M205.502 171.65H128.993C128.368 171.65 127.857 171.138 127.857 170.514C127.857 169.889 128.368 169.378 128.993 169.378H205.502C206.127 169.378 206.638 169.889 206.638 170.514C206.638 171.138 206.127 171.65 205.502 171.65Z" fill="#5A05FF"/>
<path d="M205.502 184.6H128.993C128.368 184.6 127.857 184.089 127.857 183.464C127.857 182.839 128.368 182.328 128.993 182.328H205.502C206.127 182.328 206.638 182.839 206.638 183.464C206.638 184.089 206.127 184.6 205.502 184.6Z" fill="#5A05FF"/>
<path d="M184.145 197.494H128.993C128.368 197.494 127.857 196.982 127.857 196.358C127.857 195.733 128.368 195.222 128.993 195.222H184.145C184.77 195.222 185.281 195.733 185.281 196.358C185.338 196.982 184.827 197.494 184.145 197.494Z" fill="#5A05FF"/>
<path d="M203.23 140.41H129.05C128.425 140.41 127.914 139.898 127.914 139.274V99.0592C127.914 98.4344 128.425 97.9232 129.05 97.9232C129.674 97.9232 130.186 98.4344 130.186 99.0592V138.138H203.174C203.798 138.138 204.31 138.649 204.31 139.274C204.31 139.898 203.855 140.466 203.23 140.41Z" fill="#093F68"/>
<path d="M150.293 119.962H139.387V139.274H150.293V119.962Z" fill="#F56132"/>
<path d="M150.35 140.41H139.444C138.819 140.41 138.308 139.898 138.308 139.274V119.962C138.308 119.337 138.819 118.826 139.444 118.826H150.35C150.975 118.826 151.486 119.337 151.486 119.962V139.274C151.486 139.955 150.975 140.41 150.35 140.41ZM140.58 138.138H149.214V121.098H140.58V138.138Z" fill="#093F68"/>
<path d="M171.536 109.34H160.63V139.274H171.536V109.34Z" fill="#FFBC0E"/>
<path d="M171.593 140.41H160.687C160.062 140.41 159.551 139.898 159.551 139.274V109.34C159.551 108.715 160.062 108.204 160.687 108.204H171.593C172.217 108.204 172.729 108.715 172.729 109.34V139.274C172.729 139.898 172.217 140.41 171.593 140.41ZM161.823 138.138H170.4V110.533H161.823V138.138Z" fill="#093F68"/>
<path d="M192.779 97.8096H181.874V139.274H192.779V97.8096Z" fill="#70CC40"/>
<path d="M192.836 140.41H181.93C181.306 140.41 180.794 139.898 180.794 139.274V97.8096C180.794 97.1848 181.306 96.6736 181.93 96.6736H192.836C193.461 96.6736 193.972 97.1848 193.972 97.8096V139.274C193.972 139.955 193.461 140.41 192.836 140.41ZM183.01 138.138H191.643V99.0024H183.01V138.138Z" fill="#093F68"/>
<path d="M90.5112 193.742L82.6455 204.875L88.7224 209.169L96.5881 198.035L90.5112 193.742Z" fill="#093F68"/>
<path d="M88.7783 210.33C88.5511 210.33 88.3239 210.274 88.0967 210.103L82.0191 205.786C81.5079 205.446 81.3943 204.707 81.7351 204.196C81.7351 204.196 81.7351 204.196 81.7351 204.139L89.6303 193.006C89.9711 192.495 90.7095 192.325 91.2207 192.722C91.2207 192.722 91.2207 192.722 91.2775 192.722L97.3551 197.039C97.8663 197.38 98.0367 198.118 97.6391 198.63C97.6391 198.63 97.6391 198.63 97.6391 198.686L89.7439 209.819C89.5167 210.16 89.1759 210.33 88.7783 210.33ZM84.2911 204.594L88.4943 207.547L95.0263 198.289L90.8231 195.335L84.2911 204.594Z" fill="#093F68"/>
<path d="M95.0454 183.834L87.1797 194.967L96.5502 201.587L104.416 190.454L95.0454 183.834Z" fill="white"/>
<path d="M96.5601 202.776C96.3328 202.776 96.1057 202.719 95.8785 202.549L86.5632 195.96C86.052 195.619 85.8816 194.881 86.2792 194.37C86.2792 194.37 86.2792 194.37 86.2792 194.313L94.1745 183.18C94.5153 182.669 95.2537 182.498 95.7649 182.896C95.7649 182.896 95.7648 182.896 95.8216 182.896L105.137 189.485C105.648 189.826 105.818 190.564 105.421 191.075C105.421 191.075 105.421 191.075 105.421 191.132L97.5256 202.265C97.2984 202.606 96.9577 202.776 96.5601 202.776ZM88.8352 194.71L96.276 199.993L102.808 190.734L95.3672 185.452L88.8352 194.71Z" fill="#093F68"/>
<path d="M83.0984 202.833L90.4824 208.058C91.0504 208.456 91.164 209.194 90.7664 209.706L74.124 233.278C73.7264 233.846 72.988 233.959 72.4768 233.562L65.0928 228.336C64.5248 227.938 64.4112 227.2 64.8088 226.689L81.4511 203.117C81.8487 202.606 82.5872 202.435 83.0984 202.833Z" fill="white"/>
<path d="M72.8744 234.47C72.136 234.47 71.3976 234.243 70.7728 233.789L65.4336 230.04C63.7864 228.904 63.4456 226.632 64.5816 225.042L79.804 203.514C80.94 201.867 83.212 201.526 84.8024 202.662L90.1416 206.468C91.7888 207.604 92.1296 209.876 90.9936 211.466L75.7712 232.994C75.1464 233.902 74.0672 234.47 72.8744 234.47ZM82.7576 204.253C82.36 204.253 81.9624 204.48 81.6784 204.821L66.456 226.348C66.2856 226.632 66.172 226.973 66.2288 227.314C66.2856 227.654 66.456 227.938 66.74 228.166L72.136 231.971C72.704 232.369 73.4992 232.255 73.9536 231.687L89.176 210.16C89.3464 209.876 89.46 209.535 89.4032 209.194C89.3464 208.854 89.176 208.57 88.892 208.342L83.496 204.48C83.2688 204.366 82.9848 204.253 82.7576 204.253Z" fill="#093F68"/>
<path d="M125.869 150.236C113.714 141.659 96.9008 144.556 88.324 156.711C79.7472 168.866 82.644 185.679 94.7992 194.256C106.954 202.833 123.767 199.936 132.344 187.781C140.921 175.569 138.024 158.813 125.869 150.236Z" fill="white"/>
<path d="M110.249 200.277C94.7423 200.277 82.1895 187.667 82.1895 172.161C82.1895 156.654 94.7991 144.102 110.305 144.102C116.099 144.102 121.779 145.919 126.493 149.27C139.16 158.188 142.17 175.739 133.253 188.406C127.97 195.846 119.393 200.277 110.249 200.277ZM110.362 146.43C96.1623 146.43 84.5751 157.961 84.5751 172.161C84.5751 186.361 96.1055 197.948 110.305 197.948C124.505 197.948 136.093 186.418 136.093 172.218C136.093 163.868 132.06 155.973 125.187 151.145C120.87 148.078 115.645 146.43 110.362 146.43Z" fill="#093F68"/>
<path d="M110.306 190.564C120.438 190.564 128.652 182.35 128.652 172.218C128.652 162.085 120.438 153.871 110.306 153.871C100.173 153.871 91.9592 162.085 91.9592 172.218C91.9592 182.35 100.173 190.564 110.306 190.564Z" fill="white"/>
<path d="M110.306 191.7C99.5704 191.7 90.8232 182.953 90.8232 172.218C90.8232 161.482 99.5704 152.735 110.306 152.735C121.041 152.735 129.788 161.482 129.788 172.218C129.788 182.953 121.098 191.7 110.306 191.7ZM110.306 155.007C100.82 155.007 93.152 162.675 93.152 172.161C93.152 181.646 100.82 189.314 110.306 189.314C119.791 189.314 127.459 181.646 127.459 172.161C127.459 162.732 119.791 155.064 110.306 155.007Z" fill="#093F68"/>
<path d="M110.306 172.218H128.652C128.652 182.328 120.473 190.507 110.306 190.507C100.195 190.507 92.0161 182.328 92.0161 172.161C92.0161 162.05 100.195 153.871 110.363 153.871C112.237 153.871 114.111 154.155 115.929 154.723L110.306 172.218Z" fill="#5A05FF"/>
<path d="M110.306 191.7C99.5704 191.7 90.8232 182.953 90.8232 172.218C90.8232 161.482 99.5704 152.735 110.306 152.735C112.294 152.735 114.282 153.019 116.213 153.644C116.838 153.814 117.178 154.439 116.951 155.064C116.951 155.064 116.951 155.064 116.951 155.121L111.839 171.082H128.595C129.22 171.082 129.731 171.593 129.731 172.218C129.731 182.953 121.041 191.643 110.306 191.7ZM110.306 155.007C100.82 155.007 93.152 162.675 93.152 172.161C93.152 181.646 100.82 189.314 110.306 189.314C119.337 189.314 126.834 182.328 127.459 173.297H110.306C109.908 173.297 109.567 173.126 109.397 172.842C109.17 172.558 109.113 172.161 109.226 171.82L114.452 155.518C113.089 155.234 111.726 155.064 110.306 155.007Z" fill="#093F68"/>
</svg>
