<svg width="448" height="170" viewBox="0 0 448 170" fill="none" xmlns="http://www.w3.org/2000/svg">
<rect x="64" width="384" height="50" rx="24" fill="#F8F5FF"/>
<path d="M101.679 22.1847H99.4631C99.3778 21.7112 99.2192 21.2945 98.9872 20.9347C98.7552 20.5748 98.4711 20.2694 98.1349 20.0185C97.7988 19.7675 97.4223 19.5781 97.0057 19.4503C96.5938 19.3224 96.1558 19.2585 95.6918 19.2585C94.8537 19.2585 94.1032 19.4692 93.4403 19.8906C92.7822 20.312 92.2614 20.9299 91.8778 21.7443C91.4991 22.5587 91.3097 23.553 91.3097 24.7273C91.3097 25.911 91.4991 26.91 91.8778 27.7244C92.2614 28.5388 92.7846 29.1544 93.4474 29.571C94.1103 29.9877 94.8561 30.196 95.6847 30.196C96.1439 30.196 96.5795 30.1345 96.9915 30.0114C97.4081 29.8835 97.7846 29.6965 98.1207 29.4503C98.4569 29.2041 98.741 28.9034 98.973 28.5483C99.2098 28.1884 99.3731 27.7765 99.4631 27.3125L101.679 27.3196C101.561 28.0346 101.331 28.6927 100.99 29.294C100.654 29.8906 100.221 30.4067 99.6903 30.8423C99.1648 31.2732 98.5634 31.607 97.8864 31.8438C97.2093 32.0805 96.4706 32.1989 95.6705 32.1989C94.411 32.1989 93.2888 31.9006 92.304 31.304C91.3191 30.7027 90.5426 29.8433 89.9744 28.7259C89.411 27.6084 89.1293 26.2756 89.1293 24.7273C89.1293 23.1742 89.4134 21.8414 89.9815 20.7287C90.5497 19.6113 91.3262 18.7543 92.3111 18.1577C93.2959 17.5563 94.4157 17.2557 95.6705 17.2557C96.4422 17.2557 97.1619 17.367 97.8295 17.5895C98.5019 17.8073 99.1056 18.1293 99.6406 18.5554C100.176 18.9768 100.618 19.4929 100.969 20.1037C101.319 20.7098 101.556 21.4034 101.679 22.1847ZM104.305 32V17.4545H109.49C110.617 17.4545 111.552 17.6487 112.295 18.0369C113.043 18.4252 113.602 18.9626 113.971 19.6491C114.341 20.331 114.525 21.1193 114.525 22.0142C114.525 22.9044 114.338 23.688 113.964 24.3651C113.595 25.0374 113.036 25.5606 112.288 25.9347C111.545 26.3087 110.609 26.4957 109.483 26.4957H105.555V24.6065H109.284C109.994 24.6065 110.572 24.5047 111.017 24.3011C111.467 24.0975 111.796 23.8016 112.004 23.4134C112.212 23.0251 112.316 22.5587 112.316 22.0142C112.316 21.465 112.21 20.9891 111.997 20.5866C111.788 20.1842 111.459 19.8764 111.01 19.6634C110.565 19.4455 109.98 19.3366 109.255 19.3366H106.5V32H104.305ZM111.485 25.4375L115.079 32H112.579L109.056 25.4375H111.485ZM117.196 17.4545H119.859L124.49 28.7614H124.66L129.291 17.4545H131.954V32H129.866V21.4744H129.731L125.441 31.9787H123.708L119.419 21.4673H119.284V32H117.196V17.4545Z" fill="black"/>
<path d="M160.773 23H159.364C159.28 22.5947 159.134 22.2386 158.926 21.9318C158.722 21.625 158.472 21.3674 158.176 21.1591C157.884 20.947 157.561 20.7879 157.205 20.6818C156.848 20.5758 156.477 20.5227 156.091 20.5227C155.386 20.5227 154.748 20.7008 154.176 21.0568C153.608 21.4129 153.155 21.9375 152.818 22.6307C152.485 23.3239 152.318 24.1742 152.318 25.1818C152.318 26.1894 152.485 27.0398 152.818 27.733C153.155 28.4261 153.608 28.9508 154.176 29.3068C154.748 29.6629 155.386 29.8409 156.091 29.8409C156.477 29.8409 156.848 29.7879 157.205 29.6818C157.561 29.5758 157.884 29.4186 158.176 29.2102C158.472 28.9981 158.722 28.7386 158.926 28.4318C159.134 28.1212 159.28 27.7652 159.364 27.3636H160.773C160.667 27.9583 160.473 28.4905 160.193 28.9602C159.913 29.4299 159.564 29.8295 159.148 30.1591C158.731 30.4848 158.263 30.733 157.744 30.9034C157.229 31.0739 156.678 31.1591 156.091 31.1591C155.098 31.1591 154.216 30.9167 153.443 30.4318C152.67 29.947 152.063 29.2576 151.619 28.3636C151.176 27.4697 150.955 26.4091 150.955 25.1818C150.955 23.9545 151.176 22.8939 151.619 22C152.063 21.1061 152.67 20.4167 153.443 19.9318C154.216 19.447 155.098 19.2045 156.091 19.2045C156.678 19.2045 157.229 19.2898 157.744 19.4602C158.263 19.6307 158.731 19.8807 159.148 20.2102C159.564 20.536 159.913 20.9337 160.193 21.4034C160.473 21.8693 160.667 22.4015 160.773 23ZM168.368 27.4318V22.2727H169.709V31H168.368V29.5227H168.277C168.072 29.9659 167.754 30.3428 167.322 30.6534C166.891 30.9602 166.345 31.1136 165.686 31.1136C165.141 31.1136 164.656 30.9943 164.232 30.7557C163.807 30.5133 163.474 30.1496 163.232 29.6648C162.989 29.1761 162.868 28.5606 162.868 27.8182V22.2727H164.209V27.7273C164.209 28.3636 164.387 28.8712 164.743 29.25C165.103 29.6288 165.561 29.8182 166.118 29.8182C166.451 29.8182 166.79 29.733 167.135 29.5625C167.483 29.392 167.775 29.1307 168.01 28.7784C168.249 28.4261 168.368 27.9773 168.368 27.4318ZM178.347 24.2273L177.142 24.5682C177.066 24.3674 176.955 24.1723 176.807 23.983C176.663 23.7898 176.466 23.6307 176.216 23.5057C175.966 23.3807 175.646 23.3182 175.256 23.3182C174.722 23.3182 174.277 23.4413 173.92 23.6875C173.568 23.9299 173.392 24.2386 173.392 24.6136C173.392 24.947 173.513 25.2102 173.756 25.4034C173.998 25.5966 174.377 25.7576 174.892 25.8864L176.188 26.2045C176.968 26.3939 177.549 26.6837 177.932 27.0739C178.314 27.4602 178.506 27.9583 178.506 28.5682C178.506 29.0682 178.362 29.5152 178.074 29.9091C177.79 30.303 177.392 30.6136 176.881 30.8409C176.369 31.0682 175.775 31.1818 175.097 31.1818C174.206 31.1818 173.47 30.9886 172.886 30.6023C172.303 30.2159 171.934 29.6515 171.778 28.9091L173.051 28.5909C173.172 29.0606 173.402 29.4129 173.739 29.6477C174.08 29.8826 174.525 30 175.074 30C175.699 30 176.195 29.8674 176.562 29.6023C176.934 29.3333 177.119 29.0114 177.119 28.6364C177.119 28.3333 177.013 28.0795 176.801 27.875C176.589 27.6667 176.263 27.5114 175.824 27.4091L174.369 27.0682C173.57 26.8788 172.983 26.5852 172.608 26.1875C172.237 25.786 172.051 25.2841 172.051 24.6818C172.051 24.1894 172.189 23.7538 172.466 23.375C172.746 22.9962 173.127 22.6989 173.608 22.483C174.093 22.267 174.642 22.1591 175.256 22.1591C176.119 22.1591 176.797 22.3485 177.29 22.7273C177.786 23.1061 178.138 23.6061 178.347 24.2273ZM184.32 22.2727V23.4091H179.797V22.2727H184.32ZM181.115 20.1818H182.456V28.5C182.456 28.8788 182.511 29.1629 182.621 29.3523C182.734 29.5379 182.878 29.6629 183.053 29.7273C183.231 29.7879 183.418 29.8182 183.615 29.8182C183.763 29.8182 183.884 29.8106 183.979 29.7955C184.073 29.7765 184.149 29.7614 184.206 29.75L184.479 30.9545C184.388 30.9886 184.261 31.0227 184.098 31.0568C183.935 31.0947 183.729 31.1136 183.479 31.1136C183.1 31.1136 182.729 31.0322 182.365 30.8693C182.005 30.7064 181.706 30.4583 181.467 30.125C181.232 29.7917 181.115 29.3712 181.115 28.8636V20.1818ZM189.788 31.1818C189 31.1818 188.309 30.9943 187.714 30.6193C187.124 30.2443 186.661 29.7197 186.328 29.0455C185.999 28.3712 185.834 27.5833 185.834 26.6818C185.834 25.7727 185.999 24.9792 186.328 24.3011C186.661 23.6231 187.124 23.0966 187.714 22.7216C188.309 22.3466 189 22.1591 189.788 22.1591C190.576 22.1591 191.266 22.3466 191.857 22.7216C192.451 23.0966 192.913 23.6231 193.243 24.3011C193.576 24.9792 193.743 25.7727 193.743 26.6818C193.743 27.5833 193.576 28.3712 193.243 29.0455C192.913 29.7197 192.451 30.2443 191.857 30.6193C191.266 30.9943 190.576 31.1818 189.788 31.1818ZM189.788 29.9773C190.387 29.9773 190.879 29.8239 191.266 29.517C191.652 29.2102 191.938 28.8068 192.124 28.3068C192.309 27.8068 192.402 27.2652 192.402 26.6818C192.402 26.0985 192.309 25.5549 192.124 25.0511C191.938 24.5473 191.652 24.1402 191.266 23.8295C190.879 23.5189 190.387 23.3636 189.788 23.3636C189.19 23.3636 188.697 23.5189 188.311 23.8295C187.925 24.1402 187.639 24.5473 187.453 25.0511C187.268 25.5549 187.175 26.0985 187.175 26.6818C187.175 27.2652 187.268 27.8068 187.453 28.3068C187.639 28.8068 187.925 29.2102 188.311 29.517C188.697 29.8239 189.19 29.9773 189.788 29.9773ZM195.79 31V22.2727H197.085V23.6364H197.199C197.381 23.1705 197.674 22.8087 198.08 22.5511C198.485 22.2898 198.972 22.1591 199.54 22.1591C200.116 22.1591 200.595 22.2898 200.977 22.5511C201.364 22.8087 201.665 23.1705 201.881 23.6364H201.972C202.195 23.1856 202.53 22.8277 202.977 22.5625C203.424 22.2936 203.96 22.1591 204.585 22.1591C205.366 22.1591 206.004 22.4034 206.5 22.892C206.996 23.3769 207.244 24.1326 207.244 25.1591V31H205.903V25.1591C205.903 24.5152 205.727 24.0549 205.375 23.7784C205.023 23.5019 204.608 23.3636 204.131 23.3636C203.517 23.3636 203.042 23.5492 202.705 23.9205C202.367 24.2879 202.199 24.7538 202.199 25.3182V31H200.835V25.0227C200.835 24.5265 200.674 24.1269 200.352 23.8239C200.03 23.517 199.616 23.3636 199.108 23.3636C198.759 23.3636 198.434 23.4564 198.131 23.642C197.831 23.8277 197.589 24.0852 197.403 24.4148C197.222 24.7405 197.131 25.1174 197.131 25.5455V31H195.79ZM213.355 31.1818C212.514 31.1818 211.789 30.9962 211.179 30.625C210.573 30.25 210.105 29.7273 209.776 29.0568C209.45 28.3826 209.287 27.5985 209.287 26.7045C209.287 25.8106 209.45 25.0227 209.776 24.3409C210.105 23.6553 210.563 23.1212 211.151 22.7386C211.741 22.3523 212.431 22.1591 213.219 22.1591C213.673 22.1591 214.122 22.2348 214.565 22.3864C215.009 22.5379 215.412 22.7841 215.776 23.125C216.139 23.4621 216.429 23.9091 216.645 24.4659C216.861 25.0227 216.969 25.7083 216.969 26.5227V27.0909H210.241V25.9318H215.605C215.605 25.4394 215.507 25 215.31 24.6136C215.116 24.2273 214.84 23.9223 214.48 23.6989C214.124 23.4754 213.704 23.3636 213.219 23.3636C212.685 23.3636 212.223 23.4962 211.832 23.7614C211.446 24.0227 211.149 24.3636 210.94 24.7841C210.732 25.2045 210.628 25.6553 210.628 26.1364V26.9091C210.628 27.5682 210.741 28.1269 210.969 28.5852C211.2 29.0398 211.52 29.3864 211.929 29.625C212.338 29.8598 212.813 29.9773 213.355 29.9773C213.707 29.9773 214.026 29.928 214.31 29.8295C214.598 29.7273 214.846 29.5758 215.054 29.375C215.262 29.1705 215.423 28.9167 215.537 28.6136L216.832 28.9773C216.696 29.4167 216.467 29.803 216.145 30.1364C215.823 30.4659 215.425 30.7235 214.952 30.9091C214.478 31.0909 213.946 31.1818 213.355 31.1818ZM219.009 31V22.2727H220.304V23.5909H220.395C220.554 23.1591 220.842 22.8087 221.259 22.5398C221.675 22.2708 222.145 22.1364 222.668 22.1364C222.766 22.1364 222.889 22.1383 223.037 22.142C223.185 22.1458 223.296 22.1515 223.372 22.1591V23.5227C223.327 23.5114 223.223 23.4943 223.06 23.4716C222.901 23.4451 222.732 23.4318 222.554 23.4318C222.13 23.4318 221.751 23.5208 221.418 23.6989C221.088 23.8731 220.827 24.1155 220.634 24.4261C220.444 24.733 220.349 25.0833 220.349 25.4773V31H219.009ZM229.643 31V19.3636H233.575C234.484 19.3636 235.231 19.5189 235.814 19.8295C236.397 20.1364 236.829 20.5587 237.109 21.0966C237.39 21.6345 237.53 22.2462 237.53 22.9318C237.53 23.6174 237.39 24.2254 237.109 24.7557C236.829 25.286 236.399 25.7027 235.82 26.0057C235.24 26.3049 234.5 26.4545 233.598 26.4545H230.416V25.1818H233.553C234.174 25.1818 234.674 25.0909 235.053 24.9091C235.435 24.7273 235.712 24.4697 235.882 24.1364C236.056 23.7992 236.143 23.3977 236.143 22.9318C236.143 22.4659 236.056 22.0587 235.882 21.7102C235.708 21.3617 235.429 21.0928 235.047 20.9034C234.664 20.7102 234.159 20.6136 233.53 20.6136H231.053V31H229.643ZM235.121 25.7727L237.984 31H236.348L233.53 25.7727H235.121ZM243.261 31.1818C242.42 31.1818 241.695 30.9962 241.085 30.625C240.479 30.25 240.011 29.7273 239.682 29.0568C239.356 28.3826 239.193 27.5985 239.193 26.7045C239.193 25.8106 239.356 25.0227 239.682 24.3409C240.011 23.6553 240.47 23.1212 241.057 22.7386C241.648 22.3523 242.337 22.1591 243.125 22.1591C243.58 22.1591 244.028 22.2348 244.472 22.3864C244.915 22.5379 245.318 22.7841 245.682 23.125C246.045 23.4621 246.335 23.9091 246.551 24.4659C246.767 25.0227 246.875 25.7083 246.875 26.5227V27.0909H240.148V25.9318H245.511C245.511 25.4394 245.413 25 245.216 24.6136C245.023 24.2273 244.746 23.9223 244.386 23.6989C244.03 23.4754 243.61 23.3636 243.125 23.3636C242.591 23.3636 242.129 23.4962 241.739 23.7614C241.352 24.0227 241.055 24.3636 240.847 24.7841C240.638 25.2045 240.534 25.6553 240.534 26.1364V26.9091C240.534 27.5682 240.648 28.1269 240.875 28.5852C241.106 29.0398 241.426 29.3864 241.835 29.625C242.244 29.8598 242.72 29.9773 243.261 29.9773C243.614 29.9773 243.932 29.928 244.216 29.8295C244.504 29.7273 244.752 29.5758 244.96 29.375C245.169 29.1705 245.33 28.9167 245.443 28.6136L246.739 28.9773C246.602 29.4167 246.373 29.803 246.051 30.1364C245.729 30.4659 245.331 30.7235 244.858 30.9091C244.384 31.0909 243.852 31.1818 243.261 31.1818ZM250.256 19.3636V31H248.915V19.3636H250.256ZM255.28 31.2045C254.727 31.2045 254.225 31.1004 253.774 30.892C253.323 30.6799 252.965 30.375 252.7 29.9773C252.435 29.5758 252.303 29.0909 252.303 28.5227C252.303 28.0227 252.401 27.6174 252.598 27.3068C252.795 26.9924 253.058 26.7462 253.388 26.5682C253.717 26.3902 254.081 26.2576 254.479 26.1705C254.88 26.0795 255.284 26.0076 255.689 25.9545C256.219 25.8864 256.649 25.8352 256.979 25.8011C257.312 25.7633 257.554 25.7008 257.706 25.6136C257.861 25.5265 257.939 25.375 257.939 25.1591V25.1136C257.939 24.553 257.786 24.1174 257.479 23.8068C257.176 23.4962 256.715 23.3409 256.098 23.3409C255.458 23.3409 254.956 23.4811 254.592 23.7614C254.229 24.0417 253.973 24.3409 253.825 24.6591L252.553 24.2045C252.78 23.6742 253.083 23.2614 253.462 22.9659C253.844 22.6667 254.261 22.4583 254.712 22.3409C255.166 22.2197 255.613 22.1591 256.053 22.1591C256.333 22.1591 256.655 22.1932 257.018 22.2614C257.386 22.3258 257.74 22.4602 258.081 22.6648C258.426 22.8693 258.712 23.178 258.939 23.5909C259.166 24.0038 259.28 24.5568 259.28 25.25V31H257.939V29.8182H257.871C257.78 30.0076 257.628 30.2102 257.416 30.4261C257.204 30.642 256.922 30.8258 256.57 30.9773C256.217 31.1288 255.787 31.2045 255.28 31.2045ZM255.484 30C256.015 30 256.462 29.8958 256.825 29.6875C257.193 29.4792 257.469 29.2102 257.655 28.8807C257.844 28.5511 257.939 28.2045 257.939 27.8409V26.6136C257.882 26.6818 257.757 26.7443 257.564 26.8011C257.375 26.8542 257.155 26.9015 256.905 26.9432C256.659 26.9811 256.418 27.0152 256.183 27.0455C255.952 27.072 255.765 27.0947 255.621 27.1136C255.272 27.1591 254.946 27.233 254.643 27.3352C254.344 27.4337 254.102 27.5833 253.916 27.7841C253.734 27.9811 253.643 28.25 253.643 28.5909C253.643 29.0568 253.816 29.4091 254.161 29.6477C254.509 29.8826 254.95 30 255.484 30ZM265.523 22.2727V23.4091H261V22.2727H265.523ZM262.318 20.1818H263.659V28.5C263.659 28.8788 263.714 29.1629 263.824 29.3523C263.938 29.5379 264.081 29.6629 264.256 29.7273C264.434 29.7879 264.621 29.8182 264.818 29.8182C264.966 29.8182 265.087 29.8106 265.182 29.7955C265.277 29.7765 265.352 29.7614 265.409 29.75L265.682 30.9545C265.591 30.9886 265.464 31.0227 265.301 31.0568C265.138 31.0947 264.932 31.1136 264.682 31.1136C264.303 31.1136 263.932 31.0322 263.568 30.8693C263.208 30.7064 262.909 30.4583 262.67 30.125C262.436 29.7917 262.318 29.3712 262.318 28.8636V20.1818ZM267.54 31V22.2727H268.881V31H267.54ZM268.222 20.8182C267.96 20.8182 267.735 20.7292 267.545 20.5511C267.36 20.3731 267.267 20.1591 267.267 19.9091C267.267 19.6591 267.36 19.4451 267.545 19.267C267.735 19.089 267.96 19 268.222 19C268.483 19 268.706 19.089 268.892 19.267C269.081 19.4451 269.176 19.6591 269.176 19.9091C269.176 20.1591 269.081 20.3731 268.892 20.5511C268.706 20.7292 268.483 20.8182 268.222 20.8182ZM274.882 31.1818C274.094 31.1818 273.403 30.9943 272.808 30.6193C272.217 30.2443 271.755 29.7197 271.422 29.0455C271.092 28.3712 270.928 27.5833 270.928 26.6818C270.928 25.7727 271.092 24.9792 271.422 24.3011C271.755 23.6231 272.217 23.0966 272.808 22.7216C273.403 22.3466 274.094 22.1591 274.882 22.1591C275.67 22.1591 276.359 22.3466 276.95 22.7216C277.545 23.0966 278.007 23.6231 278.337 24.3011C278.67 24.9792 278.837 25.7727 278.837 26.6818C278.837 27.5833 278.67 28.3712 278.337 29.0455C278.007 29.7197 277.545 30.2443 276.95 30.6193C276.359 30.9943 275.67 31.1818 274.882 31.1818ZM274.882 29.9773C275.481 29.9773 275.973 29.8239 276.359 29.517C276.746 29.2102 277.032 28.8068 277.217 28.3068C277.403 27.8068 277.496 27.2652 277.496 26.6818C277.496 26.0985 277.403 25.5549 277.217 25.0511C277.032 24.5473 276.746 24.1402 276.359 23.8295C275.973 23.5189 275.481 23.3636 274.882 23.3636C274.284 23.3636 273.791 23.5189 273.405 23.8295C273.018 24.1402 272.732 24.5473 272.547 25.0511C272.361 25.5549 272.268 26.0985 272.268 26.6818C272.268 27.2652 272.361 27.8068 272.547 28.3068C272.732 28.8068 273.018 29.2102 273.405 29.517C273.791 29.8239 274.284 29.9773 274.882 29.9773ZM282.224 25.75V31H280.884V22.2727H282.179V23.6364H282.293C282.497 23.1932 282.808 22.8371 283.224 22.5682C283.641 22.2955 284.179 22.1591 284.838 22.1591C285.429 22.1591 285.946 22.2803 286.389 22.5227C286.832 22.7614 287.177 23.125 287.423 23.6136C287.67 24.0985 287.793 24.7121 287.793 25.4545V31H286.452V25.5455C286.452 24.8598 286.274 24.3258 285.918 23.9432C285.562 23.5568 285.073 23.3636 284.452 23.3636C284.024 23.3636 283.641 23.4564 283.304 23.642C282.971 23.8277 282.707 24.0985 282.514 24.4545C282.321 24.8106 282.224 25.2424 282.224 25.75ZM296.425 24.2273L295.22 24.5682C295.144 24.3674 295.033 24.1723 294.885 23.983C294.741 23.7898 294.544 23.6307 294.294 23.5057C294.044 23.3807 293.724 23.3182 293.334 23.3182C292.8 23.3182 292.355 23.4413 291.999 23.6875C291.646 23.9299 291.47 24.2386 291.47 24.6136C291.47 24.947 291.591 25.2102 291.834 25.4034C292.076 25.5966 292.455 25.7576 292.97 25.8864L294.266 26.2045C295.046 26.3939 295.627 26.6837 296.01 27.0739C296.393 27.4602 296.584 27.9583 296.584 28.5682C296.584 29.0682 296.44 29.5152 296.152 29.9091C295.868 30.303 295.47 30.6136 294.959 30.8409C294.447 31.0682 293.853 31.1818 293.175 31.1818C292.285 31.1818 291.548 30.9886 290.964 30.6023C290.381 30.2159 290.012 29.6515 289.857 28.9091L291.129 28.5909C291.25 29.0606 291.48 29.4129 291.817 29.6477C292.158 29.8826 292.603 30 293.152 30C293.777 30 294.273 29.8674 294.641 29.6023C295.012 29.3333 295.197 29.0114 295.197 28.6364C295.197 28.3333 295.091 28.0795 294.879 27.875C294.667 27.6667 294.341 27.5114 293.902 27.4091L292.447 27.0682C291.648 26.8788 291.061 26.5852 290.686 26.1875C290.315 25.786 290.129 25.2841 290.129 24.6818C290.129 24.1894 290.268 23.7538 290.544 23.375C290.824 22.9962 291.205 22.6989 291.686 22.483C292.171 22.267 292.72 22.1591 293.334 22.1591C294.197 22.1591 294.875 22.3485 295.368 22.7273C295.864 23.1061 296.216 23.6061 296.425 24.2273ZM299.943 25.75V31H298.602V19.3636H299.943V23.6364H300.057C300.261 23.1856 300.568 22.8277 300.977 22.5625C301.39 22.2936 301.939 22.1591 302.625 22.1591C303.22 22.1591 303.741 22.2784 304.188 22.517C304.634 22.7519 304.981 23.1136 305.227 23.6023C305.477 24.0871 305.602 24.7045 305.602 25.4545V31H304.261V25.5455C304.261 24.8523 304.081 24.3163 303.722 23.9375C303.366 23.5549 302.871 23.3636 302.239 23.3636C301.799 23.3636 301.405 23.4564 301.057 23.642C300.712 23.8277 300.439 24.0985 300.239 24.4545C300.042 24.8106 299.943 25.2424 299.943 25.75ZM308.055 31V22.2727H309.396V31H308.055ZM308.737 20.8182C308.476 20.8182 308.25 20.7292 308.061 20.5511C307.875 20.3731 307.783 20.1591 307.783 19.9091C307.783 19.6591 307.875 19.4451 308.061 19.267C308.25 19.089 308.476 19 308.737 19C308.999 19 309.222 19.089 309.408 19.267C309.597 19.4451 309.692 19.6591 309.692 19.9091C309.692 20.1591 309.597 20.3731 309.408 20.5511C309.222 20.7292 308.999 20.8182 308.737 20.8182ZM311.852 34.2727V22.2727H313.148V23.6591H313.307C313.405 23.5076 313.542 23.3144 313.716 23.0795C313.894 22.8409 314.148 22.6288 314.477 22.4432C314.811 22.2538 315.261 22.1591 315.83 22.1591C316.564 22.1591 317.212 22.3428 317.773 22.7102C318.333 23.0777 318.771 23.5985 319.085 24.2727C319.4 24.947 319.557 25.7424 319.557 26.6591C319.557 27.5833 319.4 28.3845 319.085 29.0625C318.771 29.7367 318.335 30.2595 317.778 30.6307C317.222 30.9981 316.58 31.1818 315.852 31.1818C315.292 31.1818 314.843 31.089 314.506 30.9034C314.169 30.714 313.909 30.5 313.727 30.2614C313.545 30.0189 313.405 29.8182 313.307 29.6591H313.193V34.2727H311.852ZM313.17 26.6364C313.17 27.2955 313.267 27.8769 313.46 28.3807C313.653 28.8807 313.936 29.2727 314.307 29.5568C314.678 29.8371 315.133 29.9773 315.67 29.9773C316.231 29.9773 316.699 29.8295 317.074 29.5341C317.453 29.2348 317.737 28.8333 317.926 28.3295C318.119 27.822 318.216 27.2576 318.216 26.6364C318.216 26.0227 318.121 25.4697 317.932 24.9773C317.746 24.4811 317.464 24.089 317.085 23.8011C316.71 23.5095 316.239 23.3636 315.67 23.3636C315.125 23.3636 314.667 23.5019 314.295 23.7784C313.924 24.0511 313.644 24.4337 313.455 24.9261C313.265 25.4148 313.17 25.9848 313.17 26.6364ZM326.284 19.3636H327.966L331.92 29.0227H332.057L336.011 19.3636H337.693V31H336.375V22.1591H336.261L332.625 31H331.352L327.716 22.1591H327.602V31H326.284V19.3636ZM342.905 31.2045C342.352 31.2045 341.85 31.1004 341.399 30.892C340.948 30.6799 340.59 30.375 340.325 29.9773C340.06 29.5758 339.928 29.0909 339.928 28.5227C339.928 28.0227 340.026 27.6174 340.223 27.3068C340.42 26.9924 340.683 26.7462 341.013 26.5682C341.342 26.3902 341.706 26.2576 342.104 26.1705C342.505 26.0795 342.909 26.0076 343.314 25.9545C343.844 25.8864 344.274 25.8352 344.604 25.8011C344.937 25.7633 345.179 25.7008 345.331 25.6136C345.486 25.5265 345.564 25.375 345.564 25.1591V25.1136C345.564 24.553 345.411 24.1174 345.104 23.8068C344.801 23.4962 344.34 23.3409 343.723 23.3409C343.083 23.3409 342.581 23.4811 342.217 23.7614C341.854 24.0417 341.598 24.3409 341.45 24.6591L340.178 24.2045C340.405 23.6742 340.708 23.2614 341.087 22.9659C341.469 22.6667 341.886 22.4583 342.337 22.3409C342.791 22.2197 343.238 22.1591 343.678 22.1591C343.958 22.1591 344.28 22.1932 344.643 22.2614C345.011 22.3258 345.365 22.4602 345.706 22.6648C346.051 22.8693 346.337 23.178 346.564 23.5909C346.791 24.0038 346.905 24.5568 346.905 25.25V31H345.564V29.8182H345.496C345.405 30.0076 345.253 30.2102 345.041 30.4261C344.829 30.642 344.547 30.8258 344.195 30.9773C343.842 31.1288 343.412 31.2045 342.905 31.2045ZM343.109 30C343.64 30 344.087 29.8958 344.45 29.6875C344.818 29.4792 345.094 29.2102 345.28 28.8807C345.469 28.5511 345.564 28.2045 345.564 27.8409V26.6136C345.507 26.6818 345.382 26.7443 345.189 26.8011C345 26.8542 344.78 26.9015 344.53 26.9432C344.284 26.9811 344.043 27.0152 343.808 27.0455C343.577 27.072 343.39 27.0947 343.246 27.1136C342.897 27.1591 342.571 27.233 342.268 27.3352C341.969 27.4337 341.727 27.5833 341.541 27.7841C341.359 27.9811 341.268 28.25 341.268 28.5909C341.268 29.0568 341.441 29.4091 341.786 29.6477C342.134 29.8826 342.575 30 343.109 30ZM350.693 25.75V31H349.352V22.2727H350.648V23.6364H350.761C350.966 23.1932 351.277 22.8371 351.693 22.5682C352.11 22.2955 352.648 22.1591 353.307 22.1591C353.898 22.1591 354.415 22.2803 354.858 22.5227C355.301 22.7614 355.646 23.125 355.892 23.6136C356.138 24.0985 356.261 24.7121 356.261 25.4545V31H354.92V25.5455C354.92 24.8598 354.742 24.3258 354.386 23.9432C354.03 23.5568 353.542 23.3636 352.92 23.3636C352.492 23.3636 352.11 23.4564 351.773 23.642C351.439 23.8277 351.176 24.0985 350.983 24.4545C350.79 24.8106 350.693 25.2424 350.693 25.75ZM361.28 31.2045C360.727 31.2045 360.225 31.1004 359.774 30.892C359.323 30.6799 358.965 30.375 358.7 29.9773C358.435 29.5758 358.303 29.0909 358.303 28.5227C358.303 28.0227 358.401 27.6174 358.598 27.3068C358.795 26.9924 359.058 26.7462 359.388 26.5682C359.717 26.3902 360.081 26.2576 360.479 26.1705C360.88 26.0795 361.284 26.0076 361.689 25.9545C362.219 25.8864 362.649 25.8352 362.979 25.8011C363.312 25.7633 363.554 25.7008 363.706 25.6136C363.861 25.5265 363.939 25.375 363.939 25.1591V25.1136C363.939 24.553 363.786 24.1174 363.479 23.8068C363.176 23.4962 362.715 23.3409 362.098 23.3409C361.458 23.3409 360.956 23.4811 360.592 23.7614C360.229 24.0417 359.973 24.3409 359.825 24.6591L358.553 24.2045C358.78 23.6742 359.083 23.2614 359.462 22.9659C359.844 22.6667 360.261 22.4583 360.712 22.3409C361.166 22.2197 361.613 22.1591 362.053 22.1591C362.333 22.1591 362.655 22.1932 363.018 22.2614C363.386 22.3258 363.74 22.4602 364.081 22.6648C364.426 22.8693 364.712 23.178 364.939 23.5909C365.166 24.0038 365.28 24.5568 365.28 25.25V31H363.939V29.8182H363.871C363.78 30.0076 363.628 30.2102 363.416 30.4261C363.204 30.642 362.922 30.8258 362.57 30.9773C362.217 31.1288 361.787 31.2045 361.28 31.2045ZM361.484 30C362.015 30 362.462 29.8958 362.825 29.6875C363.193 29.4792 363.469 29.2102 363.655 28.8807C363.844 28.5511 363.939 28.2045 363.939 27.8409V26.6136C363.882 26.6818 363.757 26.7443 363.564 26.8011C363.375 26.8542 363.155 26.9015 362.905 26.9432C362.659 26.9811 362.418 27.0152 362.183 27.0455C361.952 27.072 361.765 27.0947 361.621 27.1136C361.272 27.1591 360.946 27.233 360.643 27.3352C360.344 27.4337 360.102 27.5833 359.916 27.7841C359.734 27.9811 359.643 28.25 359.643 28.5909C359.643 29.0568 359.816 29.4091 360.161 29.6477C360.509 29.8826 360.95 30 361.484 30ZM371.25 34.4545C370.602 34.4545 370.045 34.3712 369.58 34.2045C369.114 34.0417 368.725 33.8258 368.415 33.5568C368.108 33.2917 367.864 33.0076 367.682 32.7045L368.75 31.9545C368.871 32.1136 369.025 32.2955 369.21 32.5C369.396 32.7083 369.65 32.8883 369.972 33.0398C370.297 33.1951 370.723 33.2727 371.25 33.2727C371.955 33.2727 372.536 33.1023 372.994 32.7614C373.453 32.4205 373.682 31.8864 373.682 31.1591V29.3864H373.568C373.47 29.5455 373.33 29.7424 373.148 29.9773C372.97 30.2083 372.712 30.4148 372.375 30.5966C372.042 30.7746 371.591 30.8636 371.023 30.8636C370.318 30.8636 369.686 30.697 369.125 30.3636C368.568 30.0303 368.127 29.5455 367.801 28.9091C367.479 28.2727 367.318 27.5 367.318 26.5909C367.318 25.697 367.475 24.9186 367.79 24.2557C368.104 23.589 368.542 23.0739 369.102 22.7102C369.663 22.3428 370.311 22.1591 371.045 22.1591C371.614 22.1591 372.064 22.2538 372.398 22.4432C372.735 22.6288 372.992 22.8409 373.17 23.0795C373.352 23.3144 373.492 23.5076 373.591 23.6591H373.727V22.2727H375.023V31.25C375.023 32 374.852 32.6098 374.511 33.0795C374.174 33.553 373.72 33.8996 373.148 34.1193C372.58 34.3428 371.947 34.4545 371.25 34.4545ZM371.205 29.6591C371.742 29.6591 372.197 29.536 372.568 29.2898C372.939 29.0436 373.222 28.6894 373.415 28.2273C373.608 27.7652 373.705 27.2121 373.705 26.5682C373.705 25.9394 373.61 25.3845 373.42 24.9034C373.231 24.4223 372.951 24.0455 372.58 23.7727C372.208 23.5 371.75 23.3636 371.205 23.3636C370.636 23.3636 370.163 23.5076 369.784 23.7955C369.409 24.0833 369.127 24.4697 368.938 24.9545C368.752 25.4394 368.659 25.9773 368.659 26.5682C368.659 27.1742 368.754 27.7102 368.943 28.1761C369.136 28.6383 369.42 29.0019 369.795 29.267C370.174 29.5284 370.644 29.6591 371.205 29.6591ZM381.136 31.1818C380.295 31.1818 379.57 30.9962 378.96 30.625C378.354 30.25 377.886 29.7273 377.557 29.0568C377.231 28.3826 377.068 27.5985 377.068 26.7045C377.068 25.8106 377.231 25.0227 377.557 24.3409C377.886 23.6553 378.345 23.1212 378.932 22.7386C379.523 22.3523 380.212 22.1591 381 22.1591C381.455 22.1591 381.903 22.2348 382.347 22.3864C382.79 22.5379 383.193 22.7841 383.557 23.125C383.92 23.4621 384.21 23.9091 384.426 24.4659C384.642 25.0227 384.75 25.7083 384.75 26.5227V27.0909H378.023V25.9318H383.386C383.386 25.4394 383.288 25 383.091 24.6136C382.898 24.2273 382.621 23.9223 382.261 23.6989C381.905 23.4754 381.485 23.3636 381 23.3636C380.466 23.3636 380.004 23.4962 379.614 23.7614C379.227 24.0227 378.93 24.3636 378.722 24.7841C378.513 25.2045 378.409 25.6553 378.409 26.1364V26.9091C378.409 27.5682 378.523 28.1269 378.75 28.5852C378.981 29.0398 379.301 29.3864 379.71 29.625C380.119 29.8598 380.595 29.9773 381.136 29.9773C381.489 29.9773 381.807 29.928 382.091 29.8295C382.379 29.7273 382.627 29.5758 382.835 29.375C383.044 29.1705 383.205 28.9167 383.318 28.6136L384.614 28.9773C384.477 29.4167 384.248 29.803 383.926 30.1364C383.604 30.4659 383.206 30.7235 382.733 30.9091C382.259 31.0909 381.727 31.1818 381.136 31.1818ZM386.79 31V22.2727H388.085V23.6364H388.199C388.381 23.1705 388.674 22.8087 389.08 22.5511C389.485 22.2898 389.972 22.1591 390.54 22.1591C391.116 22.1591 391.595 22.2898 391.977 22.5511C392.364 22.8087 392.665 23.1705 392.881 23.6364H392.972C393.195 23.1856 393.53 22.8277 393.977 22.5625C394.424 22.2936 394.96 22.1591 395.585 22.1591C396.366 22.1591 397.004 22.4034 397.5 22.892C397.996 23.3769 398.244 24.1326 398.244 25.1591V31H396.903V25.1591C396.903 24.5152 396.727 24.0549 396.375 23.7784C396.023 23.5019 395.608 23.3636 395.131 23.3636C394.517 23.3636 394.042 23.5492 393.705 23.9205C393.367 24.2879 393.199 24.7538 393.199 25.3182V31H391.835V25.0227C391.835 24.5265 391.674 24.1269 391.352 23.8239C391.03 23.517 390.616 23.3636 390.108 23.3636C389.759 23.3636 389.434 23.4564 389.131 23.642C388.831 23.8277 388.589 24.0852 388.403 24.4148C388.222 24.7405 388.131 25.1174 388.131 25.5455V31H386.79ZM404.355 31.1818C403.514 31.1818 402.789 30.9962 402.179 30.625C401.573 30.25 401.105 29.7273 400.776 29.0568C400.45 28.3826 400.287 27.5985 400.287 26.7045C400.287 25.8106 400.45 25.0227 400.776 24.3409C401.105 23.6553 401.563 23.1212 402.151 22.7386C402.741 22.3523 403.431 22.1591 404.219 22.1591C404.673 22.1591 405.122 22.2348 405.565 22.3864C406.009 22.5379 406.412 22.7841 406.776 23.125C407.139 23.4621 407.429 23.9091 407.645 24.4659C407.861 25.0227 407.969 25.7083 407.969 26.5227V27.0909H401.241V25.9318H406.605C406.605 25.4394 406.507 25 406.31 24.6136C406.116 24.2273 405.84 23.9223 405.48 23.6989C405.124 23.4754 404.704 23.3636 404.219 23.3636C403.685 23.3636 403.223 23.4962 402.832 23.7614C402.446 24.0227 402.149 24.3636 401.94 24.7841C401.732 25.2045 401.628 25.6553 401.628 26.1364V26.9091C401.628 27.5682 401.741 28.1269 401.969 28.5852C402.2 29.0398 402.52 29.3864 402.929 29.625C403.338 29.8598 403.813 29.9773 404.355 29.9773C404.707 29.9773 405.026 29.928 405.31 29.8295C405.598 29.7273 405.846 29.5758 406.054 29.375C406.262 29.1705 406.423 28.9167 406.537 28.6136L407.832 28.9773C407.696 29.4167 407.467 29.803 407.145 30.1364C406.823 30.4659 406.425 30.7235 405.952 30.9091C405.478 31.0909 404.946 31.1818 404.355 31.1818ZM411.349 25.75V31H410.009V22.2727H411.304V23.6364H411.418C411.622 23.1932 411.933 22.8371 412.349 22.5682C412.766 22.2955 413.304 22.1591 413.963 22.1591C414.554 22.1591 415.071 22.2803 415.514 22.5227C415.957 22.7614 416.302 23.125 416.548 23.6136C416.795 24.0985 416.918 24.7121 416.918 25.4545V31H415.577V25.5455C415.577 24.8598 415.399 24.3258 415.043 23.9432C414.687 23.5568 414.198 23.3636 413.577 23.3636C413.149 23.3636 412.766 23.4564 412.429 23.642C412.096 23.8277 411.832 24.0985 411.639 24.4545C411.446 24.8106 411.349 25.2424 411.349 25.75ZM423.163 22.2727V23.4091H418.641V22.2727H423.163ZM419.959 20.1818H421.3V28.5C421.3 28.8788 421.355 29.1629 421.464 29.3523C421.578 29.5379 421.722 29.6629 421.896 29.7273C422.074 29.7879 422.262 29.8182 422.459 29.8182C422.607 29.8182 422.728 29.8106 422.822 29.7955C422.917 29.7765 422.993 29.7614 423.05 29.75L423.322 30.9545C423.232 30.9886 423.105 31.0227 422.942 31.0568C422.779 31.0947 422.572 31.1136 422.322 31.1136C421.944 31.1136 421.572 31.0322 421.209 30.8693C420.849 30.7064 420.55 30.4583 420.311 30.125C420.076 29.7917 419.959 29.3712 419.959 28.8636V20.1818Z" fill="#6A6A6A"/>
<circle cx="25" cy="25" r="25" fill="#F8F5FF"/>
<path d="M33 34V32C33 30.9391 32.5786 29.9217 31.8284 29.1716C31.0783 28.4214 30.0609 28 29 28H21C19.9391 28 18.9217 28.4214 18.1716 29.1716C17.4214 29.9217 17 30.9391 17 32V34" stroke="black" stroke-width="2" stroke-linecap="round" stroke-linejoin="round"/>
<path d="M25 24C27.2091 24 29 22.2091 29 20C29 17.7909 27.2091 16 25 16C22.7909 16 21 17.7909 21 20C21 22.2091 22.7909 24 25 24Z" stroke="black" stroke-width="2" stroke-linecap="round" stroke-linejoin="round"/>
<path d="M62.6522 14C57.9565 19.2 49.2609 15.1667 46 13L48.5 24L47 35C50.913 30.5 63.1957 31.5 64.5 34C65.5435 36 72.2174 43.1667 77 46V3C74.1739 4.5 67.3478 8.8 62.6522 14Z" fill="#F8F5FF"/>
<rect x="64" y="60" width="384" height="50" rx="24" fill="#F8F5FF"/>
<path d="M89.598 92V77.4545H98.7173V79.3438H91.7926V83.7756H98.2415V85.6577H91.7926V90.1108H98.8026V92H89.598ZM113.73 82.1847H111.514C111.429 81.7112 111.27 81.2945 111.038 80.9347C110.806 80.5748 110.522 80.2694 110.186 80.0185C109.85 79.7675 109.473 79.5781 109.056 79.4503C108.645 79.3224 108.207 79.2585 107.743 79.2585C106.904 79.2585 106.154 79.4692 105.491 79.8906C104.833 80.312 104.312 80.9299 103.929 81.7443C103.55 82.5587 103.36 83.553 103.36 84.7273C103.36 85.911 103.55 86.91 103.929 87.7244C104.312 88.5388 104.835 89.1544 105.498 89.571C106.161 89.9877 106.907 90.196 107.735 90.196C108.195 90.196 108.63 90.1345 109.042 90.0114C109.459 89.8835 109.835 89.6965 110.172 89.4503C110.508 89.2041 110.792 88.9034 111.024 88.5483C111.261 88.1884 111.424 87.7765 111.514 87.3125L113.73 87.3196C113.611 88.0346 113.382 88.6927 113.041 89.294C112.705 89.8906 112.271 90.4067 111.741 90.8423C111.216 91.2732 110.614 91.607 109.937 91.8438C109.26 92.0805 108.521 92.1989 107.721 92.1989C106.462 92.1989 105.34 91.9006 104.355 91.304C103.37 90.7027 102.593 89.8433 102.025 88.7259C101.462 87.6084 101.18 86.2756 101.18 84.7273C101.18 83.1742 101.464 81.8414 102.032 80.7287C102.6 79.6113 103.377 78.7543 104.362 78.1577C105.347 77.5563 106.467 77.2557 107.721 77.2557C108.493 77.2557 109.213 77.367 109.88 77.5895C110.553 77.8073 111.156 78.1293 111.691 78.5554C112.226 78.9768 112.669 79.4929 113.02 80.1037C113.37 80.7098 113.607 81.4034 113.73 82.1847ZM116.356 77.4545H119.019L123.65 88.7614H123.82L128.451 77.4545H131.114V92H129.026V81.4744H128.891L124.602 91.9787H122.869L118.579 81.4673H118.444V92H116.356V77.4545Z" fill="black"/>
<path d="M150.409 91V79.3636H157.432V80.6136H151.818V84.5455H157.068V85.7955H151.818V89.75H157.523V91H150.409ZM161.131 85.75V91H159.79V82.2727H161.085V83.6364H161.199C161.403 83.1932 161.714 82.8371 162.131 82.5682C162.547 82.2955 163.085 82.1591 163.744 82.1591C164.335 82.1591 164.852 82.2803 165.295 82.5227C165.739 82.7614 166.083 83.125 166.33 83.6136C166.576 84.0985 166.699 84.7121 166.699 85.4545V91H165.358V85.5455C165.358 84.8598 165.18 84.3258 164.824 83.9432C164.468 83.5568 163.979 83.3636 163.358 83.3636C162.93 83.3636 162.547 83.4564 162.21 83.642C161.877 83.8277 161.614 84.0985 161.42 84.4545C161.227 84.8106 161.131 85.2424 161.131 85.75ZM172.945 82.2727V83.4091H168.422V82.2727H172.945ZM169.74 80.1818H171.081V88.5C171.081 88.8788 171.136 89.1629 171.246 89.3523C171.359 89.5379 171.503 89.6629 171.678 89.7273C171.856 89.7879 172.043 89.8182 172.24 89.8182C172.388 89.8182 172.509 89.8106 172.604 89.7955C172.698 89.7765 172.774 89.7614 172.831 89.75L173.104 90.9545C173.013 90.9886 172.886 91.0227 172.723 91.0568C172.56 91.0947 172.354 91.1136 172.104 91.1136C171.725 91.1136 171.354 91.0322 170.99 90.8693C170.63 90.7064 170.331 90.4583 170.092 90.125C169.857 89.7917 169.74 89.3712 169.74 88.8636V80.1818ZM178.527 91.1818C177.686 91.1818 176.961 90.9962 176.351 90.625C175.745 90.25 175.277 89.7273 174.947 89.0568C174.622 88.3826 174.459 87.5985 174.459 86.7045C174.459 85.8106 174.622 85.0227 174.947 84.3409C175.277 83.6553 175.735 83.1212 176.322 82.7386C176.913 82.3523 177.603 82.1591 178.391 82.1591C178.845 82.1591 179.294 82.2348 179.737 82.3864C180.18 82.5379 180.584 82.7841 180.947 83.125C181.311 83.4621 181.601 83.9091 181.817 84.4659C182.033 85.0227 182.141 85.7083 182.141 86.5227V87.0909H175.413V85.9318H180.777C180.777 85.4394 180.679 85 180.482 84.6136C180.288 84.2273 180.012 83.9223 179.652 83.6989C179.296 83.4754 178.875 83.3636 178.391 83.3636C177.857 83.3636 177.394 83.4962 177.004 83.7614C176.618 84.0227 176.321 84.3636 176.112 84.7841C175.904 85.2045 175.8 85.6553 175.8 86.1364V86.9091C175.8 87.5682 175.913 88.1269 176.141 88.5852C176.372 89.0398 176.692 89.3864 177.101 89.625C177.51 89.8598 177.985 89.9773 178.527 89.9773C178.879 89.9773 179.197 89.928 179.482 89.8295C179.769 89.7273 180.018 89.5758 180.226 89.375C180.434 89.1705 180.595 88.9167 180.709 88.6136L182.004 88.9773C181.868 89.4167 181.639 89.803 181.317 90.1364C180.995 90.4659 180.597 90.7235 180.124 90.9091C179.65 91.0909 179.118 91.1818 178.527 91.1818ZM184.18 91V82.2727H185.476V83.5909H185.567C185.726 83.1591 186.014 82.8087 186.43 82.5398C186.847 82.2708 187.317 82.1364 187.839 82.1364C187.938 82.1364 188.061 82.1383 188.209 82.142C188.357 82.1458 188.468 82.1515 188.544 82.1591V83.5227C188.499 83.5114 188.394 83.4943 188.232 83.4716C188.072 83.4451 187.904 83.4318 187.726 83.4318C187.302 83.4318 186.923 83.5208 186.589 83.6989C186.26 83.8731 185.999 84.1155 185.805 84.4261C185.616 84.733 185.521 85.0833 185.521 85.4773V91H184.18ZM190.134 94.2727V82.2727H191.429V83.6591H191.588C191.687 83.5076 191.823 83.3144 191.997 83.0795C192.175 82.8409 192.429 82.6288 192.759 82.4432C193.092 82.2538 193.543 82.1591 194.111 82.1591C194.846 82.1591 195.493 82.3428 196.054 82.7102C196.615 83.0777 197.052 83.5985 197.366 84.2727C197.681 84.947 197.838 85.7424 197.838 86.6591C197.838 87.5833 197.681 88.3845 197.366 89.0625C197.052 89.7367 196.616 90.2595 196.06 90.6307C195.503 90.9981 194.861 91.1818 194.134 91.1818C193.573 91.1818 193.124 91.089 192.787 90.9034C192.45 90.714 192.19 90.5 192.009 90.2614C191.827 90.0189 191.687 89.8182 191.588 89.6591H191.474V94.2727H190.134ZM191.452 86.6364C191.452 87.2955 191.548 87.8769 191.741 88.3807C191.935 88.8807 192.217 89.2727 192.588 89.5568C192.959 89.8371 193.414 89.9773 193.952 89.9773C194.512 89.9773 194.98 89.8295 195.355 89.5341C195.734 89.2348 196.018 88.8333 196.207 88.3295C196.401 87.822 196.497 87.2576 196.497 86.6364C196.497 86.0227 196.402 85.4697 196.213 84.9773C196.027 84.4811 195.745 84.089 195.366 83.8011C194.991 83.5095 194.52 83.3636 193.952 83.3636C193.406 83.3636 192.948 83.5019 192.577 83.7784C192.205 84.0511 191.925 84.4337 191.736 84.9261C191.546 85.4148 191.452 85.9848 191.452 86.6364ZM199.884 91V82.2727H201.179V83.5909H201.27C201.429 83.1591 201.717 82.8087 202.134 82.5398C202.55 82.2708 203.02 82.1364 203.543 82.1364C203.641 82.1364 203.764 82.1383 203.912 82.142C204.06 82.1458 204.171 82.1515 204.247 82.1591V83.5227C204.202 83.5114 204.098 83.4943 203.935 83.4716C203.776 83.4451 203.607 83.4318 203.429 83.4318C203.005 83.4318 202.626 83.5208 202.293 83.6989C201.963 83.8731 201.702 84.1155 201.509 84.4261C201.319 84.733 201.224 85.0833 201.224 85.4773V91H199.884ZM205.837 91V82.2727H207.178V91H205.837ZM206.518 80.8182C206.257 80.8182 206.032 80.7292 205.842 80.5511C205.657 80.3731 205.564 80.1591 205.564 79.9091C205.564 79.6591 205.657 79.4451 205.842 79.267C206.032 79.089 206.257 79 206.518 79C206.78 79 207.003 79.089 207.189 79.267C207.378 79.4451 207.473 79.6591 207.473 79.9091C207.473 80.1591 207.378 80.3731 207.189 80.5511C207.003 80.7292 206.78 80.8182 206.518 80.8182ZM215.815 84.2273L214.611 84.5682C214.535 84.3674 214.423 84.1723 214.276 83.983C214.132 83.7898 213.935 83.6307 213.685 83.5057C213.435 83.3807 213.115 83.3182 212.724 83.3182C212.19 83.3182 211.745 83.4413 211.389 83.6875C211.037 83.9299 210.861 84.2386 210.861 84.6136C210.861 84.947 210.982 85.2102 211.224 85.4034C211.467 85.5966 211.846 85.7576 212.361 85.8864L213.656 86.2045C214.437 86.3939 215.018 86.6837 215.401 87.0739C215.783 87.4602 215.974 87.9583 215.974 88.5682C215.974 89.0682 215.83 89.5152 215.543 89.9091C215.259 90.303 214.861 90.6136 214.349 90.8409C213.838 91.0682 213.243 91.1818 212.565 91.1818C211.675 91.1818 210.938 90.9886 210.355 90.6023C209.772 90.2159 209.402 89.6515 209.247 88.9091L210.52 88.5909C210.641 89.0606 210.87 89.4129 211.207 89.6477C211.548 89.8826 211.993 90 212.543 90C213.168 90 213.664 89.8674 214.031 89.6023C214.402 89.3333 214.588 89.0114 214.588 88.6364C214.588 88.3333 214.482 88.0795 214.27 87.875C214.058 87.6667 213.732 87.5114 213.293 87.4091L211.838 87.0682C211.039 86.8788 210.452 86.5852 210.077 86.1875C209.705 85.786 209.52 85.2841 209.52 84.6818C209.52 84.1894 209.658 83.7538 209.935 83.375C210.215 82.9962 210.596 82.6989 211.077 82.483C211.562 82.267 212.111 82.1591 212.724 82.1591C213.588 82.1591 214.266 82.3485 214.759 82.7273C215.255 83.1061 215.607 83.6061 215.815 84.2273ZM221.652 91.1818C220.811 91.1818 220.086 90.9962 219.476 90.625C218.87 90.25 218.402 89.7273 218.072 89.0568C217.747 88.3826 217.584 87.5985 217.584 86.7045C217.584 85.8106 217.747 85.0227 218.072 84.3409C218.402 83.6553 218.86 83.1212 219.447 82.7386C220.038 82.3523 220.728 82.1591 221.516 82.1591C221.97 82.1591 222.419 82.2348 222.862 82.3864C223.305 82.5379 223.709 82.7841 224.072 83.125C224.436 83.4621 224.726 83.9091 224.942 84.4659C225.158 85.0227 225.266 85.7083 225.266 86.5227V87.0909H218.538V85.9318H223.902C223.902 85.4394 223.804 85 223.607 84.6136C223.413 84.2273 223.137 83.9223 222.777 83.6989C222.421 83.4754 222 83.3636 221.516 83.3636C220.982 83.3636 220.519 83.4962 220.129 83.7614C219.743 84.0227 219.446 84.3636 219.237 84.7841C219.029 85.2045 218.925 85.6553 218.925 86.1364V86.9091C218.925 87.5682 219.038 88.1269 219.266 88.5852C219.497 89.0398 219.817 89.3864 220.226 89.625C220.635 89.8598 221.11 89.9773 221.652 89.9773C222.004 89.9773 222.322 89.928 222.607 89.8295C222.894 89.7273 223.143 89.5758 223.351 89.375C223.559 89.1705 223.72 88.9167 223.834 88.6136L225.129 88.9773C224.993 89.4167 224.764 89.803 224.442 90.1364C224.12 90.4659 223.722 90.7235 223.249 90.9091C222.775 91.0909 222.243 91.1818 221.652 91.1818ZM241.351 83H239.942C239.858 82.5947 239.713 82.2386 239.504 81.9318C239.3 81.625 239.05 81.3674 238.754 81.1591C238.463 80.947 238.139 80.7879 237.783 80.6818C237.427 80.5758 237.055 80.5227 236.669 80.5227C235.964 80.5227 235.326 80.7008 234.754 81.0568C234.186 81.4129 233.733 81.9375 233.396 82.6307C233.063 83.3239 232.896 84.1742 232.896 85.1818C232.896 86.1894 233.063 87.0398 233.396 87.733C233.733 88.4261 234.186 88.9508 234.754 89.3068C235.326 89.6629 235.964 89.8409 236.669 89.8409C237.055 89.8409 237.427 89.7879 237.783 89.6818C238.139 89.5758 238.463 89.4186 238.754 89.2102C239.05 88.9981 239.3 88.7386 239.504 88.4318C239.713 88.1212 239.858 87.7652 239.942 87.3636H241.351C241.245 87.9583 241.052 88.4905 240.771 88.9602C240.491 89.4299 240.143 89.8295 239.726 90.1591C239.309 90.4848 238.841 90.733 238.322 90.9034C237.807 91.0739 237.256 91.1591 236.669 91.1591C235.677 91.1591 234.794 90.9167 234.021 90.4318C233.249 89.947 232.641 89.2576 232.197 88.3636C231.754 87.4697 231.533 86.4091 231.533 85.1818C231.533 83.9545 231.754 82.8939 232.197 82C232.641 81.1061 233.249 80.4167 234.021 79.9318C234.794 79.447 235.677 79.2045 236.669 79.2045C237.256 79.2045 237.807 79.2898 238.322 79.4602C238.841 79.6307 239.309 79.8807 239.726 80.2102C240.143 80.536 240.491 80.9337 240.771 81.4034C241.052 81.8693 241.245 82.4015 241.351 83ZM246.991 91.1818C246.204 91.1818 245.512 90.9943 244.918 90.6193C244.327 90.2443 243.865 89.7197 243.531 89.0455C243.202 88.3712 243.037 87.5833 243.037 86.6818C243.037 85.7727 243.202 84.9792 243.531 84.3011C243.865 83.6231 244.327 83.0966 244.918 82.7216C245.512 82.3466 246.204 82.1591 246.991 82.1591C247.779 82.1591 248.469 82.3466 249.06 82.7216C249.654 83.0966 250.116 83.6231 250.446 84.3011C250.779 84.9792 250.946 85.7727 250.946 86.6818C250.946 87.5833 250.779 88.3712 250.446 89.0455C250.116 89.7197 249.654 90.2443 249.06 90.6193C248.469 90.9943 247.779 91.1818 246.991 91.1818ZM246.991 89.9773C247.59 89.9773 248.082 89.8239 248.469 89.517C248.855 89.2102 249.141 88.8068 249.327 88.3068C249.512 87.8068 249.605 87.2652 249.605 86.6818C249.605 86.0985 249.512 85.5549 249.327 85.0511C249.141 84.5473 248.855 84.1402 248.469 83.8295C248.082 83.5189 247.59 83.3636 246.991 83.3636C246.393 83.3636 245.901 83.5189 245.514 83.8295C245.128 84.1402 244.842 84.5473 244.656 85.0511C244.471 85.5549 244.378 86.0985 244.378 86.6818C244.378 87.2652 244.471 87.8068 244.656 88.3068C244.842 88.8068 245.128 89.2102 245.514 89.517C245.901 89.8239 246.393 89.9773 246.991 89.9773ZM254.334 85.75V91H252.993V82.2727H254.288V83.6364H254.402C254.607 83.1932 254.917 82.8371 255.334 82.5682C255.75 82.2955 256.288 82.1591 256.947 82.1591C257.538 82.1591 258.055 82.2803 258.499 82.5227C258.942 82.7614 259.286 83.125 259.533 83.6136C259.779 84.0985 259.902 84.7121 259.902 85.4545V91H258.561V85.5455C258.561 84.8598 258.383 84.3258 258.027 83.9432C257.671 83.5568 257.182 83.3636 256.561 83.3636C256.133 83.3636 255.75 83.4564 255.413 83.642C255.08 83.8277 254.817 84.0985 254.624 84.4545C254.43 84.8106 254.334 85.2424 254.334 85.75ZM266.148 82.2727V83.4091H261.625V82.2727H266.148ZM262.943 80.1818H264.284V88.5C264.284 88.8788 264.339 89.1629 264.449 89.3523C264.563 89.5379 264.706 89.6629 264.881 89.7273C265.059 89.7879 265.246 89.8182 265.443 89.8182C265.591 89.8182 265.712 89.8106 265.807 89.7955C265.902 89.7765 265.977 89.7614 266.034 89.75L266.307 90.9545C266.216 90.9886 266.089 91.0227 265.926 91.0568C265.763 91.0947 265.557 91.1136 265.307 91.1136C264.928 91.1136 264.557 91.0322 264.193 90.8693C263.833 90.7064 263.534 90.4583 263.295 90.125C263.061 89.7917 262.943 89.3712 262.943 88.8636V80.1818ZM271.73 91.1818C270.889 91.1818 270.164 90.9962 269.554 90.625C268.948 90.25 268.48 89.7273 268.151 89.0568C267.825 88.3826 267.662 87.5985 267.662 86.7045C267.662 85.8106 267.825 85.0227 268.151 84.3409C268.48 83.6553 268.938 83.1212 269.526 82.7386C270.116 82.3523 270.806 82.1591 271.594 82.1591C272.048 82.1591 272.497 82.2348 272.94 82.3864C273.384 82.5379 273.787 82.7841 274.151 83.125C274.514 83.4621 274.804 83.9091 275.02 84.4659C275.236 85.0227 275.344 85.7083 275.344 86.5227V87.0909H268.616V85.9318H273.98C273.98 85.4394 273.882 85 273.685 84.6136C273.491 84.2273 273.215 83.9223 272.855 83.6989C272.499 83.4754 272.079 83.3636 271.594 83.3636C271.06 83.3636 270.598 83.4962 270.207 83.7614C269.821 84.0227 269.524 84.3636 269.315 84.7841C269.107 85.2045 269.003 85.6553 269.003 86.1364V86.9091C269.003 87.5682 269.116 88.1269 269.344 88.5852C269.575 89.0398 269.895 89.3864 270.304 89.625C270.713 89.8598 271.188 89.9773 271.73 89.9773C272.082 89.9773 272.401 89.928 272.685 89.8295C272.973 89.7273 273.221 89.5758 273.429 89.375C273.637 89.1705 273.798 88.9167 273.912 88.6136L275.207 88.9773C275.071 89.4167 274.842 89.803 274.52 90.1364C274.198 90.4659 273.8 90.7235 273.327 90.9091C272.853 91.0909 272.321 91.1818 271.73 91.1818ZM278.724 85.75V91H277.384V82.2727H278.679V83.6364H278.793C278.997 83.1932 279.308 82.8371 279.724 82.5682C280.141 82.2955 280.679 82.1591 281.338 82.1591C281.929 82.1591 282.446 82.2803 282.889 82.5227C283.332 82.7614 283.677 83.125 283.923 83.6136C284.17 84.0985 284.293 84.7121 284.293 85.4545V91H282.952V85.5455C282.952 84.8598 282.774 84.3258 282.418 83.9432C282.062 83.5568 281.573 83.3636 280.952 83.3636C280.524 83.3636 280.141 83.4564 279.804 83.642C279.471 83.8277 279.207 84.0985 279.014 84.4545C278.821 84.8106 278.724 85.2424 278.724 85.75ZM290.538 82.2727V83.4091H286.016V82.2727H290.538ZM287.334 80.1818H288.675V88.5C288.675 88.8788 288.73 89.1629 288.839 89.3523C288.953 89.5379 289.097 89.6629 289.271 89.7273C289.449 89.7879 289.637 89.8182 289.834 89.8182C289.982 89.8182 290.103 89.8106 290.197 89.7955C290.292 89.7765 290.368 89.7614 290.425 89.75L290.697 90.9545C290.607 90.9886 290.48 91.0227 290.317 91.0568C290.154 91.0947 289.947 91.1136 289.697 91.1136C289.319 91.1136 288.947 91.0322 288.584 90.8693C288.224 90.7064 287.925 90.4583 287.686 90.125C287.451 89.7917 287.334 89.3712 287.334 88.8636V80.1818ZM297.237 79.3636H298.919L302.874 89.0227H303.01L306.964 79.3636H308.646V91H307.328V82.1591H307.214L303.578 91H302.305L298.669 82.1591H298.555V91H297.237V79.3636ZM313.858 91.2045C313.305 91.2045 312.803 91.1004 312.352 90.892C311.902 90.6799 311.544 90.375 311.278 89.9773C311.013 89.5758 310.881 89.0909 310.881 88.5227C310.881 88.0227 310.979 87.6174 311.176 87.3068C311.373 86.9924 311.636 86.7462 311.966 86.5682C312.295 86.3902 312.659 86.2576 313.057 86.1705C313.458 86.0795 313.862 86.0076 314.267 85.9545C314.797 85.8864 315.227 85.8352 315.557 85.8011C315.89 85.7633 316.133 85.7008 316.284 85.6136C316.439 85.5265 316.517 85.375 316.517 85.1591V85.1136C316.517 84.553 316.364 84.1174 316.057 83.8068C315.754 83.4962 315.294 83.3409 314.676 83.3409C314.036 83.3409 313.534 83.4811 313.17 83.7614C312.807 84.0417 312.551 84.3409 312.403 84.6591L311.131 84.2045C311.358 83.6742 311.661 83.2614 312.04 82.9659C312.422 82.6667 312.839 82.4583 313.29 82.3409C313.744 82.2197 314.191 82.1591 314.631 82.1591C314.911 82.1591 315.233 82.1932 315.597 82.2614C315.964 82.3258 316.318 82.4602 316.659 82.6648C317.004 82.8693 317.29 83.178 317.517 83.5909C317.744 84.0038 317.858 84.5568 317.858 85.25V91H316.517V89.8182H316.449C316.358 90.0076 316.206 90.2102 315.994 90.4261C315.782 90.642 315.5 90.8258 315.148 90.9773C314.795 91.1288 314.366 91.2045 313.858 91.2045ZM314.062 90C314.593 90 315.04 89.8958 315.403 89.6875C315.771 89.4792 316.047 89.2102 316.233 88.8807C316.422 88.5511 316.517 88.2045 316.517 87.8409V86.6136C316.46 86.6818 316.335 86.7443 316.142 86.8011C315.953 86.8542 315.733 86.9015 315.483 86.9432C315.237 86.9811 314.996 87.0152 314.761 87.0455C314.53 87.072 314.343 87.0947 314.199 87.1136C313.85 87.1591 313.525 87.233 313.222 87.3352C312.922 87.4337 312.68 87.5833 312.494 87.7841C312.313 87.9811 312.222 88.25 312.222 88.5909C312.222 89.0568 312.394 89.4091 312.739 89.6477C313.087 89.8826 313.528 90 314.062 90ZM321.646 85.75V91H320.305V82.2727H321.601V83.6364H321.714C321.919 83.1932 322.23 82.8371 322.646 82.5682C323.063 82.2955 323.601 82.1591 324.26 82.1591C324.851 82.1591 325.368 82.2803 325.811 82.5227C326.254 82.7614 326.599 83.125 326.845 83.6136C327.091 84.0985 327.214 84.7121 327.214 85.4545V91H325.874V85.5455C325.874 84.8598 325.696 84.3258 325.339 83.9432C324.983 83.5568 324.495 83.3636 323.874 83.3636C323.446 83.3636 323.063 83.4564 322.726 83.642C322.393 83.8277 322.129 84.0985 321.936 84.4545C321.743 84.8106 321.646 85.2424 321.646 85.75ZM332.233 91.2045C331.68 91.2045 331.178 91.1004 330.727 90.892C330.277 90.6799 329.919 90.375 329.653 89.9773C329.388 89.5758 329.256 89.0909 329.256 88.5227C329.256 88.0227 329.354 87.6174 329.551 87.3068C329.748 86.9924 330.011 86.7462 330.341 86.5682C330.67 86.3902 331.034 86.2576 331.432 86.1705C331.833 86.0795 332.237 86.0076 332.642 85.9545C333.172 85.8864 333.602 85.8352 333.932 85.8011C334.265 85.7633 334.508 85.7008 334.659 85.6136C334.814 85.5265 334.892 85.375 334.892 85.1591V85.1136C334.892 84.553 334.739 84.1174 334.432 83.8068C334.129 83.4962 333.669 83.3409 333.051 83.3409C332.411 83.3409 331.909 83.4811 331.545 83.7614C331.182 84.0417 330.926 84.3409 330.778 84.6591L329.506 84.2045C329.733 83.6742 330.036 83.2614 330.415 82.9659C330.797 82.6667 331.214 82.4583 331.665 82.3409C332.119 82.2197 332.566 82.1591 333.006 82.1591C333.286 82.1591 333.608 82.1932 333.972 82.2614C334.339 82.3258 334.693 82.4602 335.034 82.6648C335.379 82.8693 335.665 83.178 335.892 83.5909C336.119 84.0038 336.233 84.5568 336.233 85.25V91H334.892V89.8182H334.824C334.733 90.0076 334.581 90.2102 334.369 90.4261C334.157 90.642 333.875 90.8258 333.523 90.9773C333.17 91.1288 332.741 91.2045 332.233 91.2045ZM332.438 90C332.968 90 333.415 89.8958 333.778 89.6875C334.146 89.4792 334.422 89.2102 334.608 88.8807C334.797 88.5511 334.892 88.2045 334.892 87.8409V86.6136C334.835 86.6818 334.71 86.7443 334.517 86.8011C334.328 86.8542 334.108 86.9015 333.858 86.9432C333.612 86.9811 333.371 87.0152 333.136 87.0455C332.905 87.072 332.718 87.0947 332.574 87.1136C332.225 87.1591 331.9 87.233 331.597 87.3352C331.297 87.4337 331.055 87.5833 330.869 87.7841C330.688 87.9811 330.597 88.25 330.597 88.5909C330.597 89.0568 330.769 89.4091 331.114 89.6477C331.462 89.8826 331.903 90 332.438 90ZM342.203 94.4545C341.555 94.4545 340.999 94.3712 340.533 94.2045C340.067 94.0417 339.679 93.8258 339.368 93.5568C339.061 93.2917 338.817 93.0076 338.635 92.7045L339.703 91.9545C339.824 92.1136 339.978 92.2955 340.163 92.5C340.349 92.7083 340.603 92.8883 340.925 93.0398C341.25 93.1951 341.677 93.2727 342.203 93.2727C342.908 93.2727 343.489 93.1023 343.947 92.7614C344.406 92.4205 344.635 91.8864 344.635 91.1591V89.3864H344.521C344.423 89.5455 344.283 89.7424 344.101 89.9773C343.923 90.2083 343.665 90.4148 343.328 90.5966C342.995 90.7746 342.544 90.8636 341.976 90.8636C341.271 90.8636 340.639 90.697 340.078 90.3636C339.521 90.0303 339.08 89.5455 338.754 88.9091C338.432 88.2727 338.271 87.5 338.271 86.5909C338.271 85.697 338.429 84.9186 338.743 84.2557C339.057 83.589 339.495 83.0739 340.055 82.7102C340.616 82.3428 341.264 82.1591 341.999 82.1591C342.567 82.1591 343.018 82.2538 343.351 82.4432C343.688 82.6288 343.946 82.8409 344.124 83.0795C344.305 83.3144 344.446 83.5076 344.544 83.6591H344.68V82.2727H345.976V91.25C345.976 92 345.805 92.6098 345.464 93.0795C345.127 93.553 344.673 93.8996 344.101 94.1193C343.533 94.3428 342.9 94.4545 342.203 94.4545ZM342.158 89.6591C342.696 89.6591 343.15 89.536 343.521 89.2898C343.893 89.0436 344.175 88.6894 344.368 88.2273C344.561 87.7652 344.658 87.2121 344.658 86.5682C344.658 85.9394 344.563 85.3845 344.374 84.9034C344.184 84.4223 343.904 84.0455 343.533 83.7727C343.161 83.5 342.703 83.3636 342.158 83.3636C341.589 83.3636 341.116 83.5076 340.737 83.7955C340.362 84.0833 340.08 84.4697 339.891 84.9545C339.705 85.4394 339.612 85.9773 339.612 86.5682C339.612 87.1742 339.707 87.7102 339.896 88.1761C340.089 88.6383 340.374 89.0019 340.749 89.267C341.127 89.5284 341.597 89.6591 342.158 89.6591ZM352.089 91.1818C351.249 91.1818 350.523 90.9962 349.913 90.625C349.307 90.25 348.839 89.7273 348.51 89.0568C348.184 88.3826 348.021 87.5985 348.021 86.7045C348.021 85.8106 348.184 85.0227 348.51 84.3409C348.839 83.6553 349.298 83.1212 349.885 82.7386C350.476 82.3523 351.165 82.1591 351.953 82.1591C352.408 82.1591 352.857 82.2348 353.3 82.3864C353.743 82.5379 354.146 82.7841 354.51 83.125C354.874 83.4621 355.163 83.9091 355.379 84.4659C355.595 85.0227 355.703 85.7083 355.703 86.5227V87.0909H348.976V85.9318H354.339C354.339 85.4394 354.241 85 354.044 84.6136C353.851 84.2273 353.574 83.9223 353.214 83.6989C352.858 83.4754 352.438 83.3636 351.953 83.3636C351.419 83.3636 350.957 83.4962 350.567 83.7614C350.18 84.0227 349.883 84.3636 349.675 84.7841C349.466 85.2045 349.362 85.6553 349.362 86.1364V86.9091C349.362 87.5682 349.476 88.1269 349.703 88.5852C349.934 89.0398 350.254 89.3864 350.663 89.625C351.072 89.8598 351.548 89.9773 352.089 89.9773C352.442 89.9773 352.76 89.928 353.044 89.8295C353.332 89.7273 353.58 89.5758 353.788 89.375C353.997 89.1705 354.158 88.9167 354.271 88.6136L355.567 88.9773C355.43 89.4167 355.201 89.803 354.879 90.1364C354.557 90.4659 354.16 90.7235 353.686 90.9091C353.213 91.0909 352.68 91.1818 352.089 91.1818ZM357.743 91V82.2727H359.038V83.6364H359.152C359.334 83.1705 359.627 82.8087 360.033 82.5511C360.438 82.2898 360.925 82.1591 361.493 82.1591C362.069 82.1591 362.548 82.2898 362.93 82.5511C363.317 82.8087 363.618 83.1705 363.834 83.6364H363.925C364.148 83.1856 364.483 82.8277 364.93 82.5625C365.377 82.2936 365.913 82.1591 366.538 82.1591C367.319 82.1591 367.957 82.4034 368.453 82.892C368.949 83.3769 369.197 84.1326 369.197 85.1591V91H367.857V85.1591C367.857 84.5152 367.68 84.0549 367.328 83.7784C366.976 83.5019 366.561 83.3636 366.084 83.3636C365.47 83.3636 364.995 83.5492 364.658 83.9205C364.321 84.2879 364.152 84.7538 364.152 85.3182V91H362.788V85.0227C362.788 84.5265 362.627 84.1269 362.305 83.8239C361.983 83.517 361.569 83.3636 361.061 83.3636C360.713 83.3636 360.387 83.4564 360.084 83.642C359.785 83.8277 359.542 84.0852 359.357 84.4148C359.175 84.7405 359.084 85.1174 359.084 85.5455V91H357.743ZM375.308 91.1818C374.467 91.1818 373.742 90.9962 373.132 90.625C372.526 90.25 372.058 89.7273 371.729 89.0568C371.403 88.3826 371.24 87.5985 371.24 86.7045C371.24 85.8106 371.403 85.0227 371.729 84.3409C372.058 83.6553 372.517 83.1212 373.104 82.7386C373.695 82.3523 374.384 82.1591 375.172 82.1591C375.626 82.1591 376.075 82.2348 376.518 82.3864C376.962 82.5379 377.365 82.7841 377.729 83.125C378.092 83.4621 378.382 83.9091 378.598 84.4659C378.814 85.0227 378.922 85.7083 378.922 86.5227V87.0909H372.195V85.9318H377.558C377.558 85.4394 377.46 85 377.263 84.6136C377.07 84.2273 376.793 83.9223 376.433 83.6989C376.077 83.4754 375.657 83.3636 375.172 83.3636C374.638 83.3636 374.176 83.4962 373.786 83.7614C373.399 84.0227 373.102 84.3636 372.893 84.7841C372.685 85.2045 372.581 85.6553 372.581 86.1364V86.9091C372.581 87.5682 372.695 88.1269 372.922 88.5852C373.153 89.0398 373.473 89.3864 373.882 89.625C374.291 89.8598 374.767 89.9773 375.308 89.9773C375.661 89.9773 375.979 89.928 376.263 89.8295C376.551 89.7273 376.799 89.5758 377.007 89.375C377.215 89.1705 377.376 88.9167 377.49 88.6136L378.786 88.9773C378.649 89.4167 378.42 89.803 378.098 90.1364C377.776 90.4659 377.378 90.7235 376.905 90.9091C376.431 91.0909 375.899 91.1818 375.308 91.1818ZM382.303 85.75V91H380.962V82.2727H382.257V83.6364H382.371C382.575 83.1932 382.886 82.8371 383.303 82.5682C383.719 82.2955 384.257 82.1591 384.916 82.1591C385.507 82.1591 386.024 82.2803 386.467 82.5227C386.911 82.7614 387.255 83.125 387.501 83.6136C387.748 84.0985 387.871 84.7121 387.871 85.4545V91H386.53V85.5455C386.53 84.8598 386.352 84.3258 385.996 83.9432C385.64 83.5568 385.151 83.3636 384.53 83.3636C384.102 83.3636 383.719 83.4564 383.382 83.642C383.049 83.8277 382.786 84.0985 382.592 84.4545C382.399 84.8106 382.303 85.2424 382.303 85.75ZM394.116 82.2727V83.4091H389.594V82.2727H394.116ZM390.912 80.1818H392.253V88.5C392.253 88.8788 392.308 89.1629 392.418 89.3523C392.531 89.5379 392.675 89.6629 392.849 89.7273C393.027 89.7879 393.215 89.8182 393.412 89.8182C393.56 89.8182 393.681 89.8106 393.776 89.7955C393.87 89.7765 393.946 89.7614 394.003 89.75L394.276 90.9545C394.185 90.9886 394.058 91.0227 393.895 91.0568C393.732 91.0947 393.526 91.1136 393.276 91.1136C392.897 91.1136 392.526 91.0322 392.162 90.8693C391.802 90.7064 391.503 90.4583 391.264 90.125C391.029 89.7917 390.912 89.3712 390.912 88.8636V80.1818Z" fill="#6A6A6A"/>
<circle cx="25" cy="85" r="25" fill="#F8F5FF"/>
<path d="M23 76H16V83H23V76Z" stroke="black" stroke-width="2" stroke-linecap="round" stroke-linejoin="round"/>
<path d="M34 76H27V83H34V76Z" stroke="black" stroke-width="2" stroke-linecap="round" stroke-linejoin="round"/>
<path d="M34 87H27V94H34V87Z" stroke="black" stroke-width="2" stroke-linecap="round" stroke-linejoin="round"/>
<path d="M23 87H16V94H23V87Z" stroke="black" stroke-width="2" stroke-linecap="round" stroke-linejoin="round"/>
<path d="M62.6522 74C57.9565 79.2 49.2609 75.1667 46 73L48.5 84L47 95C50.913 90.5 63.1957 91.5 64.5 94C65.5435 96 72.2174 103.167 77 106V63C74.1739 64.5 67.3478 68.8 62.6522 74Z" fill="#F8F5FF"/>
<rect x="64" y="120" width="384" height="50" rx="24" fill="#F8F5FF"/>
<path d="M89.598 152V137.455H98.7173V139.344H91.7926V143.776H98.2415V145.658H91.7926V150.111H98.8026V152H89.598ZM101.649 152V137.455H106.833C107.96 137.455 108.895 137.649 109.639 138.037C110.387 138.425 110.946 138.963 111.315 139.649C111.684 140.331 111.869 141.119 111.869 142.014C111.869 142.904 111.682 143.688 111.308 144.365C110.939 145.037 110.38 145.561 109.632 145.935C108.888 146.309 107.953 146.496 106.826 146.496H102.899V144.607H106.627C107.338 144.607 107.915 144.505 108.36 144.301C108.81 144.098 109.139 143.802 109.348 143.413C109.556 143.025 109.66 142.559 109.66 142.014C109.66 141.465 109.554 140.989 109.341 140.587C109.132 140.184 108.803 139.876 108.353 139.663C107.908 139.446 107.324 139.337 106.599 139.337H103.843V152H101.649ZM108.829 145.438L112.423 152H109.923L106.4 145.438H108.829ZM114.539 152V137.455H119.724C120.856 137.455 121.793 137.661 122.537 138.072C123.28 138.484 123.836 139.048 124.206 139.763C124.575 140.473 124.76 141.273 124.76 142.163C124.76 143.058 124.573 143.863 124.199 144.578C123.829 145.288 123.27 145.852 122.522 146.268C121.779 146.68 120.844 146.886 119.717 146.886H116.152V145.026H119.518C120.233 145.026 120.813 144.902 121.258 144.656C121.703 144.405 122.03 144.064 122.238 143.634C122.447 143.203 122.551 142.713 122.551 142.163C122.551 141.614 122.447 141.126 122.238 140.7C122.03 140.274 121.701 139.94 121.251 139.699C120.806 139.457 120.219 139.337 119.49 139.337H116.734V152H114.539Z" fill="black"/>
<path d="M143.409 151V139.364H150.432V140.614H144.818V144.545H150.068V145.795H144.818V149.75H150.523V151H143.409ZM154.131 145.75V151H152.79V142.273H154.085V143.636H154.199C154.403 143.193 154.714 142.837 155.131 142.568C155.547 142.295 156.085 142.159 156.744 142.159C157.335 142.159 157.852 142.28 158.295 142.523C158.739 142.761 159.083 143.125 159.33 143.614C159.576 144.098 159.699 144.712 159.699 145.455V151H158.358V145.545C158.358 144.86 158.18 144.326 157.824 143.943C157.468 143.557 156.979 143.364 156.358 143.364C155.93 143.364 155.547 143.456 155.21 143.642C154.877 143.828 154.614 144.098 154.42 144.455C154.227 144.811 154.131 145.242 154.131 145.75ZM165.945 142.273V143.409H161.422V142.273H165.945ZM162.74 140.182H164.081V148.5C164.081 148.879 164.136 149.163 164.246 149.352C164.359 149.538 164.503 149.663 164.678 149.727C164.856 149.788 165.043 149.818 165.24 149.818C165.388 149.818 165.509 149.811 165.604 149.795C165.698 149.777 165.774 149.761 165.831 149.75L166.104 150.955C166.013 150.989 165.886 151.023 165.723 151.057C165.56 151.095 165.354 151.114 165.104 151.114C164.725 151.114 164.354 151.032 163.99 150.869C163.63 150.706 163.331 150.458 163.092 150.125C162.857 149.792 162.74 149.371 162.74 148.864V140.182ZM171.527 151.182C170.686 151.182 169.961 150.996 169.351 150.625C168.745 150.25 168.277 149.727 167.947 149.057C167.622 148.383 167.459 147.598 167.459 146.705C167.459 145.811 167.622 145.023 167.947 144.341C168.277 143.655 168.735 143.121 169.322 142.739C169.913 142.352 170.603 142.159 171.391 142.159C171.845 142.159 172.294 142.235 172.737 142.386C173.18 142.538 173.584 142.784 173.947 143.125C174.311 143.462 174.601 143.909 174.817 144.466C175.033 145.023 175.141 145.708 175.141 146.523V147.091H168.413V145.932H173.777C173.777 145.439 173.679 145 173.482 144.614C173.288 144.227 173.012 143.922 172.652 143.699C172.296 143.475 171.875 143.364 171.391 143.364C170.857 143.364 170.394 143.496 170.004 143.761C169.618 144.023 169.321 144.364 169.112 144.784C168.904 145.205 168.8 145.655 168.8 146.136V146.909C168.8 147.568 168.913 148.127 169.141 148.585C169.372 149.04 169.692 149.386 170.101 149.625C170.51 149.86 170.985 149.977 171.527 149.977C171.879 149.977 172.197 149.928 172.482 149.83C172.769 149.727 173.018 149.576 173.226 149.375C173.434 149.17 173.595 148.917 173.709 148.614L175.004 148.977C174.868 149.417 174.639 149.803 174.317 150.136C173.995 150.466 173.597 150.723 173.124 150.909C172.65 151.091 172.118 151.182 171.527 151.182ZM177.18 151V142.273H178.476V143.591H178.567C178.726 143.159 179.014 142.809 179.43 142.54C179.847 142.271 180.317 142.136 180.839 142.136C180.938 142.136 181.061 142.138 181.209 142.142C181.357 142.146 181.468 142.152 181.544 142.159V143.523C181.499 143.511 181.394 143.494 181.232 143.472C181.072 143.445 180.904 143.432 180.726 143.432C180.302 143.432 179.923 143.521 179.589 143.699C179.26 143.873 178.999 144.116 178.805 144.426C178.616 144.733 178.521 145.083 178.521 145.477V151H177.18ZM183.134 154.273V142.273H184.429V143.659H184.588C184.687 143.508 184.823 143.314 184.997 143.08C185.175 142.841 185.429 142.629 185.759 142.443C186.092 142.254 186.543 142.159 187.111 142.159C187.846 142.159 188.493 142.343 189.054 142.71C189.615 143.078 190.052 143.598 190.366 144.273C190.681 144.947 190.838 145.742 190.838 146.659C190.838 147.583 190.681 148.384 190.366 149.062C190.052 149.737 189.616 150.259 189.06 150.631C188.503 150.998 187.861 151.182 187.134 151.182C186.573 151.182 186.124 151.089 185.787 150.903C185.45 150.714 185.19 150.5 185.009 150.261C184.827 150.019 184.687 149.818 184.588 149.659H184.474V154.273H183.134ZM184.452 146.636C184.452 147.295 184.548 147.877 184.741 148.381C184.935 148.881 185.217 149.273 185.588 149.557C185.959 149.837 186.414 149.977 186.952 149.977C187.512 149.977 187.98 149.83 188.355 149.534C188.734 149.235 189.018 148.833 189.207 148.33C189.401 147.822 189.497 147.258 189.497 146.636C189.497 146.023 189.402 145.47 189.213 144.977C189.027 144.481 188.745 144.089 188.366 143.801C187.991 143.509 187.52 143.364 186.952 143.364C186.406 143.364 185.948 143.502 185.577 143.778C185.205 144.051 184.925 144.434 184.736 144.926C184.546 145.415 184.452 145.985 184.452 146.636ZM192.884 151V142.273H194.179V143.591H194.27C194.429 143.159 194.717 142.809 195.134 142.54C195.55 142.271 196.02 142.136 196.543 142.136C196.641 142.136 196.764 142.138 196.912 142.142C197.06 142.146 197.171 142.152 197.247 142.159V143.523C197.202 143.511 197.098 143.494 196.935 143.472C196.776 143.445 196.607 143.432 196.429 143.432C196.005 143.432 195.626 143.521 195.293 143.699C194.963 143.873 194.702 144.116 194.509 144.426C194.319 144.733 194.224 145.083 194.224 145.477V151H192.884ZM198.837 151V142.273H200.178V151H198.837ZM199.518 140.818C199.257 140.818 199.032 140.729 198.842 140.551C198.657 140.373 198.564 140.159 198.564 139.909C198.564 139.659 198.657 139.445 198.842 139.267C199.032 139.089 199.257 139 199.518 139C199.78 139 200.003 139.089 200.189 139.267C200.378 139.445 200.473 139.659 200.473 139.909C200.473 140.159 200.378 140.373 200.189 140.551C200.003 140.729 199.78 140.818 199.518 140.818ZM208.815 144.227L207.611 144.568C207.535 144.367 207.423 144.172 207.276 143.983C207.132 143.79 206.935 143.631 206.685 143.506C206.435 143.381 206.115 143.318 205.724 143.318C205.19 143.318 204.745 143.441 204.389 143.688C204.037 143.93 203.861 144.239 203.861 144.614C203.861 144.947 203.982 145.21 204.224 145.403C204.467 145.597 204.846 145.758 205.361 145.886L206.656 146.205C207.437 146.394 208.018 146.684 208.401 147.074C208.783 147.46 208.974 147.958 208.974 148.568C208.974 149.068 208.83 149.515 208.543 149.909C208.259 150.303 207.861 150.614 207.349 150.841C206.838 151.068 206.243 151.182 205.565 151.182C204.675 151.182 203.938 150.989 203.355 150.602C202.772 150.216 202.402 149.652 202.247 148.909L203.52 148.591C203.641 149.061 203.87 149.413 204.207 149.648C204.548 149.883 204.993 150 205.543 150C206.168 150 206.664 149.867 207.031 149.602C207.402 149.333 207.588 149.011 207.588 148.636C207.588 148.333 207.482 148.08 207.27 147.875C207.058 147.667 206.732 147.511 206.293 147.409L204.838 147.068C204.039 146.879 203.452 146.585 203.077 146.188C202.705 145.786 202.52 145.284 202.52 144.682C202.52 144.189 202.658 143.754 202.935 143.375C203.215 142.996 203.596 142.699 204.077 142.483C204.562 142.267 205.111 142.159 205.724 142.159C206.588 142.159 207.266 142.348 207.759 142.727C208.255 143.106 208.607 143.606 208.815 144.227ZM214.652 151.182C213.811 151.182 213.086 150.996 212.476 150.625C211.87 150.25 211.402 149.727 211.072 149.057C210.747 148.383 210.584 147.598 210.584 146.705C210.584 145.811 210.747 145.023 211.072 144.341C211.402 143.655 211.86 143.121 212.447 142.739C213.038 142.352 213.728 142.159 214.516 142.159C214.97 142.159 215.419 142.235 215.862 142.386C216.305 142.538 216.709 142.784 217.072 143.125C217.436 143.462 217.726 143.909 217.942 144.466C218.158 145.023 218.266 145.708 218.266 146.523V147.091H211.538V145.932H216.902C216.902 145.439 216.804 145 216.607 144.614C216.413 144.227 216.137 143.922 215.777 143.699C215.421 143.475 215 143.364 214.516 143.364C213.982 143.364 213.519 143.496 213.129 143.761C212.743 144.023 212.446 144.364 212.237 144.784C212.029 145.205 211.925 145.655 211.925 146.136V146.909C211.925 147.568 212.038 148.127 212.266 148.585C212.497 149.04 212.817 149.386 213.226 149.625C213.635 149.86 214.11 149.977 214.652 149.977C215.004 149.977 215.322 149.928 215.607 149.83C215.894 149.727 216.143 149.576 216.351 149.375C216.559 149.17 216.72 148.917 216.834 148.614L218.129 148.977C217.993 149.417 217.764 149.803 217.442 150.136C217.12 150.466 216.722 150.723 216.249 150.909C215.775 151.091 215.243 151.182 214.652 151.182ZM224.987 151V139.364H228.919C229.828 139.364 230.574 139.519 231.158 139.83C231.741 140.136 232.173 140.559 232.453 141.097C232.733 141.634 232.874 142.246 232.874 142.932C232.874 143.617 232.733 144.225 232.453 144.756C232.173 145.286 231.743 145.703 231.163 146.006C230.584 146.305 229.843 146.455 228.942 146.455H225.76V145.182H228.896C229.518 145.182 230.018 145.091 230.396 144.909C230.779 144.727 231.055 144.47 231.226 144.136C231.4 143.799 231.487 143.398 231.487 142.932C231.487 142.466 231.4 142.059 231.226 141.71C231.052 141.362 230.773 141.093 230.391 140.903C230.008 140.71 229.502 140.614 228.874 140.614H226.396V151H224.987ZM230.464 145.773L233.328 151H231.692L228.874 145.773H230.464ZM238.605 151.182C237.764 151.182 237.039 150.996 236.429 150.625C235.823 150.25 235.355 149.727 235.026 149.057C234.7 148.383 234.537 147.598 234.537 146.705C234.537 145.811 234.7 145.023 235.026 144.341C235.355 143.655 235.813 143.121 236.401 142.739C236.991 142.352 237.681 142.159 238.469 142.159C238.923 142.159 239.372 142.235 239.815 142.386C240.259 142.538 240.662 142.784 241.026 143.125C241.389 143.462 241.679 143.909 241.895 144.466C242.111 145.023 242.219 145.708 242.219 146.523V147.091H235.491V145.932H240.855C240.855 145.439 240.757 145 240.56 144.614C240.366 144.227 240.09 143.922 239.73 143.699C239.374 143.475 238.954 143.364 238.469 143.364C237.935 143.364 237.473 143.496 237.082 143.761C236.696 144.023 236.399 144.364 236.19 144.784C235.982 145.205 235.878 145.655 235.878 146.136V146.909C235.878 147.568 235.991 148.127 236.219 148.585C236.45 149.04 236.77 149.386 237.179 149.625C237.588 149.86 238.063 149.977 238.605 149.977C238.957 149.977 239.276 149.928 239.56 149.83C239.848 149.727 240.096 149.576 240.304 149.375C240.512 149.17 240.673 148.917 240.787 148.614L242.082 148.977C241.946 149.417 241.717 149.803 241.395 150.136C241.073 150.466 240.675 150.723 240.202 150.909C239.728 151.091 239.196 151.182 238.605 151.182ZM250.44 144.227L249.236 144.568C249.16 144.367 249.048 144.172 248.901 143.983C248.757 143.79 248.56 143.631 248.31 143.506C248.06 143.381 247.74 143.318 247.349 143.318C246.815 143.318 246.37 143.441 246.014 143.688C245.662 143.93 245.486 144.239 245.486 144.614C245.486 144.947 245.607 145.21 245.849 145.403C246.092 145.597 246.471 145.758 246.986 145.886L248.281 146.205C249.062 146.394 249.643 146.684 250.026 147.074C250.408 147.46 250.599 147.958 250.599 148.568C250.599 149.068 250.455 149.515 250.168 149.909C249.884 150.303 249.486 150.614 248.974 150.841C248.463 151.068 247.868 151.182 247.19 151.182C246.3 151.182 245.563 150.989 244.98 150.602C244.397 150.216 244.027 149.652 243.872 148.909L245.145 148.591C245.266 149.061 245.495 149.413 245.832 149.648C246.173 149.883 246.618 150 247.168 150C247.793 150 248.289 149.867 248.656 149.602C249.027 149.333 249.213 149.011 249.213 148.636C249.213 148.333 249.107 148.08 248.895 147.875C248.683 147.667 248.357 147.511 247.918 147.409L246.463 147.068C245.664 146.879 245.077 146.585 244.702 146.188C244.33 145.786 244.145 145.284 244.145 144.682C244.145 144.189 244.283 143.754 244.56 143.375C244.84 142.996 245.221 142.699 245.702 142.483C246.187 142.267 246.736 142.159 247.349 142.159C248.213 142.159 248.891 142.348 249.384 142.727C249.88 143.106 250.232 143.606 250.44 144.227ZM256.163 151.182C255.375 151.182 254.684 150.994 254.089 150.619C253.499 150.244 253.036 149.72 252.703 149.045C252.374 148.371 252.209 147.583 252.209 146.682C252.209 145.773 252.374 144.979 252.703 144.301C253.036 143.623 253.499 143.097 254.089 142.722C254.684 142.347 255.375 142.159 256.163 142.159C256.951 142.159 257.641 142.347 258.232 142.722C258.826 143.097 259.288 143.623 259.618 144.301C259.951 144.979 260.118 145.773 260.118 146.682C260.118 147.583 259.951 148.371 259.618 149.045C259.288 149.72 258.826 150.244 258.232 150.619C257.641 150.994 256.951 151.182 256.163 151.182ZM256.163 149.977C256.762 149.977 257.254 149.824 257.641 149.517C258.027 149.21 258.313 148.807 258.499 148.307C258.684 147.807 258.777 147.265 258.777 146.682C258.777 146.098 258.684 145.555 258.499 145.051C258.313 144.547 258.027 144.14 257.641 143.83C257.254 143.519 256.762 143.364 256.163 143.364C255.565 143.364 255.072 143.519 254.686 143.83C254.3 144.14 254.014 144.547 253.828 145.051C253.643 145.555 253.55 146.098 253.55 146.682C253.55 147.265 253.643 147.807 253.828 148.307C254.014 148.807 254.3 149.21 254.686 149.517C255.072 149.824 255.565 149.977 256.163 149.977ZM267.665 147.432V142.273H269.006V151H267.665V149.523H267.574C267.369 149.966 267.051 150.343 266.619 150.653C266.188 150.96 265.642 151.114 264.983 151.114C264.438 151.114 263.953 150.994 263.528 150.756C263.104 150.513 262.771 150.15 262.528 149.665C262.286 149.176 262.165 148.561 262.165 147.818V142.273H263.506V147.727C263.506 148.364 263.684 148.871 264.04 149.25C264.4 149.629 264.858 149.818 265.415 149.818C265.748 149.818 266.087 149.733 266.432 149.562C266.78 149.392 267.072 149.131 267.307 148.778C267.545 148.426 267.665 147.977 267.665 147.432ZM271.462 151V142.273H272.757V143.591H272.848C273.007 143.159 273.295 142.809 273.712 142.54C274.128 142.271 274.598 142.136 275.121 142.136C275.219 142.136 275.342 142.138 275.49 142.142C275.638 142.146 275.75 142.152 275.825 142.159V143.523C275.78 143.511 275.676 143.494 275.513 143.472C275.354 143.445 275.185 143.432 275.007 143.432C274.583 143.432 274.204 143.521 273.871 143.699C273.541 143.873 273.28 144.116 273.087 144.426C272.897 144.733 272.803 145.083 272.803 145.477V151H271.462ZM280.695 151.182C279.876 151.182 279.172 150.989 278.581 150.602C277.99 150.216 277.536 149.684 277.217 149.006C276.899 148.328 276.74 147.553 276.74 146.682C276.74 145.795 276.903 145.013 277.229 144.335C277.558 143.653 278.017 143.121 278.604 142.739C279.195 142.352 279.884 142.159 280.672 142.159C281.286 142.159 281.839 142.273 282.331 142.5C282.823 142.727 283.227 143.045 283.541 143.455C283.856 143.864 284.051 144.341 284.126 144.886H282.786C282.683 144.489 282.456 144.136 282.104 143.83C281.755 143.519 281.286 143.364 280.695 143.364C280.172 143.364 279.714 143.5 279.32 143.773C278.929 144.042 278.625 144.422 278.405 144.915C278.189 145.403 278.081 145.977 278.081 146.636C278.081 147.311 278.187 147.898 278.399 148.398C278.615 148.898 278.918 149.286 279.308 149.562C279.702 149.839 280.164 149.977 280.695 149.977C281.043 149.977 281.359 149.917 281.643 149.795C281.928 149.674 282.168 149.5 282.365 149.273C282.562 149.045 282.702 148.773 282.786 148.455H284.126C284.051 148.97 283.863 149.434 283.564 149.847C283.268 150.256 282.876 150.581 282.388 150.824C281.903 151.062 281.339 151.182 280.695 151.182ZM289.746 151.182C288.905 151.182 288.179 150.996 287.57 150.625C286.964 150.25 286.496 149.727 286.166 149.057C285.84 148.383 285.678 147.598 285.678 146.705C285.678 145.811 285.84 145.023 286.166 144.341C286.496 143.655 286.954 143.121 287.541 142.739C288.132 142.352 288.821 142.159 289.609 142.159C290.064 142.159 290.513 142.235 290.956 142.386C291.399 142.538 291.803 142.784 292.166 143.125C292.53 143.462 292.82 143.909 293.036 144.466C293.251 145.023 293.359 145.708 293.359 146.523V147.091H286.632V145.932H291.996C291.996 145.439 291.897 145 291.7 144.614C291.507 144.227 291.231 143.922 290.871 143.699C290.515 143.475 290.094 143.364 289.609 143.364C289.075 143.364 288.613 143.496 288.223 143.761C287.837 144.023 287.539 144.364 287.331 144.784C287.123 145.205 287.018 145.655 287.018 146.136V146.909C287.018 147.568 287.132 148.127 287.359 148.585C287.59 149.04 287.911 149.386 288.32 149.625C288.729 149.86 289.204 149.977 289.746 149.977C290.098 149.977 290.416 149.928 290.7 149.83C290.988 149.727 291.236 149.576 291.445 149.375C291.653 149.17 291.814 148.917 291.928 148.614L293.223 148.977C293.087 149.417 292.857 149.803 292.536 150.136C292.214 150.466 291.816 150.723 291.342 150.909C290.869 151.091 290.337 151.182 289.746 151.182ZM300.081 151V139.364H304.013C304.926 139.364 305.672 139.528 306.251 139.858C306.835 140.184 307.267 140.625 307.547 141.182C307.827 141.739 307.967 142.36 307.967 143.045C307.967 143.731 307.827 144.354 307.547 144.915C307.27 145.475 306.842 145.922 306.263 146.256C305.683 146.585 304.941 146.75 304.036 146.75H301.217V145.5H303.99C304.615 145.5 305.117 145.392 305.496 145.176C305.875 144.96 306.149 144.669 306.32 144.301C306.494 143.93 306.581 143.511 306.581 143.045C306.581 142.58 306.494 142.163 306.32 141.795C306.149 141.428 305.873 141.14 305.49 140.932C305.107 140.72 304.6 140.614 303.967 140.614H301.49V151H300.081ZM311.396 139.364V151H310.055V139.364H311.396ZM316.42 151.205C315.867 151.205 315.366 151.1 314.915 150.892C314.464 150.68 314.106 150.375 313.841 149.977C313.576 149.576 313.443 149.091 313.443 148.523C313.443 148.023 313.542 147.617 313.739 147.307C313.936 146.992 314.199 146.746 314.528 146.568C314.858 146.39 315.222 146.258 315.619 146.17C316.021 146.08 316.424 146.008 316.83 145.955C317.36 145.886 317.79 145.835 318.119 145.801C318.453 145.763 318.695 145.701 318.847 145.614C319.002 145.527 319.08 145.375 319.08 145.159V145.114C319.08 144.553 318.926 144.117 318.619 143.807C318.316 143.496 317.856 143.341 317.239 143.341C316.598 143.341 316.097 143.481 315.733 143.761C315.369 144.042 315.114 144.341 314.966 144.659L313.693 144.205C313.92 143.674 314.223 143.261 314.602 142.966C314.985 142.667 315.402 142.458 315.852 142.341C316.307 142.22 316.754 142.159 317.193 142.159C317.473 142.159 317.795 142.193 318.159 142.261C318.527 142.326 318.881 142.46 319.222 142.665C319.566 142.869 319.852 143.178 320.08 143.591C320.307 144.004 320.42 144.557 320.42 145.25V151H319.08V149.818H319.011C318.92 150.008 318.769 150.21 318.557 150.426C318.345 150.642 318.063 150.826 317.71 150.977C317.358 151.129 316.928 151.205 316.42 151.205ZM316.625 150C317.155 150 317.602 149.896 317.966 149.688C318.333 149.479 318.61 149.21 318.795 148.881C318.985 148.551 319.08 148.205 319.08 147.841V146.614C319.023 146.682 318.898 146.744 318.705 146.801C318.515 146.854 318.295 146.902 318.045 146.943C317.799 146.981 317.559 147.015 317.324 147.045C317.093 147.072 316.905 147.095 316.761 147.114C316.413 147.159 316.087 147.233 315.784 147.335C315.485 147.434 315.242 147.583 315.057 147.784C314.875 147.981 314.784 148.25 314.784 148.591C314.784 149.057 314.956 149.409 315.301 149.648C315.65 149.883 316.091 150 316.625 150ZM324.209 145.75V151H322.868V142.273H324.163V143.636H324.277C324.482 143.193 324.792 142.837 325.209 142.568C325.625 142.295 326.163 142.159 326.822 142.159C327.413 142.159 327.93 142.28 328.374 142.523C328.817 142.761 329.161 143.125 329.408 143.614C329.654 144.098 329.777 144.712 329.777 145.455V151H328.436V145.545C328.436 144.86 328.258 144.326 327.902 143.943C327.546 143.557 327.057 143.364 326.436 143.364C326.008 143.364 325.625 143.456 325.288 143.642C324.955 143.828 324.692 144.098 324.499 144.455C324.305 144.811 324.209 145.242 324.209 145.75ZM333.568 145.75V151H332.227V142.273H333.523V143.636H333.636C333.841 143.193 334.152 142.837 334.568 142.568C334.985 142.295 335.523 142.159 336.182 142.159C336.773 142.159 337.29 142.28 337.733 142.523C338.176 142.761 338.521 143.125 338.767 143.614C339.013 144.098 339.136 144.712 339.136 145.455V151H337.795V145.545C337.795 144.86 337.617 144.326 337.261 143.943C336.905 143.557 336.417 143.364 335.795 143.364C335.367 143.364 334.985 143.456 334.648 143.642C334.314 143.828 334.051 144.098 333.858 144.455C333.665 144.811 333.568 145.242 333.568 145.75ZM341.587 151V142.273H342.928V151H341.587ZM342.268 140.818C342.007 140.818 341.782 140.729 341.592 140.551C341.407 140.373 341.314 140.159 341.314 139.909C341.314 139.659 341.407 139.445 341.592 139.267C341.782 139.089 342.007 139 342.268 139C342.53 139 342.753 139.089 342.939 139.267C343.128 139.445 343.223 139.659 343.223 139.909C343.223 140.159 343.128 140.373 342.939 140.551C342.753 140.729 342.53 140.818 342.268 140.818ZM346.724 145.75V151H345.384V142.273H346.679V143.636H346.793C346.997 143.193 347.308 142.837 347.724 142.568C348.141 142.295 348.679 142.159 349.338 142.159C349.929 142.159 350.446 142.28 350.889 142.523C351.332 142.761 351.677 143.125 351.923 143.614C352.17 144.098 352.293 144.712 352.293 145.455V151H350.952V145.545C350.952 144.86 350.774 144.326 350.418 143.943C350.062 143.557 349.573 143.364 348.952 143.364C348.524 143.364 348.141 143.456 347.804 143.642C347.471 143.828 347.207 144.098 347.014 144.455C346.821 144.811 346.724 145.242 346.724 145.75ZM358.266 154.455C357.618 154.455 357.061 154.371 356.595 154.205C356.129 154.042 355.741 153.826 355.43 153.557C355.124 153.292 354.879 153.008 354.697 152.705L355.766 151.955C355.887 152.114 356.04 152.295 356.226 152.5C356.411 152.708 356.665 152.888 356.987 153.04C357.313 153.195 357.739 153.273 358.266 153.273C358.97 153.273 359.552 153.102 360.01 152.761C360.468 152.42 360.697 151.886 360.697 151.159V149.386H360.584C360.485 149.545 360.345 149.742 360.163 149.977C359.985 150.208 359.728 150.415 359.391 150.597C359.057 150.775 358.607 150.864 358.038 150.864C357.334 150.864 356.701 150.697 356.141 150.364C355.584 150.03 355.143 149.545 354.817 148.909C354.495 148.273 354.334 147.5 354.334 146.591C354.334 145.697 354.491 144.919 354.805 144.256C355.12 143.589 355.557 143.074 356.118 142.71C356.679 142.343 357.326 142.159 358.061 142.159C358.629 142.159 359.08 142.254 359.413 142.443C359.75 142.629 360.008 142.841 360.186 143.08C360.368 143.314 360.508 143.508 360.607 143.659H360.743V142.273H362.038V151.25C362.038 152 361.868 152.61 361.527 153.08C361.19 153.553 360.735 153.9 360.163 154.119C359.595 154.343 358.963 154.455 358.266 154.455ZM358.22 149.659C358.758 149.659 359.213 149.536 359.584 149.29C359.955 149.044 360.237 148.689 360.43 148.227C360.624 147.765 360.72 147.212 360.72 146.568C360.72 145.939 360.625 145.384 360.436 144.903C360.247 144.422 359.966 144.045 359.595 143.773C359.224 143.5 358.766 143.364 358.22 143.364C357.652 143.364 357.179 143.508 356.8 143.795C356.425 144.083 356.143 144.47 355.953 144.955C355.768 145.439 355.675 145.977 355.675 146.568C355.675 147.174 355.769 147.71 355.959 148.176C356.152 148.638 356.436 149.002 356.811 149.267C357.19 149.528 357.66 149.659 358.22 149.659Z" fill="#6A6A6A"/>
<circle cx="25" cy="145" r="25" fill="#F8F5FF"/>
<path d="M30.8794 136.046C30.0837 136.046 29.3207 136.362 28.7581 136.925C28.1955 137.487 27.8794 138.25 27.8794 139.046V151.046C27.8794 151.842 28.1955 152.605 28.7581 153.167C29.3207 153.73 30.0837 154.046 30.8794 154.046C31.675 154.046 32.4381 153.73 33.0007 153.167C33.5633 152.605 33.8794 151.842 33.8794 151.046C33.8794 150.25 33.5633 149.487 33.0007 148.925C32.4381 148.362 31.675 148.046 30.8794 148.046H18.8794C18.0837 148.046 17.3207 148.362 16.7581 148.925C16.1955 149.487 15.8794 150.25 15.8794 151.046C15.8794 151.842 16.1955 152.605 16.7581 153.167C17.3207 153.73 18.0837 154.046 18.8794 154.046C19.675 154.046 20.4381 153.73 21.0007 153.167C21.5633 152.605 21.8794 151.842 21.8794 151.046V139.046C21.8794 138.25 21.5633 137.487 21.0007 136.925C20.4381 136.362 19.675 136.046 18.8794 136.046C18.0837 136.046 17.3207 136.362 16.7581 136.925C16.1955 137.487 15.8794 138.25 15.8794 139.046C15.8794 139.842 16.1955 140.605 16.7581 141.167C17.3207 141.73 18.0837 142.046 18.8794 142.046H30.8794C31.675 142.046 32.4381 141.73 33.0007 141.167C33.5633 140.605 33.8794 139.842 33.8794 139.046C33.8794 138.25 33.5633 137.487 33.0007 136.925C32.4381 136.362 31.675 136.046 30.8794 136.046Z" stroke="black" stroke-width="2" stroke-linecap="round" stroke-linejoin="round"/>
<path d="M62.6522 134C57.9565 139.2 49.2609 135.167 46 133L48.5 144L47 155C50.913 150.5 63.1957 151.5 64.5 154C65.5435 156 72.2174 163.167 77 166V123C74.1739 124.5 67.3478 128.8 62.6522 134Z" fill="#F8F5FF"/>
</svg>
