<svg width="409" height="453" viewBox="0 0 409 453" fill="none" xmlns="http://www.w3.org/2000/svg">
<path d="M47.777 361.232C23.0487 361.232 3 381.28 3 406.009C3 430.737 23.0487 450.785 47.777 450.785M47.777 361.232C72.5052 361.232 92.5535 381.28 92.5535 406.009C92.5535 430.737 72.5052 450.785 47.777 450.785M47.777 361.232L271.669 361.231C296.389 361.231 316.446 341.166 316.446 316.446C316.446 291.735 296.389 271.669 271.669 271.669H137.33C100.255 271.669 66.6725 256.629 42.3566 232.313C18.0493 207.997 3 174.414 3 137.339C3 63.1373 63.1373 3 137.33 3H361.223M47.777 450.785H271.668C345.862 450.785 405.999 390.648 405.999 316.447C405.999 279.371 390.958 245.788 366.642 221.473C342.326 197.165 308.744 182.116 271.668 182.116H137.33C112.618 182.116 92.5529 162.059 92.5529 137.339C92.5529 112.62 112.618 92.5627 137.33 92.5627H361.222M406 47.7788C406 72.5154 385.951 92.564 361.223 92.564C336.495 92.564 316.447 72.5154 316.447 47.7788C316.447 23.0506 336.495 3.00184 361.223 3.00184C385.951 3.00184 406 23.0506 406 47.7788Z" stroke="#100F0D" stroke-width="4.20834" stroke-miterlimit="10"/>
</svg>
