<svg width="449" height="472" viewBox="0 0 449 472" fill="none" xmlns="http://www.w3.org/2000/svg">
<path d="M287.575 3L151.918 229.1C100.384 314.938 141.152 419.814 224.507 455.824C243.491 464.045 264.711 468.653 287.575 468.653C380.092 468.653 446 392.652 446 310.124C446 283.008 438.861 255.176 423.243 229.1L287.575 3ZM287.575 3H161.439L25.7716 229.1C-37.4522 334.494 38.4534 468.653 161.439 468.653H290.785M348.242 309.752C348.242 276.23 321.07 249.056 287.547 249.056C254.024 249.056 226.851 276.23 226.851 309.752C226.851 343.285 254.024 370.458 287.547 370.458C321.07 370.458 348.242 343.285 348.242 309.752Z" stroke="#FAFCFF" stroke-width="4.86263" stroke-miterlimit="10"/>
<circle cx="287" cy="310" r="48" fill="#EEE6FF"/>
</svg>
